<svg width="18" height="18" viewBox="0 0 18 18" fill="none" xmlns="http://www.w3.org/2000/svg">
<path d="M17.8396 7.38795C17.8205 7.28436 17.7613 7.19251 17.6748 7.13241C17.5883 7.0723 17.4816 7.04882 17.3778 7.06708C17.2763 7.08611 17.1864 7.1445 17.1278 7.22953C17.0691 7.31456 17.0465 7.41933 17.0648 7.52099C17.1521 8.00922 17.1966 8.50414 17.1978 9.00011C17.1978 9.10389 17.239 9.20342 17.3124 9.2768C17.3858 9.35018 17.4853 9.39141 17.5891 9.39141C17.6929 9.39141 17.7924 9.35018 17.8658 9.2768C17.9392 9.20342 17.9804 9.10389 17.9804 9.00011C17.9809 8.45963 17.9337 7.92016 17.8396 7.38795Z" fill="#4F008D"/>
<path d="M12.8591 16.2469C12.5476 16.412 12.2265 16.5584 11.8976 16.6852C11.7939 16.7039 11.7019 16.763 11.6418 16.8496C11.5817 16.9362 11.5584 17.0431 11.5771 17.1469C11.5957 17.2507 11.6548 17.3428 11.7413 17.403C11.8278 17.4632 11.9346 17.4865 12.0383 17.4678C12.0849 17.4753 12.1324 17.4753 12.179 17.4678C12.5388 17.3301 12.8887 17.1679 13.2265 16.9826C13.2715 16.9588 13.3113 16.9262 13.3436 16.8869C13.3758 16.8475 13.4 16.8021 13.4145 16.7532C13.4291 16.7044 13.4338 16.6532 13.4283 16.6025C13.4229 16.5519 13.4074 16.5028 13.3828 16.4582C13.3642 16.4085 13.3354 16.3631 13.2983 16.3251C13.2612 16.287 13.2166 16.2571 13.1674 16.2373C13.1181 16.2174 13.0653 16.208 13.0122 16.2097C12.9591 16.2113 12.907 16.224 12.8591 16.2469Z" fill="#4F008D"/>
<path d="M15.4387 14.087C15.1989 14.3849 14.9376 14.6648 14.657 14.9244C14.6007 14.9787 14.562 15.0486 14.5458 15.1251C14.5296 15.2016 14.5367 15.2812 14.5662 15.3537C14.5956 15.4261 14.6461 15.4881 14.711 15.5315C14.776 15.575 14.8525 15.5979 14.9306 15.5975C14.9811 15.5982 15.0314 15.5889 15.0783 15.5701C15.1253 15.5513 15.168 15.5233 15.2042 15.4879C15.5026 15.2036 15.7796 14.8976 16.0328 14.5723C16.0699 14.5328 16.0985 14.4862 16.1167 14.4351C16.1349 14.3841 16.1423 14.3298 16.1384 14.2758C16.1346 14.2217 16.1195 14.1691 16.0943 14.1211C16.069 14.0732 16.0341 14.0311 15.9918 13.9973C15.9494 13.9636 15.9005 13.9391 15.8481 13.9253C15.7958 13.9115 15.7412 13.9087 15.6877 13.9171C15.6343 13.9256 15.5831 13.945 15.5376 13.9743C15.492 14.0035 15.453 14.0419 15.423 14.087H15.4387Z" fill="#4F008D"/>
<path d="M17.3696 10.9566C17.3203 10.9422 17.2687 10.9377 17.2177 10.9432C17.1666 10.9488 17.1172 10.9644 17.0722 10.9891C17.0272 11.0138 16.9875 11.0472 16.9554 11.0872C16.9232 11.1273 16.8993 11.1733 16.8849 11.2227C16.7816 11.5944 16.651 11.958 16.4941 12.3105C16.4721 12.3571 16.4596 12.4077 16.4576 12.4592C16.4555 12.5107 16.4639 12.5621 16.4821 12.6103C16.5004 12.6585 16.5281 12.7026 16.5638 12.7398C16.5994 12.777 16.6422 12.8067 16.6895 12.827C16.741 12.838 16.7943 12.838 16.8458 12.827C16.9221 12.8273 16.9968 12.8052 17.0607 12.7634C17.1246 12.7217 17.1749 12.6622 17.2054 12.5922C17.3787 12.2099 17.5224 11.8148 17.6354 11.4105C17.6554 11.3153 17.6392 11.216 17.5901 11.1321C17.5409 11.0482 17.4623 10.9856 17.3696 10.9566Z" fill="#4F008D"/>
<path d="M16.8067 5.47837H16.8614C16.9175 5.46912 16.9708 5.44776 17.0178 5.41577H17.0569C17.116 5.36029 17.1638 5.29384 17.1976 5.22012L17.9793 2.87231C17.9962 2.82092 18.0029 2.7667 17.9989 2.71274C17.9949 2.65877 17.9803 2.60612 17.956 2.5578C17.9317 2.50947 17.8981 2.46641 17.8572 2.43108C17.8162 2.39575 17.7687 2.36884 17.7174 2.35188C17.6661 2.33492 17.6119 2.32825 17.558 2.33225C17.5041 2.33625 17.4515 2.35084 17.4032 2.37518C17.355 2.39953 17.312 2.43315 17.2767 2.47414C17.2414 2.51512 17.2145 2.56267 17.1976 2.61405L16.6895 4.12447C15.8508 2.84929 14.7071 1.8041 13.3625 1.08383C12.0178 0.363571 10.5147 -0.00893237 8.98963 0.000162635C6.60543 0.000162635 4.31889 0.948365 2.633 2.63618C0.947119 4.32399 0 6.61315 0 9.00008C0 11.387 0.947119 13.6762 2.633 15.364C4.31889 17.0518 6.60543 18 8.98963 18C9.35009 17.9989 9.71022 17.978 10.0684 17.9374C10.1715 17.9237 10.2652 17.8702 10.3294 17.7883C10.3937 17.7064 10.4234 17.6027 10.4123 17.4991C10.4066 17.4479 10.3906 17.3983 10.3653 17.3534C10.34 17.3084 10.3058 17.2691 10.265 17.2377C10.2241 17.2062 10.1773 17.1834 10.1274 17.1705C10.0775 17.1576 10.0255 17.1549 9.97459 17.1626C9.65409 17.1626 9.31795 17.2174 8.98963 17.2174C6.81276 17.2174 4.72504 16.3516 3.18575 14.8106C1.64647 13.2696 0.781707 11.1794 0.781707 9.00008C0.781707 6.82071 1.64647 4.73061 3.18575 3.18956C4.72504 1.64851 6.81276 0.782764 8.98963 0.782764C10.4131 0.769701 11.8161 1.12262 13.0643 1.80775C14.3126 2.49287 15.3643 3.48727 16.1188 4.69577H14.4616C14.4094 4.69231 14.357 4.70006 14.308 4.71851C14.259 4.73695 14.2145 4.76565 14.1775 4.8027C14.1405 4.83975 14.1119 4.88429 14.0934 4.93333C14.075 4.98237 14.0673 5.03479 14.0707 5.08707C14.0707 5.19085 14.1119 5.29038 14.1852 5.36376C14.2585 5.43715 14.3579 5.47837 14.4616 5.47837H16.8067Z" fill="#4F008D"/>
<path d="M7.03555 8.21733C6.86357 8.3895 6.63687 8.6008 6.34764 8.84341L4.50281 10.659C4.43429 10.7165 4.37612 10.7853 4.33084 10.8625C4.30267 10.9157 4.28665 10.9745 4.28394 11.0347V11.3086C4.28588 11.3619 4.30791 11.4126 4.34561 11.4503C4.38332 11.4881 4.43389 11.5101 4.48718 11.5121H8.25501C8.28272 11.5123 8.31019 11.5069 8.33573 11.4961C8.36128 11.4854 8.38435 11.4695 8.40353 11.4495C8.42325 11.4321 8.43851 11.4102 8.44803 11.3857C8.45755 11.3612 8.46106 11.3348 8.45825 11.3086V10.9564C8.46106 10.9303 8.45755 10.9038 8.44803 10.8793C8.43851 10.8548 8.42325 10.8329 8.40353 10.8156C8.36221 10.78 8.30948 10.7606 8.25501 10.7608H5.58939L7.23097 9.09384C7.44694 8.90893 7.64818 8.70745 7.83289 8.49124C7.9867 8.3084 8.1107 8.10239 8.20029 7.88081C8.29007 7.66243 8.33525 7.42826 8.33318 7.19212C8.33554 6.88798 8.26589 6.5876 8.12994 6.3156C7.9855 6.04012 7.76234 5.81397 7.48894 5.66605C7.14609 5.49049 6.76364 5.40691 6.37891 5.42344C6.08144 5.41751 5.78597 5.47348 5.51122 5.58779C5.27664 5.68476 5.06593 5.83163 4.89367 6.01822C4.72793 6.18915 4.59774 6.39131 4.51063 6.61299C4.42664 6.82249 4.37905 7.04482 4.36992 7.27038C4.37062 7.29264 4.37584 7.31452 4.38524 7.3347C4.39465 7.35488 4.40805 7.37293 4.42464 7.38777C4.45876 7.41892 4.50355 7.43573 4.54972 7.43473H4.99529C5.04317 7.43215 5.08929 7.41585 5.12818 7.38777C5.15356 7.37118 5.17508 7.34932 5.19127 7.32366C5.20745 7.298 5.21793 7.26915 5.22198 7.23908C5.24899 7.04368 5.31264 6.85515 5.40959 6.68343C5.49757 6.52122 5.63061 6.38803 5.79263 6.29995C5.97232 6.20229 6.17452 6.15371 6.37891 6.15908C6.52202 6.15169 6.66513 6.17355 6.79953 6.22333C6.93392 6.27311 7.05678 6.34978 7.16062 6.44865C7.25735 6.55337 7.33155 6.67687 7.37862 6.8115C7.42568 6.94612 7.44461 7.089 7.43422 7.23125C7.43515 7.4009 7.40053 7.56886 7.33259 7.72429C7.25937 7.90289 7.15918 8.06917 7.03555 8.21733Z" fill="#4F008D"/>
<path d="M13.6252 9.33644H12.8434V5.713C12.8446 5.687 12.8403 5.66106 12.8309 5.63681C12.8214 5.61256 12.8071 5.59053 12.7887 5.57213C12.7706 5.55333 12.7487 5.53869 12.7244 5.52923C12.7001 5.51978 12.674 5.51572 12.648 5.51735H12.0383C11.9786 5.51291 11.9187 5.52347 11.8641 5.54807C11.8095 5.57266 11.7619 5.61053 11.7256 5.65821L9.16161 9.28166C9.13025 9.32707 9.10649 9.3773 9.09125 9.43035C9.08612 9.4667 9.08612 9.50358 9.09125 9.53992V9.88426C9.09013 9.91026 9.09441 9.9362 9.10383 9.96045C9.11325 9.9847 9.1276 10.0067 9.14597 10.0251C9.18524 10.059 9.2349 10.0783 9.28668 10.0799H12.0539V11.3086C12.0533 11.3345 12.0578 11.3604 12.0671 11.3845C12.0765 11.4087 12.0906 11.4308 12.1086 11.4495C12.1278 11.4695 12.1509 11.4854 12.1764 11.4961C12.202 11.5069 12.2295 11.5123 12.2572 11.5121H12.6793C12.7059 11.5127 12.7323 11.5074 12.7567 11.4966C12.781 11.4858 12.8026 11.4697 12.82 11.4495C12.8397 11.4321 12.855 11.4102 12.8645 11.3857C12.874 11.3612 12.8775 11.3347 12.8747 11.3086V10.0799H13.6564C13.7082 10.0783 13.7579 10.059 13.7971 10.0251C13.8155 10.0067 13.8298 9.9847 13.8393 9.96045C13.8487 9.9362 13.853 9.91026 13.8518 9.88426V9.53209C13.8535 9.50604 13.8494 9.47995 13.84 9.45563C13.8305 9.43131 13.8159 9.40933 13.7971 9.39122C13.775 9.36893 13.7478 9.3523 13.7178 9.34277C13.6879 9.33323 13.6561 9.33106 13.6252 9.33644ZM12.0617 9.33644H9.9824L12.0383 6.41734L12.0617 9.33644Z" fill="#4F008D"/>
</svg>
