<svg xmlns="http://www.w3.org/2000/svg" width="94" height="94" viewBox="0 0 94 94">
    <g data-name="Group 9194">
        <path data-name="Path 6130" d="M90.213 28.946A48.849 48.849 0 0 0 65.054 3.787a44.934 44.934 0 0 0-36.108 0A48.849 48.849 0 0 0 3.787 28.946a44.934 44.934 0 0 0 0 36.108 48.849 48.849 0 0 0 25.159 25.159 44.934 44.934 0 0 0 36.108 0 48.849 48.849 0 0 0 25.159-25.159 44.934 44.934 0 0 0 0-36.108zM47 90.328C23.514 90.328 3.672 70.486 3.672 47S23.514 3.672 47 3.672 90.328 23.514 90.328 47 70.486 90.328 47 90.328z" style="fill:#36c690"/>
        <path data-name="Path 6131" d="M118.085 67.015A40.166 40.166 0 0 0 97.2 46.126 37.964 37.964 0 0 0 82.105 43c-7.061 0-14.422 2.411-21.287 6.973a1.836 1.836 0 0 0 2.032 3.058c6.261-4.16 12.919-6.359 19.255-6.359 19.207 0 35.434 16.227 35.434 35.434s-16.227 35.434-35.434 35.434-35.433-16.228-35.433-35.435c0-6.335 2.2-12.993 6.358-19.255a1.836 1.836 0 1 0-3.058-2.032C45.411 67.685 43 75.046 43 82.105A37.966 37.966 0 0 0 46.126 97.2a40.167 40.167 0 0 0 20.889 20.889 37.991 37.991 0 0 0 30.181 0A40.166 40.166 0 0 0 118.085 97.2a37.991 37.991 0 0 0 0-30.182z" transform="translate(-35.105 -35.105)" style="fill:#36c690"/>
        <path data-name="Path 6132" d="M106.836 105a1.836 1.836 0 1 0 1.836 1.836 1.837 1.837 0 0 0-1.836-1.836z" transform="translate(-85.723 -85.723)" style="fill:#36c690"/>
        <path data-name="Path 6133" d="M171.583 168.152a7.341 7.341 0 0 0-10.384 0l-16.839 16.839-5.823-5.823a7.343 7.343 0 1 0-10.384 10.384l11.016 11.016a7.341 7.341 0 0 0 10.384 0l22.031-22.031a7.341 7.341 0 0 0 0-10.385zm-2.6 7.788-22.031 22.031a3.669 3.669 0 0 1-5.192 0l-11.016-11.016a3.671 3.671 0 1 1 5.192-5.191l8.42 8.42 19.435-19.435a3.671 3.671 0 1 1 5.192 5.192z" transform="translate(-102.867 -135.523)" style="fill:#36c690"/>
    </g>
</svg>
