<svg xmlns="http://www.w3.org/2000/svg" width="95.473" height="119.897" viewBox="0 0 95.473 119.897">
    <g data-name="Group 11384">
        <path data-name="Path 10728" d="m87.955 92.742 5.721 73.676a6.772 6.772 0 0 0 6.765 6.252h53.7a6.77 6.77 0 0 0 6.758-6.252l5.721-73.676a6.789 6.789 0 0 0-6.758-7.3H94.711a6.785 6.785 0 0 0-6.756 7.3z" transform="translate(-79.553 -65.432)" style="fill-rule:evenodd;fill:#7ca1b1"/>
    </g>
    <g data-name="Group 11385">
        <path data-name="Path 10729" d="M54.513 67.84h90.747a2.368 2.368 0 0 1 2.363 2.363v8.383a2.368 2.368 0 0 1-2.363 2.363H54.513a2.368 2.368 0 0 1-2.363-2.363V70.2a2.367 2.367 0 0 1 2.363-2.363z" transform="translate(-52.15 -51.954)" style="fill:#537983;fill-rule:evenodd"/>
    </g>
    <g data-name="Group 11386">
        <path data-name="Path 10730" d="m88.6 123.82 5.59 71.99a6.772 6.772 0 0 0 6.765 6.252h5.995a6.762 6.762 0 0 1-6.758-6.252l-5.6-71.99z" transform="translate(-80.064 -94.825)" style="fill:#70919f;fill-rule:evenodd"/>
    </g>
    <g data-name="Group 11387">
        <path data-name="Path 10731" d="M54.513 67.84h5.995a2.368 2.368 0 0 0-2.363 2.36v8.383a2.368 2.368 0 0 0 2.363 2.363h-5.995a2.368 2.368 0 0 1-2.363-2.363V70.2a2.367 2.367 0 0 1 2.363-2.36z" transform="translate(-52.15 -51.954)" style="fill:#4b6d76;fill-rule:evenodd"/>
    </g>
    <g data-name="Group 11388">
        <path data-name="Path 10732" d="M163.345 15.886a1.9 1.9 0 0 1-3.805 0V12.24A12.269 12.269 0 0 1 171.79 0h20.685a12.265 12.265 0 0 1 12.243 12.243v3.644a1.9 1.9 0 0 1-3.805 0V12.24a8.475 8.475 0 0 0-8.439-8.44H171.79a8.475 8.475 0 0 0-8.444 8.437z" transform="translate(-134.392)" style="fill:#7ca1b1"/>
    </g>
    <g data-name="Group 11389">
        <path data-name="Path 10733" d="M299.691 393.366a18.138 18.138 0 1 0-18.141-18.141 18.173 18.173 0 0 0 18.141 18.141z" transform="translate(-227.831 -273.469)" style="fill:#59d659;fill-rule:evenodd"/>
    </g>
    <g data-name="Group 11390">
        <path data-name="Path 10734" d="M193.018 241.428a1.9 1.9 0 1 1 .9 3.684l-1.1.265a11.655 11.655 0 0 0 6.824.239 12.272 12.272 0 0 0 2.634-1.049 11.725 11.725 0 0 0 2.3-1.646 1.893 1.893 0 0 1 2.555 2.794 15.576 15.576 0 0 1-3.04 2.178 15.4 15.4 0 0 1-9.428 1.784 15.774 15.774 0 0 1-4.075-1.089l.344 1.414a1.9 1.9 0 1 1-3.691.89l-1.4-5.775a1.9 1.9 0 0 1 1.4-2.29zm-8.046-4.726a1.893 1.893 0 0 1-3.7.817 15.447 15.447 0 0 1-.365-3.712 15.559 15.559 0 0 1 3.307-9.28 15.456 15.456 0 0 1 2.138-2.25l-.611-.094a1.9 1.9 0 1 1 .564-3.756l5.882.9a1.9 1.9 0 0 1 1.592 2.164l-.9 5.875a1.9 1.9 0 1 1-3.756-.564l.326-2.145a11.759 11.759 0 0 0-4.342 6.426 11.677 11.677 0 0 0-.412 2.8 12 12 0 0 0 .277 2.817zm15.189-13.861a1.9 1.9 0 0 1 1.143-3.625 15.579 15.579 0 0 1 3.4 1.546 15.83 15.83 0 0 1 2.941 2.309 15.635 15.635 0 0 1 3.4 5.1 16.081 16.081 0 0 1 1 3.564l.738-.789a1.9 1.9 0 1 1 2.782 2.583l-4.056 4.349a1.906 1.906 0 0 1-2.688.094l-4.342-4.056a1.9 1.9 0 0 1 2.588-2.782l1.222 1.143a11.789 11.789 0 0 0-3.332-6.519 11.938 11.938 0 0 0-2.229-1.752 11.738 11.738 0 0 0-2.568-1.164z" transform="translate(-150.754 -167.26)" style="fill:#eaf6ff"/>
    </g>
    <g data-name="Group 11391">
        <path data-name="Path 10735" d="M324.105 418.995a1.868 1.868 0 0 1-1.325-.55l-6.7-6.7a1.875 1.875 0 1 1 2.651-2.653l5.372 5.372 8.6-8.6a1.875 1.875 0 0 1 2.651 2.653l-9.924 9.931a1.885 1.885 0 0 1-1.325.547z" transform="translate(-253.855 -310.399)" style="fill:#fff"/>
    </g>
</svg>
