<svg width="56" height="55" viewBox="0 0 56 55" fill="none" xmlns="http://www.w3.org/2000/svg">
<mask id="path-1-inside-1_416_727" fill="white">
<path d="M0 0H56V55H0V0Z"/>
</mask>
<path d="M0.5 55V0H-0.5V55H0.5Z" fill="#E9F0F7" mask="url(#path-1-inside-1_416_727)"/>
<path fill-rule="evenodd" clip-rule="evenodd" d="M34 19.5H22C19.7909 19.5 18 21.2909 18 23.5V32.5C18 34.7091 19.7909 36.5 22 36.5H34C36.2091 36.5 38 34.7091 38 32.5V23.5C38 21.2909 36.2091 19.5 34 19.5ZM22 21.09H34C35.0657 21.092 36.0025 21.7966 36.3 22.82L28.76 28.41C28.5534 28.612 28.2732 28.721 27.9843 28.7115C27.6955 28.7021 27.423 28.5751 27.23 28.36L19.72 22.83C20.0118 21.8097 20.9389 21.1022 22 21.09ZM19.59 32.5C19.59 33.831 20.669 34.91 22 34.91H34C35.3271 34.9045 36.4 33.8271 36.4 32.5V24.47L29.6 29.47C29.1654 29.8746 28.5938 30.0997 28 30.1C27.3827 30.0902 26.7911 29.8514 26.34 29.43L19.59 24.43V32.5Z" fill="#226AB2"/>
</svg>
