<svg width="428" height="459" viewBox="0 0 428 459" fill="none" xmlns="http://www.w3.org/2000/svg">
<path d="M428 351.043H0V351.273H428V351.043Z" fill="#EBEBEB"/>
<path d="M385.114 365.814H356.764V366.043H385.114V365.814Z" fill="#EBEBEB"/>
<path d="M258.033 365.934H250.594V366.163H258.033V365.934Z" fill="#EBEBEB"/>
<path d="M355.899 357.295H303.306V357.524H355.899V357.295Z" fill="#EBEBEB"/>
<path d="M192.72 362.711H181.857V362.941H192.72V362.711Z" fill="#EBEBEB"/>
<path d="M174.239 362.711H142.712V362.941H174.239V362.711Z" fill="#EBEBEB"/>
<path d="M66.6738 358.837H44.9058V359.067H66.6738V358.837Z" fill="#EBEBEB"/>
<path d="M135.916 358.837H71.8098V359.067H135.916V358.837Z" fill="#EBEBEB"/>
<path d="M202.872 310.101H37.587C36.2921 310.098 35.0511 309.545 34.1363 308.562C33.2215 307.579 32.7078 306.247 32.7078 304.859V55.6861C32.719 54.3055 33.2378 52.9853 34.1514 52.0125C35.0649 51.0396 36.2995 50.4926 37.587 50.4902H202.872C204.168 50.4902 205.412 51.0425 206.328 52.0255C207.245 53.0085 207.76 54.3418 207.76 55.732V304.859C207.76 306.249 207.245 307.582 206.328 308.565C205.412 309.548 204.168 310.101 202.872 310.101ZM37.587 50.6738C36.3489 50.6763 35.1623 51.2054 34.2876 52.1451C33.413 53.0849 32.9218 54.3584 32.9218 55.6861V304.859C32.9218 306.187 33.413 307.46 34.2876 308.4C35.1623 309.34 36.3489 309.869 37.587 309.871H202.872C204.111 309.869 205.298 309.34 206.174 308.4C207.05 307.461 207.544 306.187 207.546 304.859V55.6861C207.544 54.3575 207.05 53.084 206.174 52.1446C205.298 51.2051 204.111 50.6763 202.872 50.6738H37.587Z" fill="#EBEBEB"/>
<path d="M388.033 310.101H222.74C221.444 310.098 220.202 309.545 219.286 308.563C218.37 307.58 217.854 306.248 217.852 304.859V55.6861C217.866 54.3046 218.386 52.9845 219.301 52.0119C220.216 51.0393 221.452 50.4926 222.74 50.4902H388.033C389.319 50.495 390.552 51.0431 391.464 52.0157C392.375 52.9883 392.893 54.3071 392.904 55.6861V304.859C392.904 306.246 392.391 307.576 391.479 308.559C390.566 309.541 389.327 310.096 388.033 310.101ZM222.74 50.6738C221.501 50.6763 220.313 51.2051 219.437 52.1446C218.561 53.084 218.068 54.3575 218.066 55.6861V304.859C218.068 306.187 218.561 307.461 219.437 308.4C220.313 309.34 221.501 309.869 222.74 309.871H388.033C389.272 309.869 390.46 309.34 391.336 308.4C392.212 307.461 392.705 306.187 392.707 304.859V55.6861C392.705 54.3575 392.212 53.084 391.336 52.1446C390.46 51.2051 389.272 50.6763 388.033 50.6738H222.74Z" fill="#EBEBEB"/>
<path d="M163.308 229.05L371.35 229.05V66.0778L163.308 66.0778L163.308 229.05Z" fill="#E6E6E6"/>
<path d="M154.114 229.05L369.219 229.05V66.0778L154.114 66.0778L154.114 229.05Z" fill="#F0F0F0"/>
<path d="M356.336 215.244V79.8848L166.98 79.8848V215.244H356.336Z" fill="#FAFAFA"/>
<path d="M310.309 215.235L267.2 79.8848H226.035L269.144 215.235H310.309Z" fill="white"/>
<path d="M260.301 215.235L217.193 79.8848H201.151L244.26 215.235H260.301Z" fill="white"/>
<path d="M168.624 215.244V79.8848H166.989V215.244H168.624Z" fill="#E6E6E6"/>
<path d="M55.272 184.72H128.734V73.0272L55.272 73.0272L55.272 184.72Z" fill="#E0E0E0"/>
<path d="M50.0761 184.72H125.798L125.798 73.0272L50.0761 73.0272L50.0761 184.72Z" fill="#F5F5F5"/>
<path d="M118.325 175.908V81.8218H57.5489L57.5489 175.908H118.325Z" fill="white"/>
<path d="M83.828 262.916C89.2807 248.485 102.249 243.114 106.735 233.999C112.598 222.065 112.564 204.154 107.591 197.701C103.242 192.083 88.8613 230.051 87.2434 234.292C82.8049 245.739 80.0278 257.847 79.0087 270.195C79.1286 261.282 79.2398 253.093 79.334 246.777C79.6422 226.177 80.0188 219.549 80.19 217.511C80.7892 216.511 81.4997 215.354 81.902 214.757C85.3859 209.497 93.107 203.227 96.9676 195.58C102.6 184.408 101.693 171.042 97.738 166.067C93.6035 160.862 86.3018 173.163 82.4242 185.345C78.5465 197.526 80.1986 209.213 79.1114 219.311C78.8889 221.294 78.6492 228.83 78.4352 239.296C77.2539 228.041 74.9085 220.504 70.5686 213.472C65.2271 204.834 60.6133 194.313 56.2134 195.672C51.8136 197.031 54.1762 210.957 57.6601 220.724C60.7759 229.427 76.0555 238.111 78.3068 245.106C78.0415 259.28 77.8018 277.236 77.6391 293.972C76.4322 285.333 77.2625 284.608 72.3148 271.38C69.3787 263.522 57.3519 253.827 55.8967 259.225C54.4415 264.623 56.6415 274.831 61.1868 281.992C64.8591 287.757 72.9996 287.748 74.8828 291.328C75.3194 292.163 76.7746 295.367 77.6049 297.203C77.408 317.619 77.3224 335.649 77.4166 341.79L78.2041 341.854C78.2041 340.266 78.264 329.92 78.4181 316.15C80.3954 308.806 93.7062 304.574 97.815 296.964C102.095 289.005 105.211 279.715 103.362 273.5C101.821 268.313 89.6659 275.336 84.7782 283.956C81.4997 289.685 79.4966 295.789 78.5636 303.996C78.6749 294.633 78.8033 284.571 78.9231 275.079C79.9246 272.692 82.1759 267.239 83.828 262.916Z" fill="#E6E6E6"/>
<path d="M91.6433 351.043H63.6692C62.9299 351.043 62.2136 350.768 61.6412 350.266C61.0689 349.764 60.6755 349.066 60.5277 348.289L58.5417 337.824H96.7793L94.7933 348.317C94.6371 349.089 94.2395 349.78 93.6665 350.276C93.0935 350.772 92.3796 351.043 91.6433 351.043Z" fill="#F0F0F0"/>
<path d="M97.584 341.854H57.7372C57.2757 341.853 56.8306 341.67 56.4866 341.34C56.1426 341.01 55.9236 340.556 55.8711 340.064L55.0151 332.307C54.9863 332.025 55.0131 331.74 55.0936 331.471C55.1742 331.201 55.3068 330.952 55.4828 330.741C55.6588 330.53 55.8742 330.36 56.1151 330.244C56.3561 330.128 56.6171 330.068 56.8812 330.067H98.3459C98.6104 330.066 98.8721 330.126 99.1137 330.241C99.3552 330.357 99.5713 330.526 99.7475 330.738C99.9238 330.949 100.056 331.199 100.136 331.469C100.216 331.739 100.242 332.025 100.212 332.307L99.3559 340.064C99.3059 340.539 99.1004 340.98 98.7759 341.307C98.4515 341.635 98.0291 341.829 97.584 341.854Z" fill="#F0F0F0"/>
<path d="M347.219 344.351H355.771V245.675H347.219V344.351Z" fill="#F0F0F0"/>
<path d="M172.963 350.924H352.492V344.351H172.963V350.924Z" fill="#F0F0F0"/>
<path d="M347.228 245.675H169.685V344.351H347.228V245.675Z" fill="#F5F5F5"/>
<path d="M349.239 245.675H358.073V239.451H349.239V245.675Z" fill="#E0E0E0"/>
<path d="M349.24 239.451H167.382V245.675H349.24V239.451Z" fill="#EBEBEB"/>
<path d="M334.482 288.252H182.422C180.606 288.252 178.864 287.478 177.58 286.101C176.296 284.724 175.574 282.856 175.574 280.908V259.794C175.574 257.846 176.296 255.978 177.58 254.601C178.864 253.224 180.606 252.45 182.422 252.45H334.482C336.298 252.45 338.04 253.224 339.324 254.601C340.609 255.978 341.33 257.846 341.33 259.794V280.908C341.33 282.856 340.609 284.724 339.324 286.101C338.04 287.478 336.298 288.252 334.482 288.252ZM182.422 254.286C181.06 254.286 179.754 254.866 178.791 255.899C177.827 256.932 177.286 258.333 177.286 259.794V280.908C177.286 282.369 177.827 283.77 178.791 284.803C179.754 285.836 181.06 286.416 182.422 286.416H334.482C335.844 286.416 337.151 285.836 338.114 284.803C339.077 283.77 339.618 282.369 339.618 280.908V259.794C339.618 258.333 339.077 256.932 338.114 255.899C337.151 254.866 335.844 254.286 334.482 254.286H182.422Z" fill="white"/>
<path d="M334.482 332.49H182.422C180.606 332.49 178.864 331.717 177.58 330.339C176.296 328.962 175.574 327.094 175.574 325.146V304.032C175.574 302.085 176.296 300.217 177.58 298.839C178.864 297.462 180.606 296.688 182.422 296.688H334.482C336.298 296.688 338.04 297.462 339.324 298.839C340.609 300.217 341.33 302.085 341.33 304.032V325.146C341.33 327.094 340.609 328.962 339.324 330.339C338.04 331.717 336.298 332.49 334.482 332.49ZM182.422 298.451C181.06 298.451 179.754 299.031 178.791 300.064C177.827 301.097 177.286 302.498 177.286 303.959V325.073C177.286 326.534 177.827 327.935 178.791 328.968C179.754 330.001 181.06 330.581 182.422 330.581H334.482C335.844 330.581 337.151 330.001 338.114 328.968C339.077 327.935 339.618 326.534 339.618 325.073V303.959C339.618 302.498 339.077 301.097 338.114 300.064C337.151 299.031 335.844 298.451 334.482 298.451H182.422Z" fill="white"/>
<path d="M299.925 273.564H216.979C216.39 273.564 215.825 273.314 215.408 272.869C214.991 272.423 214.755 271.818 214.753 271.187V269.443C214.755 268.811 214.991 268.206 215.408 267.761C215.825 267.315 216.39 267.065 216.979 267.065H299.925C300.514 267.065 301.079 267.315 301.496 267.761C301.913 268.206 302.149 268.811 302.151 269.443V271.187C302.149 271.818 301.913 272.423 301.496 272.869C301.079 273.314 300.514 273.564 299.925 273.564ZM216.979 268.974C216.845 268.977 216.717 269.034 216.621 269.135C216.525 269.236 216.47 269.372 216.465 269.516V271.26C216.47 271.404 216.525 271.54 216.621 271.641C216.717 271.742 216.845 271.8 216.979 271.802H299.925C300.06 271.802 300.189 271.745 300.285 271.644C300.381 271.542 300.437 271.405 300.439 271.26V269.516C300.437 269.372 300.381 269.234 300.285 269.132C300.189 269.031 300.06 268.974 299.925 268.974H216.979Z" fill="white"/>
<path d="M299.925 317.803H216.979C216.39 317.803 215.825 317.552 215.408 317.107C214.991 316.661 214.755 316.056 214.753 315.425V313.681C214.755 313.049 214.991 312.445 215.408 311.999C215.825 311.553 216.39 311.303 216.979 311.303H299.925C300.514 311.303 301.079 311.553 301.496 311.999C301.913 312.445 302.149 313.049 302.151 313.681V315.425C302.149 316.056 301.913 316.661 301.496 317.107C301.079 317.552 300.514 317.803 299.925 317.803ZM216.979 313.139C216.845 313.142 216.717 313.199 216.621 313.3C216.525 313.401 216.47 313.537 216.465 313.681V315.425C216.47 315.569 216.525 315.705 216.621 315.806C216.717 315.907 216.845 315.964 216.979 315.967H299.925C300.06 315.967 300.189 315.91 300.285 315.809C300.381 315.707 300.437 315.57 300.439 315.425V313.681C300.437 313.536 300.381 313.399 300.285 313.297C300.189 313.196 300.06 313.139 299.925 313.139H216.979Z" fill="white"/>
<path d="M209.72 392.5C301.383 392.5 375.69 387.848 375.69 382.109C375.69 376.369 301.383 371.717 209.72 371.717C118.057 371.717 43.7502 376.369 43.7502 382.109C43.7502 387.848 118.057 392.5 209.72 392.5Z" fill="#F5F5F5"/>
<path d="M320.821 153.996L320.495 159.401L321.349 159.461L321.675 154.056L320.821 153.996Z" fill="#4F008D"/>
<path d="M322.119 132.045L321.051 149.808L321.905 149.867L322.974 132.104L322.119 132.045Z" fill="#4F008D"/>
<path d="M311.961 106.249H211.338C208.754 106.298 206.28 107.377 204.398 109.276C202.516 111.176 201.362 113.759 201.16 116.522L188.157 331.792C188.062 333.112 188.224 334.438 188.633 335.687C189.041 336.936 189.687 338.08 190.53 339.047C191.373 340.014 192.394 340.782 193.528 341.303C194.663 341.824 195.886 342.087 197.12 342.074H297.725C300.314 342.028 302.793 340.949 304.68 339.048C306.566 337.147 307.725 334.56 307.929 331.792L320.923 116.522C321.018 115.202 320.856 113.876 320.448 112.628C320.039 111.38 319.393 110.236 318.55 109.27C317.707 108.304 316.686 107.536 315.551 107.016C314.417 106.496 313.194 106.235 311.961 106.249Z" fill="#4F008D"/>
<path opacity="0.7" d="M308.768 106.249H211.338C208.754 106.298 206.28 107.377 204.398 109.276C202.516 111.176 201.362 113.759 201.16 116.522L188.157 331.792C188.062 333.112 188.224 334.438 188.633 335.687C189.041 336.936 189.687 338.08 190.53 339.047C191.373 340.014 192.394 340.782 193.528 341.303C194.663 341.824 195.886 342.087 197.12 342.074H294.532C297.121 342.028 299.6 340.949 301.487 339.048C303.374 337.147 304.532 334.56 304.736 331.792L317.73 116.522C317.825 115.202 317.663 113.876 317.255 112.628C316.846 111.38 316.2 110.236 315.357 109.27C314.514 108.304 313.493 107.536 312.359 107.016C311.224 106.496 310.001 106.235 308.768 106.249Z" fill="white"/>
<path d="M300.55 326.165H193.379C192.978 326.166 192.581 326.079 192.213 325.908C191.845 325.738 191.514 325.489 191.239 325.175C190.965 324.862 190.753 324.492 190.618 324.087C190.482 323.683 190.426 323.253 190.451 322.824L202.213 128.024C202.261 127.228 202.589 126.482 203.131 125.937C203.673 125.391 204.388 125.087 205.132 125.086H312.312C312.713 125.087 313.11 125.175 313.478 125.347C313.846 125.518 314.177 125.768 314.452 126.082C314.726 126.396 314.937 126.767 315.073 127.172C315.208 127.577 315.265 128.008 315.239 128.437L303.478 323.228C303.43 324.025 303.1 324.772 302.556 325.318C302.012 325.864 301.295 326.167 300.55 326.165Z" fill="white"/>
<path d="M276.736 118.715H237.78C237.579 118.717 237.381 118.674 237.196 118.59C237.012 118.505 236.846 118.38 236.71 118.223C236.573 118.066 236.468 117.88 236.402 117.677C236.335 117.474 236.309 117.259 236.324 117.045C236.364 116.599 236.553 116.185 236.858 115.879C237.162 115.573 237.56 115.397 237.976 115.383H276.933C277.133 115.38 277.331 115.421 277.516 115.505C277.7 115.589 277.866 115.713 278.003 115.869C278.14 116.026 278.245 116.211 278.311 116.413C278.377 116.616 278.404 116.831 278.388 117.045C278.351 117.491 278.162 117.908 277.858 118.216C277.553 118.524 277.154 118.701 276.736 118.715Z" fill="white"/>
<path d="M246.331 334.345C246.268 335.445 245.82 336.479 245.075 337.238C244.33 337.998 243.344 338.427 242.316 338.439C241.823 338.444 241.334 338.339 240.879 338.133C240.425 337.926 240.015 337.621 239.675 337.237C239.336 336.853 239.073 336.398 238.905 335.9C238.736 335.402 238.665 334.873 238.696 334.345C238.76 333.246 239.21 332.214 239.955 331.457C240.7 330.699 241.684 330.271 242.71 330.26C243.203 330.253 243.693 330.357 244.147 330.562C244.601 330.768 245.011 331.072 245.351 331.456C245.691 331.839 245.953 332.293 246.122 332.791C246.291 333.288 246.362 333.817 246.331 334.345Z" fill="white"/>
<path opacity="0.2" d="M288.874 179.01H197.359L191.539 275.308H288.874C291.414 275.303 293.849 274.22 295.646 272.294C297.442 270.369 298.455 267.759 298.462 265.036V189.319C298.464 186.589 297.455 183.969 295.658 182.036C293.86 180.103 291.42 179.015 288.874 179.01Z" fill="#4F008D"/>
<path d="M280.349 170.481H168.196C162.901 170.481 158.608 175.085 158.608 180.763V256.507C158.608 262.186 162.901 266.789 168.196 266.789H280.349C285.644 266.789 289.936 262.186 289.936 256.507V180.763C289.936 175.085 285.644 170.481 280.349 170.481Z" fill="#4F008D"/>
<path d="M155.544 169.371C155.319 169.37 155.104 169.274 154.945 169.104L153.404 167.461C153.243 167.288 153.152 167.054 153.152 166.809C153.152 166.565 153.243 166.331 153.404 166.158C153.565 165.985 153.784 165.888 154.012 165.888C154.24 165.888 154.458 165.985 154.619 166.158L156.152 167.81C156.311 167.982 156.401 168.215 156.401 168.457C156.401 168.7 156.311 168.932 156.152 169.104C156.072 169.19 155.977 169.257 155.872 169.303C155.768 169.348 155.657 169.371 155.544 169.371Z" fill="#4F008D"/>
<path d="M153.224 175.136H151.058C150.831 175.136 150.614 175.039 150.453 174.867C150.293 174.695 150.202 174.461 150.202 174.218C150.202 173.974 150.293 173.741 150.453 173.569C150.614 173.397 150.831 173.3 151.058 173.3H153.224C153.451 173.3 153.669 173.397 153.829 173.569C153.99 173.741 154.08 173.974 154.08 174.218C154.08 174.461 153.99 174.695 153.829 174.867C153.669 175.039 153.451 175.136 153.224 175.136Z" fill="#4F008D"/>
<path d="M160.996 166.892C160.779 166.893 160.57 166.805 160.411 166.646C160.252 166.488 160.156 166.271 160.14 166.039L159.986 163.716C159.978 163.595 159.992 163.474 160.028 163.359C160.064 163.245 160.12 163.139 160.194 163.047C160.268 162.956 160.358 162.881 160.459 162.828C160.56 162.774 160.67 162.742 160.782 162.734C161.008 162.719 161.23 162.8 161.4 162.96C161.57 163.12 161.674 163.345 161.69 163.587L161.852 165.91C161.861 166.031 161.846 166.152 161.811 166.266C161.775 166.381 161.719 166.487 161.645 166.579C161.571 166.67 161.481 166.745 161.38 166.798C161.279 166.852 161.169 166.884 161.056 166.892H160.996Z" fill="#4F008D"/>
<path d="M233.851 256.884L268.287 293.806V256.884H233.851Z" fill="#4F008D"/>
<path d="M243.292 240.709L241.58 232.915C241.148 230.866 241.148 228.74 241.58 226.691L243.96 215.592C244.934 210.859 244.406 205.913 242.462 201.538C240.518 197.163 237.267 193.609 233.226 191.44C233.302 191.235 233.367 191.027 233.423 190.815C233.563 190.142 233.579 189.446 233.468 188.766C233.358 188.086 233.124 187.437 232.779 186.854C232.434 186.271 231.986 185.767 231.46 185.37C230.934 184.973 230.34 184.692 229.712 184.541C229.084 184.39 228.435 184.374 227.801 184.492C227.167 184.61 226.561 184.862 226.018 185.231C225.475 185.601 225.005 186.081 224.635 186.646C224.264 187.21 224.002 187.847 223.861 188.52C223.819 188.735 223.793 188.953 223.784 189.172C219.267 189.286 214.913 191.013 211.414 194.079C207.915 197.145 205.469 201.375 204.464 206.1L202.144 217.208C201.718 219.253 200.87 221.17 199.662 222.817L195.048 229.105C194.597 229.722 194.299 230.451 194.181 231.225C194.063 231.999 194.13 232.792 194.375 233.531C194.621 234.269 195.036 234.929 195.583 235.449C196.131 235.969 196.792 236.332 197.505 236.504L238.165 246.272C238.876 246.437 239.614 246.406 240.311 246.184C241.008 245.962 241.641 245.554 242.152 245C242.664 244.445 243.036 243.761 243.235 243.011C243.435 242.261 243.454 241.469 243.292 240.709Z" fill="white"/>
<path d="M212.588 243.114C212.278 243.041 211.957 243.051 211.652 243.142C211.347 243.234 211.068 243.405 210.84 243.64C210.611 243.875 210.44 244.167 210.342 244.49C210.244 244.813 210.221 245.157 210.276 245.492C210.51 246.967 211.147 248.334 212.108 249.419C213.068 250.504 214.308 251.258 215.67 251.585C217.031 251.912 218.453 251.797 219.753 251.254C221.053 250.712 222.173 249.767 222.971 248.539C223.153 248.263 223.269 247.942 223.309 247.606C223.348 247.27 223.31 246.929 223.197 246.612C223.085 246.296 222.902 246.014 222.664 245.791C222.426 245.568 222.14 245.412 221.832 245.335L212.588 243.114Z" fill="white"/>
<path d="M181.361 227.664C181.149 227.666 180.939 227.61 180.753 227.503C180.566 227.395 180.407 227.239 180.291 227.049C176.248 220.553 174.776 212.601 176.2 204.942C177.624 197.282 181.827 190.543 187.883 186.207C188.167 186.005 188.514 185.932 188.848 186.004C189.182 186.077 189.475 186.288 189.664 186.593C189.852 186.897 189.92 187.269 189.853 187.627C189.785 187.985 189.588 188.3 189.304 188.502C183.821 192.44 180.02 198.552 178.736 205.494C177.452 212.436 178.79 219.64 182.456 225.525C182.646 225.828 182.715 226.2 182.649 226.558C182.584 226.916 182.388 227.231 182.105 227.434C181.885 227.59 181.625 227.67 181.361 227.664Z" fill="white"/>
<path d="M186.796 223.753C186.586 223.752 186.379 223.695 186.194 223.587C186.009 223.48 185.851 223.326 185.735 223.138C182.658 218.19 181.538 212.134 182.621 206.3C183.705 200.467 186.903 195.333 191.513 192.027C191.654 191.926 191.811 191.856 191.977 191.821C192.143 191.786 192.313 191.786 192.479 191.821C192.645 191.856 192.802 191.926 192.943 192.027C193.083 192.128 193.204 192.257 193.298 192.408C193.392 192.559 193.457 192.728 193.49 192.905C193.523 193.083 193.523 193.266 193.49 193.444C193.457 193.622 193.392 193.791 193.298 193.941C193.204 194.092 193.083 194.221 192.943 194.322C188.896 197.218 186.088 201.719 185.136 206.836C184.184 211.952 185.166 217.265 187.866 221.605C188.056 221.908 188.125 222.279 188.059 222.637C187.994 222.995 187.798 223.311 187.516 223.514C187.303 223.667 187.053 223.75 186.796 223.753Z" fill="white"/>
<path d="M192.241 219.852C192.031 219.853 191.824 219.798 191.638 219.692C191.453 219.587 191.295 219.433 191.179 219.246C190.13 217.562 189.401 215.672 189.034 213.686C188.667 211.699 188.669 209.654 189.039 207.669C189.41 205.683 190.142 203.795 191.194 202.113C192.245 200.43 193.596 198.987 195.168 197.865C195.451 197.677 195.791 197.614 196.116 197.689C196.441 197.764 196.727 197.972 196.912 198.268C197.097 198.565 197.168 198.927 197.109 199.278C197.051 199.629 196.867 199.942 196.598 200.151C195.308 201.075 194.201 202.261 193.339 203.643C192.477 205.026 191.877 206.577 191.575 208.207C191.272 209.838 191.271 211.517 191.574 213.148C191.876 214.779 192.475 216.33 193.336 217.713C193.523 218.017 193.591 218.387 193.526 218.745C193.46 219.102 193.266 219.417 192.985 219.622C192.764 219.778 192.505 219.858 192.241 219.852Z" fill="white"/>
<path d="M255.388 247.025C255.101 247.024 254.822 246.92 254.596 246.73C254.371 246.539 254.211 246.273 254.143 245.974C254.075 245.675 254.103 245.36 254.221 245.079C254.34 244.799 254.542 244.569 254.797 244.427C260.662 241.177 265.083 235.563 267.09 228.819C269.096 222.074 268.523 214.751 265.497 208.46C265.405 208.298 265.345 208.118 265.321 207.93C265.297 207.743 265.309 207.552 265.356 207.37C265.404 207.188 265.486 207.018 265.598 206.871C265.709 206.725 265.848 206.604 266.005 206.518C266.162 206.431 266.334 206.38 266.51 206.368C266.686 206.355 266.862 206.382 267.028 206.446C267.194 206.511 267.346 206.611 267.475 206.741C267.603 206.871 267.705 207.028 267.774 207.202C269.427 210.64 270.432 214.394 270.732 218.248C271.033 222.103 270.622 225.984 269.523 229.668C268.424 233.352 266.66 236.769 264.33 239.722C262 242.674 259.15 245.106 255.944 246.878C255.77 246.969 255.581 247.019 255.388 247.025Z" fill="white"/>
<path d="M252.383 240.791C252.096 240.79 251.818 240.687 251.592 240.496C251.366 240.306 251.207 240.04 251.139 239.74C251.071 239.441 251.098 239.126 251.217 238.846C251.335 238.565 251.538 238.336 251.793 238.193C253.935 237.009 255.838 235.383 257.394 233.41C258.949 231.436 260.127 229.152 260.859 226.69C261.592 224.228 261.864 221.635 261.661 219.059C261.458 216.484 260.784 213.977 259.676 211.681C259.52 211.356 259.49 210.978 259.593 210.629C259.697 210.281 259.925 209.99 260.228 209.822C260.532 209.654 260.884 209.622 261.21 209.734C261.535 209.845 261.805 210.09 261.962 210.415C263.224 213.031 263.992 215.889 264.223 218.825C264.454 221.76 264.143 224.716 263.309 227.523C262.474 230.329 261.131 232.932 259.358 235.182C257.585 237.432 255.415 239.285 252.974 240.635C252.792 240.739 252.589 240.793 252.383 240.791Z" fill="white"/>
<path d="M249.378 234.558C249.092 234.553 248.816 234.446 248.592 234.255C248.369 234.063 248.211 233.797 248.143 233.499C248.076 233.201 248.103 232.887 248.219 232.607C248.336 232.327 248.536 232.096 248.788 231.951C250.166 231.19 251.391 230.146 252.392 228.877C253.393 227.608 254.151 226.14 254.623 224.556C255.094 222.973 255.27 221.305 255.14 219.649C255.009 217.993 254.576 216.38 253.864 214.904C253.707 214.579 253.677 214.2 253.781 213.851C253.884 213.503 254.113 213.213 254.416 213.045C254.719 212.877 255.072 212.845 255.397 212.956C255.722 213.067 255.993 213.312 256.149 213.637C257.891 217.272 258.217 221.501 257.055 225.394C255.894 229.287 253.339 232.527 249.952 234.402C249.774 234.5 249.578 234.554 249.378 234.558Z" fill="white"/>
<path d="M174.076 115.53H167.536C167.366 115.535 167.204 115.604 167.077 115.725C166.95 115.846 166.867 116.011 166.843 116.191L165.473 130.182C165.463 130.266 165.471 130.352 165.494 130.433C165.518 130.514 165.557 130.589 165.61 130.652C165.663 130.715 165.727 130.766 165.8 130.801C165.872 130.835 165.95 130.852 166.03 130.852H172.569C172.74 130.847 172.904 130.777 173.031 130.654C173.158 130.531 173.24 130.364 173.263 130.182L174.632 116.191C174.642 116.108 174.635 116.022 174.612 115.942C174.588 115.861 174.548 115.787 174.496 115.724C174.443 115.661 174.378 115.612 174.306 115.578C174.233 115.545 174.155 115.528 174.076 115.53Z" fill="#4F008D"/>
<path opacity="0.4" d="M173.485 115.53H167.536C167.366 115.535 167.204 115.604 167.077 115.725C166.95 115.846 166.867 116.011 166.843 116.191L165.473 130.181C165.463 130.266 165.471 130.351 165.494 130.432C165.518 130.513 165.557 130.588 165.61 130.652C165.663 130.715 165.727 130.766 165.8 130.8C165.872 130.835 165.95 130.852 166.03 130.852H172.022C172.192 130.846 172.354 130.776 172.48 130.653C172.606 130.53 172.686 130.363 172.706 130.181L174.076 116.191C174.088 116.104 174.082 116.014 174.057 115.93C174.032 115.846 173.989 115.769 173.932 115.705C173.875 115.641 173.805 115.592 173.728 115.562C173.65 115.532 173.567 115.521 173.485 115.53Z" fill="white"/>
<path d="M141.3 374.223C142.156 374.223 143.012 374.085 143.311 373.663C143.384 373.549 143.423 373.415 143.423 373.277C143.423 373.14 143.384 373.005 143.311 372.892C143.187 372.686 142.994 372.538 142.772 372.479C141.608 372.139 139.245 373.626 139.143 373.69C139.116 373.708 139.095 373.735 139.083 373.766C139.071 373.797 139.068 373.832 139.074 373.865C139.081 373.901 139.097 373.935 139.121 373.961C139.146 373.987 139.177 374.005 139.211 374.012C139.901 374.145 140.599 374.215 141.3 374.223ZM142.344 372.782C142.449 372.767 142.556 372.767 142.661 372.782C142.797 372.817 142.916 372.905 142.995 373.029C143.115 373.25 143.08 373.36 142.995 373.415C142.695 373.901 140.94 373.911 139.648 373.718C140.478 373.213 141.395 372.894 142.344 372.782Z" fill="#4F008D"/>
<path d="M139.194 374.011H139.263C140.119 373.607 141.676 372.001 141.514 371.156C141.514 370.964 141.334 370.716 140.88 370.67C140.72 370.651 140.557 370.667 140.403 370.718C140.248 370.768 140.105 370.852 139.982 370.964C139.126 371.744 139.031 373.718 139.023 373.828C139.022 373.86 139.028 373.892 139.042 373.921C139.055 373.95 139.075 373.975 139.1 373.993C139.129 374.009 139.162 374.015 139.194 374.011ZM140.769 371H140.863C141.163 371 141.189 371.156 141.189 371.193C141.291 371.698 140.213 372.965 139.382 373.516C139.435 372.673 139.734 371.87 140.238 371.221C140.387 371.084 140.574 371.007 140.769 371Z" fill="#4F008D"/>
<path d="M138.492 356.625H131.559V373.837H138.492V356.625Z" fill="#FF8B7B"/>
<path d="M81.2771 365.63L88.2021 366.438L92.7133 349.73L85.7882 348.922L81.2771 365.63Z" fill="#FF8B7B"/>
<path d="M91.4208 368.118C92.2768 368.357 93.1328 368.458 93.518 368.118C93.6121 368.024 93.676 367.901 93.7006 367.766C93.7252 367.63 93.7092 367.49 93.6549 367.365C93.6197 367.251 93.5638 367.145 93.4903 367.054C93.4169 366.962 93.3274 366.887 93.2269 366.833C92.1569 366.2 89.5033 366.998 89.3921 367.026C89.3594 367.035 89.3304 367.055 89.3089 367.083C89.2874 367.111 89.2746 367.146 89.2722 367.182C89.2722 367.218 89.2818 367.254 89.3 367.285C89.3182 367.316 89.3442 367.341 89.3749 367.356C90.0354 367.672 90.7199 367.927 91.4208 368.118ZM92.7733 367.017C92.8771 367.044 92.9777 367.084 93.0729 367.136C93.1997 367.201 93.298 367.316 93.3468 367.457C93.4153 367.705 93.3468 367.797 93.3468 367.852C92.9359 368.228 91.2153 367.779 89.9913 367.246C90.8964 366.979 91.8414 366.904 92.7733 367.026V367.017Z" fill="#4F008D"/>
<path d="M89.4092 367.375H89.4777C90.3337 367.2 92.3025 366.08 92.3367 365.236C92.3367 365.034 92.2683 364.758 91.8317 364.593C91.6779 364.534 91.5146 364.508 91.3514 364.518C91.1882 364.527 91.0285 364.571 90.8815 364.648C89.8715 365.171 89.3065 367.062 89.2808 367.136C89.2666 367.162 89.259 367.193 89.259 367.223C89.259 367.254 89.2666 367.284 89.2808 367.31C89.2953 367.332 89.3148 367.349 89.3372 367.36C89.3597 367.372 89.3845 367.377 89.4092 367.375ZM91.6348 364.905H91.7375C92.02 365.015 92.0115 365.144 92.0115 365.181C92.0115 365.695 90.6419 366.622 89.7003 366.925C89.9373 366.131 90.4053 365.439 91.0356 364.951C91.2236 364.859 91.4365 364.842 91.6348 364.905Z" fill="#4F008D"/>
<path d="M88.5702 365.75L80.9946 363.418C80.8645 363.376 80.7247 363.384 80.5997 363.441C80.4746 363.498 80.372 363.6 80.3098 363.73L77.5193 369.67C77.4541 369.82 77.4206 369.984 77.4211 370.15C77.4217 370.315 77.4563 370.479 77.5225 370.629C77.5887 370.779 77.6848 370.911 77.8041 371.017C77.9234 371.122 78.0629 371.198 78.2126 371.239C80.8662 372.001 82.193 372.24 85.5229 373.259C87.5687 373.892 91.7374 375.416 94.5708 376.288C97.4042 377.16 98.4485 374.305 97.3528 373.681C92.4394 370.881 90.8643 368.623 89.5632 366.53C89.3298 366.151 88.9775 365.874 88.5702 365.75Z" fill="#263238"/>
<path d="M138.415 372.974H130.848C130.712 372.972 130.58 373.024 130.476 373.118C130.372 373.212 130.304 373.344 130.283 373.488L129.179 380.052C129.154 380.216 129.163 380.383 129.204 380.543C129.246 380.703 129.319 380.851 129.419 380.978C129.519 381.104 129.644 381.206 129.784 381.276C129.924 381.346 130.077 381.383 130.232 381.383C132.962 381.328 136.9 381.154 140.333 381.154C144.347 381.154 146.539 381.392 151.247 381.392C154.088 381.392 154.756 378.308 153.549 378.023C148.079 376.756 144.921 376.619 140.11 373.516C139.599 373.179 139.014 372.992 138.415 372.974Z" fill="#263238"/>
<path opacity="0.2" d="M138.492 356.625H131.559V365.502H138.492V356.625Z" fill="black"/>
<path opacity="0.2" d="M85.7883 348.932L92.7133 349.73L90.2052 359.002L83.46 357.542L85.7883 348.932Z" fill="black"/>
<path d="M127.09 185.436C127.09 185.436 123.264 241.563 119.84 262.842C116.065 286.15 94.1 357.515 94.1 357.515L81.5168 355.046C81.5168 355.046 97.3785 288.032 99.1333 264.953C101.042 239.91 103.336 188.291 103.336 188.291L127.09 185.436Z" fill="#4F008D"/>
<path opacity="0.3" d="M120.645 208.753C121.329 205.669 122.904 209.552 124.736 216.281C123.35 232.933 121.543 252.22 119.814 262.851C119.429 265.228 118.847 268.111 118.102 271.379C118.761 247.621 118.787 217.098 120.645 208.753Z" fill="black"/>
<path d="M140.161 183.912C140.161 183.912 145.186 240.332 145.357 262.998C145.537 286.581 141.009 363.785 141.009 363.785H129.256C129.256 363.785 125.729 287.958 124.265 264.797C122.665 239.552 115.928 186.767 115.928 186.767L140.161 183.912Z" fill="#4F008D"/>
<path d="M96.7279 352.971C96.7792 352.971 94.7505 357.864 94.7505 357.864L80.5923 355.11L81.4483 350.566L96.7279 352.971Z" fill="#263238"/>
<path d="M143.063 358.764C143.114 358.764 142.609 363.996 142.609 363.996H128.331L127.749 359.333L143.063 358.764Z" fill="#263238"/>
<path d="M103.679 133.624C102.737 135.58 101.701 137.636 100.76 139.665L97.8835 145.779C96.9505 147.816 96.0346 149.864 95.1529 151.911C94.2712 153.958 93.4409 155.996 92.7304 158.034L92.6619 154.821C93.1623 156.471 93.7628 158.084 94.4595 159.649C94.7934 160.457 95.2214 161.228 95.5894 162.027C95.9575 162.826 96.4454 163.588 96.882 164.34C97.7902 165.897 98.7731 167.401 99.8267 168.848C100.357 169.573 100.888 170.317 101.453 171.014C102.018 171.712 102.634 172.437 103.165 173.034L103.336 173.236C103.731 173.7 103.958 174.3 103.977 174.928C103.997 175.556 103.807 176.17 103.443 176.662C103.078 177.153 102.562 177.49 101.987 177.611C101.413 177.731 100.817 177.629 100.306 177.321C99.4212 176.787 98.5639 176.201 97.738 175.568C96.882 174.962 96.1287 174.328 95.3583 173.658C93.8161 172.302 92.3684 170.826 91.027 169.243C89.6575 167.634 88.4122 165.908 87.3034 164.083C86.164 162.224 85.1732 160.265 84.3416 158.227C83.9753 157.362 83.9115 156.384 84.1618 155.473L84.2817 155.041C84.9322 152.645 85.6599 150.323 86.4645 148.046C87.2691 145.769 88.1251 143.539 89.0325 141.345C89.9399 139.151 90.89 136.984 91.8915 134.845C92.893 132.706 93.9031 130.613 95.0587 128.474C95.6974 127.25 96.7606 126.346 98.0175 125.957C99.2744 125.569 100.623 125.729 101.771 126.401C102.919 127.073 103.773 128.204 104.148 129.548C104.523 130.892 104.388 132.34 103.773 133.578L103.679 133.624Z" fill="#FF8B7B"/>
<path d="M108.592 130.356C108.934 137.361 101.522 150.222 101.522 150.222L86.259 142.042C88.1138 136.241 90.9843 130.872 94.7163 126.225C102.788 116.66 108.275 123.93 108.592 130.356Z" fill="#263238"/>
<path d="M98.2515 176.008L101.325 181.516L107.719 177.128C106.602 174.982 104.853 173.293 102.745 172.327C102.258 172.16 101.731 172.186 101.26 172.4C100.789 172.614 100.405 173.002 100.177 173.493L98.2515 176.008Z" fill="#FF8B7B"/>
<path d="M103.884 183.866L106.854 183.269C107.105 183.22 107.343 183.118 107.556 182.969C107.769 182.82 107.952 182.627 108.096 182.402C108.239 182.177 108.339 181.923 108.391 181.656C108.442 181.389 108.444 181.114 108.395 180.846L107.719 177.174L101.325 181.562L101.753 182.673C101.928 183.102 102.235 183.455 102.622 183.672C103.01 183.889 103.455 183.958 103.884 183.866Z" fill="#FF8B7B"/>
<path d="M121.92 95.1599C121.98 95.7566 122.331 96.2248 122.69 96.188C123.05 96.1513 123.289 95.6464 123.221 95.0497C123.153 94.453 122.81 93.9848 122.451 94.0124C122.091 94.0399 121.851 94.554 121.92 95.1599Z" fill="#263238"/>
<path d="M122.28 96.2246C123.145 98.0076 124.224 99.6617 125.49 101.145C124.634 102.219 122.922 101.907 122.922 101.907L122.28 96.2246Z" fill="#FF5652"/>
<path d="M119.523 91.9926C119.568 91.9997 119.613 91.9959 119.656 91.9816C119.699 91.9673 119.739 91.9428 119.771 91.91C120.068 91.6119 120.429 91.3966 120.821 91.2829C121.214 91.1693 121.626 91.1608 122.023 91.2582C122.063 91.2721 122.106 91.2768 122.148 91.2721C122.19 91.2675 122.231 91.2535 122.268 91.2311C122.305 91.2087 122.338 91.1783 122.363 91.1419C122.389 91.1055 122.407 91.0638 122.417 91.0195C122.438 90.9283 122.426 90.8317 122.383 90.7497C122.34 90.6677 122.269 90.6066 122.185 90.5789C121.685 90.4508 121.163 90.4557 120.665 90.5933C120.166 90.7309 119.707 90.997 119.326 91.3683C119.295 91.4009 119.269 91.4401 119.252 91.4835C119.235 91.5269 119.226 91.5736 119.226 91.6208C119.226 91.668 119.235 91.7147 119.252 91.7581C119.269 91.8015 119.295 91.8407 119.326 91.8732C119.35 91.9062 119.38 91.9338 119.414 91.9542C119.447 91.9747 119.485 91.9878 119.523 91.9926Z" fill="#263238"/>
<path d="M104.663 101.806C106.298 107.121 108.472 116.916 105.374 120.845C105.374 120.845 107.411 126.197 116.793 125.344C127.125 124.426 121.073 119.423 121.073 119.423C115.269 118.505 114.875 114.016 115.355 109.728L104.663 101.806Z" fill="#FF8B7B"/>
<path d="M103.156 122.783C102.189 121.121 101.111 119.221 102.942 118.514C104.954 117.734 116.253 116.467 120.276 117.532C124.3 118.597 123.478 122.122 123.478 122.122L103.156 122.783Z" fill="#4F008D"/>
<path d="M136.241 125.022C137.713 126.473 139.305 128.079 140.889 129.548C142.473 131.017 144.073 132.522 145.683 133.973C147.292 135.423 148.935 136.791 150.587 138.122C152.24 139.453 153.917 140.665 155.595 141.794L152.171 141.445C153.594 141.038 154.941 140.37 156.151 139.471C157.566 138.411 158.88 137.202 160.072 135.864C161.357 134.454 162.56 132.961 163.676 131.393C164.249 130.594 164.823 129.787 165.388 128.951C165.953 128.116 166.466 127.235 166.937 126.463L167.031 126.317C167.356 125.784 167.849 125.395 168.42 125.219C168.99 125.044 169.601 125.095 170.139 125.362C170.678 125.629 171.109 126.095 171.354 126.675C171.599 127.254 171.642 127.909 171.474 128.52C171.149 129.713 170.806 130.732 170.412 131.797C170.019 132.862 169.608 133.908 169.146 134.937C168.208 137.034 167.112 139.045 165.867 140.949C164.56 142.969 163.038 144.818 161.33 146.457C159.44 148.267 157.247 149.675 154.867 150.607C154.357 150.8 153.815 150.882 153.274 150.849C152.734 150.816 152.204 150.668 151.717 150.414L151.435 150.258C149.309 149.138 147.246 147.887 145.255 146.513C143.311 145.163 141.428 143.759 139.614 142.253C137.799 140.748 136.044 139.224 134.332 137.663C132.62 136.102 130.976 134.468 129.307 132.642C128.419 131.648 127.924 130.324 127.926 128.948C127.928 127.571 128.428 126.249 129.319 125.259C130.21 124.269 131.425 123.687 132.707 123.636C133.99 123.585 135.241 124.069 136.198 124.985L136.241 125.022Z" fill="#FF8B7B"/>
<path d="M131.011 120.258C131.011 120.258 139.639 129.236 140.641 184.766C126.842 188.355 113.565 189.677 103.31 188.282C102.823 181.314 102.095 157.134 95.5037 131.641C95.2206 130.567 95.1487 129.442 95.2926 128.337C95.4364 127.232 95.7929 126.171 96.3395 125.222C96.886 124.272 97.6106 123.455 98.4673 122.822C99.324 122.188 100.294 121.753 101.316 121.543C102.626 121.268 104.004 121.02 105.373 120.827C110.577 120.029 115.818 119.554 121.072 119.404C124.4 119.433 127.721 119.719 131.011 120.258Z" fill="#263238"/>
<path d="M124.317 129.934C125.173 136.883 136.301 150.24 136.301 150.24L149.509 135.552C145.585 131.134 141.344 127.055 136.823 123.352C127.142 115.594 123.546 123.489 124.317 129.934Z" fill="#263238"/>
<path d="M170.618 130.962L175.035 126.62L169.745 120.791C167.995 122.388 166.79 124.565 166.321 126.978C166.269 127.529 166.405 128.082 166.704 128.535C167.003 128.987 167.445 129.308 167.947 129.438L170.618 130.962Z" fill="#FF8B7B"/>
<path d="M176.661 123.462L175.523 120.46C175.426 120.202 175.283 119.968 175.1 119.771C174.918 119.574 174.701 119.419 174.461 119.313C174.222 119.208 173.965 119.155 173.706 119.158C173.448 119.161 173.192 119.22 172.955 119.331L169.71 120.791L175.001 126.62L175.925 125.95C176.296 125.689 176.572 125.299 176.706 124.846C176.84 124.393 176.824 123.904 176.661 123.462Z" fill="#FF8B7B"/>
<path d="M103.345 95.472C104.586 102.816 104.963 107.167 108.815 110.665C114.61 115.925 122.605 111.831 123.367 104.331C124.086 97.5742 121.937 86.6959 114.969 84.3274C108.001 81.959 102.104 88.128 103.345 95.472Z" fill="#FF8B7B"/>
<path d="M116.844 98.1158C119.249 98.7033 121.124 95.7198 121.381 94.8753C120.208 94.9946 118.128 94.352 117.717 93.7828C119.001 93.9022 120.242 92.2039 120.396 91.5521C119.034 91.27 117.828 90.4305 117.032 89.2112C119.112 89.1653 121.612 85.2363 119.326 81.7203C117.041 78.2044 107.488 81.1512 106.144 78.645C104.141 79.8935 105.921 81.5551 105.921 81.5551C105.921 81.5551 92.4051 84.3091 98.6368 89.8997C94.0658 90.3403 93.4238 96.1329 97.233 99.0797C101.042 102.026 101.239 103.973 99.7239 103.734C100.332 104.982 103.045 105.148 103.199 103.936C103.841 106.479 105.69 109.921 109.953 109.361C114.216 108.801 118.393 102.403 116.844 98.1158Z" fill="#263238"/>
<path d="M99.818 89.0458C96.5994 89.5232 95.1357 87.577 95.9403 85.8604C91.9514 88.0452 96.3084 92.8739 99.818 89.0458Z" fill="#263238"/>
<path d="M113.514 96.9958C114.068 98.5343 115.048 99.8541 116.322 100.778C118.034 101.99 119.583 100.778 119.292 98.9419C119.027 97.2528 117.82 94.5814 116.039 94.1041C115.671 93.9743 115.275 93.9601 114.899 94.0633C114.523 94.1665 114.182 94.3827 113.917 94.6865C113.652 94.9903 113.473 95.369 113.401 95.7781C113.33 96.1872 113.369 96.6097 113.514 96.9958Z" fill="#FF8B7B"/>
<path d="M331.084 355.743C324.749 339.715 322.19 320.859 329.44 321.64C336.879 322.411 336.006 350.832 337.213 353.953C334.893 356.092 331.084 355.743 331.084 355.743Z" fill="#4F008D"/>
<path d="M333.138 325.33C331.58 331.444 329.928 340.89 328.67 348.895C329.389 351.19 330.202 353.485 331.084 355.743C331.084 355.743 334.885 356.092 337.221 353.953C336.263 351.493 336.605 333.28 333.138 325.33Z" fill="#263238"/>
<path d="M333.172 352.806C331.186 318.748 336.596 287.178 350.84 288.601C363.064 289.831 345.242 347.169 345.584 353.779C339.986 356.111 333.172 352.806 333.172 352.806Z" fill="#4F008D"/>
<path d="M342.4 352.586C344.634 328.103 356.678 299.535 361.848 309.082C368.414 321.199 351.576 350.061 351.123 354.807C346.911 355.78 342.4 352.586 342.4 352.586Z" fill="#4F008D"/>
<path d="M340.149 297.699C338.702 297.441 337.897 296.478 337.992 295.11C338.094 293.568 339.276 292.034 340.371 292.016C340.902 292.016 341.792 292.31 342.015 294.43L341.159 294.541C341.056 293.531 340.774 292.934 340.397 292.934C339.815 292.934 338.925 294.072 338.856 295.174C338.796 296.092 339.276 296.606 340.294 296.79L340.149 297.699Z" fill="#4F008D"/>
<path d="M355.523 303.858C354.9 303.804 354.306 303.559 353.811 303.151L354.273 302.389C355.069 302.94 355.685 303.087 355.925 302.775C356.284 302.279 356.036 300.829 355.291 300.067C354.692 299.452 353.99 299.498 353.211 300.232L352.655 299.534C352.855 299.292 353.099 299.096 353.372 298.958C353.645 298.82 353.941 298.743 354.243 298.731C354.545 298.719 354.845 298.772 355.127 298.888C355.409 299.004 355.666 299.18 355.882 299.406C356.926 300.471 357.277 302.417 356.593 303.344C356.466 303.516 356.303 303.652 356.116 303.742C355.93 303.831 355.726 303.871 355.523 303.858Z" fill="#4F008D"/>
<path d="M334.542 317.72C334.024 317.76 333.51 317.595 333.097 317.257C332.684 316.919 332.4 316.431 332.299 315.884C331.957 314.388 332.642 312.543 333.686 312.157C334.174 311.983 335.115 311.964 335.937 313.92L335.15 314.305C334.764 313.387 334.294 312.891 333.96 313.029C333.412 313.231 332.89 314.599 333.104 315.664C333.301 316.582 333.96 316.894 334.936 316.729L335.064 317.647C334.892 317.687 334.718 317.712 334.542 317.72Z" fill="#4F008D"/>
<path d="M325.426 336.732C325.008 336.742 324.598 336.617 324.248 336.373C323.899 336.129 323.626 335.777 323.465 335.364C322.866 333.959 323.217 332.004 324.167 331.417C324.621 331.141 325.545 330.939 326.693 332.702L325.991 333.225C325.443 332.39 324.921 332.013 324.595 332.215C324.09 332.527 323.816 333.978 324.244 334.969C324.595 335.786 325.263 336.007 326.23 335.639L326.513 336.511C326.165 336.652 325.797 336.727 325.426 336.732Z" fill="#4F008D"/>
<path d="M340.594 309.018C340.505 309.017 340.419 308.988 340.346 308.935C339.814 308.619 339.407 308.108 339.199 307.496C338.991 306.883 338.997 306.211 339.216 305.603C339.464 304.993 339.888 304.485 340.426 304.154C340.964 303.823 341.587 303.688 342.203 303.767C342.734 303.868 343.975 304.372 344.061 306.814C344.061 306.936 344.016 307.053 343.935 307.139C343.855 307.225 343.746 307.273 343.633 307.273C343.519 307.273 343.41 307.225 343.33 307.139C343.25 307.053 343.205 306.936 343.205 306.814C343.153 305.538 342.751 304.767 342.049 304.629C341.623 304.593 341.197 304.7 340.831 304.935C340.464 305.17 340.175 305.522 340.003 305.942C339.695 306.723 340.003 307.512 340.859 308.164C340.934 308.22 340.99 308.3 341.02 308.393C341.049 308.486 341.05 308.586 341.022 308.68C340.994 308.773 340.94 308.854 340.866 308.912C340.792 308.969 340.702 309 340.611 308.999L340.594 309.018Z" fill="white"/>
<path d="M350.737 333.794C350.639 333.796 350.544 333.759 350.469 333.692C350.393 333.625 350.343 333.531 350.327 333.427C350.314 333.368 350.312 333.308 350.322 333.249C350.332 333.19 350.352 333.133 350.383 333.083C350.413 333.032 350.452 332.989 350.499 332.955C350.545 332.921 350.597 332.897 350.652 332.885C351.816 332.628 352.458 332.068 352.475 331.306C352.437 330.85 352.267 330.417 351.989 330.069C351.712 329.72 351.34 329.472 350.926 329.36C350.155 329.158 349.471 329.608 349.017 330.618C348.992 330.672 348.958 330.721 348.915 330.761C348.873 330.801 348.824 330.831 348.771 330.851C348.718 330.87 348.661 330.879 348.605 330.875C348.549 330.871 348.494 330.856 348.443 330.829C348.393 330.802 348.348 330.766 348.31 330.72C348.273 330.675 348.244 330.622 348.226 330.565C348.208 330.508 348.2 330.448 348.204 330.387C348.207 330.327 348.222 330.268 348.246 330.214C348.456 329.605 348.86 329.095 349.386 328.774C349.912 328.454 350.527 328.342 351.123 328.461C351.727 328.621 352.268 328.984 352.665 329.498C353.063 330.012 353.296 330.649 353.331 331.316C353.331 331.894 353.057 333.289 350.832 333.785L350.737 333.794Z" fill="white"/>
<path d="M362.773 326.056C362.276 326.056 361.617 325.743 360.881 324.559L361.592 324.045C362.122 324.89 362.627 325.275 362.961 325.083C363.475 324.789 363.817 323.338 363.363 322.329C363.038 321.512 362.371 321.273 361.395 321.612L361.129 320.74C362.516 320.254 363.646 320.74 364.151 321.971C364.725 323.384 364.339 325.33 363.372 325.89C363.189 326.001 362.983 326.058 362.773 326.056Z" fill="#4F008D"/>
<path d="M360.222 361.573C360.228 356.674 358.59 351.936 355.608 348.225C355.901 348.179 356.169 348.023 356.363 347.784C356.558 347.545 356.667 347.239 356.67 346.922C356.667 346.563 356.533 346.22 356.296 345.967C356.058 345.714 355.737 345.572 355.403 345.572H326.744C326.432 345.577 326.133 345.707 325.905 345.936C325.678 346.165 325.538 346.477 325.515 346.811C325.491 347.145 325.585 347.476 325.777 347.739C325.97 348.003 326.248 348.179 326.556 348.234C324.681 350.569 323.322 353.327 322.579 356.303C321.835 359.279 321.728 362.396 322.263 365.423C322.799 368.45 323.964 371.308 325.672 373.785C327.38 376.263 329.587 378.295 332.128 379.731C331.851 379.884 331.63 380.133 331.501 380.437C331.372 380.741 331.342 381.083 331.416 381.407C331.491 381.731 331.664 382.02 331.91 382.225C332.156 382.431 332.459 382.542 332.77 382.54H349.368C349.735 382.538 350.086 382.38 350.346 382.102C350.606 381.824 350.752 381.447 350.755 381.053C350.753 380.781 350.683 380.515 350.552 380.282C350.421 380.049 350.234 379.859 350.01 379.731C353.092 377.988 355.672 375.376 357.472 372.176C359.271 368.976 360.222 365.31 360.222 361.573Z" fill="#263238"/>
</svg>
