<svg xmlns="http://www.w3.org/2000/svg" width="20" height="20" viewBox="0 0 20 20">
    <path data-name="Path 6231" d="M.719 6.367C1.691 5.6 2.5 4.986 7.137 1.617 7.785 1.141 9.074 0 9.985 0h.031c.91 0 2.2 1.141 2.852 1.616C17.5 4.984 18.311 5.6 19.282 6.367A1.865 1.865 0 0 1 20 7.844v10.281A1.875 1.875 0 0 1 18.125 20H1.875A1.868 1.868 0 0 1 0 18.16V7.844a1.858 1.858 0 0 1 .719-1.477zm.531 11.758a.626.626 0 0 0 .625.625h16.25a.626.626 0 0 0 .625-.625V7.844a.622.622 0 0 0-.242-.493c-.914-.721-1.661-1.331-6.379-4.725-.116-.085-.252-.19-.4-.306a6 6 0 0 0-1.743-1.069A6.333 6.333 0 0 0 8.274 2.32c-.15.116-.285.221-.4.308-4.715 3.425-5.461 4-6.387 4.727a.617.617 0 0 0-.232.489zm2.246-8 5.187 3.817a2.24 2.24 0 0 0 2.635 0l5.182-3.821a.623.623 0 0 1 .874.133.627.627 0 0 1-.133.875l-5.188 3.817A3.651 3.651 0 0 1 10 15.59a3.44 3.44 0 0 1-2.059-.68l-5.188-3.817a.624.624 0 0 1-.133-.873.652.652 0 0 1 .88-.099z"/>
</svg>
