<svg width="15" height="12" viewBox="0 0 15 12" fill="none" xmlns="http://www.w3.org/2000/svg">
<path d="M4.5797 10.4294C2.47364 8.92128 0 7.14998 0 4.07934C0 0.689569 4.12512 -1.71439 7.5 1.5445L9 2.93768C9.21968 3.14181 9.57585 3.14175 9.79553 2.93754C10.0151 2.73334 10.015 2.40233 9.79537 2.1982L8.34637 0.851957C11.5264 -1.31175 15 0.968736 15 4.07934C15 7.14998 12.5264 8.92128 10.4203 10.4294C10.2014 10.5861 9.98647 10.7401 9.77872 10.8923C9 11.4628 8.25 12 7.5 12C6.75 12 6 11.4628 5.2213 10.8923C5.01353 10.7401 4.7986 10.5861 4.5797 10.4294Z" fill="#5D5D5D"/>
</svg>
