<svg width="20" height="19" viewBox="0 0 20 19" fill="none" xmlns="http://www.w3.org/2000/svg">
<path d="M14.509 9.48352C11.9795 9.48352 9.92732 11.5357 9.92732 14.0652C9.92732 14.9242 10.166 15.7356 10.5955 16.4228C11.3877 17.7496 12.8386 18.6469 14.509 18.6469C16.1794 18.6469 17.6398 17.7496 18.4225 16.4228C18.8425 15.7356 19.0907 14.9242 19.0907 14.0652C19.0907 11.5357 17.0384 9.48352 14.509 9.48352ZM16.7807 13.4638L14.3372 15.7165C14.2035 15.8406 14.0222 15.9074 13.8504 15.9074C13.669 15.9074 13.4877 15.8406 13.3445 15.6974L12.2182 14.5711C11.9413 14.2943 11.9413 13.8361 12.2182 13.5593C12.495 13.2825 12.9531 13.2825 13.2299 13.5593L13.8695 14.1988L15.8071 12.4043C16.0935 12.1371 16.5516 12.1562 16.8189 12.4425C17.0862 12.7384 17.0671 13.1966 16.7807 13.4638Z" fill="white"/>
<path d="M19.0903 5.98257C19.0903 7.11844 18.9089 8.16839 18.5939 9.14199C18.5367 9.34244 18.298 9.39971 18.1262 9.27563C17.0858 8.50247 15.8163 8.09203 14.5086 8.09203C11.1964 8.09203 8.49517 10.7933 8.49517 14.1055C8.49517 15.1363 8.76244 16.1481 9.26833 17.0454C9.42105 17.3126 9.23969 17.6563 8.95334 17.5513C6.65296 16.7686 2.00448 13.9146 0.496347 9.14199C0.181358 8.16839 0 7.11844 0 5.98257C0 3.03313 2.37674 0.646851 5.3071 0.646851C7.03477 0.646851 8.58108 1.48681 9.54514 2.77541C10.5092 1.48681 12.0555 0.646851 13.7832 0.646851C16.7135 0.646841 19.0903 3.03313 19.0903 5.98257Z" fill="white"/>
</svg>
