<svg width="24" height="25" viewBox="0 0 24 25" fill="none" xmlns="http://www.w3.org/2000/svg">
<path d="M22 14.5752L19.061 12.4591C17.5338 11.3595 15.4467 11.4732 14.0479 12.7321L9.95209 16.4183C8.55331 17.6772 6.4662 17.7909 4.93901 16.6913L2 14.5752M6 22.5752H18C20.2091 22.5752 22 20.7843 22 18.5752V6.5752C22 4.36606 20.2091 2.5752 18 2.5752H6C3.79086 2.5752 2 4.36606 2 6.5752V18.5752C2 20.7843 3.79086 22.5752 6 22.5752ZM11 9.0752C11 10.4559 9.88071 11.5752 8.5 11.5752C7.11929 11.5752 6 10.4559 6 9.0752C6 7.69448 7.11929 6.5752 8.5 6.5752C9.88071 6.5752 11 7.69448 11 9.0752Z" stroke="#4F008D" stroke-width="1.5" stroke-linecap="round"/>
</svg>
