<svg width="24" height="24" viewBox="0 0 24 24" fill="none" xmlns="http://www.w3.org/2000/svg">
<path d="M10.125 15.375C10.332 15.375 10.5 15.207 10.5 15V7.875C10.5 7.25475 9.99525 6.75 9.375 6.75H3.375C2.75475 6.75 2.25 7.25475 2.25 7.875V15C2.25 15.207 2.418 15.375 2.625 15.375C2.832 15.375 3 15.207 3 15V7.875C3 7.668 3.168 7.5 3.375 7.5H9.375C9.582 7.5 9.75 7.668 9.75 7.875V15C9.75 15.207 9.918 15.375 10.125 15.375Z" fill="#4F008D"/>
<path d="M23.1376 14.9003C23.3348 14.8388 23.4451 14.628 23.3836 14.4307L21.2288 7.53975C21.0811 7.06725 20.6498 6.75 20.1548 6.75H15.3038C14.8088 6.75 14.3656 7.0815 14.2253 7.5555L12.1651 14.5185C12.1066 14.7172 12.2198 14.9257 12.4178 14.985C12.4538 14.9955 12.4898 15 12.5251 15C12.6871 15 12.8363 14.8942 12.8843 14.7315L14.9446 7.7685C14.9918 7.61025 15.1396 7.5 15.3038 7.5H20.1548C20.3198 7.5 20.4631 7.60575 20.5126 7.76325L22.6673 14.6542C22.7288 14.8523 22.9381 14.961 23.1376 14.9003Z" fill="#4F008D"/>
<path d="M4.125 13.875C3.918 13.875 3.75 14.043 3.75 14.25V22.875C3.75 23.4952 4.25475 24 4.875 24H7.875C8.49525 24 9 23.4952 9 22.875V14.25C9 14.043 8.832 13.875 8.625 13.875C8.418 13.875 8.25 14.043 8.25 14.25V22.875C8.25 23.082 8.082 23.25 7.875 23.25H6.75V15.75C6.75 15.543 6.582 15.375 6.375 15.375C6.168 15.375 6 15.543 6 15.75V23.25H4.875C4.668 23.25 4.5 23.082 4.5 22.875V14.25C4.5 14.043 4.332 13.875 4.125 13.875Z" fill="#4F008D"/>
<path d="M20.2499 22.875V17.25H21.6127C21.7297 17.25 21.8399 17.1952 21.9104 17.1022C21.9817 17.0092 22.0049 16.8885 21.9734 16.7752L21.1874 13.9117C21.1327 13.7115 20.9242 13.5945 20.7269 13.6492C20.5274 13.704 20.4097 13.9102 20.4644 14.1097L21.1214 16.5H19.8749C19.6679 16.5 19.4999 16.668 19.4999 16.875V22.875C19.4999 23.082 19.3319 23.25 19.1249 23.25H17.9999V16.5C17.9999 16.293 17.8319 16.125 17.6249 16.125C17.4179 16.125 17.2499 16.293 17.2499 16.5V23.25H16.1249C15.9179 23.25 15.7499 23.082 15.7499 22.875V16.875C15.7499 16.668 15.5819 16.5 15.3749 16.5H14.3249L14.9879 13.962C15.0404 13.7617 14.9204 13.5562 14.7202 13.5045C14.5207 13.4542 14.3144 13.572 14.2627 13.7722L13.4767 16.7797C13.4474 16.8922 13.4722 17.0122 13.5427 17.1037C13.6132 17.196 13.7234 17.25 13.8397 17.25H14.9999V22.875C14.9999 23.4952 15.5047 24 16.1249 24H19.1249C19.7452 24 20.2499 23.4952 20.2499 22.875Z" fill="#4F008D"/>
<path d="M8.76221 2.625C8.76221 1.1775 7.58471 0 6.13721 0C4.68971 0 3.51221 1.1775 3.51221 2.625C3.51221 4.0725 4.68971 5.25 6.13721 5.25C7.58471 5.25 8.76221 4.0725 8.76221 2.625ZM4.26221 2.625C4.26221 1.5915 5.10371 0.75 6.13721 0.75C7.17071 0.75 8.01221 1.5915 8.01221 2.625C8.01221 3.6585 7.17071 4.5 6.13721 4.5C5.10371 4.5 4.26221 3.6585 4.26221 2.625Z" fill="#4F008D"/>
<path d="M17.73 5.25C19.1775 5.25 20.355 4.0725 20.355 2.625C20.355 1.1775 19.1775 0 17.73 0C16.2825 0 15.105 1.1775 15.105 2.625C15.105 4.0725 16.2825 5.25 17.73 5.25ZM17.73 0.75C18.7635 0.75 19.605 1.5915 19.605 2.625C19.605 3.6585 18.7642 4.5 17.73 4.5C16.6957 4.5 15.855 3.6585 15.855 2.625C15.855 1.5915 16.6965 0.75 17.73 0.75Z" fill="#4F008D"/>
</svg>
