<svg xmlns="http://www.w3.org/2000/svg" width="25" height="20" viewBox="0 0 25 20">
    <path data-name="Path 6210" d="M23.324 13.2h-.312v-.312a1.611 1.611 0 0 0-1.606-1.638h-1.562a1.642 1.642 0 0 0-1.644 1.641v.309h-.309a1.64 1.64 0 0 0-1.641 1.644v1.563a1.635 1.635 0 0 0 1.605 1.64h.313v.312A1.642 1.642 0 0 0 19.809 20h1.562a1.613 1.613 0 0 0 1.606-1.641v-.312h.313A1.657 1.657 0 0 0 25 16.406v-1.562a1.648 1.648 0 0 0-1.676-1.644zm.426 3.2a.391.391 0 0 1-.391.391H21.8v1.568a.385.385 0 0 1-.355.391h-1.566a.391.391 0 0 1-.391-.391V16.8h-1.562a.4.4 0 0 1-.426-.394v-1.562a.385.385 0 0 1 .355-.391h1.563v-1.562a.391.391 0 0 1 .391-.391h1.562a.362.362 0 0 1 .355.391v1.563h1.563a.412.412 0 0 1 .461.391zm-4.375-8.9a2.929 2.929 0 0 0-1.229.272.65.65 0 0 0-.357.8.626.626 0 0 0 .854.347 1.716 1.716 0 0 1 .733-.17h2.541a1.8 1.8 0 0 1 1.545.922.638.638 0 0 0 .55.328.626.626 0 0 0 .535-.946A2.985 2.985 0 0 0 21.918 7.5zM20 6.25a3.125 3.125 0 0 0 3.125-3.125A3.125 3.125 0 0 0 20 0a3.125 3.125 0 0 0-3.125 3.125A3.125 3.125 0 0 0 20 6.25zm0-5a1.877 1.877 0 0 1 1.875 1.875A1.876 1.876 0 0 1 20 5a1.876 1.876 0 0 1-1.875-1.875A1.876 1.876 0 0 1 20 1.25zm-4.375 17.5H6.258A4.158 4.158 0 0 1 10.52 15h3.855a.625.625 0 0 0 .625-.625.625.625 0 0 0-.625-.625h-3.824A5.387 5.387 0 0 0 5 18.957 1.076 1.076 0 0 0 6.109 20h9.516a.625.625 0 0 0 0-1.25zM6.359 8.918a.625.625 0 0 0 .832-.3.625.625 0 0 0-.3-.832A2.962 2.962 0 0 0 5.625 7.5H3.083A3.163 3.163 0 0 0 0 10.73v.52a.625.625 0 0 0 .625.625.626.626 0 0 0 .625-.625v-.52a1.912 1.912 0 0 1 1.833-1.98h2.542a1.752 1.752 0 0 1 .734.168zM5 6.25a3.125 3.125 0 0 0 3.125-3.125A3.125 3.125 0 0 0 5 0a3.125 3.125 0 0 0-3.125 3.125A3.125 3.125 0 0 0 5 6.25zm0-5a1.877 1.877 0 0 1 1.875 1.875A1.876 1.876 0 0 1 5 5a1.875 1.875 0 0 1-1.875-1.875A1.875 1.875 0 0 1 5 1.25zm7.5 11.25a4.033 4.033 0 0 0 4.023-4.062A4.055 4.055 0 0 0 12.5 4.375a4.033 4.033 0 0 0-4.031 4.063A4.012 4.012 0 0 0 12.5 12.5zm0-6.875a2.815 2.815 0 0 1 2.807 2.813A2.817 2.817 0 0 1 12.5 11.25a2.818 2.818 0 0 1-2.816-2.812A2.816 2.816 0 0 1 12.5 5.625z"/>
</svg>
