<svg xmlns="http://www.w3.org/2000/svg" width="20.25" height="18" viewBox="0 0 20.25 18">
    <path data-name="Path 6181" d="M-2.812-8.156a1.406 1.406 0 0 1 1.406-1.406h2.812a1.406 1.406 0 0 1 1.407 1.406v2.813a1.406 1.406 0 0 1-1.407 1.406h-2.812a1.406 1.406 0 0 1-1.406-1.407zm3.937 2.531v-2.25h-2.25v2.25zm-1.67-9.925a.841.841 0 0 1 1.09 0l5.643 4.788v-3.02a.87.87 0 0 1 .844-.875.87.87 0 0 1 .844.875v4.452l1.95 1.655a.842.842 0 0 1 .1 1.188.842.842 0 0 1-1.188.1l-.861-.731v6.556A2.812 2.812 0 0 1 5.063 2.25H-5.062A2.812 2.812 0 0 1-7.875-.562v-6.557l-.86.731a.843.843 0 0 1-1.189-.1.843.843 0 0 1 .1-1.188zm-5.643 7v7.988A1.124 1.124 0 0 0-5.063.563H5.063A1.124 1.124 0 0 0 6.188-.562V-8.55L0-13.8z" transform="translate(10.125 15.75)" style="fill:#0361e3"/>
</svg>
