<svg width="24" height="24" viewBox="0 0 24 24" fill="none" xmlns="http://www.w3.org/2000/svg">
<path d="M6.50008 7C7.96143 5.53865 9.59363 4.41899 10.6976 3.74088C11.5022 3.24665 12.498 3.24665 13.3026 3.74088C14.4065 4.41899 16.0387 5.53865 17.5001 7C20.6685 10.1684 20.5001 12 20.5001 15C20.5001 16.4098 20.3897 17.5988 20.2726 18.4632C20.1494 19.3726 19.3563 20 18.4385 20H17.0001C15.8955 20 15.0001 19.1046 15.0001 18V16C15.0001 15.2043 14.684 14.4413 14.1214 13.8787C13.5588 13.3161 12.7957 13 12.0001 13C11.2044 13 10.4414 13.3161 9.87877 13.8787C9.31616 14.4413 9.00009 15.2043 9.00009 16V18C9.00009 19.1046 8.10466 20 7.00009 20H5.56164C4.64391 20 3.85074 19.3726 3.72757 18.4631C3.61051 17.5988 3.50009 16.4098 3.50009 15C3.50009 12 3.33169 10.1684 6.50008 7Z" stroke="#F7F8FA" stroke-width="1.5" stroke-linecap="round" stroke-linejoin="round"/>
</svg>
