<svg xmlns="http://www.w3.org/2000/svg" width="136.187" height="65.531" viewBox="0 0 136.187 65.531">
    <g data-name="Group 13328">
        <g data-name="Group 10422">
            <path data-name="Path 1" d="m90.358 109.528-21.73 21.73a10.985 10.985 0 0 1-15.582 0l-21.73-21.73a10.985 10.985 0 0 1 0-15.582l21.73-21.73a10.985 10.985 0 0 1 15.582 0l21.73 21.73a10.984 10.984 0 0 1 0 15.582z" transform="translate(42.588 -68.975)" style="fill:#2d602f"/>
            <path data-name="Path 2" d="m73.213 115.348-1.7-8.948-6.087.852-.122 9.982a17.811 17.811 0 0 0 5.965 1.278 5.273 5.273 0 0 1 1.944-3.164z" transform="translate(28.021 -83.62)" style="fill:#9bca91"/>
            <path data-name="Path 3" d="M73.909 104s1.583 4.869 1.765 5.6c.122.73.487 4.139.122 4.626s-3.1-.061-3.165-1.461l-2.13-1.7" transform="translate(25.986 -82.681)" style="fill:#9bca91"/>
            <path data-name="Path 4" d="m68.762 108.576.791 1.643s.73-.183.67-.365c-.061-.122-.426-5.235-.426-5.235a3.769 3.769 0 0 0-1.156-2.556c-1.1-.791-6.635-1.339-9.191 3.409a3.045 3.045 0 0 0-.426 2.739c.426 1.826 3.713 5.843 3.713 5.843l2.861.061 2.556-2.983s-1.4-2.435-.243-2.983a.623.623 0 0 1 .851.427z" transform="translate(30.524 -81.718)" style="fill:#50a346"/>
            <path data-name="Path 5" d="M70.137 105.354a13.887 13.887 0 0 1-10.9 3.774s-2.678-6.939 3.713-8.4c6.457-1.461 7.37 3.472 7.187 4.626z" transform="translate(30.61 -81.296)" style="fill:#fff"/>
            <path data-name="Path 6" d="M71.039 126.661a5.221 5.221 0 0 1 .122-1.4 23.938 23.938 0 0 1-6.7-1.461l-.122.183-.243 1.339a13.106 13.106 0 0 0 6.943 1.339z" transform="translate(28.491 -90.429)" style="fill:#50a346"/>
            <path data-name="Path 7" d="M67.069 133.8a5.21 5.21 0 0 1 2.13-5.3 11.946 11.946 0 0 0-2.739-.73c-2.5.365-5.417-.67-6.939-1.278v.061c-1.4.548-5.478 1.461-6.391 6.513-.3 1.7-.73 2.13-.73 10.53l10.226 10.234a10.945 10.945 0 0 0 9.861 2.983l.183-9.191-.061-.061c.061 0 .061.061.122.061-1.831-3.957-5.114-11.322-5.662-13.822z" transform="translate(33.069 -91.486)" style="fill:#ffcf06"/>
            <path data-name="Path 8" d="M84.819 141.526s-1.765-5.3-2.739-8.521c-.487-1.583-2.009-2.5-3.53-3.1a5.272 5.272 0 0 0-2.13 5.3c.548 2.435 3.835 9.861 5.661 13.817a3.566 3.566 0 0 0 2.374.852c3.103-.131.364-8.348.364-8.348z" transform="translate(23.719 -92.816)" style="fill:#50a346"/>
            <g data-name="Group 1">
                <path data-name="Path 9" d="M99.577 99.112A7.165 7.165 0 1 1 88.5 90.468a.185.185 0 0 1 .3.183 7.726 7.726 0 0 0-.243 2.922 7.451 7.451 0 0 0 1.278 3.287 7.153 7.153 0 0 0 4.2 2.8 7.555 7.555 0 0 0 1.643.183 4.018 4.018 0 0 0 .852-.061 6.635 6.635 0 0 0 2.739-.913.2.2 0 0 1 .308.243z" transform="translate(19.917 -77.367)" style="fill:#ffc107"/>
            </g>
        </g>
        <g data-name="Group 9748">
            <path data-name="Path 10" d="M1.47-8.35q0-.259.024-.636t.059-.8q.035-.424.094-.859t.129-.812q.071-.471.471-.471H4.06q.447 0 .4.447-.047.518-.082 1.048t-.035.859A15.755 15.755 0 0 0 4.5-7.3a4.494 4.494 0 0 0 .643 1.81 3.31 3.31 0 0 0 1.436 1.2 6.078 6.078 0 0 0 2.521.436q.636 0 1.165-.035t1.024-.106q.024-.589.035-1.048t.024-.859q.012-.4.012-.8v-2.943a4.8 4.8 0 0 1 1.564-3.955 6.955 6.955 0 0 1 4.485-1.271 18.22 18.22 0 0 1 1.86.094q.918.094 1.53.212a.687.687 0 0 1 .294.141.426.426 0 0 1 .106.33v5.344q0 .518.235.671a1.667 1.667 0 0 0 .848.153h1.083v3.014h-1.86a7.691 7.691 0 0 1-1.436-.118 2.307 2.307 0 0 1-1.024-.447 2.02 2.02 0 0 1-.624-.906 4.411 4.411 0 0 1-.212-1.5v-4.144q-.353-.047-.589-.071t-.565-.024a2.986 2.986 0 0 0-2.025.6 2.777 2.777 0 0 0-.683 2.154v3.885q0 .848-.024 1.86t-.071 1.836q0 .424-.518.518-.989.165-2.2.259t-2.506.099a10.927 10.927 0 0 1-3.461-.483 5.771 5.771 0 0 1-2.343-1.412 5.6 5.6 0 0 1-1.33-2.319A11.081 11.081 0 0 1 1.47-8.35zm3.084 9.558a.437.437 0 0 1 .165-.365A.593.593 0 0 1 5.1.714h1.573a.593.593 0 0 1 .377.129.437.437 0 0 1 .165.365V2.88a.414.414 0 0 1-.177.33.579.579 0 0 1-.365.141H5.1a.562.562 0 0 1-.377-.141.423.423 0 0 1-.165-.33zm4.379 0A.437.437 0 0 1 9.1.843a.561.561 0 0 1 .351-.129h1.6a.561.561 0 0 1 .353.129.437.437 0 0 1 .165.365V2.88a.423.423 0 0 1-.165.33.534.534 0 0 1-.353.141h-1.6A.534.534 0 0 1 9.1 3.21a.423.423 0 0 1-.165-.33zM23.484-20a.507.507 0 0 1 .165-.388.567.567 0 0 1 .4-.153h1.625a.61.61 0 0 1 .412.153.492.492 0 0 1 .177.388v1.836a.457.457 0 0 1-.188.365.625.625 0 0 1-.4.153h-1.626a.567.567 0 0 1-.4-.153.481.481 0 0 1-.165-.365zm4.356 0a.492.492 0 0 1 .177-.388.58.58 0 0 1 .388-.153h1.648a.526.526 0 0 1 .388.153.526.526 0 0 1 .153.388v1.836a.5.5 0 0 1-.153.365.526.526 0 0 1-.388.153H28.4a.58.58 0 0 1-.388-.153.468.468 0 0 1-.177-.365zM22.424-7.644q0-.118.259-.2a1.7 1.7 0 0 1 .518-.082h1.483a1.759 1.759 0 0 0 .753-.106q.188-.106.188-.671v-2.8q0-1.46-.047-3.155a.432.432 0 0 1 .129-.318.462.462 0 0 1 .341-.129h1.978a.487.487 0 0 1 .377.129.564.564 0 0 1 .141.318q.024.753.035 1.33t.012 1.095v2.19q0 1.507-.012 2.531T28.5-5.855a1.152 1.152 0 0 1-.153.4.819.819 0 0 1-.388.283 4.645 4.645 0 0 1-.695.118q-.436.047-.965.082t-1.099.047q-.565.012-1.036.012H23.2a1.961 1.961 0 0 1-.518-.071q-.259-.071-.259-.212zm11.8-13.208q0-.447.471-.447h2.048a.4.4 0 0 1 .447.447v10.665a.5.5 0 0 1-.129.353.414.414 0 0 1-.318.141h-2.076a.414.414 0 0 1-.318-.141.5.5 0 0 1-.129-.353zM31.441-7.5a.414.414 0 0 1 .118-.306.446.446 0 0 1 .33-.118h8.264q.212 0 .447-.024a1.54 1.54 0 0 0 .436-.106.845.845 0 0 0 .33-.235.656.656 0 0 0 .129-.436v-13.611a.479.479 0 0 1 .141-.353.452.452 0 0 1 .33-.141h2.143a.414.414 0 0 1 .318.141.5.5 0 0 1 .129.353v14.009a.542.542 0 0 0 .259.2 2.11 2.11 0 0 0 .411.127 2.911 2.911 0 0 0 .447.059q.224.012.388.012h.589v3.014h-.283a9.045 9.045 0 0 1-1.707-.165 4.015 4.015 0 0 1-1.542-.636 3.061 3.061 0 0 1-.73.424 4.329 4.329 0 0 1-.824.247 6.27 6.27 0 0 1-.859.106q-.436.024-.812.024h-8a.446.446 0 0 1-.33-.118.414.414 0 0 1-.118-.306zm14.268-.141q0-.118.259-.2a1.7 1.7 0 0 1 .518-.082h2.354v-7.981a.452.452 0 0 1 .141-.33.452.452 0 0 1 .33-.141h2.025a.452.452 0 0 1 .33.141.452.452 0 0 1 .141.33v.871a5.51 5.51 0 0 1 1.342-.718 10.389 10.389 0 0 1 1.448-.424 10.094 10.094 0 0 1 1.354-.2q.636-.047 1.036-.047a10.64 10.64 0 0 1 2.743.33 5.307 5.307 0 0 1 2.107 1.071 4.78 4.78 0 0 1 1.342 1.954 8.186 8.186 0 0 1 .471 2.955v.965q0 .777-.071 1.754a11 11 0 0 1-.235 1.683 1.352 1.352 0 0 1-.224.436.752.752 0 0 1-.53.247 9.723 9.723 0 0 1-1.083.059q-.753.012-1.625.035t-1.7.024h-11.7a1.961 1.961 0 0 1-.518-.071q-.259-.071-.259-.212zm6.1-.259q.542.024 1.248.035t1.625.012h5.533a.367.367 0 0 0 .385-.297 5.9 5.9 0 0 0 .082-1.26v-.353a5.173 5.173 0 0 0-.271-1.789 2.714 2.714 0 0 0-.811-1.178 3.251 3.251 0 0 0-1.389-.636 9.324 9.324 0 0 0-2-.188q-.377 0-.942.047a9.915 9.915 0 0 0-1.189.177 8.38 8.38 0 0 0-1.224.353 4.265 4.265 0 0 0-1.048.553z" transform="translate(-1.47 30.546)" style="fill:#fff"/>
            <path data-name="Path 11" d="M11.99-10.416a5.079 5.079 0 0 1-.29 1.673 3.767 3.767 0 0 1-.964 1.485 5.034 5.034 0 0 1-1.8 1.064 8.156 8.156 0 0 1-2.782.41 18.851 18.851 0 0 1-2.195-.111Q3.035-6 2.237-6.182a.682.682 0 0 1-.3-.155.371.371 0 0 1-.122-.288v-1.6a.407.407 0 0 1 .122-.3.407.407 0 0 1 .3-.122h.044q.333.044.876.078l1.119.069q.576.033 1.1.055t.831.022a3.01 3.01 0 0 0 2.028-.51 1.939 1.939 0 0 0 .543-1.485A1.785 1.785 0 0 0 8.687-11a1.464 1.464 0 0 0-.31-.5A3.685 3.685 0 0 0 7.8-12q-.355-.255-.909-.587L3.966-14.34a7.6 7.6 0 0 1-1.275-.931 4.493 4.493 0 0 1-.8-.964 3.51 3.51 0 0 1-.421-1.042 5.1 5.1 0 0 1-.12-1.123 4.8 4.8 0 0 1 .288-1.685 3.247 3.247 0 0 1 .942-1.341 4.534 4.534 0 0 1 1.707-.874 9.345 9.345 0 0 1 2.6-.31q.554 0 1.175.033t1.219.1q.6.066 1.086.133t.776.133a.663.663 0 0 1 .288.144.354.354 0 0 1 .111.277v1.64a.414.414 0 0 1-.1.288.354.354 0 0 1-.277.111h-.044q-1.108-.111-2.195-.166t-2.167-.053a3.01 3.01 0 0 0-1.784.41 1.372 1.372 0 0 0-.544 1.16 1.567 1.567 0 0 0 .078.5 1.334 1.334 0 0 0 .288.466 3.229 3.229 0 0 0 .565.477 9.978 9.978 0 0 0 .887.532l2.66 1.485a9.027 9.027 0 0 1 1.507 1.031 4.8 4.8 0 0 1 .942 1.075 3.921 3.921 0 0 1 .488 1.153 5.383 5.383 0 0 1 .144 1.265zM23.695-6.4a.425.425 0 0 1-.133.31.425.425 0 0 1-.31.133h-1.885a.425.425 0 0 1-.31-.133.425.425 0 0 1-.133-.31v-.355a7.68 7.68 0 0 1-1.552.72 5.013 5.013 0 0 1-1.574.255 6.222 6.222 0 0 1-1.374-.155 3.093 3.093 0 0 1-1.23-.576 3.121 3.121 0 0 1-.887-1.131 4.236 4.236 0 0 1-.344-1.84v-.089a4.254 4.254 0 0 1 .3-1.663 2.869 2.869 0 0 1 .953-1.2 4.539 4.539 0 0 1 1.685-.732 10.872 10.872 0 0 1 2.472-.244h1.4v-.975a1.724 1.724 0 0 0-.477-1.441 2.475 2.475 0 0 0-1.474-.355q-1.064 0-2.062.055T15.2-16h-.111a.555.555 0 0 1-.288-.067q-.111-.067-.111-.31V-17.8a.452.452 0 0 1 .421-.466q.665-.133 1.607-.244a18.036 18.036 0 0 1 2.095-.111 5.534 5.534 0 0 1 3.624 1.042 3.916 3.916 0 0 1 1.252 3.192zm-2.926-5.054h-1.4a5.1 5.1 0 0 0-1.23.122 1.884 1.884 0 0 0-.754.355 1.159 1.159 0 0 0-.377.587 3.04 3.04 0 0 0-.1.82v.089a1.3 1.3 0 0 0 .377 1.1 2.091 2.091 0 0 0 1.219.277 4.083 4.083 0 0 0 1.186-.177 5.647 5.647 0 0 0 1.075-.443zm8.845 5.032a.485.485 0 0 1-.122.321.378.378 0 0 1-.3.144h-2.061a.41.41 0 0 1-.31-.144.463.463 0 0 1-.133-.321v-15.965a.425.425 0 0 1 .133-.31.425.425 0 0 1 .31-.133h2.062a.39.39 0 0 1 .3.133.445.445 0 0 1 .122.31zm12.258.022a.425.425 0 0 1-.133.31.425.425 0 0 1-.31.133h-1.884a.425.425 0 0 1-.31-.133.425.425 0 0 1-.135-.31v-.355a7.68 7.68 0 0 1-1.552.72 5.013 5.013 0 0 1-1.574.255 6.222 6.222 0 0 1-1.374-.158 3.093 3.093 0 0 1-1.23-.576 3.121 3.121 0 0 1-.887-1.131 4.236 4.236 0 0 1-.344-1.84v-.089a4.254 4.254 0 0 1 .3-1.663 2.869 2.869 0 0 1 .953-1.2 4.539 4.539 0 0 1 1.685-.732 10.872 10.872 0 0 1 2.472-.244h1.4v-.975a1.724 1.724 0 0 0-.477-1.441A2.475 2.475 0 0 0 37-16.18q-1.064 0-2.062.055T33.382-16h-.111a.555.555 0 0 1-.288-.067q-.111-.067-.111-.31V-17.8a.452.452 0 0 1 .421-.466q.665-.133 1.607-.244a18.036 18.036 0 0 1 2.1-.108 5.534 5.534 0 0 1 3.624 1.042 3.916 3.916 0 0 1 1.252 3.192zm-2.926-5.054h-1.4a5.1 5.1 0 0 0-1.23.122 1.884 1.884 0 0 0-.754.355 1.159 1.159 0 0 0-.377.587 3.04 3.04 0 0 0-.1.82v.089a1.3 1.3 0 0 0 .377 1.1 2.091 2.091 0 0 0 1.219.277 4.083 4.083 0 0 0 1.186-.177 5.647 5.647 0 0 0 1.075-.443zm12.17 5.121q0 .333-.421.4-.4.067-.765.111a6.166 6.166 0 0 1-.743.044 8.438 8.438 0 0 1-1.607-.133 2.263 2.263 0 0 1-1.1-.51 2.219 2.219 0 0 1-.618-1.079 6.744 6.744 0 0 1-.2-1.807v-6.961l-2.084-.31a.769.769 0 0 1-.31-.155.357.357 0 0 1-.133-.288v-1a.425.425 0 0 1 .133-.31.425.425 0 0 1 .31-.133h2.084v-1.818a.357.357 0 0 1 .133-.288.769.769 0 0 1 .31-.155l2.062-.355h.089q.355 0 .355.333v2.283h2a.425.425 0 0 1 .31.133.425.425 0 0 1 .133.31v1.308a.425.425 0 0 1-.133.31.425.425 0 0 1-.31.133h-2v6.961q0 .421.022.665a.814.814 0 0 0 .111.377A.383.383 0 0 0 49-8.1a2.59 2.59 0 0 0 .477.033h1.173q.466 0 .466.333zM63.53-18.086a.309.309 0 0 1-.022.133l-3.7 12.946a10.655 10.655 0 0 1-.576 1.563 3.269 3.269 0 0 1-.809 1.086 3.084 3.084 0 0 1-1.252.632 7.5 7.5 0 0 1-1.884.2q-.266 0-.6-.022t-.654-.067q-.321-.044-.61-.089a3.016 3.016 0 0 1-.488-.111 1.382 1.382 0 0 1-.321-.122.267.267 0 0 1-.144-.255v-1.419a.357.357 0 0 1 .13-.289.47.47 0 0 1 .31-.111h.044q.222 0 .565.022l.687.044.676.044q.333.022.576.022a1.921 1.921 0 0 0 1.108-.277 2.027 2.027 0 0 0 .646-1.144l.177-.665h-.333a2.5 2.5 0 0 1-.51-.055 1.418 1.418 0 0 1-.521-.233 1.875 1.875 0 0 1-.488-.543 3.782 3.782 0 0 1-.41-1.009l-2.9-10.153a.491.491 0 0 1-.022-.155q0-.355.421-.355h2.239a.347.347 0 0 1 .266.122.688.688 0 0 1 .155.277l2.239 9.022a1.319 1.319 0 0 0 .133.388.2.2 0 0 0 .177.1h.2l2.394-9.532a.6.6 0 0 1 .155-.266.39.39 0 0 1 .288-.111h2.261a.39.39 0 0 1 .288.111.363.363 0 0 1 .109.271z" transform="translate(-1.35 60.275)" style="fill:#fff"/>
        </g>
    </g>
</svg>
