<svg width="221" height="199" viewBox="0 0 221 199" fill="none" xmlns="http://www.w3.org/2000/svg">
<g filter="url(#filter0_d_1926_4162)">
<rect x="16" y="25" width="189" height="154" rx="25" fill="#4F008D"/>
</g>
<path d="M57.9388 96.768V108H55.2028V103.376H50.9468V108H48.2108V96.768H50.9468V101.168H55.2028V96.768H57.9388ZM63.9779 108.128C63.1032 108.128 62.3139 107.941 61.6099 107.568C60.9165 107.195 60.3672 106.661 59.9619 105.968C59.5672 105.275 59.3699 104.464 59.3699 103.536C59.3699 102.619 59.5725 101.813 59.9779 101.12C60.3832 100.416 60.9379 99.8773 61.6419 99.504C62.3459 99.1307 63.1352 98.944 64.0099 98.944C64.8845 98.944 65.6739 99.1307 66.3779 99.504C67.0819 99.8773 67.6365 100.416 68.0419 101.12C68.4472 101.813 68.6499 102.619 68.6499 103.536C68.6499 104.453 68.4419 105.264 68.0259 105.968C67.6205 106.661 67.0605 107.195 66.3459 107.568C65.6419 107.941 64.8525 108.128 63.9779 108.128ZM63.9779 105.76C64.5005 105.76 64.9432 105.568 65.3059 105.184C65.6792 104.8 65.8659 104.251 65.8659 103.536C65.8659 102.821 65.6845 102.272 65.3219 101.888C64.9699 101.504 64.5325 101.312 64.0099 101.312C63.4765 101.312 63.0339 101.504 62.6819 101.888C62.3299 102.261 62.1539 102.811 62.1539 103.536C62.1539 104.251 62.3245 104.8 62.6659 105.184C63.0179 105.568 63.4552 105.76 63.9779 105.76ZM78.9174 99.072V108H76.1814V106.784C75.904 107.179 75.5254 107.499 75.0454 107.744C74.576 107.979 74.0534 108.096 73.4774 108.096C72.7947 108.096 72.192 107.947 71.6694 107.648C71.1467 107.339 70.7414 106.896 70.4534 106.32C70.1654 105.744 70.0214 105.067 70.0214 104.288V99.072H72.7414V103.92C72.7414 104.517 72.896 104.981 73.2054 105.312C73.5147 105.643 73.9307 105.808 74.4534 105.808C74.9867 105.808 75.408 105.643 75.7174 105.312C76.0267 104.981 76.1814 104.517 76.1814 103.92V99.072H78.9174ZM83.6186 100.56C83.9386 100.069 84.3386 99.6853 84.8186 99.408C85.2986 99.12 85.832 98.976 86.4186 98.976V101.872H85.6666C84.984 101.872 84.472 102.021 84.1306 102.32C83.7893 102.608 83.6186 103.12 83.6186 103.856V108H80.8826V99.072H83.6186V100.56ZM90.4624 96.16V108H87.7264V96.16H90.4624ZM101.565 99.072L95.9651 112.24H93.0211L95.0691 107.696L91.4371 99.072H94.4931L96.5571 104.656L98.6051 99.072H101.565ZM109.577 108.128C108.798 108.128 108.105 107.995 107.497 107.728C106.889 107.461 106.409 107.099 106.057 106.64C105.705 106.171 105.508 105.648 105.465 105.072H108.169C108.201 105.381 108.345 105.632 108.601 105.824C108.857 106.016 109.172 106.112 109.545 106.112C109.886 106.112 110.148 106.048 110.329 105.92C110.521 105.781 110.617 105.605 110.617 105.392C110.617 105.136 110.484 104.949 110.217 104.832C109.95 104.704 109.518 104.565 108.921 104.416C108.281 104.267 107.748 104.112 107.321 103.952C106.894 103.781 106.526 103.52 106.217 103.168C105.908 102.805 105.753 102.32 105.753 101.712C105.753 101.2 105.892 100.736 106.169 100.32C106.457 99.8933 106.873 99.5573 107.417 99.312C107.972 99.0667 108.628 98.944 109.385 98.944C110.505 98.944 111.385 99.2213 112.025 99.776C112.676 100.331 113.049 101.067 113.145 101.984H110.617C110.574 101.675 110.436 101.429 110.201 101.248C109.977 101.067 109.678 100.976 109.305 100.976C108.985 100.976 108.74 101.04 108.569 101.168C108.398 101.285 108.313 101.451 108.313 101.664C108.313 101.92 108.446 102.112 108.713 102.24C108.99 102.368 109.417 102.496 109.993 102.624C110.654 102.795 111.193 102.965 111.609 103.136C112.025 103.296 112.388 103.563 112.697 103.936C113.017 104.299 113.182 104.789 113.193 105.408C113.193 105.931 113.044 106.4 112.745 106.816C112.457 107.221 112.036 107.541 111.481 107.776C110.937 108.011 110.302 108.128 109.577 108.128ZM123.283 103.392C123.283 103.648 123.267 103.915 123.235 104.192H117.043C117.086 104.747 117.262 105.173 117.571 105.472C117.891 105.76 118.28 105.904 118.739 105.904C119.422 105.904 119.896 105.616 120.163 105.04H123.075C122.926 105.627 122.654 106.155 122.259 106.624C121.875 107.093 121.39 107.461 120.803 107.728C120.216 107.995 119.56 108.128 118.835 108.128C117.96 108.128 117.182 107.941 116.499 107.568C115.816 107.195 115.283 106.661 114.899 105.968C114.515 105.275 114.323 104.464 114.323 103.536C114.323 102.608 114.51 101.797 114.883 101.104C115.267 100.411 115.8 99.8773 116.483 99.504C117.166 99.1307 117.95 98.944 118.835 98.944C119.699 98.944 120.467 99.1253 121.139 99.488C121.811 99.8507 122.334 100.368 122.707 101.04C123.091 101.712 123.283 102.496 123.283 103.392ZM120.483 102.672C120.483 102.203 120.323 101.829 120.003 101.552C119.683 101.275 119.283 101.136 118.803 101.136C118.344 101.136 117.955 101.269 117.635 101.536C117.326 101.803 117.134 102.181 117.059 102.672H120.483ZM127.462 100.56C127.782 100.069 128.182 99.6853 128.662 99.408C129.142 99.12 129.676 98.976 130.262 98.976V101.872H129.51C128.828 101.872 128.316 102.021 127.974 102.32C127.633 102.608 127.462 103.12 127.462 103.856V108H124.726V99.072H127.462V100.56ZM135.586 105.44L137.522 99.072H140.434L137.266 108H133.89L130.722 99.072H133.65L135.586 105.44ZM142.962 98.144C142.482 98.144 142.087 98.0053 141.778 97.728C141.479 97.44 141.33 97.088 141.33 96.672C141.33 96.2453 141.479 95.8933 141.778 95.616C142.087 95.328 142.482 95.184 142.962 95.184C143.431 95.184 143.815 95.328 144.114 95.616C144.423 95.8933 144.578 96.2453 144.578 96.672C144.578 97.088 144.423 97.44 144.114 97.728C143.815 98.0053 143.431 98.144 142.962 98.144ZM144.322 99.072V108H141.586V99.072H144.322ZM145.761 103.536C145.761 102.608 145.947 101.797 146.321 101.104C146.705 100.411 147.233 99.8773 147.905 99.504C148.587 99.1307 149.366 98.944 150.241 98.944C151.361 98.944 152.294 99.2373 153.041 99.824C153.798 100.411 154.294 101.237 154.529 102.304H151.617C151.371 101.621 150.897 101.28 150.193 101.28C149.691 101.28 149.291 101.477 148.993 101.872C148.694 102.256 148.545 102.811 148.545 103.536C148.545 104.261 148.694 104.821 148.993 105.216C149.291 105.6 149.691 105.792 150.193 105.792C150.897 105.792 151.371 105.451 151.617 104.768H154.529C154.294 105.813 153.798 106.635 153.041 107.232C152.283 107.829 151.35 108.128 150.241 108.128C149.366 108.128 148.587 107.941 147.905 107.568C147.233 107.195 146.705 106.661 146.321 105.968C145.947 105.275 145.761 104.464 145.761 103.536ZM164.408 103.392C164.408 103.648 164.392 103.915 164.36 104.192H158.168C158.211 104.747 158.387 105.173 158.696 105.472C159.016 105.76 159.405 105.904 159.864 105.904C160.547 105.904 161.021 105.616 161.288 105.04H164.2C164.051 105.627 163.779 106.155 163.384 106.624C163 107.093 162.515 107.461 161.928 107.728C161.341 107.995 160.685 108.128 159.96 108.128C159.085 108.128 158.307 107.941 157.624 107.568C156.941 107.195 156.408 106.661 156.024 105.968C155.64 105.275 155.448 104.464 155.448 103.536C155.448 102.608 155.635 101.797 156.008 101.104C156.392 100.411 156.925 99.8773 157.608 99.504C158.291 99.1307 159.075 98.944 159.96 98.944C160.824 98.944 161.592 99.1253 162.264 99.488C162.936 99.8507 163.459 100.368 163.832 101.04C164.216 101.712 164.408 102.496 164.408 103.392ZM161.608 102.672C161.608 102.203 161.448 101.829 161.128 101.552C160.808 101.275 160.408 101.136 159.928 101.136C159.469 101.136 159.08 101.269 158.76 101.536C158.451 101.803 158.259 102.181 158.184 102.672H161.608ZM169.483 108.128C168.705 108.128 168.011 107.995 167.403 107.728C166.795 107.461 166.315 107.099 165.963 106.64C165.611 106.171 165.414 105.648 165.371 105.072H168.075C168.107 105.381 168.251 105.632 168.507 105.824C168.763 106.016 169.078 106.112 169.451 106.112C169.793 106.112 170.054 106.048 170.235 105.92C170.427 105.781 170.523 105.605 170.523 105.392C170.523 105.136 170.39 104.949 170.123 104.832C169.857 104.704 169.425 104.565 168.827 104.416C168.187 104.267 167.654 104.112 167.227 103.952C166.801 103.781 166.433 103.52 166.123 103.168C165.814 102.805 165.659 102.32 165.659 101.712C165.659 101.2 165.798 100.736 166.075 100.32C166.363 99.8933 166.779 99.5573 167.323 99.312C167.878 99.0667 168.534 98.944 169.291 98.944C170.411 98.944 171.291 99.2213 171.931 99.776C172.582 100.331 172.955 101.067 173.051 101.984H170.523C170.481 101.675 170.342 101.429 170.107 101.248C169.883 101.067 169.585 100.976 169.211 100.976C168.891 100.976 168.646 101.04 168.475 101.168C168.305 101.285 168.219 101.451 168.219 101.664C168.219 101.92 168.353 102.112 168.619 102.24C168.897 102.368 169.323 102.496 169.899 102.624C170.561 102.795 171.099 102.965 171.515 103.136C171.931 103.296 172.294 103.563 172.603 103.936C172.923 104.299 173.089 104.789 173.099 105.408C173.099 105.931 172.95 106.4 172.651 106.816C172.363 107.221 171.942 107.541 171.387 107.776C170.843 108.011 170.209 108.128 169.483 108.128Z" fill="white"/>
<path d="M125.473 176C125.473 184.27 118.665 191 110.237 191C101.808 191 95 184.27 95 176C95 167.73 101.808 161 110.237 161C118.665 161 125.473 167.73 125.473 176Z" fill="#4F008D" stroke="white" stroke-width="2"/>
<path fill-rule="evenodd" clip-rule="evenodd" d="M109.411 182.036C109.054 182.388 108.476 182.388 108.12 182.036L102.64 176.636C102.283 176.285 102.283 175.715 102.64 175.363L108.12 169.963C108.476 169.612 109.054 169.612 109.411 169.963C109.768 170.315 109.768 170.885 109.411 171.236L105.49 175.1L116.072 175.1C116.576 175.1 116.985 175.503 116.985 176C116.985 176.497 116.576 176.9 116.072 176.9H105.49L109.411 180.763C109.768 181.115 109.768 181.685 109.411 182.036Z" fill="white"/>
<path d="M137.857 29C137.857 43.8841 125.605 56 110.429 56C95.2525 56 83 43.8841 83 29C83 14.1159 95.2525 2 110.429 2C125.605 2 137.857 14.1159 137.857 29Z" fill="#4F008D" stroke="white" stroke-width="4"/>
<path d="M110 23.6667V29L112.667 31.6667M122 29C122 35.6274 116.627 41 110 41C103.373 41 98 35.6274 98 29C98 22.3726 103.373 17 110 17C116.627 17 122 22.3726 122 29Z" stroke="white" stroke-width="2" stroke-linecap="round" stroke-linejoin="round"/>
<defs>
<filter id="filter0_d_1926_4162" x="0" y="13" width="221" height="186" filterUnits="userSpaceOnUse" color-interpolation-filters="sRGB">
<feFlood flood-opacity="0" result="BackgroundImageFix"/>
<feColorMatrix in="SourceAlpha" type="matrix" values="0 0 0 0 0 0 0 0 0 0 0 0 0 0 0 0 0 0 127 0" result="hardAlpha"/>
<feOffset dy="4"/>
<feGaussianBlur stdDeviation="8"/>
<feComposite in2="hardAlpha" operator="out"/>
<feColorMatrix type="matrix" values="0 0 0 0 0 0 0 0 0 0 0 0 0 0 0 0 0 0 0.08 0"/>
<feBlend mode="normal" in2="BackgroundImageFix" result="effect1_dropShadow_1926_4162"/>
<feBlend mode="normal" in="SourceGraphic" in2="effect1_dropShadow_1926_4162" result="shape"/>
</filter>
</defs>
</svg>
