<svg width="221" height="199" viewBox="0 0 221 199" fill="none" xmlns="http://www.w3.org/2000/svg">
<g filter="url(#filter0_d_186_3334)">
<rect x="16" y="25" width="189" height="154" rx="25" fill="#4F008D"/>
</g>
<path d="M61.8755 108C60.9688 108 60.2222 107.856 59.6355 107.568C59.0488 107.28 58.6115 106.843 58.3235 106.256C58.0462 105.669 57.9075 104.928 57.9075 104.032C57.9075 103.136 58.0462 102.389 58.3235 101.792C58.6115 101.184 59.0488 100.731 59.6355 100.432C60.2222 100.123 60.9688 99.968 61.8755 99.968H65.4915V106.992H63.3475V101.36L63.8755 101.824H61.8755C61.4382 101.824 61.0862 101.877 60.8195 101.984C60.5528 102.08 60.3555 102.288 60.2275 102.608C60.1102 102.917 60.0515 103.392 60.0515 104.032C60.0515 104.64 60.1048 105.099 60.2115 105.408C60.3288 105.707 60.5208 105.904 60.7875 106C61.0542 106.096 61.4168 106.144 61.8755 106.144H67.1715V108H61.8755ZM67.1715 108V106.144C67.2355 106.144 67.2835 106.165 67.3155 106.208C67.3582 106.251 67.3902 106.315 67.4115 106.4C67.4435 106.485 67.4648 106.587 67.4755 106.704C67.4862 106.811 67.4915 106.933 67.4915 107.072C67.4915 107.211 67.4862 107.339 67.4755 107.456C67.4648 107.573 67.4435 107.675 67.4115 107.76C67.3902 107.835 67.3582 107.893 67.3155 107.936C67.2835 107.979 67.2355 108 67.1715 108ZM59.4915 98.496V96.672H61.5555V98.496H59.4915ZM62.4035 98.496V96.672H64.4675V98.496H62.4035ZM70.1818 107.744C69.6378 107.232 69.2271 106.688 68.9498 106.112C68.6831 105.536 68.5498 104.923 68.5498 104.272C68.5498 103.643 68.6671 103.067 68.9018 102.544C69.1364 102.011 69.4564 101.552 69.8618 101.168C70.2671 100.784 70.7364 100.491 71.2698 100.288C71.8138 100.075 72.3844 99.968 72.9818 99.968C73.3018 99.968 73.6378 100 73.9898 100.064C74.3418 100.128 74.6778 100.213 74.9978 100.32L74.3578 102.064C74.1338 101.989 73.9098 101.931 73.6858 101.888C73.4724 101.845 73.2644 101.824 73.0618 101.824C72.5924 101.824 72.1764 101.931 71.8138 102.144C71.4511 102.347 71.1684 102.629 70.9658 102.992C70.7738 103.355 70.6778 103.771 70.6778 104.24C70.6778 104.667 70.7631 105.067 70.9338 105.44C71.1151 105.813 71.3711 106.149 71.7018 106.448L70.1818 107.744ZM67.1738 108V106.144H75.1418V108H67.1738ZM67.1738 108C67.1098 108 67.0618 107.979 67.0298 107.936C66.9871 107.893 66.9551 107.835 66.9338 107.76C66.9018 107.675 66.8804 107.573 66.8698 107.456C66.8591 107.339 66.8538 107.211 66.8538 107.072C66.8538 106.88 66.8644 106.72 66.8858 106.592C66.9071 106.453 66.9444 106.347 66.9978 106.272C67.0404 106.187 67.0991 106.144 67.1738 106.144V108ZM79.9918 108V106.144H81.8158V108H79.9918ZM77.8638 108V96.688H79.9918V108H77.8638ZM81.8158 108V106.144C81.8798 106.144 81.9278 106.165 81.9598 106.208C82.0024 106.251 82.0344 106.315 82.0558 106.4C82.0878 106.485 82.1091 106.587 82.1198 106.704C82.1304 106.811 82.1358 106.933 82.1358 107.072C82.1358 107.211 82.1304 107.339 82.1198 107.456C82.1091 107.573 82.0878 107.675 82.0558 107.76C82.0344 107.835 82.0024 107.893 81.9598 107.936C81.9278 107.979 81.8798 108 81.8158 108ZM95.2384 108V106.144H96.9344V108H95.2384ZM81.8144 108C81.7504 108 81.7024 107.979 81.6704 107.936C81.6277 107.893 81.5957 107.835 81.5744 107.76C81.5424 107.675 81.521 107.573 81.5104 107.456C81.4997 107.339 81.4944 107.211 81.4944 107.072C81.4944 106.88 81.505 106.72 81.5264 106.592C81.5477 106.453 81.585 106.347 81.6384 106.272C81.681 106.187 81.7397 106.144 81.8144 106.144V108ZM91.2224 108C90.785 108 90.3477 107.92 89.9104 107.76C89.4837 107.589 89.089 107.339 88.7264 107.008L90.0384 105.648C90.2517 105.819 90.449 105.947 90.6304 106.032C90.8224 106.107 91.0197 106.144 91.2224 106.144H94.2144L93.1104 107.152V103.6C93.1104 103.429 93.089 103.173 93.0464 102.832C93.0144 102.48 92.961 102.085 92.8864 101.648C92.8224 101.2 92.7424 100.747 92.6464 100.288L94.7584 99.968C94.833 100.352 94.9024 100.784 94.9664 101.264C95.041 101.733 95.105 102.181 95.1584 102.608C95.2117 103.024 95.2384 103.355 95.2384 103.6V108H91.2224ZM81.8144 108V106.144H84.1504L83.6704 106.64V101.6H85.8144V108H81.8144ZM85.8144 108V106.144H87.1104C87.4517 106.144 87.713 106.096 87.8944 106C88.0757 105.893 88.1984 105.685 88.2624 105.376C88.337 105.056 88.3744 104.581 88.3744 103.952V100.8H90.5184V103.952C90.5184 104.901 90.3957 105.675 90.1504 106.272C89.9157 106.869 89.5477 107.307 89.0464 107.584C88.545 107.861 87.8997 108 87.1104 108H85.8144ZM96.9344 108V106.144C96.9877 106.144 97.0357 106.165 97.0784 106.208C97.121 106.251 97.153 106.315 97.1744 106.4C97.1957 106.485 97.2117 106.587 97.2224 106.704C97.2437 106.811 97.2544 106.933 97.2544 107.072C97.2544 107.211 97.2437 107.339 97.2224 107.456C97.2117 107.573 97.1957 107.675 97.1744 107.76C97.153 107.835 97.121 107.893 97.0784 107.936C97.0357 107.979 96.9877 108 96.9344 108ZM98.7474 108V96.688H100.891V108H98.7474ZM96.9394 108V106.144H98.7474V108H96.9394ZM96.9394 108C96.8754 108 96.8274 107.979 96.7954 107.936C96.7527 107.893 96.7207 107.835 96.6994 107.76C96.6674 107.675 96.646 107.573 96.6354 107.456C96.6247 107.339 96.6194 107.211 96.6194 107.072C96.6194 106.88 96.63 106.72 96.6514 106.592C96.6727 106.453 96.71 106.347 96.7634 106.272C96.806 106.187 96.8647 106.144 96.9394 106.144V108ZM105.586 108V106.144H107.41V108H105.586ZM103.458 108V96.688H105.586V108H103.458ZM107.41 108V106.144C107.474 106.144 107.522 106.165 107.554 106.208C107.596 106.251 107.628 106.315 107.65 106.4C107.682 106.485 107.703 106.587 107.714 106.704C107.724 106.811 107.73 106.933 107.73 107.072C107.73 107.211 107.724 107.339 107.714 107.456C107.703 107.573 107.682 107.675 107.65 107.76C107.628 107.835 107.596 107.893 107.554 107.936C107.522 107.979 107.474 108 107.41 108ZM107.408 108V106.144H110.336L109.088 107.184V99.968H111.232V108H107.408ZM107.408 108C107.344 108 107.296 107.979 107.264 107.936C107.221 107.893 107.189 107.835 107.168 107.76C107.136 107.675 107.115 107.573 107.104 107.456C107.093 107.339 107.088 107.211 107.088 107.072C107.088 106.88 107.099 106.72 107.12 106.592C107.141 106.453 107.179 106.347 107.232 106.272C107.275 106.187 107.333 106.144 107.408 106.144V108ZM109.088 111.408V109.584H111.232V111.408H109.088ZM121.781 108C120.64 108 119.674 107.851 118.885 107.552C118.106 107.253 117.514 106.811 117.109 106.224C116.714 105.637 116.517 104.907 116.517 104.032C116.517 103.776 116.533 103.509 116.565 103.232C116.597 102.944 116.634 102.672 116.677 102.416C116.73 102.149 116.778 101.915 116.821 101.712C116.864 101.509 116.896 101.36 116.917 101.264L118.997 101.664C118.965 101.835 118.922 102.053 118.869 102.32C118.816 102.587 118.768 102.869 118.725 103.168C118.682 103.456 118.661 103.733 118.661 104C118.661 104.416 118.725 104.763 118.853 105.04C118.992 105.317 119.194 105.541 119.461 105.712C119.728 105.872 120.064 105.984 120.469 106.048C120.874 106.112 121.349 106.144 121.893 106.144H126.165V99.968H128.309V108H121.781ZM119.941 99.632V97.808H122.005V99.632H119.941ZM122.853 99.632V97.808H124.917V99.632H122.853ZM132.851 108V106.144H134.675V108H132.851ZM130.723 108V96.688H132.851V108H130.723ZM134.675 108V106.144C134.739 106.144 134.787 106.165 134.819 106.208C134.862 106.251 134.894 106.315 134.915 106.4C134.947 106.485 134.968 106.587 134.979 106.704C134.99 106.811 134.995 106.933 134.995 107.072C134.995 107.211 134.99 107.339 134.979 107.456C134.968 107.573 134.947 107.675 134.915 107.76C134.894 107.835 134.862 107.893 134.819 107.936C134.787 107.979 134.739 108 134.675 108ZM134.674 108V106.144H142.978L142.002 106.976V104.032C142.002 103.456 141.938 103.008 141.81 102.688C141.682 102.357 141.458 102.128 141.138 102C140.828 101.861 140.396 101.792 139.842 101.792C139.404 101.792 138.972 101.824 138.546 101.888C138.13 101.941 137.804 102.016 137.57 102.112L138.898 100.864C138.834 101.109 138.77 101.419 138.706 101.792C138.652 102.165 138.604 102.565 138.562 102.992C138.519 103.408 138.498 103.819 138.498 104.224C138.498 104.597 138.514 104.987 138.546 105.392C138.588 105.797 138.631 106.155 138.674 106.464C138.727 106.773 138.77 106.987 138.802 107.104L136.77 107.664C136.727 107.515 136.674 107.269 136.61 106.928C136.546 106.587 136.487 106.181 136.434 105.712C136.391 105.243 136.37 104.747 136.37 104.224C136.37 103.691 136.396 103.179 136.45 102.688C136.503 102.187 136.562 101.739 136.626 101.344C136.7 100.939 136.77 100.613 136.834 100.368C137.09 100.272 137.49 100.176 138.034 100.08C138.578 99.984 139.18 99.936 139.842 99.936C140.802 99.936 141.596 100.069 142.226 100.336C142.866 100.603 143.34 101.035 143.65 101.632C143.97 102.229 144.13 103.035 144.13 104.048V108H134.674ZM134.674 108C134.61 108 134.562 107.979 134.53 107.936C134.487 107.893 134.455 107.835 134.434 107.76C134.402 107.675 134.38 107.573 134.37 107.456C134.359 107.339 134.354 107.211 134.354 107.072C134.354 106.88 134.364 106.72 134.386 106.592C134.407 106.453 134.444 106.347 134.498 106.272C134.54 106.187 134.599 106.144 134.674 106.144V108ZM152.388 108V106.144H154.068V108H152.388ZM145.892 108V106.144H151.7L150.244 107.408V104.72C150.244 103.963 150.164 103.376 150.004 102.96C149.855 102.544 149.599 102.251 149.236 102.08C148.884 101.909 148.399 101.824 147.78 101.824H146.484V99.968H147.78C148.761 99.968 149.593 100.128 150.276 100.448C150.969 100.768 151.492 101.28 151.844 101.984C152.207 102.677 152.388 103.589 152.388 104.72V108H145.892ZM154.068 108V106.144C154.132 106.144 154.185 106.165 154.228 106.208C154.271 106.251 154.303 106.315 154.324 106.4C154.345 106.485 154.361 106.587 154.372 106.704C154.383 106.811 154.388 106.933 154.388 107.072C154.388 107.211 154.383 107.339 154.372 107.456C154.361 107.573 154.345 107.675 154.324 107.76C154.303 107.835 154.271 107.893 154.228 107.936C154.185 107.979 154.132 108 154.068 108ZM154.064 108V106.144H160.944L160.224 106.736V103.776C160.224 103.136 160.022 102.651 159.616 102.32C159.222 101.989 158.592 101.824 157.728 101.824C157.483 101.824 157.147 101.845 156.72 101.888C156.294 101.92 155.83 101.973 155.328 102.048L155.12 100.352C155.579 100.245 156.043 100.155 156.512 100.08C156.992 100.005 157.462 99.968 157.92 99.968C158.795 99.968 159.563 100.123 160.224 100.432C160.886 100.731 161.403 101.163 161.776 101.728C162.16 102.293 162.352 102.976 162.352 103.776V108H154.064ZM154.064 108C154 108 153.952 107.979 153.92 107.936C153.878 107.893 153.846 107.835 153.824 107.76C153.792 107.675 153.771 107.573 153.76 107.456C153.75 107.339 153.744 107.211 153.744 107.072C153.744 106.88 153.755 106.72 153.776 106.592C153.798 106.453 153.835 106.347 153.888 106.272C153.931 106.187 153.99 106.144 154.064 106.144V108ZM156.832 98.704V96.88H158.976V98.704H156.832Z" fill="white"/>
<path d="M125.473 176C125.473 184.27 118.665 191 110.237 191C101.808 191 95 184.27 95 176C95 167.73 101.808 161 110.237 161C118.665 161 125.473 167.73 125.473 176Z" fill="#4F008D" stroke="white" stroke-width="2"/>
<path fill-rule="evenodd" clip-rule="evenodd" d="M109.411 182.036C109.054 182.388 108.476 182.388 108.12 182.036L102.64 176.636C102.283 176.285 102.283 175.715 102.64 175.363L108.12 169.963C108.476 169.612 109.054 169.612 109.411 169.963C109.768 170.315 109.768 170.885 109.411 171.236L105.49 175.1L116.072 175.1C116.576 175.1 116.985 175.503 116.985 176C116.985 176.497 116.576 176.9 116.072 176.9H105.49L109.411 180.763C109.768 181.115 109.768 181.685 109.411 182.036Z" fill="white"/>
<path d="M137.857 29C137.857 43.8841 125.605 56 110.429 56C95.2525 56 83 43.8841 83 29C83 14.1159 95.2525 2 110.429 2C125.605 2 137.857 14.1159 137.857 29Z" fill="#4F008D" stroke="white" stroke-width="4"/>
<path d="M110 23.6667V29L112.667 31.6667M122 29C122 35.6274 116.627 41 110 41C103.373 41 98 35.6274 98 29C98 22.3726 103.373 17 110 17C116.627 17 122 22.3726 122 29Z" stroke="white" stroke-width="2" stroke-linecap="round" stroke-linejoin="round"/>
<defs>
<filter id="filter0_d_186_3334" x="0" y="13" width="221" height="186" filterUnits="userSpaceOnUse" color-interpolation-filters="sRGB">
<feFlood flood-opacity="0" result="BackgroundImageFix"/>
<feColorMatrix in="SourceAlpha" type="matrix" values="0 0 0 0 0 0 0 0 0 0 0 0 0 0 0 0 0 0 127 0" result="hardAlpha"/>
<feOffset dy="4"/>
<feGaussianBlur stdDeviation="8"/>
<feComposite in2="hardAlpha" operator="out"/>
<feColorMatrix type="matrix" values="0 0 0 0 0 0 0 0 0 0 0 0 0 0 0 0 0 0 0.08 0"/>
<feBlend mode="normal" in2="BackgroundImageFix" result="effect1_dropShadow_186_3334"/>
<feBlend mode="normal" in="SourceGraphic" in2="effect1_dropShadow_186_3334" result="shape"/>
</filter>
</defs>
</svg>
