<svg xmlns="http://www.w3.org/2000/svg" width="20" height="20" viewBox="0 0 20 20">
    <path data-name="Path 6212" d="M10 0A10 10 0 0 0 0 10a10 10 0 0 0 10 10 10 10 0 0 0 10-10A10 10 0 0 0 10 0zm0 18.75A8.761 8.761 0 0 1 1.25 10 8.761 8.761 0 0 1 10 1.25 8.761 8.761 0 0 1 18.75 10 8.761 8.761 0 0 1 10 18.75zm0-11.562a.937.937 0 0 0 .938-.937.938.938 0 0 0-.938-.938.936.936 0 0 0-.937.938.935.935 0 0 0 .937.937zm1.875 6.562h-1.25V9.375A.627.627 0 0 0 10 8.75H8.75a.627.627 0 0 0-.625.625.627.627 0 0 0 .625.625h.625v3.75h-1.25a.627.627 0 0 0-.625.625.627.627 0 0 0 .625.625h3.75a.625.625 0 0 0 .625-.625.627.627 0 0 0-.625-.625z"/>
</svg>
