<svg xmlns="http://www.w3.org/2000/svg" width="20" height="20" viewBox="0 0 20 20">
    <path data-name="Path 6211" d="M13.125 0A6.876 6.876 0 0 0 6.25 6.875a5.692 5.692 0 0 0 .227 1.758l-6.2 6.2a.932.932 0 0 0-.277.659v3.57A.936.936 0 0 0 .938 20h4.375a.935.935 0 0 0 .938-.937V17.5h1.563a.935.935 0 0 0 .936-.937V15h.757a.936.936 0 0 0 .659-.273l1.2-1.2a7.055 7.055 0 0 0 1.757.189A6.876 6.876 0 0 0 20 6.84 6.867 6.867 0 0 0 13.125 0zm0 12.5a5.518 5.518 0 0 1-2.095-.405L9.375 13.75H7.5v2.5H5v2.5H1.25v-3.125l6.656-6.656A5.479 5.479 0 0 1 7.5 6.875a5.626 5.626 0 0 1 5.625-5.625 5.626 5.626 0 0 1 5.625 5.625 5.626 5.626 0 0 1-5.625 5.625zM15 4.063a.937.937 0 0 0-.937.938.938.938 0 0 0 .937.937.936.936 0 0 0 .938-.937.935.935 0 0 0-.938-.938z"/>
</svg>
