<svg width="14" height="15" viewBox="0 0 14 15" fill="none" xmlns="http://www.w3.org/2000/svg">
<path d="M10.2998 10.2165C9.87943 10.6368 9.10623 11.41 8.4139 12.1023C7.63285 12.8834 6.36687 12.8833 5.58583 12.1022C4.9069 11.4233 4.14589 10.6623 3.70009 10.2165C1.87764 8.39405 1.87764 5.43928 3.70009 3.61684C5.52253 1.79439 8.4773 1.79439 10.2998 3.61684C12.1222 5.43928 12.1222 8.39405 10.2998 10.2165Z" stroke="#4F008D" stroke-linecap="round" stroke-linejoin="round"/>
<path d="M8.74992 6.91667C8.74992 7.88316 7.96642 8.66667 6.99992 8.66667C6.03342 8.66667 5.24992 7.88316 5.24992 6.91667C5.24992 5.95017 6.03342 5.16667 6.99992 5.16667C7.96642 5.16667 8.74992 5.95017 8.74992 6.91667Z" stroke="#4F008D" stroke-linecap="round" stroke-linejoin="round"/>
</svg>
