<svg width="41" height="40" viewBox="0 0 41 40" fill="none" xmlns="http://www.w3.org/2000/svg">
<path d="M7.93227 32.6798C5.75069 33.1001 4.05724 34.0516 2.90633 35.594L2.67729 35.5669C2.67729 35.2302 2.67729 34.8934 2.67729 34.5567C2.67729 33.6934 2.51696 33.5725 1.41615 33.6312C1.17566 33.6437 0.938035 33.6911 0.5 33.7487C1.60368 32.7916 2.93782 32.4651 4.30345 32.0944C3.44743 31.9001 2.57136 31.7125 2.53843 30.9113C2.5098 30.2412 2.72882 29.5926 3.69221 29.3169C3.7781 29.292 3.84681 29.1508 3.85826 29.0581C4.05581 27.5959 5.64476 27.6038 6.69976 28.197C7.43698 28.6117 8.02532 29.1926 8.67951 29.6999C8.7611 29.7327 8.8427 29.7666 8.92286 29.7994C8.88421 29.7316 8.84556 29.6638 8.80691 29.5971C8.12552 28.1236 7.3654 26.6704 6.78279 25.1731C5.8924 22.8871 6.0241 20.6407 7.4928 18.4824C7.76335 18.0846 7.79485 17.5863 7.93656 17.1343C9.86764 16.3342 10.31 13.8267 8.54781 12.864C9.07316 14.0087 8.45906 14.9251 8.00528 15.8856C7.82777 16.2597 7.96233 16.7252 7.95517 17.1501C7.19935 16.9004 7.39976 16.3986 7.50855 15.9659C7.66458 15.3466 8.011 14.7488 8.09117 14.1273C8.24147 12.9646 7.72327 11.9295 6.82716 11.0469C6.49506 11.0345 6.16295 11.0221 5.64046 11.0029C5.80222 11.5441 6.01837 12.1137 6.13289 12.6945C6.31755 13.6245 6.44353 14.5635 6.5695 15.5003C6.57952 15.5749 6.40344 15.6653 6.23167 15.6969C5.88525 17.1015 5.28688 18.4134 3.47176 19.392C4.44803 17.2405 3.42166 15.4076 2.77463 13.5363C2.42105 12.5137 2.2049 11.4718 2.51267 10.4175C2.8276 9.33837 3.38587 8.98467 4.38934 9.09428C4.61122 9.11801 4.84026 9.09768 4.97339 9.09768C6.13003 8.18689 5.75784 7.00717 6.05273 5.96417C6.7198 3.60246 9.01018 2.58432 11.7314 2.41256C12.649 2.35493 13.5781 2.46567 14.2852 1.86112C14.3825 1.7775 14.5486 1.68823 14.55 1.60009C14.5572 1.16843 14.8263 1.01813 15.3388 0.882534C15.6723 0.794394 15.8756 0.398892 16.2821 0C16.4095 0.693824 16.5226 1.21928 16.5985 1.74812C16.6772 2.29617 16.713 2.84761 16.7803 3.3968C16.796 3.52223 16.8161 3.69512 16.9191 3.7584C18.2905 4.59573 18.3907 5.80145 18.4752 7.01621C18.4795 7.08288 18.4852 7.14955 18.4938 7.24673H19.0449C19.0449 7.28854 19.0635 7.34052 19.042 7.35408C18.5324 7.66935 18.6527 7.97671 19.0535 8.2852C19.2568 8.44114 19.4414 8.61403 19.6604 8.75302C20.3576 9.19486 20.379 9.38018 19.7606 9.89885C19.6833 9.96326 19.606 10.0288 19.6604 9.98247C19.6604 10.691 19.6604 11.2808 19.6604 11.8707C19.6604 12.1656 19.6304 12.4628 19.6705 12.7544C19.7463 13.3137 19.533 13.603 18.7443 13.5329C18.269 13.4911 17.7809 13.5442 17.3013 13.5216C15.2973 13.4267 15.0138 14.09 14.4069 15.1613C14.2823 15.3794 14.2108 15.6167 14.112 15.8449C13.7556 16.6744 13.7856 16.6088 14.8335 16.9083C15.4032 17.0721 15.8427 17.5117 16.3537 17.8123C16.9735 18.1761 17.6077 18.5253 18.196 19.0033C17.7208 18.9626 17.2455 18.9219 16.7703 18.8813C16.7545 18.9163 16.7388 18.9513 16.7216 18.9875C17.8052 19.5932 18.8574 20.2361 19.9782 20.7944C21.4956 21.5515 21.6803 23.2566 20.9903 24.3234C20.4263 25.1957 19.9066 26.0862 19.3741 26.971C19.3298 27.0444 19.3412 27.1393 19.4743 27.3461C20.3475 26.78 21.185 26.1721 22.1083 25.6613C22.7582 25.302 23.4925 24.9539 24.2512 24.8206C24.9984 24.6895 25.3892 24.3946 25.6025 23.8974C26.2424 22.4046 26.8551 20.9051 27.4635 19.4045C27.5236 19.2542 27.5522 19.0553 27.4778 18.9186C27.0956 18.218 27.2573 17.6744 28.1363 17.3286C27.5952 13.7397 25.9862 10.474 23.6543 7.24221C24.8839 6.9597 26.0592 6.6885 27.2373 6.42069C27.316 6.40261 27.4191 6.43877 27.4892 6.41278C28.4268 6.07265 28.8806 6.41843 29.1798 7.10435C29.1483 6.86365 29.1154 6.62296 29.0767 6.32803C31.5661 6.08621 33.8006 6.6998 35.9622 7.7089C35.6229 8.16768 35.2808 8.62872 34.9401 9.08977C34.827 9.24119 34.7139 9.39261 34.6008 9.5429C34.6467 9.56324 34.6939 9.58358 34.7397 9.60505L35.0646 9.19372C35.507 8.80048 35.9507 8.40837 36.4661 7.95185C37.1274 8.41063 37.7501 8.84116 38.4186 9.30447C38.1509 9.50109 37.9362 9.65703 37.7229 9.8141C37.6814 9.87851 37.6385 9.94179 37.5969 10.0062C37.6828 9.97569 37.7687 9.94518 37.8546 9.91467C38.536 9.60053 39.0427 9.65929 39.4321 10.2684C39.7012 10.6899 40.1078 11.056 40.5 11.5001C39.3691 11.9792 38.2569 12.3442 37.2963 12.8787C35.318 13.9793 33.4199 15.1692 31.4917 16.3252C31.2698 16.4585 31.0636 16.6066 30.8475 16.7467C30.2362 17.1444 29.5964 17.4834 29.8097 18.288C29.8798 18.5558 29.4074 18.9231 29.1498 19.2282C29.0352 19.3638 28.7489 19.4338 28.6931 19.5717C27.85 21.6509 27.0311 23.7358 26.2882 25.6184C26.6332 26.0839 27.1986 26.6026 27.0813 26.7303C26.7005 27.145 27.4763 27.9202 26.3956 28.0445C26.5359 28.7846 25.6956 29.5768 24.6578 29.6536C24.5117 30.0129 24.3672 30.3859 24.2097 30.7565C23.9711 31.3185 23.461 31.4793 22.6794 31.239C22.8913 30.6706 23.1046 30.0932 23.2993 29.5711C21.8048 29.0931 20.9531 29.7983 20.0641 30.5531C18.8917 31.5486 18.9647 31.4899 19.5702 32.7193C20.5837 34.7771 21.4469 36.8811 22.3588 38.9694C22.4261 39.1242 22.3674 39.3129 22.3674 39.5287C19.3541 39.0067 16.4682 39.1909 13.5466 39.705C10.4545 40.2497 7.38831 40.0915 4.58689 38.7965C5.24108 36.5805 5.82083 34.3804 8.05967 32.7837C8.10119 32.7193 8.14413 32.656 8.18564 32.5916C8.09975 32.6221 8.01387 32.6526 7.92798 32.6832L7.93227 32.6798ZM5.00631 28.8457C5.86091 29.3124 6.56091 29.6954 7.26234 30.0785C6.87154 29.0841 5.8924 28.5383 5.00631 28.8457Z" fill="#FCB415"/>
</svg>
