<svg width="221" height="199" viewBox="0 0 221 199" fill="none" xmlns="http://www.w3.org/2000/svg">
<g filter="url(#filter0_d_1926_4175)">
<rect x="16" y="25" width="189" height="154" rx="25" fill="#4F008D"/>
</g>
<path d="M81 25H52.6364L16 72.9091V110L81 25Z" fill="#FABD13"/>
<path d="M33.3357 76.2531C33.1485 76.4976 32.9329 76.7485 32.6891 77.0058C32.458 77.2617 32.2311 77.4967 32.0086 77.7108C31.7917 77.9175 31.6003 78.0908 31.4345 78.2308L30.4191 77.281C30.5878 77.1066 30.777 76.913 30.9869 76.7002C31.2023 76.48 31.4086 76.2642 31.6057 76.0528C31.8014 75.8278 31.9559 75.6412 32.0694 75.493C32.2396 75.2707 32.3609 75.0738 32.4334 74.9025C32.5115 74.7238 32.5401 74.5639 32.5191 74.4227C32.491 74.2755 32.3992 74.1348 32.2438 74.0006C32.1236 73.897 32.0062 73.8511 31.8915 73.8629C31.7825 73.8674 31.6388 73.9402 31.4602 74.0815C31.2803 74.2093 31.0379 74.4186 30.7331 74.7094C30.3589 75.0757 30.0138 75.3502 29.6979 75.5329C29.3876 75.7083 29.0818 75.7706 28.7804 75.7198C28.472 75.6629 28.1375 75.479 27.7771 75.168C27.3389 74.7901 27.0727 74.3944 26.9786 73.9809C26.8844 73.5674 26.9155 73.1512 27.0718 72.7324C27.2211 72.3074 27.4461 71.8986 27.7468 71.5058C27.9454 71.2464 28.1637 70.9918 28.4019 70.742C28.633 70.486 28.8599 70.251 29.0824 70.037C29.305 69.8229 29.4963 69.6495 29.6565 69.517L30.6931 70.485C30.523 70.6459 30.3338 70.8395 30.1253 71.0658C29.9099 71.286 29.7014 71.5123 29.5001 71.7446C29.3044 71.9696 29.1442 72.1636 29.0193 72.3266C28.8889 72.4971 28.7902 72.6643 28.7234 72.8282C28.6496 72.9859 28.6196 73.1324 28.6336 73.2674C28.6532 73.3951 28.7337 73.5199 28.875 73.6418C28.974 73.7272 29.0779 73.7676 29.1869 73.7632C29.2959 73.7588 29.4375 73.6964 29.6118 73.576C29.7847 73.4422 30.0143 73.2342 30.3007 72.9521C30.716 72.5474 31.0852 72.2568 31.4082 72.0801C31.7312 71.9035 32.0441 71.8473 32.3469 71.9116C32.6553 71.9685 32.9898 72.1524 33.3502 72.4633C33.7742 72.8291 34.0454 73.2107 34.1636 73.608C34.2819 74.0053 34.2671 74.4232 34.1192 74.8617C33.9713 75.3001 33.7101 75.7639 33.3357 76.2531ZM37.4698 70.8526C36.9876 71.4825 36.5 71.9048 36.0071 72.1195C35.5199 72.3268 35.0061 72.3389 34.4657 72.1557C33.9183 71.9665 33.3159 71.5884 32.6587 71.0214C32.0226 70.4728 31.5748 69.9388 31.3152 69.4195C31.0485 68.8942 30.9673 68.3565 31.0715 67.8065C31.1686 67.2504 31.4498 66.6685 31.915 66.0608C32.3859 65.4457 32.8649 65.0345 33.3521 64.8272C33.838 64.6065 34.3504 64.5809 34.8894 64.7505C35.427 64.9066 36.0138 65.259 36.6498 65.8077C37.3071 66.3747 37.7789 66.9232 38.0654 67.4534C38.3448 67.9774 38.436 68.5175 38.3388 69.0735C38.2474 69.6222 37.9577 70.2152 37.4698 70.8526ZM36.3037 69.8467C36.542 69.5354 36.6677 69.2562 36.6808 69.0092C36.6869 68.756 36.5896 68.4998 36.3891 68.2407C36.1871 67.968 35.8882 67.661 35.4925 67.3196C35.1038 66.9843 34.7708 66.7524 34.4936 66.624C34.2093 66.4896 33.9582 66.4575 33.7401 66.5278C33.522 66.598 33.3023 66.7777 33.0811 67.0667C32.8655 67.3484 32.7448 67.6134 32.7189 67.8618C32.6987 68.1027 32.7797 68.3572 32.9618 68.6251C33.1369 68.8868 33.4188 69.1854 33.8075 69.5207C34.2033 69.8621 34.5447 70.1135 34.8317 70.275C35.1174 70.423 35.3764 70.4679 35.6086 70.4099C35.8337 70.3457 36.0654 70.1579 36.3037 69.8467ZM41.8795 65.0921C41.3973 65.722 40.9097 66.1444 40.4168 66.359C39.9296 66.5663 39.4158 66.5784 38.8754 66.3952C38.328 66.206 37.7256 65.8279 37.0684 65.261C36.4323 64.7123 35.9845 64.1783 35.7249 63.659C35.4582 63.1337 35.377 62.596 35.4812 62.046C35.5783 61.49 35.8595 60.9081 36.3247 60.3004C36.7956 59.6852 37.2746 59.274 37.7618 59.0668C38.2477 58.846 38.7601 58.8204 39.2991 58.99C39.8367 59.1462 40.4235 59.4985 41.0595 60.0472C41.7168 60.6142 42.1886 61.1627 42.4751 61.6929C42.7545 62.2169 42.8457 62.757 42.7485 63.3131C42.6571 63.8617 42.3674 64.4547 41.8795 65.0921ZM40.7134 64.0862C40.9517 63.7749 41.0774 63.4958 41.0905 63.2487C41.0966 62.9955 40.9993 62.7393 40.7988 62.4802C40.5968 62.2075 40.2979 61.9005 39.9022 61.5591C39.5135 61.2238 39.1805 60.992 38.9033 60.8636C38.619 60.7291 38.3679 60.697 38.1498 60.7673C37.9317 60.8376 37.712 61.0172 37.4908 61.3063C37.2752 61.5879 37.1545 61.8529 37.1286 62.1013C37.1084 62.3423 37.1894 62.5967 37.3715 62.8646C37.5466 63.1264 37.8285 63.4249 38.2172 63.7602C38.613 64.1016 38.9544 64.353 39.2415 64.5145C39.5271 64.6625 39.7861 64.7075 40.0183 64.6494C40.2434 64.5852 40.4751 64.3975 40.7134 64.0862ZM44.3345 61.6322L39.0128 57.0417L40.1447 55.5632L40.4839 55.8558C40.504 55.6762 40.5475 55.4738 40.6144 55.2485C40.6742 55.0171 40.7503 54.7874 40.8426 54.5594C40.9407 54.3241 41.0578 54.1174 41.1939 53.9396C41.4889 53.5542 41.7824 53.2782 42.0742 53.1116C42.3646 52.9314 42.6726 52.8587 42.9981 52.8934C43.3236 52.928 43.685 53.0614 44.0823 53.2934C44.4726 53.5193 44.9116 53.8426 45.3992 54.2633L48.1554 56.6408L47.0151 58.1305L44.3331 55.8169C43.9656 55.4999 43.6553 55.2691 43.4022 55.1246C43.142 54.974 42.9142 54.919 42.7188 54.9596C42.5234 55.0003 42.3321 55.1429 42.1449 55.3875C42.0428 55.5209 41.9491 55.6739 41.8639 55.8465C41.7773 56.0056 41.7042 56.1701 41.6444 56.3401C41.5904 56.5027 41.5534 56.643 41.5334 56.7611L45.4663 60.1537L44.3345 61.6322ZM48.81 55.7857L47.2411 54.4323L48.424 52.8871L49.9929 54.2405L48.81 55.7857ZM50.6684 53.358L49.0995 52.0047L50.2824 50.4594L51.8513 51.8128L50.6684 53.358ZM52.5268 50.9304L50.9579 49.577L52.1408 48.0318L53.7097 49.3852L52.5268 50.9304Z" fill="white"/>
<path d="M51.3919 96.112C50.5706 96.112 49.8346 95.9787 49.1839 95.712C48.5333 95.4453 48.0106 95.0507 47.6159 94.528C47.2319 94.0053 47.0293 93.376 47.0079 92.64H49.9199C49.9626 93.056 50.1066 93.376 50.3519 93.6C50.5973 93.8133 50.9173 93.92 51.3119 93.92C51.7173 93.92 52.0373 93.8293 52.2719 93.648C52.5066 93.456 52.6239 93.1947 52.6239 92.864C52.6239 92.5867 52.5279 92.3573 52.3359 92.176C52.1546 91.9947 51.9253 91.8453 51.6479 91.728C51.3813 91.6107 50.9973 91.4773 50.4959 91.328C49.7706 91.104 49.1786 90.88 48.7199 90.656C48.2613 90.432 47.8666 90.1013 47.5359 89.664C47.2053 89.2267 47.0399 88.656 47.0399 87.952C47.0399 86.9067 47.4186 86.0907 48.1759 85.504C48.9333 84.9067 49.9199 84.608 51.1359 84.608C52.3733 84.608 53.3706 84.9067 54.1279 85.504C54.8853 86.0907 55.2906 86.912 55.3439 87.968H52.3839C52.3626 87.6053 52.2293 87.3227 51.9839 87.12C51.7386 86.9067 51.4239 86.8 51.0399 86.8C50.7093 86.8 50.4426 86.8907 50.2399 87.072C50.0373 87.2427 49.9359 87.4933 49.9359 87.824C49.9359 88.1867 50.1066 88.4693 50.4479 88.672C50.7893 88.8747 51.3226 89.0933 52.0479 89.328C52.7733 89.5733 53.3599 89.808 53.8079 90.032C54.2666 90.256 54.6613 90.5813 54.9919 91.008C55.3226 91.4347 55.4879 91.984 55.4879 92.656C55.4879 93.296 55.3226 93.8773 54.9919 94.4C54.6719 94.9227 54.2026 95.3387 53.5839 95.648C52.9653 95.9573 52.2346 96.112 51.3919 96.112ZM65.5877 91.392C65.5877 91.648 65.5717 91.9147 65.5397 92.192H59.3477C59.3904 92.7467 59.5664 93.1733 59.8757 93.472C60.1957 93.76 60.585 93.904 61.0437 93.904C61.7264 93.904 62.201 93.616 62.4677 93.04H65.3797C65.2304 93.6267 64.9584 94.1547 64.5637 94.624C64.1797 95.0933 63.6944 95.4613 63.1077 95.728C62.521 95.9947 61.865 96.128 61.1397 96.128C60.265 96.128 59.4864 95.9413 58.8037 95.568C58.121 95.1947 57.5877 94.6613 57.2037 93.968C56.8197 93.2747 56.6277 92.464 56.6277 91.536C56.6277 90.608 56.8144 89.7973 57.1877 89.104C57.5717 88.4107 58.105 87.8773 58.7877 87.504C59.4704 87.1307 60.2544 86.944 61.1397 86.944C62.0037 86.944 62.7717 87.1253 63.4437 87.488C64.1157 87.8507 64.6384 88.368 65.0117 89.04C65.3957 89.712 65.5877 90.496 65.5877 91.392ZM62.7877 90.672C62.7877 90.2027 62.6277 89.8293 62.3077 89.552C61.9877 89.2747 61.5877 89.136 61.1077 89.136C60.649 89.136 60.2597 89.2693 59.9397 89.536C59.6304 89.8027 59.4384 90.1813 59.3637 90.672H62.7877ZM69.7671 88.56C70.0871 88.0693 70.4871 87.6853 70.9671 87.408C71.4471 87.12 71.9804 86.976 72.5671 86.976V89.872H71.8151C71.1324 89.872 70.6204 90.0213 70.2791 90.32C69.9377 90.608 69.7671 91.12 69.7671 91.856V96H67.0311V87.072H69.7671V88.56ZM77.8908 93.44L79.8268 87.072H82.7388L79.5708 96H76.1948L73.0268 87.072H75.9548L77.8908 93.44ZM85.2664 86.144C84.7864 86.144 84.3918 86.0053 84.0824 85.728C83.7838 85.44 83.6344 85.088 83.6344 84.672C83.6344 84.2453 83.7838 83.8933 84.0824 83.616C84.3918 83.328 84.7864 83.184 85.2664 83.184C85.7358 83.184 86.1198 83.328 86.4184 83.616C86.7278 83.8933 86.8824 84.2453 86.8824 84.672C86.8824 85.088 86.7278 85.44 86.4184 85.728C86.1198 86.0053 85.7358 86.144 85.2664 86.144ZM86.6264 87.072V96H83.8904V87.072H86.6264ZM88.0652 91.536C88.0652 90.608 88.2519 89.7973 88.6252 89.104C89.0092 88.4107 89.5372 87.8773 90.2092 87.504C90.8919 87.1307 91.6705 86.944 92.5452 86.944C93.6652 86.944 94.5985 87.2373 95.3452 87.824C96.1025 88.4107 96.5985 89.2373 96.8332 90.304H93.9212C93.6759 89.6213 93.2012 89.28 92.4972 89.28C91.9959 89.28 91.5959 89.4773 91.2972 89.872C90.9985 90.256 90.8492 90.8107 90.8492 91.536C90.8492 92.2613 90.9985 92.8213 91.2972 93.216C91.5959 93.6 91.9959 93.792 92.4972 93.792C93.2012 93.792 93.6759 93.4507 93.9212 92.768H96.8332C96.5985 93.8133 96.1025 94.6347 95.3452 95.232C94.5879 95.8293 93.6545 96.128 92.5452 96.128C91.6705 96.128 90.8919 95.9413 90.2092 95.568C89.5372 95.1947 89.0092 94.6613 88.6252 93.968C88.2519 93.2747 88.0652 92.464 88.0652 91.536ZM106.713 91.392C106.713 91.648 106.697 91.9147 106.665 92.192H100.473C100.515 92.7467 100.691 93.1733 101.001 93.472C101.321 93.76 101.71 93.904 102.169 93.904C102.851 93.904 103.326 93.616 103.593 93.04H106.505C106.355 93.6267 106.083 94.1547 105.689 94.624C105.305 95.0933 104.819 95.4613 104.233 95.728C103.646 95.9947 102.99 96.128 102.265 96.128C101.39 96.128 100.611 95.9413 99.9287 95.568C99.246 95.1947 98.7127 94.6613 98.3287 93.968C97.9447 93.2747 97.7527 92.464 97.7527 91.536C97.7527 90.608 97.9394 89.7973 98.3127 89.104C98.6967 88.4107 99.23 87.8773 99.9127 87.504C100.595 87.1307 101.379 86.944 102.265 86.944C103.129 86.944 103.897 87.1253 104.569 87.488C105.241 87.8507 105.763 88.368 106.137 89.04C106.521 89.712 106.713 90.496 106.713 91.392ZM103.913 90.672C103.913 90.2027 103.753 89.8293 103.433 89.552C103.113 89.2747 102.713 89.136 102.233 89.136C101.774 89.136 101.385 89.2693 101.065 89.536C100.755 89.8027 100.563 90.1813 100.489 90.672H103.913ZM111.788 96.128C111.009 96.128 110.316 95.9947 109.708 95.728C109.1 95.4613 108.62 95.0987 108.268 94.64C107.916 94.1707 107.719 93.648 107.676 93.072H110.38C110.412 93.3813 110.556 93.632 110.812 93.824C111.068 94.016 111.383 94.112 111.756 94.112C112.097 94.112 112.359 94.048 112.54 93.92C112.732 93.7813 112.828 93.6053 112.828 93.392C112.828 93.136 112.695 92.9493 112.428 92.832C112.161 92.704 111.729 92.5653 111.132 92.416C110.492 92.2667 109.959 92.112 109.532 91.952C109.105 91.7813 108.737 91.52 108.428 91.168C108.119 90.8053 107.964 90.32 107.964 89.712C107.964 89.2 108.103 88.736 108.38 88.32C108.668 87.8933 109.084 87.5573 109.628 87.312C110.183 87.0667 110.839 86.944 111.596 86.944C112.716 86.944 113.596 87.2213 114.236 87.776C114.887 88.3307 115.26 89.0667 115.356 89.984H112.828C112.785 89.6747 112.647 89.4293 112.412 89.248C112.188 89.0667 111.889 88.976 111.516 88.976C111.196 88.976 110.951 89.04 110.78 89.168C110.609 89.2853 110.524 89.4507 110.524 89.664C110.524 89.92 110.657 90.112 110.924 90.24C111.201 90.368 111.628 90.496 112.204 90.624C112.865 90.7947 113.404 90.9653 113.82 91.136C114.236 91.296 114.599 91.5627 114.908 91.936C115.228 92.2987 115.393 92.7893 115.404 93.408C115.404 93.9307 115.255 94.4 114.956 94.816C114.668 95.2213 114.247 95.5413 113.692 95.776C113.148 96.0107 112.513 96.128 111.788 96.128ZM131.861 86.976C132.97 86.976 133.85 87.312 134.501 87.984C135.162 88.656 135.493 89.5893 135.493 90.784V96H132.773V91.152C132.773 90.576 132.618 90.1333 132.309 89.824C132.01 89.504 131.594 89.344 131.061 89.344C130.527 89.344 130.106 89.504 129.797 89.824C129.498 90.1333 129.349 90.576 129.349 91.152V96H126.629V91.152C126.629 90.576 126.474 90.1333 126.165 89.824C125.866 89.504 125.45 89.344 124.917 89.344C124.383 89.344 123.962 89.504 123.653 89.824C123.354 90.1333 123.205 90.576 123.205 91.152V96H120.469V87.072H123.205V88.192C123.482 87.8187 123.845 87.5253 124.293 87.312C124.741 87.088 125.247 86.976 125.813 86.976C126.485 86.976 127.082 87.12 127.605 87.408C128.138 87.696 128.554 88.1067 128.853 88.64C129.162 88.1493 129.583 87.7493 130.117 87.44C130.65 87.1307 131.231 86.976 131.861 86.976ZM141.47 96.128C140.595 96.128 139.806 95.9413 139.102 95.568C138.409 95.1947 137.859 94.6613 137.454 93.968C137.059 93.2747 136.862 92.464 136.862 91.536C136.862 90.6187 137.065 89.8133 137.47 89.12C137.875 88.416 138.43 87.8773 139.134 87.504C139.838 87.1307 140.627 86.944 141.502 86.944C142.377 86.944 143.166 87.1307 143.87 87.504C144.574 87.8773 145.129 88.416 145.534 89.12C145.939 89.8133 146.142 90.6187 146.142 91.536C146.142 92.4533 145.934 93.264 145.518 93.968C145.113 94.6613 144.553 95.1947 143.838 95.568C143.134 95.9413 142.345 96.128 141.47 96.128ZM141.47 93.76C141.993 93.76 142.435 93.568 142.798 93.184C143.171 92.8 143.358 92.2507 143.358 91.536C143.358 90.8213 143.177 90.272 142.814 89.888C142.462 89.504 142.025 89.312 141.502 89.312C140.969 89.312 140.526 89.504 140.174 89.888C139.822 90.2613 139.646 90.8107 139.646 91.536C139.646 92.2507 139.817 92.8 140.158 93.184C140.51 93.568 140.947 93.76 141.47 93.76ZM153.034 86.976C154.079 86.976 154.911 87.3173 155.53 88C156.159 88.672 156.474 89.6 156.474 90.784V96H153.754V91.152C153.754 90.5547 153.599 90.0907 153.29 89.76C152.98 89.4293 152.564 89.264 152.042 89.264C151.519 89.264 151.103 89.4293 150.794 89.76C150.484 90.0907 150.33 90.5547 150.33 91.152V96H147.594V87.072H150.33V88.256C150.607 87.8613 150.98 87.552 151.45 87.328C151.919 87.0933 152.447 86.976 153.034 86.976ZM163.351 93.68V96H161.959C160.967 96 160.193 95.76 159.639 95.28C159.084 94.7893 158.807 93.9947 158.807 92.896V89.344H157.719V87.072H158.807V84.896H161.543V87.072H163.335V89.344H161.543V92.928C161.543 93.1947 161.607 93.3867 161.735 93.504C161.863 93.6213 162.076 93.68 162.375 93.68H163.351ZM170.363 86.976C171.387 86.976 172.208 87.3173 172.827 88C173.445 88.672 173.755 89.6 173.755 90.784V96H171.035V91.152C171.035 90.5547 170.88 90.0907 170.571 89.76C170.261 89.4293 169.845 89.264 169.323 89.264C168.8 89.264 168.384 89.4293 168.075 89.76C167.765 90.0907 167.611 90.5547 167.611 91.152V96H164.875V84.16H167.611V88.272C167.888 87.8773 168.267 87.5627 168.747 87.328C169.227 87.0933 169.765 86.976 170.363 86.976Z" fill="white"/>
<path d="M81.0889 120.75C80.9302 120.461 80.7669 120.097 80.5989 119.658C80.4309 119.229 80.2722 118.753 80.1229 118.23C79.9829 117.698 79.8662 117.143 79.7729 116.564C79.6889 115.976 79.6469 115.383 79.6469 114.786C79.6469 114.189 79.6889 113.587 79.7729 112.98C79.8662 112.373 79.9829 111.79 80.1229 111.23C80.2722 110.67 80.4309 110.157 80.5989 109.69C80.7669 109.214 80.9302 108.817 81.0889 108.5H82.8249C82.6942 108.864 82.5542 109.298 82.4049 109.802C82.2649 110.306 82.1342 110.843 82.0129 111.412C81.8916 111.981 81.7889 112.555 81.7049 113.134C81.6302 113.713 81.5929 114.263 81.5929 114.786C81.5929 115.299 81.6302 115.836 81.7049 116.396C81.7889 116.947 81.8916 117.493 82.0129 118.034C82.1342 118.575 82.2649 119.079 82.4049 119.546C82.5542 120.013 82.6942 120.414 82.8249 120.75H81.0889ZM84.0578 119V109.438H87.7958C88.5611 109.438 89.2004 109.536 89.7138 109.732C90.2364 109.928 90.6238 110.255 90.8758 110.712C91.1371 111.169 91.2678 111.79 91.2678 112.574C91.2678 113.265 91.1418 113.848 90.8898 114.324C90.6471 114.791 90.2738 115.136 89.7698 115.36L91.2678 119H89.2378L87.9778 115.794H85.9898V119H84.0578ZM85.9898 114.212H87.8378C88.1924 114.212 88.4771 114.147 88.6918 114.016C88.9064 113.876 89.0604 113.685 89.1538 113.442C89.2471 113.19 89.2938 112.905 89.2938 112.588C89.2938 112.065 89.1724 111.673 88.9298 111.412C88.6871 111.151 88.3091 111.02 87.7958 111.02H85.9898V114.212ZM95.3464 119.154C94.5717 119.154 93.9557 119.023 93.4984 118.762C93.0504 118.501 92.7284 118.104 92.5324 117.572C92.3364 117.04 92.2384 116.373 92.2384 115.57C92.2384 114.702 92.3597 113.993 92.6024 113.442C92.8544 112.891 93.2184 112.485 93.6944 112.224C94.1704 111.953 94.7584 111.818 95.4584 111.818C96.4944 111.818 97.2737 112.079 97.7964 112.602C98.3284 113.125 98.5944 113.951 98.5944 115.08L98.5104 116.116H94.1144C94.1237 116.639 94.231 117.031 94.4364 117.292C94.6417 117.553 94.9964 117.684 95.5004 117.684C95.7897 117.684 96.107 117.679 96.4524 117.67C96.7977 117.651 97.1384 117.633 97.4744 117.614C97.8197 117.595 98.1137 117.577 98.3564 117.558L98.3984 118.86C98.165 118.897 97.871 118.939 97.5164 118.986C97.1617 119.033 96.793 119.07 96.4104 119.098C96.037 119.135 95.6824 119.154 95.3464 119.154ZM94.1144 114.926H96.7324C96.7324 114.291 96.6297 113.848 96.4244 113.596C96.2284 113.344 95.9064 113.218 95.4584 113.218C95.1597 113.218 94.9124 113.274 94.7164 113.386C94.5204 113.498 94.371 113.68 94.2684 113.932C94.1657 114.184 94.1144 114.515 94.1144 114.926ZM102.367 119.154C102.059 119.154 101.727 119.135 101.373 119.098C101.027 119.07 100.701 119.033 100.393 118.986C100.094 118.939 99.8372 118.893 99.6225 118.846L99.6785 117.46C99.9212 117.488 100.192 117.521 100.491 117.558C100.799 117.595 101.097 117.628 101.387 117.656C101.685 117.675 101.928 117.684 102.115 117.684C102.395 117.684 102.623 117.661 102.801 117.614C102.987 117.567 103.127 117.493 103.221 117.39C103.314 117.278 103.361 117.119 103.361 116.914C103.361 116.755 103.319 116.634 103.235 116.55C103.16 116.466 103.011 116.396 102.787 116.34C102.572 116.275 102.255 116.209 101.835 116.144C101.312 116.069 100.878 115.962 100.533 115.822C100.197 115.682 99.9492 115.477 99.7905 115.206C99.6318 114.926 99.5525 114.548 99.5525 114.072C99.5525 113.493 99.6785 113.041 99.9305 112.714C100.183 112.387 100.519 112.159 100.939 112.028C101.359 111.888 101.816 111.818 102.311 111.818C102.637 111.818 102.973 111.837 103.319 111.874C103.664 111.902 103.991 111.939 104.299 111.986C104.607 112.033 104.863 112.079 105.069 112.126L105.013 113.54C104.779 113.503 104.509 113.47 104.201 113.442C103.893 113.405 103.585 113.377 103.277 113.358C102.978 113.339 102.726 113.33 102.521 113.33C102.306 113.33 102.115 113.353 101.947 113.4C101.779 113.437 101.648 113.503 101.555 113.596C101.471 113.689 101.429 113.829 101.429 114.016C101.429 114.147 101.466 114.254 101.541 114.338C101.615 114.422 101.755 114.497 101.961 114.562C102.175 114.618 102.483 114.674 102.885 114.73C103.463 114.814 103.925 114.931 104.271 115.08C104.616 115.229 104.863 115.444 105.013 115.724C105.171 116.004 105.251 116.382 105.251 116.858C105.251 117.418 105.139 117.866 104.915 118.202C104.691 118.538 104.364 118.781 103.935 118.93C103.505 119.079 102.983 119.154 102.367 119.154ZM106.477 119V111.972H108.339V119H106.477ZM106.477 110.852V109.256H108.353V110.852H106.477ZM112.261 119.154C111.925 119.154 111.617 119.112 111.337 119.028C111.057 118.953 110.81 118.832 110.595 118.664C110.39 118.487 110.212 118.258 110.063 117.978C109.923 117.698 109.816 117.357 109.741 116.956C109.666 116.545 109.629 116.069 109.629 115.528C109.629 114.725 109.727 114.049 109.923 113.498C110.128 112.947 110.45 112.532 110.889 112.252C111.328 111.963 111.911 111.818 112.639 111.818C112.779 111.818 112.942 111.827 113.129 111.846C113.316 111.855 113.498 111.874 113.675 111.902C113.852 111.921 113.997 111.939 114.109 111.958V109.102H115.985V119H114.137L114.123 118.594C113.992 118.669 113.82 118.753 113.605 118.846C113.4 118.93 113.18 119 112.947 119.056C112.714 119.121 112.485 119.154 112.261 119.154ZM112.737 117.586C112.905 117.586 113.073 117.567 113.241 117.53C113.418 117.493 113.582 117.451 113.731 117.404C113.89 117.348 114.016 117.297 114.109 117.25V113.484C114.025 113.465 113.913 113.451 113.773 113.442C113.633 113.423 113.488 113.409 113.339 113.4C113.19 113.381 113.054 113.372 112.933 113.372C112.569 113.372 112.284 113.456 112.079 113.624C111.883 113.792 111.743 114.039 111.659 114.366C111.575 114.683 111.533 115.071 111.533 115.528C111.533 115.929 111.561 116.265 111.617 116.536C111.673 116.797 111.752 117.007 111.855 117.166C111.967 117.315 112.098 117.423 112.247 117.488C112.396 117.553 112.56 117.586 112.737 117.586ZM120.366 119.154C119.591 119.154 118.975 119.023 118.518 118.762C118.07 118.501 117.748 118.104 117.552 117.572C117.356 117.04 117.258 116.373 117.258 115.57C117.258 114.702 117.379 113.993 117.622 113.442C117.874 112.891 118.238 112.485 118.714 112.224C119.19 111.953 119.778 111.818 120.478 111.818C121.514 111.818 122.293 112.079 122.816 112.602C123.348 113.125 123.614 113.951 123.614 115.08L123.53 116.116H119.134C119.143 116.639 119.251 117.031 119.456 117.292C119.661 117.553 120.016 117.684 120.52 117.684C120.809 117.684 121.127 117.679 121.472 117.67C121.817 117.651 122.158 117.633 122.494 117.614C122.839 117.595 123.133 117.577 123.376 117.558L123.418 118.86C123.185 118.897 122.891 118.939 122.536 118.986C122.181 119.033 121.813 119.07 121.43 119.098C121.057 119.135 120.702 119.154 120.366 119.154ZM119.134 114.926H121.752C121.752 114.291 121.649 113.848 121.444 113.596C121.248 113.344 120.926 113.218 120.478 113.218C120.179 113.218 119.932 113.274 119.736 113.386C119.54 113.498 119.391 113.68 119.288 113.932C119.185 114.184 119.134 114.515 119.134 114.926ZM124.852 119V111.972H126.714V112.42C126.863 112.327 127.045 112.238 127.26 112.154C127.475 112.061 127.699 111.981 127.932 111.916C128.175 111.851 128.408 111.818 128.632 111.818C129.117 111.818 129.519 111.883 129.836 112.014C130.163 112.135 130.419 112.336 130.606 112.616C130.793 112.896 130.928 113.265 131.012 113.722C131.096 114.17 131.138 114.716 131.138 115.36V119H129.262V115.458C129.262 114.973 129.234 114.585 129.178 114.296C129.122 113.997 129.015 113.783 128.856 113.652C128.697 113.521 128.464 113.456 128.156 113.456C127.988 113.456 127.811 113.475 127.624 113.512C127.447 113.54 127.274 113.582 127.106 113.638C126.947 113.694 126.817 113.75 126.714 113.806V119H124.852ZM135.027 119.168C134.514 119.168 134.098 119.093 133.781 118.944C133.464 118.795 133.235 118.538 133.095 118.174C132.964 117.801 132.899 117.283 132.899 116.62V113.526H132.073V111.972H132.899V110.11H134.761V111.972H136.553V113.526H134.761V116.13C134.761 116.494 134.775 116.779 134.803 116.984C134.84 117.189 134.915 117.334 135.027 117.418C135.139 117.502 135.312 117.544 135.545 117.544C135.61 117.544 135.708 117.539 135.839 117.53C135.97 117.521 136.1 117.511 136.231 117.502C136.362 117.493 136.469 117.483 136.553 117.474L136.609 118.972C136.469 119 136.296 119.028 136.091 119.056C135.895 119.084 135.699 119.107 135.503 119.126C135.316 119.154 135.158 119.168 135.027 119.168ZM138.91 120.722H137.174C137.305 120.367 137.44 119.952 137.58 119.476C137.73 119 137.865 118.487 137.986 117.936C138.108 117.385 138.206 116.825 138.28 116.256C138.364 115.687 138.406 115.145 138.406 114.632C138.406 114.119 138.364 113.577 138.28 113.008C138.206 112.439 138.108 111.874 137.986 111.314C137.865 110.754 137.73 110.231 137.58 109.746C137.44 109.251 137.305 108.827 137.174 108.472H138.91C139.069 108.78 139.232 109.163 139.4 109.62C139.568 110.077 139.722 110.581 139.862 111.132C140.012 111.673 140.128 112.247 140.212 112.854C140.306 113.451 140.352 114.044 140.352 114.632C140.352 115.229 140.306 115.827 140.212 116.424C140.128 117.012 140.012 117.577 139.862 118.118C139.722 118.659 139.568 119.154 139.4 119.602C139.232 120.05 139.069 120.423 138.91 120.722Z" fill="white"/>
<path d="M125.473 176C125.473 184.27 118.665 191 110.237 191C101.808 191 95 184.27 95 176C95 167.73 101.808 161 110.237 161C118.665 161 125.473 167.73 125.473 176Z" fill="#4F008D" stroke="white" stroke-width="2"/>
<path fill-rule="evenodd" clip-rule="evenodd" d="M109.411 182.036C109.054 182.388 108.476 182.388 108.12 182.036L102.64 176.636C102.283 176.285 102.283 175.715 102.64 175.363L108.12 169.963C108.476 169.612 109.054 169.612 109.411 169.963C109.768 170.315 109.768 170.885 109.411 171.236L105.49 175.1L116.072 175.1C116.576 175.1 116.985 175.503 116.985 176C116.985 176.497 116.576 176.9 116.072 176.9H105.49L109.411 180.763C109.768 181.115 109.768 181.685 109.411 182.036Z" fill="white"/>
<path d="M137.857 29C137.857 43.8841 125.605 56 110.429 56C95.2525 56 83 43.8841 83 29C83 14.1159 95.2525 2 110.429 2C125.605 2 137.857 14.1159 137.857 29Z" fill="#4F008D" stroke="white" stroke-width="4"/>
<path d="M114 16.3335V21.6668M106 16.3335V21.6668M121.31 28.3335H98.6899M121.31 28.3335C121.033 20.7239 118.205 18.3335 110 18.3335C101.795 18.3335 98.9676 20.7239 98.6899 28.3335M121.31 28.3335C121.326 28.7613 121.333 29.2056 121.333 29.6668C121.333 38.3335 118.667 41.0002 110 41.0002C101.333 41.0002 98.6667 38.3335 98.6667 29.6668C98.6667 29.2056 98.6742 28.7613 98.6899 28.3335" stroke="white" stroke-width="2" stroke-linecap="round" stroke-linejoin="round"/>
<defs>
<filter id="filter0_d_1926_4175" x="0" y="13" width="221" height="186" filterUnits="userSpaceOnUse" color-interpolation-filters="sRGB">
<feFlood flood-opacity="0" result="BackgroundImageFix"/>
<feColorMatrix in="SourceAlpha" type="matrix" values="0 0 0 0 0 0 0 0 0 0 0 0 0 0 0 0 0 0 127 0" result="hardAlpha"/>
<feOffset dy="4"/>
<feGaussianBlur stdDeviation="8"/>
<feComposite in2="hardAlpha" operator="out"/>
<feColorMatrix type="matrix" values="0 0 0 0 0 0 0 0 0 0 0 0 0 0 0 0 0 0 0.08 0"/>
<feBlend mode="normal" in2="BackgroundImageFix" result="effect1_dropShadow_1926_4175"/>
<feBlend mode="normal" in="SourceGraphic" in2="effect1_dropShadow_1926_4175" result="shape"/>
</filter>
</defs>
</svg>
