<svg width="221" height="199" viewBox="0 0 221 199" fill="none" xmlns="http://www.w3.org/2000/svg">
<g filter="url(#filter0_d_142_8113)">
<rect x="16" y="25" width="189" height="154" rx="25" fill="#4F008D"/>
</g>
<path d="M81 25H52.6364L16 72.9091V110L81 25Z" fill="#FABD13"/>
<path d="M30.6669 79.4866L29.098 78.1332L30.2809 76.588L31.8498 77.9413L30.6669 79.4866ZM32.5253 77.0589L30.9564 75.7055L32.1393 74.1603L33.7082 75.5137L32.5253 77.0589ZM34.3837 74.6313L32.8148 73.2779L33.9976 71.7327L35.5666 73.0861L34.3837 74.6313ZM37.6973 70.3027L36.4676 69.2419L37.4377 67.9746L38.6674 69.0354L37.6973 70.3027ZM36.5654 71.7812L29.0707 65.316L30.2025 63.8375L37.6973 70.3027L36.5654 71.7812ZM38.6674 69.0354L37.4377 67.9746C37.4717 67.9302 37.5114 67.909 37.5567 67.9111C37.6077 67.9059 37.6671 67.9202 37.735 67.9542C37.8085 67.9807 37.887 68.0238 37.9704 68.0835C38.0468 68.137 38.1309 68.2034 38.2228 68.2827C38.3146 68.3619 38.3966 68.4388 38.4687 68.5133C38.5407 68.5877 38.5965 68.6605 38.636 68.7315C38.6742 68.789 38.696 68.8447 38.7016 68.8988C38.7128 68.9454 38.7014 68.9909 38.6674 69.0354ZM40.4979 66.6441L39.2682 65.5834L40.1618 64.4161L41.3915 65.4769L40.4979 66.6441ZM38.4641 69.301C38.43 69.3455 38.3904 69.3666 38.3451 69.3645C38.2941 69.3698 38.2382 69.3585 38.1774 69.3306C38.1038 69.3041 38.0254 69.261 37.9419 69.2013C37.8585 69.1417 37.7709 69.0722 37.679 68.993C37.5518 68.8832 37.4515 68.7844 37.378 68.6964C37.2975 68.6023 37.2467 68.5154 37.2256 68.4357C37.1917 68.3573 37.1946 68.2921 37.2344 68.2403L38.4641 69.301ZM38.4641 69.301L37.2344 68.2403L38.7917 66.2059L38.817 67.6674L34.036 63.5432L35.1763 62.0536L40.4979 66.6441L38.4641 69.301ZM41.3915 65.4769L40.1618 64.4161C40.1958 64.3716 40.2383 64.3468 40.2893 64.3415C40.3402 64.3363 40.3997 64.3506 40.4676 64.3846C40.5354 64.4185 40.6111 64.4653 40.6945 64.525C40.7708 64.5785 40.855 64.6449 40.9468 64.7242C41.0387 64.8034 41.1207 64.8803 41.1927 64.9548C41.2648 65.0292 41.3234 65.0983 41.3686 65.1618C41.4067 65.2193 41.4286 65.2751 41.4342 65.3291C41.4397 65.3832 41.4255 65.4324 41.3915 65.4769ZM41.6156 70.0816L40.4071 69.0391L41.5474 67.5494L42.7559 68.5919L41.6156 70.0816ZM41.1867 65.7443L39.957 64.6836L41.9739 62.0489L41.9992 63.5104L37.2182 59.3862L38.35 57.9077L43.6716 62.4983L41.1867 65.7443ZM41.1867 65.7443C41.1527 65.7888 41.113 65.81 41.0677 65.8078C41.0168 65.8131 40.9609 65.8018 40.9001 65.7739C40.8265 65.7474 40.748 65.7043 40.6646 65.6446C40.5812 65.585 40.4936 65.5155 40.4017 65.4363C40.2745 65.3266 40.1741 65.2277 40.1007 65.1397C40.0202 65.0457 39.9693 64.9587 39.9482 64.879C39.9144 64.8006 39.9173 64.7355 39.957 64.6836L41.1867 65.7443ZM43.7511 67.2919L42.5426 66.2495L43.6404 64.8154L44.8488 65.8579L43.7511 67.2919ZM45.2999 65.2687L44.0914 64.2262L45.1892 62.7922L46.3977 63.8346L45.2999 65.2687ZM46.615 58.6533L45.3853 57.5925L46.4831 56.1584L47.7128 57.2192L46.615 58.6533ZM47.5931 63.0777C47.5194 63.1741 47.4364 63.2748 47.3442 63.3799C47.2521 63.4849 47.1535 63.5907 47.0486 63.697L45.8827 62.599C45.9805 62.4865 46.0727 62.3814 46.1592 62.2838C46.2513 62.1787 46.3173 62.1002 46.357 62.0483C46.5783 61.7593 46.6446 61.4351 46.556 61.0756C46.4731 60.7088 46.2337 60.3547 45.838 60.0133L40.3573 55.2855L41.4977 53.7959L46.9783 58.5236C47.4589 58.9382 47.807 59.4108 48.0227 59.9414C48.2441 60.4646 48.3183 60.9962 48.2452 61.5361C48.1792 62.0821 47.9619 62.596 47.5931 63.0777ZM47.7128 57.2192L46.4831 56.1584C46.5172 56.114 46.5568 56.0928 46.6021 56.095C46.6531 56.0897 46.7125 56.104 46.7804 56.138C46.8539 56.1645 46.9324 56.2076 47.0158 56.2673C47.0922 56.3208 47.1763 56.3872 47.2682 56.4665C47.36 56.5457 47.442 56.6226 47.5141 56.6971C47.5861 56.7715 47.6419 56.8443 47.6815 56.9153C47.7196 56.9728 47.7414 57.0285 47.747 57.0826C47.7583 57.1292 47.7469 57.1747 47.7128 57.2192ZM47.513 57.4802L46.2833 56.4195L50.2574 51.228L50.2796 52.0038L46.7389 48.9495L47.3356 48.8368L46.2634 50.2375C46.0138 50.5636 45.8569 50.8528 45.7928 51.1051C45.7287 51.3574 45.7743 51.6121 45.9296 51.8691C46.0778 52.12 46.3427 52.4101 46.7244 52.7393C47.1413 53.099 47.4807 53.3301 47.7423 53.4328C47.997 53.5294 48.2305 53.5156 48.443 53.3912C48.6485 53.2608 48.876 53.0326 49.1256 52.7065L50.2281 53.6575C49.7459 54.2875 49.2639 54.7331 48.7823 54.9944C48.3006 55.2557 47.7995 55.3279 47.2788 55.211C46.7567 55.0806 46.1918 54.7532 45.584 54.2289C45.0045 53.729 44.5906 53.212 44.3424 52.6779C44.0998 52.1364 44.0356 51.5765 44.1497 50.9982C44.2568 50.4138 44.5515 49.8066 45.0337 49.1767L46.9569 46.6643L52.2786 51.2549L47.513 57.4802ZM47.513 57.4802C47.479 57.5247 47.4393 57.5459 47.394 57.5437C47.343 57.549 47.2871 57.5377 47.2263 57.5098C47.1528 57.4833 47.0743 57.4402 46.9909 57.3805C46.9075 57.3209 46.8198 57.2514 46.7279 57.1722C46.6007 57.0624 46.5004 56.9636 46.4269 56.8756C46.3464 56.7815 46.2956 56.6946 46.2745 56.6149C46.2406 56.5365 46.2436 56.4713 46.2833 56.4195L47.513 57.4802ZM42.8585 49.9029L41.65 48.8604L42.7478 47.4263L43.9563 48.4688L42.8585 49.9029ZM44.4073 47.8796L43.1988 46.8371L44.2966 45.4031L45.5051 46.4456L44.4073 47.8796Z" fill="white"/>
<path d="M65.087 96V94.144H67.151V96H65.087ZM61.983 99.968C61.8443 99.968 61.695 99.9627 61.535 99.952C61.375 99.9413 61.2097 99.9253 61.039 99.904L61.119 98.08C61.2897 98.0907 61.4497 98.1013 61.599 98.112C61.759 98.1227 61.8763 98.128 61.951 98.128C62.367 98.128 62.6977 97.9627 62.943 97.632C63.199 97.3013 63.327 96.8373 63.327 96.24V87.968H65.471V96.24C65.471 96.9653 65.3217 97.6107 65.023 98.176C64.735 98.7413 64.3297 99.1787 63.807 99.488C63.2843 99.808 62.6763 99.968 61.983 99.968ZM67.151 96V94.144C67.215 94.144 67.263 94.1653 67.295 94.208C67.3377 94.2507 67.3697 94.3147 67.391 94.4C67.423 94.4853 67.4443 94.5867 67.455 94.704C67.4657 94.8107 67.471 94.9333 67.471 95.072C67.471 95.2107 67.4657 95.3387 67.455 95.456C67.4443 95.5733 67.423 95.6747 67.391 95.76C67.3697 95.8347 67.3377 95.8933 67.295 95.936C67.263 95.9787 67.215 96 67.151 96ZM67.1562 96V94.144H75.4923L74.3243 95.28V92.048C74.3243 91.4827 74.2603 91.04 74.1323 90.72C74.0043 90.4 73.7856 90.1707 73.4763 90.032C73.1669 89.8933 72.7403 89.824 72.1963 89.824C71.7376 89.824 71.2949 89.856 70.8683 89.92C70.4523 89.9733 70.1216 90.048 69.8763 90.144L71.2043 88.896C71.1403 89.1413 71.0816 89.4507 71.0283 89.824C70.9749 90.1867 70.9269 90.5813 70.8843 91.008C70.8416 91.4347 70.8203 91.8453 70.8203 92.24C70.8203 92.624 70.8363 93.0133 70.8683 93.408C70.9109 93.8027 70.9589 94.1547 71.0123 94.464C71.0656 94.7733 71.1029 94.9867 71.1243 95.104L69.0923 95.664C69.0496 95.5147 68.9909 95.2693 68.9163 94.928C68.8523 94.576 68.7989 94.1707 68.7563 93.712C68.7136 93.2533 68.6923 92.7627 68.6923 92.24C68.6923 91.7173 68.7136 91.2107 68.7563 90.72C68.8096 90.2187 68.8736 89.7707 68.9483 89.376C69.0336 88.9707 69.1029 88.6453 69.1562 88.4C69.4016 88.304 69.7963 88.208 70.3403 88.112C70.8949 88.016 71.5029 87.968 72.1643 87.968C73.1243 87.968 73.9189 88.1013 74.5483 88.368C75.1883 88.6347 75.6629 89.0667 75.9722 89.664C76.2923 90.2507 76.4523 91.0507 76.4523 92.064V96H67.1562ZM72.1643 100.24C71.5029 100.24 70.8949 100.203 70.3403 100.128C69.7963 100.053 69.4016 99.984 69.1562 99.92C69.1029 99.728 69.0336 99.4827 68.9483 99.184C68.8736 98.8853 68.8096 98.544 68.7563 98.16C68.7136 97.7867 68.6923 97.4027 68.6923 97.008C68.6923 96.6133 68.7136 96.2453 68.7563 95.904C68.7989 95.552 68.8523 95.248 68.9163 94.992C68.9909 94.736 69.0496 94.5493 69.0923 94.432L71.0763 95.104C71.0443 95.1787 71.0069 95.328 70.9643 95.552C70.9323 95.776 70.9003 96.0213 70.8683 96.288C70.8363 96.5653 70.8203 96.8107 70.8203 97.024C70.8203 97.2693 70.8363 97.536 70.8683 97.824C70.9003 98.112 70.9429 98.3893 70.9963 98.656C71.0603 98.9227 71.1243 99.1467 71.1883 99.328L69.8123 98.128C70.0469 98.2027 70.3829 98.2613 70.8203 98.304C71.2683 98.3573 71.7269 98.384 72.1963 98.384C72.7616 98.384 73.1989 98.3413 73.5083 98.256C73.8176 98.1813 74.0309 98.0427 74.1483 97.84C74.2656 97.648 74.3243 97.3867 74.3243 97.056V94.144H76.4523V97.136C76.4523 97.8933 76.2923 98.496 75.9722 98.944C75.6629 99.4027 75.1883 99.7333 74.5483 99.936C73.9189 100.139 73.1243 100.24 72.1643 100.24ZM76.4523 96V94.144H78.1323V96H76.4523ZM78.1323 96V94.144C78.1963 94.144 78.2496 94.1653 78.2923 94.208C78.3349 94.2507 78.3669 94.3147 78.3883 94.4C78.4096 94.4853 78.4256 94.5867 78.4363 94.704C78.4469 94.8107 78.4523 94.9333 78.4523 95.072C78.4523 95.2107 78.4469 95.3387 78.4363 95.456C78.4256 95.5733 78.4096 95.6747 78.3883 95.76C78.3669 95.8347 78.3349 95.8933 78.2923 95.936C78.2496 95.9787 78.1963 96 78.1323 96ZM67.1562 96C67.0922 96 67.0442 95.9787 67.0122 95.936C66.9696 95.8933 66.9376 95.8347 66.9162 95.76C66.8842 95.6747 66.8629 95.5733 66.8522 95.456C66.8416 95.3387 66.8362 95.2107 66.8362 95.072C66.8362 94.88 66.8469 94.72 66.8682 94.592C66.8896 94.4533 66.9269 94.3467 66.9802 94.272C67.0229 94.1867 67.0816 94.144 67.1562 94.144V96ZM91.549 96V94.144H93.245V96H91.549ZM78.125 96C78.061 96 78.013 95.9787 77.981 95.936C77.9383 95.8933 77.9063 95.8347 77.885 95.76C77.853 95.6747 77.8317 95.5733 77.821 95.456C77.8103 95.3387 77.805 95.2107 77.805 95.072C77.805 94.88 77.8157 94.72 77.837 94.592C77.8583 94.4533 77.8957 94.3467 77.949 94.272C77.9917 94.1867 78.0503 94.144 78.125 94.144V96ZM87.533 96C87.0957 96 86.6583 95.92 86.221 95.76C85.7943 95.5893 85.3997 95.3387 85.037 95.008L86.349 93.648C86.5623 93.8187 86.7597 93.9467 86.941 94.032C87.133 94.1067 87.3303 94.144 87.533 94.144H90.525L89.421 95.152V91.6C89.421 91.4293 89.3997 91.1733 89.357 90.832C89.325 90.48 89.2717 90.0853 89.197 89.648C89.133 89.2 89.053 88.7467 88.957 88.288L91.069 87.968C91.1437 88.352 91.213 88.784 91.277 89.264C91.3517 89.7333 91.4157 90.1813 91.469 90.608C91.5223 91.024 91.549 91.3547 91.549 91.6V96H87.533ZM78.125 96V94.144H80.461L79.981 94.64V89.6H82.125V96H78.125ZM82.125 96V94.144H83.421C83.7623 94.144 84.0237 94.096 84.205 94C84.3863 93.8933 84.509 93.6853 84.573 93.376C84.6477 93.056 84.685 92.5813 84.685 91.952V88.8H86.829V91.952C86.829 92.9013 86.7063 93.6747 86.461 94.272C86.2263 94.8693 85.8583 95.3067 85.357 95.584C84.8557 95.8613 84.2103 96 83.421 96H82.125ZM93.245 96V94.144C93.2983 94.144 93.3463 94.1653 93.389 94.208C93.4317 94.2507 93.4637 94.3147 93.485 94.4C93.5063 94.4853 93.5223 94.5867 93.533 94.704C93.5543 94.8107 93.565 94.9333 93.565 95.072C93.565 95.2107 93.5543 95.3387 93.533 95.456C93.5223 95.5733 93.5063 95.6747 93.485 95.76C93.4637 95.8347 93.4317 95.8933 93.389 95.936C93.3463 95.9787 93.2983 96 93.245 96ZM84.845 84.048V82.448H86.701V84.048H84.845ZM83.293 86.496V84.672H85.357V86.496H83.293ZM86.205 86.496V84.672H88.269V86.496H86.205ZM95.058 96V84.688H97.202V96H95.058ZM93.25 96V94.144H95.058V96H93.25ZM93.25 96C93.186 96 93.138 95.9787 93.106 95.936C93.0633 95.8933 93.0313 95.8347 93.01 95.76C92.978 95.6747 92.9567 95.5733 92.946 95.456C92.9353 95.3387 92.93 95.2107 92.93 95.072C92.93 94.88 92.9407 94.72 92.962 94.592C92.9833 94.4533 93.0207 94.3467 93.074 94.272C93.1167 94.1867 93.1753 94.144 93.25 94.144V96ZM101.896 96V94.144H103.72V96H101.896ZM99.7681 96V84.688H101.896V96H99.7681ZM103.72 96V94.144C103.784 94.144 103.832 94.1653 103.864 94.208C103.907 94.2507 103.939 94.3147 103.96 94.4C103.992 94.4853 104.013 94.5867 104.024 94.704C104.035 94.8107 104.04 94.9333 104.04 95.072C104.04 95.2107 104.035 95.3387 104.024 95.456C104.013 95.5733 103.992 95.6747 103.96 95.76C103.939 95.8347 103.907 95.8933 103.864 95.936C103.832 95.9787 103.784 96 103.72 96ZM103.719 96V94.144H106.647L105.399 95.184V87.968H107.543V96H103.719ZM103.719 96C103.655 96 103.607 95.9787 103.575 95.936C103.532 95.8933 103.5 95.8347 103.479 95.76C103.447 95.6747 103.425 95.5733 103.415 95.456C103.404 95.3387 103.399 95.2107 103.399 95.072C103.399 94.88 103.409 94.72 103.431 94.592C103.452 94.4533 103.489 94.3467 103.543 94.272C103.585 94.1867 103.644 94.144 103.719 94.144V96ZM105.399 99.408V97.584H107.543V99.408H105.399ZM118.092 96C116.95 96 115.985 95.8507 115.196 95.552C114.417 95.2533 113.825 94.8107 113.42 94.224C113.025 93.6373 112.828 92.9067 112.828 92.032C112.828 91.776 112.844 91.5093 112.876 91.232C112.908 90.944 112.945 90.672 112.988 90.416C113.041 90.1493 113.089 89.9147 113.132 89.712C113.174 89.5093 113.206 89.36 113.228 89.264L115.308 89.664C115.276 89.8347 115.233 90.0533 115.18 90.32C115.126 90.5867 115.078 90.8693 115.036 91.168C114.993 91.456 114.972 91.7333 114.972 92C114.972 92.416 115.036 92.7627 115.164 93.04C115.302 93.3173 115.505 93.5413 115.772 93.712C116.038 93.872 116.374 93.984 116.78 94.048C117.185 94.112 117.66 94.144 118.204 94.144H122.476V87.968H124.62V96H118.092ZM116.252 87.632V85.808H118.316V87.632H116.252ZM119.164 87.632V85.808H121.227V87.632H119.164ZM129.162 96V94.144H130.986V96H129.162ZM127.034 96V84.688H129.162V96H127.034ZM130.986 96V94.144C131.05 94.144 131.098 94.1653 131.13 94.208C131.172 94.2507 131.204 94.3147 131.226 94.4C131.258 94.4853 131.279 94.5867 131.29 94.704C131.3 94.8107 131.306 94.9333 131.306 95.072C131.306 95.2107 131.3 95.3387 131.29 95.456C131.279 95.5733 131.258 95.6747 131.226 95.76C131.204 95.8347 131.172 95.8933 131.13 95.936C131.098 95.9787 131.05 96 130.986 96ZM130.984 96V94.144H139.288L138.312 94.976V92.032C138.312 91.456 138.248 91.008 138.12 90.688C137.992 90.3573 137.768 90.128 137.448 90C137.139 89.8613 136.707 89.792 136.152 89.792C135.715 89.792 135.283 89.824 134.856 89.888C134.44 89.9413 134.115 90.016 133.88 90.112L135.208 88.864C135.144 89.1093 135.08 89.4187 135.016 89.792C134.963 90.1653 134.915 90.5653 134.872 90.992C134.83 91.408 134.808 91.8187 134.808 92.224C134.808 92.5973 134.824 92.9867 134.856 93.392C134.899 93.7973 134.942 94.1547 134.984 94.464C135.038 94.7733 135.08 94.9867 135.112 95.104L133.08 95.664C133.038 95.5147 132.984 95.2693 132.92 94.928C132.856 94.5867 132.798 94.1813 132.744 93.712C132.702 93.2427 132.68 92.7467 132.68 92.224C132.68 91.6907 132.707 91.1787 132.76 90.688C132.814 90.1867 132.872 89.7387 132.936 89.344C133.011 88.9387 133.08 88.6133 133.144 88.368C133.4 88.272 133.8 88.176 134.344 88.08C134.888 87.984 135.491 87.936 136.152 87.936C137.112 87.936 137.907 88.0693 138.536 88.336C139.176 88.6027 139.651 89.0347 139.96 89.632C140.28 90.2293 140.44 91.0347 140.44 92.048V96H130.984ZM130.984 96C130.92 96 130.872 95.9787 130.84 95.936C130.798 95.8933 130.766 95.8347 130.744 95.76C130.712 95.6747 130.691 95.5733 130.68 95.456C130.67 95.3387 130.664 95.2107 130.664 95.072C130.664 94.88 130.675 94.72 130.696 94.592C130.718 94.4533 130.755 94.3467 130.808 94.272C130.851 94.1867 130.91 94.144 130.984 94.144V96ZM148.699 96V94.144H150.378V96H148.699ZM142.203 96V94.144H148.011L146.555 95.408V92.72C146.555 91.9627 146.475 91.376 146.315 90.96C146.165 90.544 145.909 90.2507 145.547 90.08C145.195 89.9093 144.709 89.824 144.091 89.824H142.795V87.968H144.091C145.072 87.968 145.904 88.128 146.587 88.448C147.28 88.768 147.803 89.28 148.155 89.984C148.517 90.6773 148.699 91.5893 148.699 92.72V96H142.203ZM150.378 96V94.144C150.443 94.144 150.496 94.1653 150.539 94.208C150.581 94.2507 150.613 94.3147 150.635 94.4C150.656 94.4853 150.672 94.5867 150.683 94.704C150.693 94.8107 150.699 94.9333 150.699 95.072C150.699 95.2107 150.693 95.3387 150.683 95.456C150.672 95.5733 150.656 95.6747 150.635 95.76C150.613 95.8347 150.581 95.8933 150.539 95.936C150.496 95.9787 150.443 96 150.378 96ZM150.375 96V94.144H157.255L156.535 94.736V91.776C156.535 91.136 156.332 90.6507 155.927 90.32C155.532 89.9893 154.903 89.824 154.039 89.824C153.794 89.824 153.458 89.8453 153.031 89.888C152.604 89.92 152.14 89.9733 151.639 90.048L151.431 88.352C151.89 88.2453 152.354 88.1547 152.823 88.08C153.303 88.0053 153.772 87.968 154.231 87.968C155.106 87.968 155.874 88.1227 156.535 88.432C157.196 88.7307 157.714 89.1627 158.087 89.728C158.471 90.2933 158.663 90.976 158.663 91.776V96H150.375ZM150.375 96C150.311 96 150.263 95.9787 150.231 95.936C150.188 95.8933 150.156 95.8347 150.135 95.76C150.103 95.6747 150.082 95.5733 150.071 95.456C150.06 95.3387 150.055 95.2107 150.055 95.072C150.055 94.88 150.066 94.72 150.087 94.592C150.108 94.4533 150.146 94.3467 150.199 94.272C150.242 94.1867 150.3 94.144 150.375 94.144V96ZM153.143 86.704V84.88H155.287V86.704H153.143Z" fill="white"/>
<path d="M86.9961 120.75C86.8375 120.461 86.6741 120.097 86.5061 119.658C86.3381 119.229 86.1795 118.753 86.0301 118.23C85.8901 117.698 85.7735 117.143 85.6801 116.564C85.5961 115.976 85.5541 115.383 85.5541 114.786C85.5541 114.189 85.5961 113.587 85.6801 112.98C85.7735 112.373 85.8901 111.79 86.0301 111.23C86.1795 110.67 86.3381 110.157 86.5061 109.69C86.6741 109.214 86.8375 108.817 86.9961 108.5H88.7321C88.6015 108.864 88.4615 109.298 88.3121 109.802C88.1721 110.306 88.0415 110.843 87.9201 111.412C87.7988 111.981 87.6961 112.555 87.6121 113.134C87.5375 113.713 87.5001 114.263 87.5001 114.786C87.5001 115.299 87.5375 115.836 87.6121 116.396C87.6961 116.947 87.7988 117.493 87.9201 118.034C88.0415 118.575 88.1721 119.079 88.3121 119.546C88.4615 120.013 88.6015 120.414 88.7321 120.75H86.9961ZM93.115 119C92.3217 119 91.6683 118.874 91.155 118.622C90.6417 118.37 90.259 117.987 90.007 117.474C89.7643 116.961 89.643 116.312 89.643 115.528C89.643 114.744 89.7643 114.091 90.007 113.568C90.259 113.036 90.6417 112.639 91.155 112.378C91.6683 112.107 92.3217 111.972 93.115 111.972H96.279V118.118H94.403V113.19L94.865 113.596H93.115C92.7323 113.596 92.4243 113.643 92.191 113.736C91.9577 113.82 91.785 114.002 91.673 114.282C91.5703 114.553 91.519 114.968 91.519 115.528C91.519 116.06 91.5657 116.461 91.659 116.732C91.7617 116.993 91.9297 117.166 92.163 117.25C92.3963 117.334 92.7137 117.376 93.115 117.376H97.749V119H93.115ZM97.749 119V117.376C97.805 117.376 97.847 117.395 97.875 117.432C97.9123 117.469 97.9403 117.525 97.959 117.6C97.987 117.675 98.0057 117.763 98.015 117.866C98.0243 117.959 98.029 118.067 98.029 118.188C98.029 118.309 98.0243 118.421 98.015 118.524C98.0057 118.627 97.987 118.715 97.959 118.79C97.9403 118.855 97.9123 118.907 97.875 118.944C97.847 118.981 97.805 119 97.749 119ZM91.029 110.684V109.088H92.835V110.684H91.029ZM93.577 110.684V109.088H95.383V110.684H93.577ZM106.025 119V117.376H107.509V119H106.025ZM97.751 119C97.695 119 97.653 118.981 97.625 118.944C97.5876 118.907 97.5596 118.855 97.541 118.79C97.513 118.715 97.4943 118.627 97.485 118.524C97.4756 118.421 97.471 118.309 97.471 118.188C97.471 118.02 97.4803 117.88 97.499 117.768C97.5176 117.647 97.5503 117.553 97.597 117.488C97.6343 117.413 97.6856 117.376 97.751 117.376V119ZM97.751 119V117.376H105.017L104.163 118.104V115.528C104.163 115.024 104.107 114.632 103.995 114.352C103.883 114.063 103.687 113.862 103.407 113.75C103.136 113.629 102.758 113.568 102.273 113.568C101.89 113.568 101.512 113.596 101.139 113.652C100.775 113.699 100.49 113.764 100.285 113.848L101.447 112.756C101.391 112.971 101.335 113.241 101.279 113.568C101.232 113.895 101.19 114.245 101.153 114.618C101.116 114.982 101.097 115.341 101.097 115.696C101.097 116.023 101.111 116.363 101.139 116.718C101.176 117.073 101.214 117.385 101.251 117.656C101.298 117.927 101.335 118.113 101.363 118.216L99.585 118.706C99.5476 118.575 99.501 118.361 99.445 118.062C99.389 117.763 99.3376 117.409 99.291 116.998C99.2536 116.587 99.235 116.153 99.235 115.696C99.235 115.229 99.2583 114.781 99.305 114.352C99.3516 113.913 99.403 113.521 99.459 113.176C99.5243 112.821 99.585 112.537 99.641 112.322C99.865 112.238 100.215 112.154 100.691 112.07C101.167 111.986 101.694 111.944 102.273 111.944C103.113 111.944 103.808 112.061 104.359 112.294C104.919 112.527 105.334 112.905 105.605 113.428C105.885 113.951 106.025 114.655 106.025 115.542V119H97.751ZM107.509 119V117.376C107.556 117.376 107.598 117.395 107.635 117.432C107.672 117.469 107.7 117.525 107.719 117.6C107.738 117.675 107.752 117.763 107.761 117.866C107.78 117.959 107.789 118.067 107.789 118.188C107.789 118.309 107.78 118.421 107.761 118.524C107.752 118.627 107.738 118.715 107.719 118.79C107.7 118.855 107.672 118.907 107.635 118.944C107.598 118.981 107.556 119 107.509 119ZM111.601 119V117.376H113.351V119H111.601ZM113.351 119V117.376C113.397 117.376 113.439 117.395 113.477 117.432C113.514 117.469 113.542 117.525 113.561 117.6C113.579 117.675 113.593 117.763 113.603 117.866C113.621 117.959 113.631 118.067 113.631 118.188C113.631 118.309 113.621 118.421 113.603 118.524C113.593 118.627 113.579 118.715 113.561 118.79C113.542 118.855 113.514 118.907 113.477 118.944C113.449 118.981 113.407 119 113.351 119ZM107.513 119C107.457 119 107.415 118.981 107.387 118.944C107.349 118.907 107.321 118.855 107.303 118.79C107.275 118.715 107.256 118.627 107.247 118.524C107.237 118.421 107.233 118.309 107.233 118.188C107.233 118.02 107.242 117.88 107.261 117.768C107.279 117.647 107.312 117.553 107.359 117.488C107.396 117.413 107.447 117.376 107.513 117.376V119ZM107.513 119V117.376H110.831L109.739 118.286V111.972H111.601V119H107.513ZM108.017 121.982V120.386H109.823V121.982H108.017ZM110.565 121.982V120.386H112.371V121.982H110.565ZM121.191 119V117.376H122.661V119H121.191ZM113.351 119C113.295 119 113.253 118.981 113.225 118.944C113.187 118.907 113.159 118.855 113.141 118.79C113.113 118.715 113.094 118.627 113.085 118.524C113.075 118.421 113.071 118.309 113.071 118.188C113.071 118.02 113.08 117.88 113.099 117.768C113.117 117.647 113.15 117.553 113.197 117.488C113.234 117.413 113.285 117.376 113.351 117.376V119ZM113.351 119V117.376H119.889L119.315 117.866V113.19L119.791 113.596H118.027C117.616 113.596 117.294 113.647 117.061 113.75C116.827 113.853 116.664 114.044 116.571 114.324C116.477 114.595 116.431 114.982 116.431 115.486C116.431 116.037 116.477 116.447 116.571 116.718C116.664 116.979 116.827 117.157 117.061 117.25C117.294 117.334 117.616 117.376 118.027 117.376V118.832C117.233 118.832 116.58 118.72 116.067 118.496C115.553 118.272 115.171 117.917 114.919 117.432C114.676 116.937 114.555 116.289 114.555 115.486C114.555 114.721 114.676 114.077 114.919 113.554C115.171 113.031 115.553 112.639 116.067 112.378C116.58 112.107 117.233 111.972 118.027 111.972H121.191V119H113.351ZM122.661 119V117.376C122.717 117.376 122.763 117.395 122.801 117.432C122.838 117.469 122.866 117.525 122.885 117.6C122.903 117.675 122.917 117.763 122.927 117.866C122.936 117.959 122.941 118.067 122.941 118.188C122.941 118.309 122.936 118.421 122.927 118.524C122.917 118.627 122.903 118.715 122.885 118.79C122.866 118.855 122.838 118.907 122.801 118.944C122.763 118.981 122.717 119 122.661 119ZM116.053 110.684V109.088H117.859V110.684H116.053ZM118.601 110.684V109.088H120.407V110.684H118.601ZM122.661 119V117.376H129.927L129.073 118.104V115.528C129.073 115.024 129.017 114.632 128.905 114.352C128.793 114.063 128.597 113.862 128.317 113.75C128.046 113.629 127.668 113.568 127.183 113.568C126.8 113.568 126.422 113.596 126.049 113.652C125.685 113.699 125.4 113.764 125.195 113.848L126.357 112.756C126.301 112.971 126.245 113.241 126.189 113.568C126.142 113.895 126.1 114.245 126.063 114.618C126.026 114.982 126.007 115.341 126.007 115.696C126.007 116.023 126.021 116.363 126.049 116.718C126.086 117.073 126.124 117.385 126.161 117.656C126.208 117.927 126.245 118.113 126.273 118.216L124.495 118.706C124.458 118.575 124.411 118.361 124.355 118.062C124.299 117.763 124.248 117.409 124.201 116.998C124.164 116.587 124.145 116.153 124.145 115.696C124.145 115.229 124.168 114.781 124.215 114.352C124.262 113.913 124.313 113.521 124.369 113.176C124.434 112.821 124.495 112.537 124.551 112.322C124.775 112.238 125.125 112.154 125.601 112.07C126.077 111.986 126.604 111.944 127.183 111.944C128.023 111.944 128.718 112.061 129.269 112.294C129.829 112.527 130.244 112.905 130.515 113.428C130.795 113.951 130.935 114.655 130.935 115.542V119H122.661ZM122.661 119C122.605 119 122.563 118.981 122.535 118.944C122.498 118.907 122.47 118.855 122.451 118.79C122.423 118.715 122.404 118.627 122.395 118.524C122.386 118.421 122.381 118.309 122.381 118.188C122.381 118.02 122.39 117.88 122.409 117.768C122.428 117.647 122.46 117.553 122.507 117.488C122.544 117.413 122.596 117.376 122.661 117.376V119ZM134.003 120.722H132.267C132.398 120.367 132.533 119.952 132.673 119.476C132.822 119 132.958 118.487 133.079 117.936C133.2 117.385 133.298 116.825 133.373 116.256C133.457 115.687 133.499 115.145 133.499 114.632C133.499 114.119 133.457 113.577 133.373 113.008C133.298 112.439 133.2 111.874 133.079 111.314C132.958 110.754 132.822 110.231 132.673 109.746C132.533 109.251 132.398 108.827 132.267 108.472H134.003C134.162 108.78 134.325 109.163 134.493 109.62C134.661 110.077 134.815 110.581 134.955 111.132C135.104 111.673 135.221 112.247 135.305 112.854C135.398 113.451 135.445 114.044 135.445 114.632C135.445 115.229 135.398 115.827 135.305 116.424C135.221 117.012 135.104 117.577 134.955 118.118C134.815 118.659 134.661 119.154 134.493 119.602C134.325 120.05 134.162 120.423 134.003 120.722Z" fill="white"/>
<path d="M125.473 176C125.473 184.27 118.665 191 110.237 191C101.808 191 95 184.27 95 176C95 167.73 101.808 161 110.237 161C118.665 161 125.473 167.73 125.473 176Z" fill="#4F008D" stroke="white" stroke-width="2"/>
<path fill-rule="evenodd" clip-rule="evenodd" d="M109.411 182.036C109.054 182.388 108.476 182.388 108.12 182.036L102.64 176.636C102.283 176.285 102.283 175.715 102.64 175.363L108.12 169.963C108.476 169.612 109.054 169.612 109.411 169.963C109.768 170.315 109.768 170.885 109.411 171.236L105.49 175.1L116.072 175.1C116.576 175.1 116.985 175.503 116.985 176C116.985 176.497 116.576 176.9 116.072 176.9H105.49L109.411 180.763C109.768 181.115 109.768 181.685 109.411 182.036Z" fill="white"/>
<path d="M137.857 29C137.857 43.8841 125.605 56 110.429 56C95.2525 56 83 43.8841 83 29C83 14.1159 95.2525 2 110.429 2C125.605 2 137.857 14.1159 137.857 29Z" fill="#4F008D" stroke="white" stroke-width="4"/>
<path d="M114 16.3335V21.6668M106 16.3335V21.6668M121.31 28.3335H98.6899M121.31 28.3335C121.033 20.7239 118.205 18.3335 110 18.3335C101.795 18.3335 98.9676 20.7239 98.6899 28.3335M121.31 28.3335C121.326 28.7613 121.333 29.2056 121.333 29.6668C121.333 38.3335 118.667 41.0002 110 41.0002C101.333 41.0002 98.6667 38.3335 98.6667 29.6668C98.6667 29.2056 98.6742 28.7613 98.6899 28.3335" stroke="white" stroke-width="2" stroke-linecap="round" stroke-linejoin="round"/>
<defs>
<filter id="filter0_d_142_8113" x="0" y="13" width="221" height="186" filterUnits="userSpaceOnUse" color-interpolation-filters="sRGB">
<feFlood flood-opacity="0" result="BackgroundImageFix"/>
<feColorMatrix in="SourceAlpha" type="matrix" values="0 0 0 0 0 0 0 0 0 0 0 0 0 0 0 0 0 0 127 0" result="hardAlpha"/>
<feOffset dy="4"/>
<feGaussianBlur stdDeviation="8"/>
<feComposite in2="hardAlpha" operator="out"/>
<feColorMatrix type="matrix" values="0 0 0 0 0 0 0 0 0 0 0 0 0 0 0 0 0 0 0.08 0"/>
<feBlend mode="normal" in2="BackgroundImageFix" result="effect1_dropShadow_142_8113"/>
<feBlend mode="normal" in="SourceGraphic" in2="effect1_dropShadow_142_8113" result="shape"/>
</filter>
</defs>
</svg>
