<svg width="316" height="316" viewBox="0 0 316 316" fill="none" xmlns="http://www.w3.org/2000/svg">
<path d="M293.564 71.7132C292.561 70.0279 291.508 68.3636 290.404 66.7204C275.76 45.0112 250.55 30.1656 225.75 23.4537C214.87 20.5593 203.692 18.9285 192.438 18.5936C118.734 16.0656 89.3773 74.2096 65.02 89.1691C40.6627 104.129 3.15987 129.769 5.68787 183.482C8.21587 237.196 46.9069 287.762 121.856 290.922C196.805 294.082 201.804 260.321 243.648 247.826C271.343 239.56 291.048 211.638 300.655 185.833C313.788 150.656 313.168 104.982 293.564 71.7132Z" fill="#4F008D"/>
<path opacity="0.7" d="M293.564 71.7132C292.561 70.0279 291.508 68.3636 290.404 66.7204C275.76 45.0112 250.55 30.1656 225.75 23.4537C214.87 20.5593 203.692 18.9285 192.438 18.5936C118.734 16.0656 89.3773 74.2096 65.02 89.1691C40.6627 104.129 3.15987 129.769 5.68787 183.482C8.21587 237.196 46.9069 287.762 121.856 290.922C196.805 294.082 201.804 260.321 243.648 247.826C271.343 239.56 291.048 211.638 300.655 185.833C313.788 150.656 313.168 104.982 293.564 71.7132Z" fill="white"/>
<path d="M277.17 76.7818V74.7025H238.706V43.8735H237.455V74.7025H199.263V76.7818H237.455V105.323H199.263V107.408H237.455V135.95H199.263V138.029H237.455V168.017H238.706V138.029H277.17V135.95H238.706V107.408H277.17V105.323H238.706V76.7818H277.17Z" fill="#263238" stroke="#263238" stroke-miterlimit="10"/>
<path d="M196.628 41.3706V171.354H279.534V41.3706H196.628ZM276.734 166.962H199.428V45.7567H276.734V166.962Z" fill="#263238" stroke="#263238" stroke-miterlimit="10"/>
<path d="M160.528 204.717C160.531 204.709 160.532 204.701 160.532 204.692C160.532 204.684 160.53 204.676 160.526 204.668C160.523 204.66 160.518 204.654 160.511 204.648C160.505 204.642 160.498 204.638 160.49 204.635C160.482 204.632 160.474 204.631 160.465 204.631C160.457 204.631 160.448 204.633 160.441 204.637C160.433 204.64 160.426 204.645 160.421 204.651C160.415 204.658 160.41 204.665 160.408 204.673C158.551 209.12 157.084 213.719 156.022 218.419C154.938 223.119 154.121 227.878 153.576 232.671L153.234 236.273C153.184 236.873 153.114 237.474 153.07 238.074L152.975 239.882C152.925 241.089 152.849 242.296 152.811 243.503L152.849 247.124L152.887 248.932C152.887 249.532 152.956 250.139 153.001 250.739C153.089 251.94 153.165 253.147 153.272 254.348C153.506 256.75 153.866 259.132 154.233 261.515C154.237 261.529 154.245 261.541 154.257 261.55C154.268 261.56 154.282 261.565 154.296 261.566C154.305 261.567 154.313 261.566 154.322 261.563C154.33 261.56 154.337 261.555 154.343 261.549C154.349 261.543 154.354 261.536 154.357 261.528C154.36 261.52 154.36 261.511 154.359 261.502C154.359 260.295 154.303 259.101 154.277 257.894C154.252 256.687 154.138 255.505 154.157 254.304C154.176 253.103 154.157 251.902 154.119 250.708L154.081 248.913V247.118V243.528L154.176 239.945L154.214 238.15C154.214 237.55 154.284 236.956 154.315 236.355L154.536 232.772C154.944 227.999 155.621 223.254 156.565 218.558C157.484 213.839 158.81 209.208 160.528 204.717Z" fill="#263238"/>
<path d="M161.04 223.475C161.044 223.46 161.042 223.444 161.035 223.43C161.028 223.416 161.016 223.405 161.002 223.399C160.994 223.396 160.986 223.395 160.977 223.395C160.969 223.395 160.96 223.397 160.953 223.401C160.945 223.404 160.938 223.409 160.933 223.416C160.927 223.422 160.923 223.429 160.92 223.437C158.871 229.424 157.508 235.623 156.856 241.917C156.54 245.077 156.186 248.199 156.142 251.359C156.067 254.523 156.178 257.688 156.477 260.839C156.48 260.852 156.488 260.864 156.498 260.873C156.508 260.882 156.52 260.887 156.534 260.889C156.542 260.891 156.55 260.891 156.558 260.89C156.566 260.888 156.573 260.885 156.58 260.88C156.587 260.875 156.592 260.869 156.596 260.862C156.6 260.855 156.602 260.847 156.603 260.839C156.97 257.679 157.191 254.557 157.412 251.422C157.633 248.287 157.665 245.146 157.867 242.012C158.297 235.747 159.356 229.541 161.027 223.488L161.04 223.475Z" fill="#263238"/>
<path d="M171.443 230.08C171.431 230.068 171.415 230.062 171.398 230.062C171.382 230.062 171.366 230.068 171.354 230.08C168.753 231.749 166.411 233.791 164.402 236.14C163.393 237.327 162.484 238.596 161.685 239.932L161.128 240.988L160.686 242.088C160.538 242.448 160.411 242.818 160.307 243.194C160.193 243.573 160.067 243.939 159.966 244.319C159.171 247.32 158.69 250.395 158.531 253.495C158.376 256.579 158.49 259.671 158.872 262.735C158.876 262.749 158.884 262.761 158.896 262.77C158.907 262.78 158.921 262.785 158.935 262.786C158.943 262.786 158.951 262.786 158.959 262.783C158.967 262.781 158.974 262.777 158.98 262.771C158.986 262.766 158.991 262.759 158.994 262.752C158.997 262.745 158.999 262.737 158.999 262.729L159.795 253.584C160.011 250.558 160.397 247.547 160.952 244.565C161.034 244.192 161.141 243.838 161.236 243.472C161.321 243.106 161.427 242.745 161.552 242.391L161.925 241.335L162.405 240.337C163.129 239.006 163.962 237.738 164.895 236.545C166.751 234.122 168.951 231.982 171.424 230.193C171.434 230.189 171.443 230.181 171.45 230.172C171.457 230.163 171.462 230.153 171.463 230.142C171.465 230.13 171.464 230.119 171.461 230.108C171.457 230.097 171.451 230.087 171.443 230.08Z" fill="#263238"/>
<path d="M166.405 241.828C165.056 242.813 163.971 244.115 163.245 245.62C162.482 247.102 161.886 248.664 161.47 250.278C161.349 250.676 161.248 251.081 161.16 251.485L160.875 252.699C160.725 253.516 160.622 254.341 160.566 255.17C160.566 256.004 160.534 256.832 160.566 257.66C160.626 258.489 160.734 259.314 160.888 260.131C160.892 260.143 160.899 260.153 160.908 260.162C160.916 260.171 160.927 260.177 160.939 260.181C160.947 260.183 160.956 260.183 160.964 260.182C160.972 260.18 160.98 260.177 160.987 260.172C160.994 260.168 161.001 260.161 161.005 260.154C161.01 260.147 161.013 260.139 161.015 260.131C161.206 259.328 161.354 258.516 161.457 257.698C161.583 256.889 161.71 256.092 161.805 255.29C161.899 254.487 162.026 253.697 162.089 252.894C162.152 252.092 162.26 251.289 162.437 250.505C162.714 248.922 163.168 247.375 163.789 245.892C164.349 244.38 165.259 243.022 166.443 241.929C166.449 241.924 166.453 241.918 166.456 241.91C166.459 241.903 166.461 241.896 166.461 241.888C166.461 241.88 166.459 241.873 166.456 241.866C166.453 241.859 166.449 241.852 166.443 241.847C166.433 241.837 166.42 241.83 166.405 241.828Z" fill="#263238"/>
<path d="M151.819 250.992C151.478 246.935 150.808 242.909 150.176 238.896C149.544 234.882 148.836 230.869 148.103 226.888C147.37 222.906 146.548 218.905 145.682 214.936C145.685 214.927 145.686 214.917 145.685 214.907C145.683 214.897 145.679 214.888 145.673 214.88C145.668 214.872 145.66 214.865 145.651 214.86C145.642 214.856 145.632 214.854 145.622 214.854C145.612 214.854 145.602 214.856 145.594 214.86C145.585 214.865 145.577 214.872 145.571 214.88C145.565 214.888 145.561 214.897 145.56 214.907C145.558 214.917 145.559 214.927 145.562 214.936C146.257 218.943 146.883 222.957 147.458 226.976C148.033 230.996 148.64 235.009 149.152 239.035C149.664 243.06 150.037 247.105 150.536 251.125L152.021 263.215C152.025 263.23 152.033 263.243 152.044 263.253C152.055 263.263 152.069 263.27 152.084 263.272C152.102 263.272 152.119 263.265 152.132 263.254C152.144 263.242 152.152 263.226 152.154 263.209C152.198 262.191 152.198 261.174 152.224 260.15C152.249 259.126 152.179 258.115 152.167 257.097C152.148 255.056 151.971 253.027 151.819 250.992Z" fill="#263238"/>
<path d="M149.386 250.935C149.164 249.324 148.874 247.725 148.564 246.132L147.995 243.762C147.806 242.972 147.629 242.182 147.401 241.399C146.591 238.249 145.551 235.163 144.292 232.165L143.805 231.046L143.268 229.953C142.92 229.22 142.509 228.518 142.111 227.804C141.313 226.384 140.327 225.079 139.179 223.924C139.174 223.918 139.167 223.914 139.16 223.911C139.153 223.908 139.145 223.906 139.138 223.906C139.13 223.906 139.122 223.908 139.115 223.911C139.108 223.914 139.102 223.918 139.097 223.924C139.085 223.936 139.079 223.951 139.079 223.968C139.079 223.985 139.085 224 139.097 224.012C140.166 225.21 141.068 226.547 141.776 227.988C142.13 228.708 142.503 229.416 142.807 230.162L143.287 231.268L143.71 232.399C144.833 235.408 145.737 238.493 146.415 241.632C146.782 243.193 147.047 244.792 147.332 246.366L147.711 248.742C147.85 249.532 148.021 250.322 148.128 251.119C148.381 252.705 148.678 254.279 148.95 255.878C149.221 257.477 149.487 259.038 149.828 260.649C149.83 260.664 149.837 260.677 149.847 260.687C149.858 260.697 149.871 260.704 149.885 260.706C149.902 260.706 149.919 260.7 149.932 260.688C149.945 260.676 149.953 260.66 149.954 260.643C149.954 259.021 149.917 257.399 149.841 255.777C149.746 254.159 149.55 252.547 149.386 250.935Z" fill="#263238"/>
<path d="M146.024 251.144C145.271 249.008 144.399 246.922 143.451 244.881C142.495 242.84 141.415 240.86 140.215 238.953C140.212 238.944 140.207 238.936 140.201 238.93C140.194 238.924 140.186 238.919 140.177 238.916C140.169 238.913 140.159 238.912 140.15 238.912C140.141 238.913 140.132 238.916 140.124 238.921C140.117 238.925 140.11 238.932 140.104 238.939C140.099 238.947 140.096 238.956 140.094 238.965C140.093 238.974 140.093 238.983 140.095 238.992C140.098 239.001 140.102 239.009 140.108 239.016C141.152 240.997 142.074 243.04 142.87 245.134C143.691 247.207 144.437 249.318 145.057 251.454C145.676 253.59 146.15 255.77 146.719 257.919C147.288 260.068 147.799 262.236 148.463 264.41C148.467 264.422 148.474 264.433 148.485 264.441C148.495 264.449 148.507 264.453 148.52 264.454C148.537 264.454 148.554 264.448 148.567 264.436C148.58 264.424 148.588 264.408 148.589 264.391C148.613 262.123 148.401 259.859 147.957 257.635C147.488 255.423 146.841 253.252 146.024 251.144Z" fill="#263238"/>
<path d="M145.884 258.241C145.47 256.911 144.868 255.647 144.096 254.487C143.377 253.299 142.501 252.212 141.492 251.258C140.977 250.79 140.423 250.367 139.836 249.994C139.25 249.618 138.611 249.332 137.94 249.147C137.926 249.144 137.911 249.147 137.899 249.154C137.886 249.161 137.876 249.172 137.871 249.185C137.861 249.196 137.855 249.211 137.855 249.226C137.855 249.241 137.861 249.256 137.871 249.267C139.069 249.845 140.131 250.67 140.986 251.688C141.851 252.683 142.58 253.788 143.154 254.974C143.786 256.137 144.09 257.426 144.627 258.633C144.861 259.265 145.094 259.866 145.372 260.485C145.599 261.136 145.872 261.769 146.188 262.381C146.194 262.391 146.202 262.398 146.212 262.404C146.222 262.409 146.233 262.412 146.245 262.413C146.253 262.414 146.261 262.413 146.268 262.41C146.276 262.408 146.283 262.404 146.289 262.398C146.295 262.393 146.3 262.386 146.303 262.379C146.306 262.372 146.308 262.364 146.308 262.356C146.333 261.662 146.308 260.967 146.232 260.277C146.188 259.588 146.049 258.911 145.884 258.241Z" fill="#263238"/>
<path d="M146.137 220.726C144.105 220.163 142.265 219.056 140.817 217.523C139.368 215.99 138.367 214.09 137.921 212.029C136.385 204.862 141.334 207.934 136.897 196.672C132.461 185.409 133.485 182.85 135.001 179.608C136.518 176.366 137.39 177.389 138.755 181.655C140.121 185.921 145.075 192.576 146.971 205.039C148.867 217.502 146.137 220.726 146.137 220.726Z" fill="#4F008D"/>
<path d="M159.264 208.617C159.264 208.617 154.84 207.081 154.657 198.72C154.473 190.358 157.899 192.065 158.411 181.656C158.922 171.247 159.605 163.909 161.482 163.738C163.359 163.568 168.308 168.858 170.014 180.461C171.721 192.065 167.796 199.743 164.383 203.156C160.97 206.569 159.264 208.617 159.264 208.617Z" fill="#4F008D"/>
<path d="M143.748 230.793C143.748 230.793 142.724 224.65 140.677 221.749C138.629 218.849 134.192 216.289 131.291 210.664C128.39 205.039 125.148 202.303 125.319 210.323C125.49 218.343 129.073 222.432 133.535 225.162C137.997 227.893 143.748 230.793 143.748 230.793Z" fill="#4F008D"/>
<path d="M141.871 241.373C141.871 241.373 137.776 233.524 131.804 227.722C125.831 221.92 121.06 219.019 122.76 221.92C124.46 224.821 126.514 224.65 129.415 229.77C132.315 234.889 131.462 238.618 135.558 241.544C139.653 244.47 141.871 241.373 141.871 241.373Z" fill="#4F008D"/>
<path d="M141.359 251.441C141.189 250.929 141.018 247.175 135.216 244.103C129.414 241.032 123.954 242.207 124.637 243.762C125.319 245.317 128.903 247.857 132.486 249.393C136.069 250.929 141.359 251.441 141.359 251.441Z" fill="#4F008D"/>
<path d="M158.929 231.135C158.929 231.135 156.369 227.893 157.734 221.067C159.099 214.242 162.158 215.948 165.584 212.365C169.009 208.781 168.314 208.276 171.727 204.522C175.14 200.767 178.211 198.72 179.576 200.256C180.941 201.791 178.894 206.576 176.846 209.299C174.798 212.023 171.556 213.389 170.008 216.776C168.459 220.164 169.155 225.624 165.23 228.209C161.305 230.794 158.929 231.135 158.929 231.135Z" fill="#4F008D"/>
<path d="M167.48 233.012C167.48 233.012 173.623 226.016 178.06 220.897C182.496 215.777 184.203 211.859 184.38 215.266C184.557 218.672 185.915 221.409 182.332 225.845C178.749 230.282 167.48 233.012 167.48 233.012Z" fill="#4F008D"/>
<path d="M164.219 244.274C164.219 244.274 164.048 241.544 173.775 235.23C183.501 228.917 187.597 227.722 186.573 230.282C185.549 232.841 181.283 235.401 176.676 240.008C172.068 244.616 164.219 244.274 164.219 244.274Z" fill="#4F008D"/>
<path d="M146.542 219.999C146.542 219.999 144.26 207.763 141.871 199.061C139.483 190.358 137.947 185.068 137.947 185.068" stroke="#263238" stroke-linecap="round" stroke-linejoin="round"/>
<path d="M158.878 208.743C158.878 208.743 163.024 195.471 164.389 187.457C165.755 179.444 164.219 173.465 163.536 169.881" stroke="#263238" stroke-linecap="round" stroke-linejoin="round"/>
<path d="M143.211 230.541C141.374 227.38 139.27 224.382 136.923 221.579C133.169 217.155 130.268 214.753 128.562 210.494" stroke="#263238" stroke-linecap="round" stroke-linejoin="round"/>
<path d="M158.929 231.135C158.929 231.135 160.294 222.919 163.536 218.678C166.778 214.438 173.262 207.764 175.822 203.51" stroke="#263238" stroke-linecap="round" stroke-linejoin="round"/>
<path d="M140.936 251.252C140.936 251.252 135.197 247.516 131.102 245.469" stroke="#263238" stroke-linecap="round" stroke-linejoin="round"/>
<path d="M159.826 287.44H147.97L142.042 257.755H165.755L159.826 287.44Z" fill="#263238" stroke="#263238" stroke-linecap="round" stroke-linejoin="round"/>
<path d="M40.9536 287.44H309.667" stroke="#263238" stroke-miterlimit="10"/>
<path d="M19.7056 287.44H36.3714" stroke="#263238" stroke-miterlimit="10"/>
<path d="M136.601 105.544V85.6362H134.799V60.1602C134.8 58.0973 134.395 56.0544 133.606 54.1482C132.817 52.242 131.66 50.5099 130.202 49.0509C128.743 47.5919 127.012 46.4345 125.106 45.6448C123.2 44.8552 121.157 44.4487 119.094 44.4487H34.7096C30.5426 44.4487 26.5463 46.104 23.5998 49.0505C20.6534 51.997 18.998 55.9933 18.998 60.1602V260.776C18.998 264.943 20.6534 268.939 23.5998 271.886C26.5463 274.832 30.5426 276.488 34.7096 276.488H119.094C121.157 276.488 123.2 276.081 125.106 275.291C127.012 274.502 128.743 273.344 130.202 271.885C131.66 270.426 132.817 268.694 133.606 266.788C134.395 264.882 134.8 262.839 134.799 260.776V122.513H136.601V110.752H134.799V105.544H136.601Z" fill="#707070" stroke="#263238" stroke-linejoin="round"/>
<path d="M116.339 274.32H37.4589C33.0456 274.32 28.813 272.566 25.6923 269.446C22.5716 266.325 20.8184 262.092 20.8184 257.679V63.2568C20.8184 54.0612 25.5331 46.61 37.4589 46.61H116.339C127.279 46.4646 132.986 54.0612 132.986 63.2568V257.679C132.986 259.865 132.555 262.029 131.718 264.049C130.882 266.068 129.655 267.903 128.11 269.448C126.564 270.993 124.729 272.219 122.709 273.055C120.689 273.891 118.525 274.32 116.339 274.32Z" fill="#263238" stroke="#263238" stroke-linejoin="round"/>
<path d="M83.0068 49.17L82.9752 49.2901C82.0525 52.7281 79.929 54.9781 77.5779 54.9781H76.2254C73.8744 54.9781 71.7509 52.7534 70.8282 49.2901V49.17L37.9136 49.0562C36.0912 49.0504 34.2855 49.4042 32.6 50.0974C30.9145 50.7906 29.3824 51.8096 28.0914 53.0959C26.8003 54.3822 25.7758 55.9106 25.0765 57.5936C24.3771 59.2765 24.0167 61.0809 24.0159 62.9033L23.9717 255.625C23.9717 264.606 30.9995 271.887 39.6769 271.887H114.152C122.829 271.887 129.863 264.606 129.863 255.625V61.5193C129.863 58.3585 128.617 55.3251 126.396 53.0771C124.174 50.8291 121.155 49.5479 117.994 49.5113L83.0068 49.17Z" fill="white" stroke="#263238" stroke-miterlimit="10"/>
<path d="M129.851 65.0205V61.5192C129.851 58.3584 128.605 55.325 126.383 53.077C124.161 50.829 121.142 49.5478 117.982 49.5112L83.007 49.1509L82.9754 49.271C82.0527 52.7091 79.9292 54.959 77.5781 54.959H76.2256C73.8746 54.959 71.7511 52.7344 70.8284 49.271V49.1509L37.9138 49.0372C36.0898 49.0314 34.2825 49.3858 32.5958 50.0802C30.9091 50.7746 29.3761 51.7952 28.0848 53.0835C26.7936 54.3719 25.7694 55.9025 25.0712 57.5877C24.373 59.2728 24.0144 61.0792 24.0161 62.9033V65.0205H129.851Z" fill="#DBDBDB" stroke="#263238" stroke-miterlimit="10"/>
<path d="M78.052 48.7904C78.052 48.4976 77.9651 48.2115 77.8023 47.9681C77.6395 47.7248 77.4082 47.5352 77.1376 47.4235C76.867 47.3117 76.5693 47.2828 76.2823 47.3404C75.9952 47.398 75.7317 47.5395 75.5252 47.7469C75.3186 47.9544 75.1782 48.2185 75.1219 48.5058C75.0655 48.7931 75.0957 49.0906 75.2086 49.3607C75.3215 49.6308 75.5121 49.8614 75.7561 50.0231C76.0001 50.1849 76.2867 50.2705 76.5794 50.2693C76.7734 50.2693 76.9654 50.231 77.1444 50.1566C77.3235 50.0822 77.4861 49.9731 77.6229 49.8357C77.7598 49.6983 77.8681 49.5352 77.9417 49.3559C78.0154 49.1765 78.0528 48.9843 78.052 48.7904Z" fill="#707070"/>
<path d="M34.3809 52.5448C34.3809 54.0427 32.7061 54.5799 32.6998 55.7048V55.7807H34.324V56.2799H32.1562V55.8691C32.1562 54.2702 33.831 53.9731 33.831 52.5701C33.831 52.0582 33.6604 51.7927 33.2496 51.7927C32.8388 51.7927 32.6682 52.0835 32.6682 52.5195V52.9556H32.1562V52.5575C32.1562 51.7991 32.4975 51.2935 33.2622 51.2935C34.027 51.2935 34.3809 51.8243 34.3809 52.5448Z" fill="#263238"/>
<path d="M37.0923 52.5384V52.6648C37.1136 52.8811 37.0634 53.0985 36.9492 53.2835C36.835 53.4684 36.6632 53.6108 36.4603 53.6887C36.6645 53.7647 36.8375 53.9067 36.952 54.0921C37.0665 54.2775 37.1158 54.4959 37.0923 54.7125V55.0917C37.0923 55.8501 36.7384 56.3557 35.9736 56.3557C35.2089 56.3557 34.8613 55.8627 34.8613 55.0917V54.7567H35.3922V55.1296C35.3922 55.572 35.5755 55.8438 35.9736 55.8438C36.3718 55.8438 36.5488 55.5783 36.5488 55.0791V54.6999C36.5488 54.2069 36.3465 53.9731 35.9168 53.9604H35.6197V53.4675H35.942C36.0281 53.4684 36.1133 53.4507 36.1919 53.4154C36.2704 53.3802 36.3403 53.3284 36.3968 53.2634C36.4533 53.1985 36.495 53.1221 36.5191 53.0395C36.5431 52.9569 36.549 52.87 36.5361 52.7849V52.5637C36.5361 52.0518 36.3592 51.7927 35.961 51.7927C35.5628 51.7927 35.3796 52.0644 35.3796 52.5131V52.7659H34.8613V52.5384C34.8613 51.7863 35.2152 51.2744 35.9736 51.2744C36.732 51.2744 37.0923 51.7863 37.0923 52.5384Z" fill="#263238"/>
<path d="M38.1603 52.9175V53.6H37.6294V52.9175H38.1603ZM38.1603 55.6098V56.2924H37.6294V55.6161L38.1603 55.6098Z" fill="#263238"/>
<path d="M39.2724 53.3598C39.3458 53.2298 39.4537 53.1226 39.5842 53.0501C39.7147 52.9776 39.8627 52.9426 40.0119 52.949C40.6439 52.949 40.9283 53.4167 40.9283 54.1246V55.0915C40.9283 55.8499 40.568 56.3555 39.8159 56.3555C39.0639 56.3555 38.7036 55.8626 38.7036 55.0915V54.7629H39.2155V55.1294C39.2155 55.5718 39.4051 55.8436 39.797 55.8436C40.1888 55.8436 40.3784 55.5718 40.3784 55.1294V54.1688C40.3784 53.7201 40.1951 53.4546 39.797 53.4546C39.7252 53.4512 39.6534 53.4624 39.586 53.4876C39.5187 53.5127 39.4571 53.5513 39.4051 53.6009C39.3531 53.6505 39.3117 53.7102 39.2835 53.7763C39.2553 53.8425 39.2407 53.9136 39.2408 53.9855V54.0929H38.7226L38.8553 51.3438H40.8082V51.8241H39.3546L39.2724 53.3598Z" fill="#263238"/>
<path d="M43.6838 52.5318V52.6266H43.1656V52.5002C43.1656 52.0515 42.9823 51.7924 42.5778 51.7924C42.1734 51.7924 41.9458 52.0578 41.9458 52.5887V53.72C42.0031 53.5571 42.1117 53.4173 42.2553 53.3215C42.399 53.2258 42.5698 53.1793 42.7422 53.1891C43.3742 53.1891 43.6649 53.6504 43.6649 54.3646V55.1104C43.6649 55.8688 43.292 56.3744 42.5336 56.3744C41.7752 56.3744 41.396 55.8814 41.396 55.1104V52.5824C41.396 51.7987 41.7499 51.3184 42.5336 51.3184C43.3173 51.3184 43.6838 51.7734 43.6838 52.5318ZM41.9774 54.3836V55.1293C41.9774 55.5717 42.1607 55.8435 42.5652 55.8435C42.9697 55.8435 43.153 55.5717 43.153 55.1293V54.3836C43.153 53.9412 42.9634 53.6694 42.5652 53.6694C42.167 53.6694 41.9774 53.9412 41.9774 54.3836Z" fill="#263238"/>
<path d="M97.72 52.7534H96.3232V56.2484H97.72V52.7534Z" fill="#263238"/>
<path d="M99.5842 52.0518H98.1875V56.2482H99.5842V52.0518Z" fill="#263238"/>
<path d="M101.449 51.5522H100.052V56.2417H101.449V51.5522Z" fill="#263238"/>
<path d="M103.307 50.6865H101.91V56.2418H103.307V50.6865Z" fill="#263238"/>
<path d="M120.605 56.147H112.218V51.0215H120.605V56.147ZM112.686 55.6856H120.137V51.4892H112.686V55.6856Z" fill="#263238"/>
<path d="M117.811 51.9946H113.387V55.1736H117.811V51.9946Z" fill="#263238"/>
<path d="M121.369 52.981H120.314V54.1881H121.369V52.981Z" fill="#263238"/>
<path d="M109.146 55.0348C109.089 55.036 109.031 55.0207 108.982 54.9905C107.276 53.973 106.151 54.9147 106.1 54.9589C106.042 55.0164 105.964 55.0487 105.882 55.0487C105.8 55.0487 105.722 55.0164 105.664 54.9589C105.606 54.8999 105.574 54.8205 105.574 54.7377C105.574 54.655 105.606 54.5756 105.664 54.5165C105.727 54.466 107.168 53.2525 109.279 54.5165C109.336 54.5529 109.379 54.6063 109.403 54.6689C109.427 54.7316 109.431 54.8003 109.413 54.8651C109.395 54.9299 109.358 54.9874 109.305 55.0293C109.253 55.0711 109.188 55.0952 109.121 55.098L109.146 55.0348Z" fill="#263238"/>
<path d="M109.778 53.9794C109.721 53.9807 109.663 53.9653 109.614 53.9352C107.149 52.469 105.487 53.891 105.474 53.9352C105.411 53.9784 105.334 53.9971 105.258 53.9877C105.182 53.9784 105.112 53.9417 105.061 53.8844C105.01 53.8272 104.981 53.7533 104.98 53.6766C104.98 53.5999 105.007 53.5256 105.057 53.4675C105.057 53.4675 107.08 51.7358 109.936 53.4296C109.972 53.4504 110.003 53.4782 110.028 53.5112C110.053 53.5442 110.071 53.5818 110.081 53.6219C110.091 53.6619 110.092 53.7035 110.086 53.7443C110.08 53.7851 110.065 53.8242 110.044 53.8594C110.013 53.9 109.973 53.9324 109.926 53.9534C109.88 53.9743 109.829 53.9833 109.778 53.9794Z" fill="#263238"/>
<path d="M110.347 52.7594C110.292 52.7598 110.237 52.7445 110.189 52.7152C107.067 50.8571 104.988 52.6077 104.9 52.7152C104.871 52.7446 104.836 52.768 104.798 52.7839C104.76 52.7999 104.72 52.8081 104.678 52.8081C104.637 52.8081 104.596 52.7999 104.558 52.7839C104.52 52.768 104.486 52.7446 104.457 52.7152C104.43 52.6848 104.409 52.6493 104.396 52.6106C104.383 52.572 104.377 52.5311 104.38 52.4904C104.383 52.4497 104.394 52.41 104.413 52.3737C104.432 52.3374 104.457 52.3052 104.489 52.2791C104.489 52.2791 106.979 50.1429 110.512 52.2412C110.582 52.2844 110.633 52.3537 110.653 52.4341C110.673 52.5145 110.661 52.5995 110.619 52.6709C110.584 52.7064 110.541 52.733 110.494 52.7484C110.447 52.7638 110.396 52.7676 110.347 52.7594Z" fill="#263238"/>
<path d="M108.205 55.5595C108.206 55.717 108.16 55.8714 108.073 56.0026C107.986 56.1339 107.861 56.236 107.716 56.296C107.57 56.3559 107.41 56.3709 107.255 56.3391C107.101 56.3072 106.96 56.2299 106.85 56.1171C106.74 56.0043 106.666 55.8612 106.638 55.7062C106.61 55.5511 106.628 55.3912 106.692 55.247C106.756 55.1028 106.861 54.9809 106.994 54.8969C107.127 54.8129 107.283 54.7708 107.44 54.7758C107.645 54.7807 107.839 54.8655 107.982 55.0119C108.125 55.1584 108.205 55.3549 108.205 55.5595Z" fill="#263238"/>
<path d="M76.807 137.561C90.711 137.776 102.296 143.047 111.428 153.589C111.722 153.908 111.948 154.284 112.093 154.693C112.237 155.102 112.298 155.536 112.27 155.969C112.242 156.402 112.127 156.825 111.931 157.212C111.735 157.599 111.463 157.942 111.131 158.222C110.81 158.497 110.436 158.705 110.033 158.834C109.63 158.962 109.205 159.008 108.783 158.97C108.362 158.931 107.952 158.807 107.579 158.607C107.206 158.407 106.878 158.134 106.612 157.804C103.353 153.954 99.392 150.758 94.9391 148.388C88.0916 144.75 80.3088 143.253 72.6005 144.093C64.8922 144.933 57.6141 148.069 51.7103 153.096C50.0601 154.563 48.4944 156.122 47.0208 157.767C46.7458 158.1 46.4074 158.375 46.0253 158.576C45.6432 158.778 45.225 158.902 44.7948 158.94C44.3645 158.979 43.9309 158.932 43.5189 158.802C43.1069 158.672 42.7248 158.462 42.3946 158.184C42.0688 157.899 41.8037 157.551 41.6152 157.161C41.4267 156.772 41.3186 156.348 41.2973 155.916C41.2761 155.483 41.3422 155.051 41.4916 154.645C41.641 154.239 41.8708 153.867 42.1671 153.551C49.4766 144.868 59.7886 139.256 71.0495 137.833C71.9596 137.713 72.876 137.612 73.7924 137.574C74.7088 137.536 75.8021 137.561 76.807 137.561Z" fill="#4F008D"/>
<path d="M77.9574 150.448C86.7422 150.675 95.0214 154.423 101.493 161.931C101.791 162.246 102.021 162.619 102.169 163.027C102.316 163.435 102.378 163.868 102.351 164.301C102.324 164.734 102.208 165.156 102.01 165.542C101.812 165.928 101.538 166.27 101.202 166.545C100.879 166.826 100.501 167.038 100.092 167.169C99.6836 167.299 99.2527 167.345 98.8258 167.304C98.3989 167.262 97.9849 167.135 97.609 166.928C97.2331 166.721 96.9032 166.441 96.6394 166.102C93.3946 162.175 89.0292 159.331 84.1257 157.95C73.9442 155.194 65.0962 157.709 57.7018 165.262C57.4238 165.546 57.171 165.85 56.9118 166.14C56.6379 166.466 56.302 166.734 55.9237 166.928C55.5454 167.123 55.1322 167.24 54.708 167.274C54.2839 167.307 53.8574 167.256 53.4532 167.123C53.049 166.991 52.6752 166.779 52.3536 166.5C52.032 166.222 51.7689 165.882 51.5797 165.501C51.3904 165.12 51.2788 164.705 51.2513 164.281C51.2238 163.856 51.281 163.43 51.4195 163.028C51.558 162.626 51.7751 162.255 52.0581 161.938C54.9151 158.549 58.4389 155.784 62.4102 153.816C66.9543 151.56 71.7765 150.467 77.9574 150.448Z" fill="#4F008D"/>
<path d="M92.4051 172.416C92.4078 173.067 92.2128 173.703 91.846 174.24C91.4792 174.777 90.9579 175.19 90.3511 175.425C89.7359 175.668 89.0598 175.713 88.418 175.552C87.7762 175.391 87.2012 175.032 86.7739 174.527C85.4397 172.952 83.7619 171.705 81.8696 170.88C76.5987 168.643 70.7843 170.008 66.8596 174.432C66.4637 174.937 65.9214 175.307 65.307 175.491C64.6927 175.676 64.0363 175.666 63.4279 175.462C62.9235 175.305 62.4661 175.025 62.0962 174.647C61.7263 174.27 61.4554 173.807 61.3078 173.3C61.1601 172.792 61.1403 172.256 61.2499 171.739C61.3596 171.222 61.5954 170.741 61.9363 170.337C63.75 168.156 66.0224 166.402 68.5916 165.199C71.1608 163.997 73.9636 163.376 76.8002 163.381C79.6369 163.386 82.4375 164.016 85.0026 165.227C87.5677 166.438 89.8341 168.2 91.6403 170.388C92.0338 170.998 92.3521 171.654 92.5883 172.34L92.4051 172.416Z" fill="#4F008D"/>
<path d="M76.8007 189.284C75.5236 189.288 74.2742 188.912 73.2109 188.205C72.1476 187.498 71.3184 186.49 70.8286 185.311C70.3387 184.131 70.2102 182.833 70.4593 181.58C70.7085 180.328 71.3241 179.177 72.228 178.275C73.132 177.373 74.2836 176.76 75.5366 176.513C76.7897 176.266 78.0878 176.397 79.2663 176.89C80.4448 177.382 81.4505 178.213 82.1558 179.278C82.8612 180.342 83.2344 181.592 83.2282 182.87C83.229 183.713 83.0632 184.549 82.7404 185.328C82.4175 186.108 81.9439 186.816 81.3467 187.412C80.7495 188.008 80.0406 188.48 79.2604 188.801C78.4803 189.123 77.6444 189.287 76.8007 189.284Z" fill="#4F008D"/>
<path d="M76.8389 115.024C67.7485 115.023 58.862 117.718 51.3031 122.767C43.7442 127.817 37.8525 134.995 34.3732 143.393C30.8939 151.791 29.9832 161.032 31.7563 169.948C33.5295 178.864 37.9068 187.054 44.3346 193.481C50.7625 199.909 58.9522 204.287 67.868 206.06C76.7838 207.833 86.0251 206.922 94.4233 203.443C102.821 199.964 109.999 194.072 115.049 186.513C120.098 178.954 122.793 170.068 122.792 160.977C122.777 148.794 117.93 137.115 109.316 128.5C100.701 119.886 89.0217 115.039 76.8389 115.024ZM37.1999 161.002C37.1898 153.302 39.4242 145.765 43.6299 139.315C47.8356 132.864 53.8302 127.78 60.8803 124.682C67.9304 121.585 75.7304 120.61 83.3261 121.876C90.9218 123.142 97.9839 126.594 103.648 131.81L47.6468 187.787C40.9248 180.487 37.1954 170.926 37.1999 161.002ZM76.8389 200.641C67.9225 200.647 59.2674 197.63 52.2857 192.084L107.902 136.468C112.524 142.306 115.406 149.329 116.219 156.73C117.031 164.132 115.741 171.612 112.496 178.314C109.251 185.016 104.183 190.667 97.8728 194.619C91.5626 198.572 84.2659 200.666 76.82 200.66L76.8389 200.641Z" fill="#263238"/>
<path d="M270.18 287.44H264.189L262.906 273.182H271.463L270.18 287.44Z" fill="#263238" stroke="#263238" stroke-miterlimit="10"/>
<path d="M295.131 287.44H289.14L287.857 273.182H296.414L295.131 287.44Z" fill="#263238" stroke="#263238" stroke-miterlimit="10"/>
<path d="M235.249 287.44H229.258L227.981 273.182H236.532L235.249 287.44Z" fill="#263238" stroke="#263238" stroke-miterlimit="10"/>
<path d="M208.516 287.44H202.531L201.248 273.182H209.799L208.516 287.44Z" fill="#263238" stroke="#263238" stroke-miterlimit="10"/>
<path d="M237.108 181.321H299.372C299.372 181.321 299.619 202.967 296.414 218.293C293.21 233.619 289.286 242.884 289.286 242.884H230.118C230.118 242.884 238.896 208.983 237.108 181.321Z" fill="white" stroke="#263238" stroke-miterlimit="10"/>
<path d="M262.95 184.626C257.49 184.197 255.322 183.097 251.239 180.834C245.924 177.921 244.786 179.861 245.166 182.775C245.545 185.688 240.002 204.895 238.846 214.564C237.689 224.234 238.081 229.435 238.081 229.435C238.081 229.435 234.668 232.349 236.943 233.316C238.407 233.923 239.936 234.358 241.5 234.611H285.525C285.525 234.611 293.349 194.41 294.108 187.944C294.866 181.479 291.453 180.834 289.551 181.801C287.649 182.768 287.276 183.419 284.615 183.742C278.396 184.544 270.433 185.208 262.95 184.626Z" fill="#4F008D"/>
<path d="M248.774 185.278C249.913 183.999 250.715 182.457 251.106 180.79C250.575 180.506 250.089 180.272 249.64 180.083C249.348 181.637 248.635 183.082 247.58 184.26C246.792 185.218 245.815 186.003 244.71 186.567C244.596 187.142 244.47 187.768 244.331 188.463C246.075 187.827 247.612 186.726 248.774 185.278Z" fill="white"/>
<path d="M288.192 197.854C285.405 201.128 285.512 204.035 285.614 206.854C285.715 209.483 285.803 211.96 283.414 214.773C281.025 217.585 278.554 217.882 275.944 218.211C273.15 218.552 270.256 218.912 267.475 222.186C264.694 225.46 264.789 228.367 264.897 231.18C264.976 232.332 264.944 233.49 264.802 234.637H266.394C266.515 233.469 266.538 232.294 266.464 231.123C266.369 228.494 266.274 226.01 268.67 223.204C271.065 220.398 273.523 220.088 276.14 219.766C278.933 219.424 281.828 219.064 284.609 215.79C287.389 212.517 287.288 209.609 287.187 206.791C287.086 204.162 286.998 201.678 289.393 198.872C290.298 197.769 291.456 196.902 292.768 196.344C292.875 195.712 292.983 195.13 293.084 194.555C291.163 195.147 289.46 196.295 288.192 197.854Z" fill="white"/>
<path d="M243.465 233.929C246.265 233.581 249.153 233.221 251.94 229.947C254.728 226.673 254.62 223.766 254.519 220.954C254.418 218.325 254.329 215.841 256.718 213.035C259.107 210.229 261.578 209.919 264.189 209.597C266.982 209.249 269.877 208.895 272.657 205.621C275.438 202.348 275.343 199.434 275.236 196.622C275.141 193.993 275.046 191.509 277.442 188.703C279.837 185.897 282.302 185.587 284.912 185.265C287.522 184.942 290.132 184.633 292.711 182.016C292.212 181.644 291.601 181.453 290.979 181.473C289.55 182.639 287.809 183.358 285.974 183.539C285.531 183.639 285.084 183.715 284.634 183.767L282.738 183.988C280.185 184.37 277.869 185.696 276.247 187.704C273.454 190.984 273.561 193.891 273.669 196.704C273.763 199.333 273.858 201.817 271.463 204.629C269.068 207.441 266.609 207.739 263.993 208.061C261.199 208.408 258.305 208.762 255.524 212.036C252.743 215.31 252.844 218.223 252.945 221.036C253.046 223.665 253.135 226.149 250.746 228.955C248.357 231.761 245.886 232.071 243.276 232.393C241.44 232.512 239.644 232.975 237.979 233.758C238.806 234.047 239.651 234.284 240.507 234.466C241.479 234.214 242.467 234.034 243.465 233.929Z" fill="white"/>
<path d="M239.996 219.778C242.783 216.505 242.675 213.597 242.574 210.785C242.479 208.15 242.385 205.672 244.78 202.86C247.175 200.047 249.634 199.75 252.244 199.428C255.037 199.08 257.932 198.72 260.719 195.446C263.506 192.173 263.399 189.265 263.298 186.453C263.298 185.821 263.253 185.246 263.26 184.645H262.95L261.686 184.525C261.686 185.202 261.686 185.865 261.718 186.529C261.819 189.158 261.907 191.642 259.518 194.448C257.129 197.254 254.658 197.564 252.048 197.886C249.254 198.233 246.36 198.587 243.573 201.861C240.786 205.135 240.893 208.042 241.001 210.861C241.095 213.49 241.184 215.974 238.795 218.78C238.662 218.938 238.529 219.083 238.39 219.222C238.327 220.025 238.27 220.783 238.226 221.491C238.875 220.985 239.469 220.411 239.996 219.778Z" fill="white"/>
<path d="M262.95 184.626C257.49 184.197 255.322 183.097 251.239 180.834C245.924 177.921 244.786 179.861 245.166 182.775C245.545 185.688 240.002 204.895 238.846 214.564C237.689 224.234 238.081 229.435 238.081 229.435C238.081 229.435 234.668 232.349 236.943 233.316C238.407 233.923 239.936 234.358 241.5 234.611H285.525C285.525 234.611 293.349 194.41 294.108 187.944C294.866 181.479 291.453 180.834 289.551 181.801C287.649 182.768 287.276 183.419 284.615 183.742C278.396 184.544 270.433 185.208 262.95 184.626Z" stroke="#263238" stroke-miterlimit="10"/>
<path d="M237.107 181.321H233.587C232.949 181.321 232.329 181.536 231.828 181.931C231.326 182.327 230.973 182.88 230.825 183.501L226.452 201.829C225.643 205.229 222.875 215.025 219.829 216.738C217.958 217.787 215.849 218.338 213.704 218.337H200.508L206.12 275.704H230.136L236.456 184.361C236.477 184.151 236.477 183.939 236.456 183.729H237.171L237.107 181.321Z" fill="white" stroke="#263238" stroke-miterlimit="10"/>
<path d="M204.029 218.331H217.231C219.376 218.331 221.485 217.781 223.355 216.732C226.402 215.019 229.163 205.223 229.979 201.823L234.346 183.495C234.495 182.875 234.848 182.322 235.349 181.927C235.85 181.531 236.469 181.316 237.108 181.315C237.497 181.315 237.882 181.395 238.239 181.55C238.596 181.705 238.917 181.932 239.183 182.216C239.448 182.501 239.652 182.837 239.783 183.204C239.913 183.571 239.966 183.96 239.939 184.349L233.461 275.698H209.445L204.029 218.331Z" fill="white" stroke="#263238" stroke-miterlimit="10"/>
<path d="M260.409 275.729L261.781 234.637L206.727 234.15L208.105 275.729H260.409Z" fill="white" stroke="#263238" stroke-miterlimit="10"/>
<path d="M302.893 181.321H299.372C298.734 181.322 298.115 181.537 297.614 181.933C297.113 182.328 296.759 182.881 296.61 183.501L292.237 201.829C291.428 205.229 288.666 215.025 285.614 216.738C283.744 217.788 281.634 218.339 279.49 218.337H266.293L268.6 275.697H295.662L302.204 184.354C302.228 184.144 302.228 183.932 302.204 183.722H302.918L302.893 181.321Z" fill="white" stroke="#263238" stroke-miterlimit="10"/>
<path d="M269.813 218.331H283.016C285.161 218.331 287.269 217.781 289.14 216.732C292.186 215.019 294.954 205.223 295.763 201.823L300.137 183.495C300.284 182.875 300.637 182.323 301.137 181.927C301.636 181.532 302.255 181.316 302.892 181.315C303.282 181.314 303.667 181.393 304.025 181.548C304.382 181.703 304.704 181.93 304.969 182.214C305.235 182.499 305.439 182.836 305.569 183.203C305.699 183.57 305.752 183.96 305.724 184.349L299.303 274.288C299.274 274.667 299.104 275.021 298.827 275.279C298.549 275.538 298.184 275.683 297.805 275.685H271.969L269.813 218.331Z" fill="white" stroke="#263238" stroke-miterlimit="10"/>
<path d="M261.781 222.464L260.384 275.729H271.944L273.953 222.464C273.953 221.921 273.846 221.383 273.638 220.881C273.43 220.379 273.125 219.923 272.74 219.539C272.356 219.156 271.9 218.851 271.397 218.644C270.895 218.437 270.357 218.33 269.814 218.331H265.921C265.377 218.33 264.839 218.437 264.337 218.644C263.835 218.851 263.378 219.156 262.994 219.539C262.609 219.923 262.304 220.379 262.096 220.881C261.888 221.383 261.781 221.921 261.781 222.464Z" fill="white" stroke="#263238" stroke-miterlimit="10"/>
<path d="M194.618 222.464L196.603 275.729H208.162L206.784 222.464C206.784 221.368 206.349 220.317 205.574 219.542C204.798 218.767 203.747 218.331 202.651 218.331H198.758C198.214 218.33 197.676 218.437 197.174 218.644C196.672 218.851 196.215 219.156 195.831 219.539C195.447 219.923 195.142 220.379 194.933 220.881C194.725 221.383 194.618 221.921 194.618 222.464Z" fill="white" stroke="#263238" stroke-miterlimit="10"/>
<path d="M207.005 252.313H261.256" stroke="#263238" stroke-miterlimit="10"/>
<path d="M180.467 181.53C180.467 181.53 175.449 209.414 174.35 214.128C173.25 218.843 170.558 242.878 170.558 248.85C170.558 254.823 171.025 272.866 171.025 272.866C171.025 272.866 168.984 273.808 168.984 274.592C168.984 275.375 170.558 280.406 170.558 280.406L179.823 283.863C179.823 283.863 181.719 279.439 181.864 277.891C182.009 276.342 180.764 275.691 180.764 273.018C180.764 270.345 185.479 239.244 186.895 234.062C188.31 228.879 192.393 213.326 193.177 211.91C193.961 210.494 197.892 200.13 197.892 200.13L200.091 201.229C200.091 201.229 201.5 233.904 202.29 235.945C203.08 237.986 213.616 271.255 213.616 271.255C213.616 271.255 211.89 272.038 212.984 273.928C214.077 275.818 215.967 280.052 215.967 280.052C215.967 280.052 217.698 277.695 219.759 277.227C221.819 276.76 225.257 278.795 225.257 278.795C225.257 278.795 227.299 274.08 226.825 271.887C226.351 269.694 224.297 265.914 224.157 264.815C224.018 263.715 219.733 232.039 219.733 232.039C219.733 232.039 220.833 187.736 220.833 184.753C220.774 182.718 220.403 180.703 219.733 178.781C213.143 181.042 206.267 182.366 199.307 182.712C188.152 183.179 182.028 178.629 182.028 178.629L180.467 181.53Z" fill="#263238" stroke="#263238" stroke-miterlimit="10"/>
<path d="M170.583 280.425C170.583 280.425 165.394 285.133 164.452 285.765C163.511 286.397 156.913 288.925 157.071 290.189C157.229 291.453 158.967 292.231 158.967 292.231H180.335C180.335 292.231 180.486 291.599 180.802 288.616C180.953 286.682 180.63 284.74 179.861 282.959L170.583 280.425Z" fill="white" stroke="#263238" stroke-miterlimit="10"/>
<path d="M180.644 289.937L157.185 290.569C157.588 291.283 158.208 291.851 158.954 292.193H180.322C180.322 292.193 180.43 291.769 180.644 289.937Z" fill="white" stroke="#263238" stroke-miterlimit="10"/>
<path d="M215.979 280.052C215.979 280.052 215.821 283.977 215.821 286.025C215.821 288.072 215.512 290.448 215.663 290.891C215.815 291.333 216.137 292.155 216.137 292.155H228.55C228.55 292.155 229.018 290.891 228.392 288.54C227.766 286.189 226.66 284.931 226.351 282.852C226.11 281.46 225.742 280.093 225.251 278.769C225.251 278.769 219.12 273.928 215.979 280.052Z" fill="white" stroke="#263238" stroke-miterlimit="10"/>
<path d="M228.714 290.663C223.993 290.663 218.116 290.511 215.619 290.448C215.618 290.597 215.633 290.745 215.663 290.891C215.821 291.365 216.137 292.155 216.137 292.155H228.55C228.687 291.67 228.742 291.166 228.714 290.663Z" fill="white" stroke="#263238" stroke-miterlimit="10"/>
<path d="M176.012 122.381C176.012 122.381 162.664 134.913 163.246 136.082C163.827 137.252 167.48 146.738 167.48 146.738C167.48 146.738 168.529 153.058 167.948 157.046C167.592 159.568 167.474 162.117 167.594 164.661C168.82 166.208 170.32 167.516 172.018 168.523C174.596 169.932 176.587 172.391 178.23 168.409C179.873 164.428 179.166 157.28 179.166 157.28C179.166 157.28 181.384 165.951 181.757 167.48C182.13 169.01 180.493 181.536 180.493 181.536C180.493 181.536 188.544 188.336 202.24 186.794C215.935 185.252 220.277 180.474 220.277 180.474C220.277 180.474 218.868 165.129 218.868 163.372C218.855 162.157 218.777 160.944 218.634 159.738C218.634 159.738 223.437 164.661 225.782 164.428C228.127 164.194 232.222 154.587 231.167 153.052C230.111 151.516 226.483 145.31 224.259 140.86C222.918 138.179 221.802 135.39 220.922 132.524C220.922 132.524 217.054 119.404 215.866 118.468C214.678 117.533 201.519 117.678 199.175 117.097C196.079 116.488 192.949 116.065 189.802 115.833C189.018 115.82 178.59 118.279 176.012 122.381Z" fill="#4F008D" stroke="#263238" stroke-miterlimit="10"/>
<path d="M215.385 139.919C215.322 136.556 215.31 133.94 215.31 133.94" stroke="#263238" stroke-miterlimit="10"/>
<path d="M218.672 159.738C217.777 157.915 216.996 156.039 216.333 154.12C215.866 152.723 215.619 147.736 215.486 143.066" stroke="#263238" stroke-miterlimit="10"/>
<path d="M172.492 145.866C171.297 143.78 170.387 142.149 170.273 141.821" stroke="#263238" stroke-miterlimit="10"/>
<path d="M179.178 157.28C179.178 157.28 176.182 152.224 173.667 147.901" stroke="#263238" stroke-miterlimit="10"/>
<path d="M194.403 117.458C194.885 121.581 194.926 125.744 194.523 129.876" stroke="#263238" stroke-miterlimit="10"/>
<path d="M202.284 175.267C203.694 175.551 205.204 175.81 206.816 176.019" stroke="#263238" stroke-miterlimit="10"/>
<path d="M185.264 167.708C185.264 167.708 189.056 171.866 199.168 174.533" stroke="#263238" stroke-miterlimit="10"/>
<path d="M195.572 176.606C199.915 178.555 204.635 179.516 209.394 179.419" stroke="#263238" stroke-miterlimit="10"/>
<path d="M167.581 103.402C167.581 103.402 168.984 109.962 169.104 111.371C169.224 112.781 169.572 114.651 171.329 117.457C173.086 120.264 177.649 126.476 178.59 126.83C179.532 127.184 183.16 126.242 183.16 126.242C183.16 126.242 187.021 133.858 188.077 133.624C189.132 133.39 191.825 124.719 192.178 121.205C192.402 119.457 192.44 117.69 192.292 115.934L190.655 110.082C190.655 110.082 189.252 101.866 189.252 101.297C189.252 100.728 190.068 96.494 185.505 94.7371C180.942 92.9801 175.31 92.8411 171.563 97.1955C167.815 101.55 167.581 103.402 167.581 103.402Z" fill="white" stroke="#263238" stroke-miterlimit="10"/>
<path d="M180.12 96.0263C178.477 98.5197 176.323 100.635 173.8 102.233C169.47 105.045 171.575 101.999 171.575 101.999C171.575 101.999 168.529 103.895 166.07 105.159C163.612 106.423 164.547 106.802 163.612 106.423C162.676 106.043 159.188 96.0705 167.018 91.2547C174.849 86.4388 180.562 87.7092 180.562 87.7092C180.562 87.7092 177.162 86.186 180.208 86.186C183.254 86.186 184.544 87.8482 184.544 87.8482C184.544 87.8482 186.181 87.3805 186.882 88.3159C187.189 88.6499 187.573 88.9038 188.001 89.0553C191.793 90.6606 193.114 94.2504 193.828 97.9981C194.295 100.457 192.305 106.315 192.305 106.315L189.018 108.072C188.222 107.347 187.577 106.47 187.122 105.494C186.823 104.547 186.665 103.561 186.655 102.567C186.655 102.567 184.664 105.14 184.31 103.269C183.956 101.398 183.046 96.5951 183.046 96.5951C183.046 96.5951 183.4 98.4911 182.231 98.4911C181.061 98.4911 180.12 96.0263 180.12 96.0263Z" fill="#263238" stroke="#263238" stroke-miterlimit="10"/>
<path d="M188.778 108.906C188.778 108.906 188.664 104.925 191.009 103.635C193.354 102.346 194.991 103.756 194.283 107.503C193.575 111.251 189.366 112.654 189.366 112.654" fill="white"/>
<path d="M188.778 108.906C188.778 108.906 188.664 104.925 191.009 103.635C193.354 102.346 194.991 103.756 194.283 107.503C193.575 111.251 189.366 112.654 189.366 112.654" stroke="#263238" stroke-miterlimit="10"/>
<path d="M183.16 126.242L189.366 120.036L185.264 129.522L183.16 126.242Z" fill="#263238" stroke="#263238" stroke-miterlimit="10"/>
<path d="M180.29 119.966C180.422 120.196 180.462 120.467 180.402 120.725C180.342 120.983 180.187 121.208 179.968 121.357C179.545 121.527 179.007 121.18 178.767 120.579C178.527 119.979 178.672 119.353 179.09 119.183C179.507 119.012 180.044 119.366 180.29 119.966Z" fill="#263238"/>
<path d="M181.908 109.121C182.136 109.867 181.971 110.575 181.548 110.708C181.125 110.84 180.581 110.341 180.354 109.602C180.126 108.862 180.29 108.154 180.714 108.022C181.137 107.889 181.681 108.382 181.908 109.121Z" fill="#263238"/>
<path d="M174.217 110.423C174.444 111.169 174.28 111.877 173.85 112.009C173.42 112.142 172.889 111.649 172.662 110.903C172.434 110.158 172.592 109.456 173.022 109.323C173.452 109.191 173.983 109.684 174.217 110.423Z" fill="#263238"/>
<path d="M174.495 107.503C175.015 107.928 175.432 108.465 175.715 109.073C175.998 109.682 176.141 110.346 176.132 111.017C176.132 113.362 175.778 116.876 175.778 116.876L180 116.288" stroke="#263238" stroke-miterlimit="10"/>
<path d="M177.301 105.98C177.301 105.98 179.412 102.233 182.692 102.934" stroke="#263238" stroke-miterlimit="10"/>
<path d="M173.553 106.682C173.553 106.682 170.981 105.866 169.224 106.916" stroke="#263238" stroke-miterlimit="10"/>
<path d="M245.216 136.784C245.216 136.784 247.794 135.849 248.73 135.52C249.665 135.192 250.626 135.754 252.244 134.939C253.861 134.123 255.757 132.474 255.878 133.675C255.998 134.876 255.404 135.312 254.468 135.899C253.533 136.487 252.01 137.656 252.01 137.656L251.542 138.826L244.514 138.244C244.514 138.244 244.647 137.144 245.216 136.784Z" fill="white" stroke="#263238" stroke-miterlimit="10"/>
<path d="M259.341 139.811C259.341 139.811 262.571 137.251 263.038 136.082C263.506 134.913 262.684 134.818 261.869 135.261C261.054 135.703 258.488 137.839 258.488 137.839L259.341 139.811Z" fill="white" stroke="#263238" stroke-miterlimit="10"/>
<path d="M256.699 140.367C256.699 140.367 259.101 140.62 259.341 139.811C259.581 139.002 261.477 133.908 261.168 133.27C260.858 132.632 260.257 132.688 259.594 133.744C258.884 135.191 258.272 136.683 257.761 138.212C257.761 138.212 256.156 138.572 255.751 139.672C255.347 140.772 256.699 140.367 256.699 140.367Z" fill="white" stroke="#263238" stroke-miterlimit="10"/>
<path d="M253.666 141C253.666 141 255.896 141.941 256.364 141.233C256.832 140.526 260.112 136.177 259.992 135.495C259.872 134.812 259.29 134.68 258.355 135.495C257.255 136.673 256.237 137.925 255.309 139.243C255.309 139.243 253.666 139.129 252.964 140.064C252.262 141 253.666 141 253.666 141Z" fill="white" stroke="#263238" stroke-miterlimit="10"/>
<path d="M220.991 160.212C221.917 156.465 224.271 153.228 227.551 151.194C233.17 147.56 240.792 141 240.792 141C240.792 141 243.37 137.372 245.216 136.784C247.061 136.196 253.179 137.953 253.179 137.953C253.179 137.953 258.102 133.036 258.235 134.092C258.368 135.147 255.897 138.895 254.721 140.298C253.546 141.701 249.918 142.055 249.103 142.055C247.652 142.099 246.205 142.217 244.767 142.409C244.3 142.523 236.551 153.064 233.056 158.209C229.561 163.353 228 164.295 225.795 164.415C223.589 164.535 221.225 162.772 220.637 161.957C220.05 161.141 220.991 160.212 220.991 160.212Z" fill="white" stroke="#263238" stroke-miterlimit="10"/>
<path d="M147.742 140.822L155.124 156.837C155.238 157.065 155.423 157.25 155.651 157.364C155.879 157.478 156.137 157.515 156.388 157.469L162.512 156.338C162.682 156.305 162.843 156.235 162.982 156.132C163.122 156.03 163.237 155.898 163.319 155.745C163.402 155.593 163.449 155.424 163.458 155.251C163.467 155.078 163.438 154.905 163.372 154.745L156.736 139.116C156.64 138.885 156.471 138.692 156.256 138.565C156.04 138.439 155.79 138.386 155.541 138.414L148.659 139.179C148.477 139.201 148.302 139.266 148.15 139.368C147.997 139.47 147.871 139.607 147.782 139.767C147.693 139.928 147.642 140.107 147.636 140.29C147.629 140.473 147.665 140.656 147.742 140.822Z" fill="#263238" stroke="#263238" stroke-miterlimit="10"/>
<path d="M152.59 154.53C152.59 154.53 149.942 150.473 149.942 149.563C149.942 148.653 151.484 146.498 152.388 144.551C153.291 142.604 153.431 141.303 154.208 141.568C154.985 141.833 154.84 142.604 154.593 143.9C154.118 145.571 153.557 147.217 152.912 148.83L153.171 150.391C153.797 149.128 154.581 147.949 155.503 146.883C156.673 145.72 157.968 143.774 158.878 144.159C159.788 144.545 160.174 144.791 159.397 145.72C158.421 146.889 157.545 148.139 156.78 149.455C156.094 150.579 155.504 151.759 155.017 152.982C155.885 152.15 156.808 151.377 157.779 150.669C159.043 149.759 160.825 148.444 161.571 148.962C162.316 149.481 162.481 149.999 161.703 150.65C160.926 151.301 160.218 151.743 159.175 152.653C158.088 153.739 157.066 154.889 156.117 156.098C157.043 155.382 158.075 154.815 159.175 154.417C161.381 153.513 163.397 153.614 163.479 154.309C163.562 155.004 161.16 155.636 161.16 155.636C159.441 156.028 159.359 156.616 159.359 156.616C159.359 156.616 160.787 159.473 160.528 160.408C160.528 160.408 166.292 159.504 168.497 158.86C170.703 158.215 174.148 159.492 175.19 160.534C177.396 162.74 178.432 166.115 177.27 168.972C176.107 171.828 176.1 170.918 166.886 168.34C157.671 165.761 157.848 164.838 155.598 161.072C154.783 159.605 152.59 154.53 152.59 154.53Z" fill="white" stroke="#263238" stroke-miterlimit="10"/>
<path d="M160.566 160.383L160.37 162.759" stroke="#263238" stroke-miterlimit="10"/>
</svg>
