<svg width="221" height="199" viewBox="0 0 221 199" fill="none" xmlns="http://www.w3.org/2000/svg">
<g filter="url(#filter0_d_1926_4195)">
<rect x="16" y="25" width="189" height="154" rx="25" fill="#4F008D"/>
</g>
<path d="M81 25H52.6364L16 72.9091V110L81 25Z" fill="#FABD13"/>
<path d="M33.3357 76.2531C33.1485 76.4976 32.9329 76.7485 32.6891 77.0058C32.458 77.2617 32.2311 77.4967 32.0086 77.7108C31.7917 77.9175 31.6003 78.0908 31.4345 78.2308L30.4191 77.281C30.5878 77.1066 30.777 76.913 30.9869 76.7002C31.2023 76.48 31.4086 76.2642 31.6057 76.0528C31.8014 75.8278 31.9559 75.6412 32.0694 75.493C32.2396 75.2707 32.3609 75.0738 32.4334 74.9025C32.5115 74.7238 32.5401 74.5639 32.5191 74.4227C32.491 74.2755 32.3992 74.1348 32.2438 74.0006C32.1236 73.897 32.0062 73.8511 31.8915 73.8629C31.7825 73.8674 31.6388 73.9402 31.4602 74.0815C31.2803 74.2093 31.0379 74.4186 30.7331 74.7094C30.3589 75.0757 30.0138 75.3502 29.6979 75.5329C29.3876 75.7083 29.0818 75.7706 28.7804 75.7198C28.472 75.6629 28.1375 75.479 27.7771 75.168C27.3389 74.7901 27.0727 74.3944 26.9786 73.9809C26.8844 73.5674 26.9155 73.1512 27.0718 72.7324C27.2211 72.3074 27.4461 71.8986 27.7468 71.5058C27.9454 71.2464 28.1637 70.9918 28.4019 70.742C28.633 70.486 28.8599 70.251 29.0824 70.037C29.305 69.8229 29.4963 69.6495 29.6565 69.517L30.6931 70.485C30.523 70.6459 30.3338 70.8395 30.1253 71.0658C29.9099 71.286 29.7014 71.5123 29.5001 71.7446C29.3044 71.9696 29.1442 72.1636 29.0193 72.3266C28.8889 72.4971 28.7902 72.6643 28.7234 72.8282C28.6496 72.9859 28.6196 73.1324 28.6336 73.2674C28.6532 73.3951 28.7337 73.5199 28.875 73.6418C28.974 73.7272 29.0779 73.7676 29.1869 73.7632C29.2959 73.7588 29.4375 73.6964 29.6118 73.576C29.7847 73.4422 30.0143 73.2342 30.3007 72.9521C30.716 72.5474 31.0852 72.2568 31.4082 72.0801C31.7312 71.9035 32.0441 71.8473 32.3469 71.9116C32.6553 71.9685 32.9898 72.1524 33.3502 72.4633C33.7742 72.8291 34.0454 73.2107 34.1636 73.608C34.2819 74.0053 34.2671 74.4232 34.1192 74.8617C33.9713 75.3001 33.7101 75.7639 33.3357 76.2531ZM37.4698 70.8526C36.9876 71.4825 36.5 71.9048 36.0071 72.1195C35.5199 72.3268 35.0061 72.3389 34.4657 72.1557C33.9183 71.9665 33.3159 71.5884 32.6587 71.0214C32.0226 70.4728 31.5748 69.9388 31.3152 69.4195C31.0485 68.8942 30.9673 68.3565 31.0715 67.8065C31.1686 67.2504 31.4498 66.6685 31.915 66.0608C32.3859 65.4457 32.8649 65.0345 33.3521 64.8272C33.838 64.6065 34.3504 64.5809 34.8894 64.7505C35.427 64.9066 36.0138 65.259 36.6498 65.8077C37.3071 66.3747 37.7789 66.9232 38.0654 67.4534C38.3448 67.9774 38.436 68.5175 38.3388 69.0735C38.2474 69.6222 37.9577 70.2152 37.4698 70.8526ZM36.3037 69.8467C36.542 69.5354 36.6677 69.2562 36.6808 69.0092C36.6869 68.756 36.5896 68.4998 36.3891 68.2407C36.1871 67.968 35.8882 67.661 35.4925 67.3196C35.1038 66.9843 34.7708 66.7524 34.4936 66.624C34.2093 66.4896 33.9582 66.4575 33.7401 66.5278C33.522 66.598 33.3023 66.7777 33.0811 67.0667C32.8655 67.3484 32.7448 67.6134 32.7189 67.8618C32.6987 68.1027 32.7797 68.3572 32.9618 68.6251C33.1369 68.8868 33.4188 69.1854 33.8075 69.5207C34.2033 69.8621 34.5447 70.1135 34.8317 70.275C35.1174 70.423 35.3764 70.4679 35.6086 70.4099C35.8337 70.3457 36.0654 70.1579 36.3037 69.8467ZM41.8795 65.0921C41.3973 65.722 40.9097 66.1444 40.4168 66.359C39.9296 66.5663 39.4158 66.5784 38.8754 66.3952C38.328 66.206 37.7256 65.8279 37.0684 65.261C36.4323 64.7123 35.9845 64.1783 35.7249 63.659C35.4582 63.1337 35.377 62.596 35.4812 62.046C35.5783 61.49 35.8595 60.9081 36.3247 60.3004C36.7956 59.6852 37.2746 59.274 37.7618 59.0668C38.2477 58.846 38.7601 58.8204 39.2991 58.99C39.8367 59.1462 40.4235 59.4985 41.0595 60.0472C41.7168 60.6142 42.1886 61.1627 42.4751 61.6929C42.7545 62.2169 42.8457 62.757 42.7485 63.3131C42.6571 63.8617 42.3674 64.4547 41.8795 65.0921ZM40.7134 64.0862C40.9517 63.7749 41.0774 63.4958 41.0905 63.2487C41.0966 62.9955 40.9993 62.7393 40.7988 62.4802C40.5968 62.2075 40.2979 61.9005 39.9022 61.5591C39.5135 61.2238 39.1805 60.992 38.9033 60.8636C38.619 60.7291 38.3679 60.697 38.1498 60.7673C37.9317 60.8376 37.712 61.0172 37.4908 61.3063C37.2752 61.5879 37.1545 61.8529 37.1286 62.1013C37.1084 62.3423 37.1894 62.5967 37.3715 62.8646C37.5466 63.1264 37.8285 63.4249 38.2172 63.7602C38.613 64.1016 38.9544 64.353 39.2415 64.5145C39.5271 64.6625 39.7861 64.7075 40.0183 64.6494C40.2434 64.5852 40.4751 64.3975 40.7134 64.0862ZM44.3345 61.6322L39.0128 57.0417L40.1447 55.5632L40.4839 55.8558C40.504 55.6762 40.5475 55.4738 40.6144 55.2485C40.6742 55.0171 40.7503 54.7874 40.8426 54.5594C40.9407 54.3241 41.0578 54.1174 41.1939 53.9396C41.4889 53.5542 41.7824 53.2782 42.0742 53.1116C42.3646 52.9314 42.6726 52.8587 42.9981 52.8934C43.3236 52.928 43.685 53.0614 44.0823 53.2934C44.4726 53.5193 44.9116 53.8426 45.3992 54.2633L48.1554 56.6408L47.0151 58.1305L44.3331 55.8169C43.9656 55.4999 43.6553 55.2691 43.4022 55.1246C43.142 54.974 42.9142 54.919 42.7188 54.9596C42.5234 55.0003 42.3321 55.1429 42.1449 55.3875C42.0428 55.5209 41.9491 55.6739 41.8639 55.8465C41.7773 56.0056 41.7042 56.1701 41.6444 56.3401C41.5904 56.5027 41.5534 56.643 41.5334 56.7611L45.4663 60.1537L44.3345 61.6322ZM48.81 55.7857L47.2411 54.4323L48.424 52.8871L49.9929 54.2405L48.81 55.7857ZM50.6684 53.358L49.0995 52.0047L50.2824 50.4594L51.8513 51.8128L50.6684 53.358ZM52.5268 50.9304L50.9579 49.577L52.1408 48.0318L53.7097 49.3852L52.5268 50.9304Z" fill="white"/>
<path d="M91.4368 108.112C90.3808 108.112 89.4101 107.867 88.5248 107.376C87.6501 106.885 86.9515 106.203 86.4288 105.328C85.9168 104.443 85.6608 103.451 85.6608 102.352C85.6608 101.253 85.9168 100.267 86.4288 99.392C86.9515 98.5173 87.6501 97.8347 88.5248 97.344C89.4101 96.8533 90.3808 96.608 91.4368 96.608C92.4928 96.608 93.4581 96.8533 94.3328 97.344C95.2181 97.8347 95.9115 98.5173 96.4128 99.392C96.9248 100.267 97.1808 101.253 97.1808 102.352C97.1808 103.451 96.9248 104.443 96.4128 105.328C95.9008 106.203 95.2075 106.885 94.3328 107.376C93.4581 107.867 92.4928 108.112 91.4368 108.112ZM91.4368 105.616C92.3328 105.616 93.0475 105.317 93.5808 104.72C94.1248 104.123 94.3968 103.333 94.3968 102.352C94.3968 101.36 94.1248 100.571 93.5808 99.984C93.0475 99.3867 92.3328 99.088 91.4368 99.088C90.5301 99.088 89.8048 99.3813 89.2608 99.968C88.7275 100.555 88.4608 101.349 88.4608 102.352C88.4608 103.344 88.7275 104.139 89.2608 104.736C89.8048 105.323 90.5301 105.616 91.4368 105.616ZM103.183 101.344H101.711V108H98.9749V101.344H97.9829V99.072H98.9749V98.816C98.9749 97.7173 99.2896 96.8853 99.9189 96.32C100.548 95.744 101.471 95.456 102.687 95.456C102.89 95.456 103.039 95.4613 103.135 95.472V97.792C102.612 97.76 102.244 97.8347 102.031 98.016C101.818 98.1973 101.711 98.5227 101.711 98.992V99.072H103.183V101.344ZM108.949 101.344H107.477V108H104.741V101.344H103.749V99.072H104.741V98.816C104.741 97.7173 105.055 96.8853 105.685 96.32C106.314 95.744 107.237 95.456 108.453 95.456C108.655 95.456 108.805 95.4613 108.901 95.472V97.792C108.378 97.76 108.01 97.8347 107.797 98.016C107.583 98.1973 107.477 98.5227 107.477 98.992V99.072H108.949V101.344ZM118.65 103.392C118.65 103.648 118.634 103.915 118.602 104.192H112.41C112.453 104.747 112.629 105.173 112.938 105.472C113.258 105.76 113.648 105.904 114.106 105.904C114.789 105.904 115.264 105.616 115.53 105.04H118.442C118.293 105.627 118.021 106.155 117.626 106.624C117.242 107.093 116.757 107.461 116.17 107.728C115.584 107.995 114.928 108.128 114.202 108.128C113.328 108.128 112.549 107.941 111.866 107.568C111.184 107.195 110.65 106.661 110.266 105.968C109.882 105.275 109.69 104.464 109.69 103.536C109.69 102.608 109.877 101.797 110.25 101.104C110.634 100.411 111.168 99.8773 111.85 99.504C112.533 99.1307 113.317 98.944 114.202 98.944C115.066 98.944 115.834 99.1253 116.506 99.488C117.178 99.8507 117.701 100.368 118.074 101.04C118.458 101.712 118.65 102.496 118.65 103.392ZM115.85 102.672C115.85 102.203 115.69 101.829 115.37 101.552C115.05 101.275 114.65 101.136 114.17 101.136C113.712 101.136 113.322 101.269 113.002 101.536C112.693 101.803 112.501 102.181 112.426 102.672H115.85ZM122.83 100.56C123.15 100.069 123.55 99.6853 124.03 99.408C124.51 99.12 125.043 98.976 125.63 98.976V101.872H124.878C124.195 101.872 123.683 102.021 123.342 102.32C123 102.608 122.83 103.12 122.83 103.856V108H120.094V99.072H122.83V100.56ZM130.569 108.128C129.791 108.128 129.097 107.995 128.489 107.728C127.881 107.461 127.401 107.099 127.049 106.64C126.697 106.171 126.5 105.648 126.457 105.072H129.161C129.193 105.381 129.337 105.632 129.593 105.824C129.849 106.016 130.164 106.112 130.537 106.112C130.879 106.112 131.14 106.048 131.321 105.92C131.513 105.781 131.609 105.605 131.609 105.392C131.609 105.136 131.476 104.949 131.209 104.832C130.943 104.704 130.511 104.565 129.913 104.416C129.273 104.267 128.74 104.112 128.313 103.952C127.887 103.781 127.519 103.52 127.209 103.168C126.9 102.805 126.745 102.32 126.745 101.712C126.745 101.2 126.884 100.736 127.161 100.32C127.449 99.8933 127.865 99.5573 128.409 99.312C128.964 99.0667 129.62 98.944 130.377 98.944C131.497 98.944 132.377 99.2213 133.017 99.776C133.668 100.331 134.041 101.067 134.137 101.984H131.609C131.567 101.675 131.428 101.429 131.193 101.248C130.969 101.067 130.671 100.976 130.297 100.976C129.977 100.976 129.732 101.04 129.561 101.168C129.391 101.285 129.305 101.451 129.305 101.664C129.305 101.92 129.439 102.112 129.705 102.24C129.983 102.368 130.409 102.496 130.985 102.624C131.647 102.795 132.185 102.965 132.601 103.136C133.017 103.296 133.38 103.563 133.689 103.936C134.009 104.299 134.175 104.789 134.185 105.408C134.185 105.931 134.036 106.4 133.737 106.816C133.449 107.221 133.028 107.541 132.473 107.776C131.929 108.011 131.295 108.128 130.569 108.128Z" fill="white"/>
<path d="M125.473 176C125.473 184.27 118.665 191 110.237 191C101.808 191 95 184.27 95 176C95 167.73 101.808 161 110.237 161C118.665 161 125.473 167.73 125.473 176Z" fill="#4F008D" stroke="white" stroke-width="2"/>
<path fill-rule="evenodd" clip-rule="evenodd" d="M109.411 182.036C109.054 182.388 108.476 182.388 108.12 182.036L102.64 176.636C102.283 176.285 102.283 175.715 102.64 175.363L108.12 169.963C108.476 169.612 109.054 169.612 109.411 169.963C109.768 170.315 109.768 170.885 109.411 171.236L105.49 175.1L116.072 175.1C116.576 175.1 116.985 175.503 116.985 176C116.985 176.497 116.576 176.9 116.072 176.9H105.49L109.411 180.763C109.768 181.115 109.768 181.685 109.411 182.036Z" fill="white"/>
<path d="M137.857 29C137.857 43.8841 125.605 56 110.429 56C95.2525 56 83 43.8841 83 29C83 14.1159 95.2525 2 110.429 2C125.605 2 137.857 14.1159 137.857 29Z" fill="#4F008D" stroke="white" stroke-width="4"/>
<path d="M104.787 34.3333L115.453 23.6667M122.12 29C122.12 35.6274 116.748 41 110.12 41C103.493 41 98.1201 35.6274 98.1201 29C98.1201 22.3726 103.493 17 110.12 17C116.748 17 122.12 22.3726 122.12 29ZM116.787 33C116.787 34.4728 115.593 35.6667 114.12 35.6667C112.647 35.6667 111.453 34.4728 111.453 33C111.453 31.5272 112.647 30.3333 114.12 30.3333C115.593 30.3333 116.787 31.5272 116.787 33ZM108.787 25C108.787 26.4728 107.593 27.6667 106.12 27.6667C104.647 27.6667 103.453 26.4728 103.453 25C103.453 23.5272 104.647 22.3333 106.12 22.3333C107.593 22.3333 108.787 23.5272 108.787 25Z" stroke="white" stroke-width="2" stroke-linecap="round" stroke-linejoin="round"/>
<defs>
<filter id="filter0_d_1926_4195" x="0" y="13" width="221" height="186" filterUnits="userSpaceOnUse" color-interpolation-filters="sRGB">
<feFlood flood-opacity="0" result="BackgroundImageFix"/>
<feColorMatrix in="SourceAlpha" type="matrix" values="0 0 0 0 0 0 0 0 0 0 0 0 0 0 0 0 0 0 127 0" result="hardAlpha"/>
<feOffset dy="4"/>
<feGaussianBlur stdDeviation="8"/>
<feComposite in2="hardAlpha" operator="out"/>
<feColorMatrix type="matrix" values="0 0 0 0 0 0 0 0 0 0 0 0 0 0 0 0 0 0 0.08 0"/>
<feBlend mode="normal" in2="BackgroundImageFix" result="effect1_dropShadow_1926_4195"/>
<feBlend mode="normal" in="SourceGraphic" in2="effect1_dropShadow_1926_4195" result="shape"/>
</filter>
</defs>
</svg>
