<svg xmlns="http://www.w3.org/2000/svg" width="305.364" height="375.571" viewBox="0 0 305.364 375.571">
    <g data-name="Group 10413">
        <g data-name="Group 10414">
            <path data-name="Path 9330" d="M256.307-493.719h29.133c1.636-18.9 10.13-28.217 30.272-32.183a36.933 36.933 0 0 0 16.294-7.526 8.863 8.863 0 0 1-3.861-1.727 9.044 9.044 0 0 1-2.722-10.889l16.386-.2a.982.982 0 0 1 .995.969v.157c4.437 10.208 13.52 16.844 25.089 19.213 20.142 3.926 28.636 13.284 30.272 32.183h29.6a22.982 22.982 0 0 1 23.1 22.733v233.328a22.982 22.982 0 0 1-23.1 22.733H256.32a22.982 22.982 0 0 1-23.1-22.733v-233.325a22.982 22.982 0 0 1 23.1-22.733" transform="translate(-177.217 546.24)" style="fill-rule:evenodd;fill:#1f5620"/>
            <path data-name="Path 9331" d="M245.249-489.856h28.125c1.571-18.532 9.777-27.681 29.225-31.554 11.216-2.343 20-8.887 24.265-18.964a.955.955 0 0 1 .955-.955.955.955 0 0 1 .955.955v.157c4.28 10.012 13.088 16.517 24.212 18.846 19.435 3.926 27.654 13.088 29.225 31.554h28.57a22.354 22.354 0 0 1 22.249 22.249v228.8a22.354 22.354 0 0 1-22.249 22.249H245.249A22.354 22.354 0 0 1 223-238.768v-228.76a22.354 22.354 0 0 1 22.249-22.249" transform="translate(-180.373 547.756)" style="fill:#1a561d;fill-rule:evenodd"/>
            <path data-name="Path 9334" d="M274.905-482.072H246.74a15.967 15.967 0 0 0-11.308 4.712 15.967 15.967 0 0 0-4.712 11.308v228.8a15.967 15.967 0 0 0 4.712 11.308 15.967 15.967 0 0 0 11.308 4.712h165.573a15.98 15.98 0 0 0 11.321-4.712 15.967 15.967 0 0 0 4.711-11.308v-228.8a15.967 15.967 0 0 0-4.712-11.308 15.98 15.98 0 0 0-11.321-4.712h-34.328l-.5-5.759c-.654-7.853-2.618-13.572-6.269-17.551s-9.541-6.7-17.93-8.363a42.077 42.077 0 0 1-17.407-7.853 36.3 36.3 0 0 1-6.544-6.544 36.425 36.425 0 0 1-6.452 6.544 42.1 42.1 0 0 1-17.459 7.853c-8.389 1.662-14.2 4.319-17.917 8.363s-5.615 9.7-6.282 17.551l-.484 5.759zm-28.165-12.551h22.616c1.374-7.853 4.188-14.213 8.821-19.239 5.628-6.125 13.637-9.986 24.683-12.185a29.618 29.618 0 0 0 12.263-5.484 24.251 24.251 0 0 0 7.159-9.044 7.224 7.224 0 0 1 1.924-3.416 7.238 7.238 0 0 1 5.091-2.12 7.211 7.211 0 0 1 5.13 2.107 7.12 7.12 0 0 1 1.95 3.573 24.383 24.383 0 0 0 7.12 8.9 29.669 29.669 0 0 0 12.211 5.471c11.046 2.2 19.056 6.06 24.683 12.185 4.633 5.026 7.447 11.334 8.821 19.239h23.061a28.492 28.492 0 0 1 20.181 8.389 28.465 28.465 0 0 1 8.389 20.181v228.8a28.476 28.476 0 0 1-8.386 20.178 28.479 28.479 0 0 1-20.184 8.379H246.74a28.479 28.479 0 0 1-20.181-8.376 28.544 28.544 0 0 1-8.389-20.181v-228.786a28.518 28.518 0 0 1 8.389-20.181 28.492 28.492 0 0 1 20.181-8.39z" transform="translate(-181.864 546.28)" style="fill:#7fc882"/>
            <path data-name="Path 9338" d="m280.538-369.154 35.7 2.906h.275l9-.733v49.081h27.262v-52.089a34.133 34.133 0 0 0 4.528-27.144c-5.536-21.569-24.932-23.558-39.263-37.954v-3.128c2.042-.484 3.494-1.714 3.494-3.154s-1.806-2.958-4.227-3.285l-.065-1.492c1.165-.288 1.989-.982 1.989-1.806s-.89-1.584-2.133-1.845l-.353-9.161a2.8 2.8 0 0 0-.157-.824c-.078-.209-.183-.353-.3-.353-.1 0-.209.144-.288.353a2.8 2.8 0 0 0-.157.825l-.353 9.1c-1.4.2-2.447.968-2.447 1.9s.968 1.649 2.29 1.859v1.4c-2.618.249-4.541 1.649-4.541 3.324s1.584 2.788 3.782 3.22V-435c-14.279 14.318-33.6 16.386-39.119 37.876a34.133 34.133 0 0 0 5.078 27.955" transform="translate(-164.501 582.825)" style="fill:#5a9f5c;fill-rule:evenodd"/>
            <path data-name="Path 9339" d="m351.271-407.679-.17-5.3-.2-5.811a2.9 2.9 0 0 1-.759-.366 2.71 2.71 0 0 1-.929-1.034l-.471-1.008-.471-1.021a.994.994 0 0 1 0-1.034 1.217 1.217 0 0 1 .982-.419 10.027 10.027 0 0 1 .3-2.984c1.636-6.361 7.342-6.976 11.57-11.19v-.929c-.654-.131-1.126-.51-1.126-.955s.589-.9 1.309-.982v-.419c-.393-.065-.681-.288-.681-.55s.314-.5.72-.55l.118-2.7a.708.708 0 0 1 0-.249s0-.1.092-.1l.079.1a1.175 1.175 0 0 1 0 .249l.1 2.709c.366.065.628.288.628.537s-.249.458-.589.537v.445c.707.092 1.309.5 1.309.968s-.432.785-1.034.929v.929c4.227 4.24 9.96 4.842 11.6 11.216a10.237 10.237 0 0 1 .3 3.01 1.1 1.1 0 0 1 .681.393.994.994 0 0 1 0 1.034l-.471 1.021-.471 1.008a2.71 2.71 0 0 1-.929 1.034 2.83 2.83 0 0 1-.759.353l-.2 5.824-.17 5.3h1.924a1.309 1.309 0 0 1 1.047.432 1 1 0 0 1 0 1.034l-.471 1.008-.471 1.008a2.708 2.708 0 0 1-.929 1.034 2.693 2.693 0 0 1-.759.366l-.2 9.292c-.079 4.162-.17 8.311-.249 12.459v65.138H351.3v-67.637l-.2-9.96-.2-9.292a2.267 2.267 0 0 1-.759-.367 2.71 2.71 0 0 1-.929-1.034l-.471-1.008-.471-1.008a.994.994 0 0 1 0-1.034 1.309 1.309 0 0 1 1.047-.432z" transform="translate(-141.736 577.413)" style="fill:#5a9f5c;fill-rule:evenodd"/>
            <path data-name="Path 9340" d="M354.367-409.35a1.95 1.95 0 0 1 1.95 1.95v9.358a1.95 1.95 0 0 1-1.95 1.937 1.95 1.95 0 0 1-1.937-1.937v-9.358a1.95 1.95 0 0 1 1.937-1.95" transform="translate(-140.409 588.507)" style="fill:#fff;fill-rule:evenodd"/>
            <path data-name="Path 9341" d="M358.78-409.35a1.95 1.95 0 0 1 1.937 1.95v9.358a1.95 1.95 0 0 1-1.937 1.937 1.95 1.95 0 0 1-1.95-1.937v-9.358a1.95 1.95 0 0 1 1.95-1.95" transform="translate(-139.05 588.507)" style="fill:#fff;fill-rule:evenodd"/>
            <path data-name="Path 9342" d="M363.127-409.35a1.95 1.95 0 0 1 1.95 1.95v9.358a1.95 1.95 0 0 1-1.95 1.937 1.95 1.95 0 0 1-1.937-1.937v-9.358a1.95 1.95 0 0 1 1.937-1.95" transform="translate(-137.704 588.507)" style="fill:#fff;fill-rule:evenodd"/>
            <path data-name="Path 9343" d="M355.66-424.33a1.453 1.453 0 0 1 1.453 1.453v6.989a1.453 1.453 0 0 1-1.453 1.453 1.453 1.453 0 0 1-1.44-1.453v-6.989a1.453 1.453 0 0 1 1.44-1.453" transform="translate(-139.856 583.882)" style="fill:#fff;fill-rule:evenodd"/>
            <path data-name="Path 9344" d="M358.953-424.33a1.453 1.453 0 0 1 1.453 1.453v6.989a1.453 1.453 0 0 1-1.453 1.453 1.453 1.453 0 0 1-1.453-1.453v-6.989a1.453 1.453 0 0 1 1.453-1.453" transform="translate(-138.843 583.882)" style="fill:#fff;fill-rule:evenodd"/>
            <path data-name="Path 9345" d="M362.213-424.33a1.453 1.453 0 0 1 1.453 1.453v6.989a1.453 1.453 0 0 1-1.453 1.453 1.453 1.453 0 0 1-1.453-1.453v-6.989a1.453 1.453 0 0 1 1.453-1.453" transform="translate(-137.837 583.882)" style="fill:#fff;fill-rule:evenodd"/>
            <path data-name="Path 9346" d="m240.679-400.966-.157-4.8-.157-5.234a2.475 2.475 0 0 1-.707-.327 2.46 2.46 0 0 1-.825-.942l-.432-.916-.432-.916a.929.929 0 0 1 0-.942 1.139 1.139 0 0 1 .89-.38 9.541 9.541 0 0 1 .275-2.709c1.492-5.759 6.662-6.321 10.47-10.143v-.851c-.589-.118-1.021-.458-1.021-.864s.537-.825 1.217-.89v-.366c-.353-.065-.615-.262-.615-.51s.288-.445.667-.5l.092-2.447a.615.615 0 0 1 0-.222s0-.092.079-.092l.079.092a.616.616 0 0 1 0 .223l.1 2.461c.327.065.563.262.563.484s-.222.419-.523.484v.406c.641.092 1.126.445 1.126.877s-.38.72-.929.851v.838c3.822 3.848 9.031 4.4 10.47 10.169a9.162 9.162 0 0 1 .275 2.735 1 1 0 0 1 .615.353.916.916 0 0 1 0 .942l-.432.916-.432.916a2.5 2.5 0 0 1-.838.942 2.617 2.617 0 0 1-.694.327c0 1.754-.1 3.521-.17 5.235l-.144 4.8h1.741a1.138 1.138 0 0 1 .942.393.916.916 0 0 1 0 .942l-.432.916-.432.916a2.369 2.369 0 0 1-.838.929 2.172 2.172 0 0 1-.681.327c-.065 2.814-.118 5.628-.183 8.429q-.118 5.654-.222 11.308v119.065h-18.31V-379.07l-.2-9.044c0-2.8-.118-5.615-.17-8.429a2.238 2.238 0 0 1-.694-.327 2.343 2.343 0 0 1-.824-.929l-.432-.916-.432-.916a.916.916 0 0 1 0-.942 1.165 1.165 0 0 1 .955-.393z" transform="translate(-175.803 580.581)" style="fill:#5a9f5c;fill-rule:evenodd"/>
            <path data-name="Path 9347" d="M243.467-402.48a1.78 1.78 0 0 1 1.767 1.767v8.481a1.78 1.78 0 0 1-1.767 1.767 1.78 1.78 0 0 1-1.767-1.767v-8.481a1.78 1.78 0 0 1 1.767-1.767" transform="translate(-174.599 590.629)" style="fill:#fff;fill-rule:evenodd"/>
            <path data-name="Path 9348" d="M247.467-402.48a1.767 1.767 0 0 1 1.754 1.767v8.481a1.767 1.767 0 0 1-1.754 1.767 1.767 1.767 0 0 1-1.767-1.767v-8.481a1.767 1.767 0 0 1 1.767-1.767" transform="translate(-173.364 590.629)" style="fill:#fff;fill-rule:evenodd"/>
            <path data-name="Path 9349" d="M251.417-402.48a1.767 1.767 0 0 1 1.754 1.767v8.481a1.767 1.767 0 0 1-1.754 1.767 1.767 1.767 0 0 1-1.767-1.767v-8.481a1.767 1.767 0 0 1 1.767-1.767" transform="translate(-172.144 590.629)" style="fill:#fff;fill-rule:evenodd"/>
            <path data-name="Path 9350" d="M244.639-416.06a1.309 1.309 0 0 1 1.309 1.309v6.334a1.309 1.309 0 0 1-1.309 1.309 1.309 1.309 0 0 1-1.309-1.309v-6.334a1.309 1.309 0 0 1 1.309-1.309" transform="translate(-174.096 586.435)" style="fill:#fff;fill-rule:evenodd"/>
            <path data-name="Path 9351" d="M247.629-416.06a1.309 1.309 0 0 1 1.309 1.309v6.334a1.309 1.309 0 0 1-1.309 1.309 1.309 1.309 0 0 1-1.309-1.309v-6.334a1.309 1.309 0 0 1 1.309-1.309" transform="translate(-173.172 586.435)" style="fill:#fff;fill-rule:evenodd"/>
            <path data-name="Path 9352" d="M250.579-416.06a1.309 1.309 0 0 1 1.309 1.309v6.334a1.309 1.309 0 0 1-1.309 1.309 1.309 1.309 0 0 1-1.309-1.309v-6.334a1.309 1.309 0 0 1 1.309-1.309" transform="translate(-172.261 586.435)" style="fill:#fff;fill-rule:evenodd"/>
            <path data-name="Path 9399" d="M319.651-505.28a19.632 19.632 0 0 0-26.542 4.214 19.631 19.631 0 0 0 2.369 26.777 19.632 19.632 0 0 0 26.882-.523 15.8 15.8 0 0 1-17.446-4.738 15.8 15.8 0 0 1-1.6-18.009 15.8 15.8 0 0 1 16.333-7.722" transform="translate(-160.02 557.84)" style="fill:#ffcf06;fill-rule:evenodd"/>
            <path data-name="Path 9400" d="m153.1 76.48 1.126 3.665 3.651 1.112-3.651 1.126-1.126 3.651-1.126-3.651-3.651-1.126 3.651-1.112z" transform="translate(-56.221 8.851)" style="fill:#fff;fill-rule:evenodd"/>
            <path data-name="Path 9401" d="m186.1 89.43.982 3.206 3.22.995-3.22.982-.982 3.22-.995-3.22-3.207-.982 3.207-.995z" transform="translate(-45.853 12.85)" style="fill:#fff;fill-rule:evenodd"/>
            <path data-name="Path 9402" d="m247.2 77.44.9 2.945 2.932.89-2.932.9-.9 2.932-.9-2.932-2.932-.9 2.932-.89z" transform="translate(-26.873 9.148)" style="fill:#fff;fill-rule:evenodd"/>
            <path data-name="Path 9403" d="m128.606 100.68.5 1.636 1.649.5-1.649.51-.5 1.636-.5-1.636-1.649-.51 1.649-.5z" transform="translate(-62.971 16.324)" style="fill:#fff;fill-rule:evenodd"/>
            <path data-name="Path 9404" d="m214.038 54.7.733 2.4 2.4.733-2.4.733-.733 2.4-.733-2.4-2.4-.733 2.4-.733z" transform="translate(-36.895 2.126)" style="fill:#fff;fill-rule:evenodd"/>
            <path data-name="Path 9405" d="m222.591 101.06.6 1.976 1.976.6-1.976.6-.6 1.976-.615-1.976-1.976-.6 1.976-.6z" transform="translate(-34.089 16.441)" style="fill:#fff;fill-rule:evenodd"/>
            <path data-name="Path 9419" d="M234.34-455a33.007 33.007 0 0 1 33.007 33.02 33.02 33.02 0 0 1-33.007 33.02 33.02 33.02 0 0 1-33.02-33.02A33.007 33.007 0 0 1 234.34-455" transform="translate(-187.067 574.412)" style="fill:#dae2ed;opacity:.19;fill-rule:evenodd"/>
            <path data-name="Path 9421" d="M214.4-430.4a1.413 1.413 0 0 1 1.413 1.413 1.4 1.4 0 0 1-.415.995 1.4 1.4 0 0 1-1 .405 1.4 1.4 0 0 1-1.4-1.4 1.4 1.4 0 0 1 .406-1 1.4 1.4 0 0 1 .995-.415" transform="translate(-183.461 582.008)" style="fill:#fff;fill-rule:evenodd"/>
            <path data-name="Path 9422" d="M208.176-438.33a1.126 1.126 0 0 1 1.124 1.13 1.126 1.126 0 0 1-.325.8 1.125 1.125 0 0 1-.8.334 1.126 1.126 0 0 1-.8-.334 1.125 1.125 0 0 1-.325-.8 1.126 1.126 0 0 1 1.126-1.126" transform="translate(-185.298 579.559)" style="fill:#fff;fill-rule:evenodd"/>
            <path data-name="Path 9423" d="M238.774-429.5a.877.877 0 0 1 .877.864.864.864 0 0 1-.258.615.864.864 0 0 1-.619.248.864.864 0 0 1-.864-.864.877.877 0 0 1 .864-.864" transform="translate(-175.769 582.286)" style="fill:#fff;fill-rule:evenodd"/>
            <path data-name="Path 9424" d="M210.924-459a.851.851 0 0 1 .615.249.851.851 0 0 1 .249.615.851.851 0 0 1-.249.615.851.851 0 0 1-.615.249.851.851 0 0 1-.615-.249.851.851 0 0 1-.249-.615.851.851 0 0 1 .249-.615.851.851 0 0 1 .615-.249" transform="translate(-184.368 573.177)" style="fill:#fff;fill-rule:evenodd"/>
        </g>
        <path data-name="Path 9333" d="M341.822-372.43a3.926 3.926 0 0 1 2.842 1.149 3.926 3.926 0 0 1 1.149 2.842 3.926 3.926 0 0 1-1.149 2.842 3.926 3.926 0 0 1-2.842 1.149 4 4 0 0 1-3.992-3.992 3.926 3.926 0 0 1 1.149-2.842 3.926 3.926 0 0 1 2.842-1.149" transform="translate(-144.917 639.117)" style="opacity:.17;fill:#fff;fill-rule:evenodd"/>
        <path data-name="Path 9337" d="M296.768-413.74a9.318 9.318 0 0 1 9.318 9.318 9.318 9.318 0 0 1-9.318 9.318 9.318 9.318 0 0 1-9.319-9.318 9.318 9.318 0 0 1 9.318-9.318" transform="translate(-160.473 626.362)" style="opacity:.17;fill:#fff;fill-rule:evenodd"/>
        <path data-name="Path 9353" d="m260.711-337 29.421-17.9 197.69 43.059a15.875 15.875 0 0 1 6.374 2.683c.471-.288 1.06-1.309 1.544-1.021v3.612c.092 1.819-1.924 3.521-5.6 4.227-4.057.785-9.8 3.547-17.865 6.779-12.433 4.986-24.7 7.853-37.4 11.779q-18.506 5.706-40.991 14.043c-4.332 1.623-8.546.55-17.511-1.741-15.784-4.371-43.477-13.781-58.044-15.443q-7.853-.838-25.063-4.5-33.779-7.2-71.171-17.263-16.53-4.607-25.848-7.342c-3.926-.929-5.837-2.369-5.811-3.769v-3.809c.615-.314 1.309 1.021 1.793 1.557a.131.131 0 0 0 0 .065 14.394 14.394 0 0 1 3.56-1.2l64.823-13.873" transform="translate(-190.43 644.53)" style="fill:#4d8d50;fill-rule:evenodd"/>
        <path data-name="Path 9354" d="M260.7-340.122 290.124-358l197.69 43.1c10.47 2.369 9.96 8.036 2.343 9.5-4.057.785-9.8 3.547-17.865 6.779-12.433 4.986-24.7 7.853-37.4 11.779q-18.511 5.706-40.992 14.042c-4.332 1.623-8.546.55-17.511-1.741-15.784-4.371-43.477-13.781-58.044-15.443q-7.853-.838-25.063-4.5-33.779-7.2-71.171-17.263-16.53-4.607-25.848-7.342c-7.486-1.793-7.853-5.51-.38-7.159l64.817-13.874" transform="translate(-190.421 643.573)" style="fill:#9ed1a0;fill-rule:evenodd"/>
        <path data-name="Path 9355" d="M321.532-316.92c10.85 0 19.632 3.6 19.632 8.036s-8.795 8.023-19.632 8.023-19.632-3.586-19.632-8.023 8.808-8.036 19.632-8.036" transform="translate(-156.011 656.257)" style="fill:#639e65;fill-rule:evenodd"/>
        <path data-name="Path 9356" d="M391.8-323.7a114.708 114.708 0 0 1 14.527.89c2.919-2.945 9.973-5.013 18.205-5.013 10.85 0 19.632 3.6 19.632 8.036 0 2.84-3.612 5.34-9.07 6.766l-.916.223a11.085 11.085 0 0 0-5.955 3.337c-4.175 4.921-18.886 8.546-36.41 8.546-20.77 0-37.6-5.091-37.6-11.386 0-2.7 6.243-1.531 6.269-4.424 0-4.62-21.948-3.141-21.948 1.793 0 5.863-14.737 10.627-32.9 10.627s-32.916-4.764-32.916-10.6a3.927 3.927 0 0 1 .537-1.937 4.634 4.634 0 0 1 .471-.694q2.421-4.371-11.857-5.235a7.037 7.037 0 0 1-1.309-.079c-12.7-.851-22.249-4.856-22.249-9.672 0-5.431 12.25-9.842 27.353-9.842s27.209 4.319 27.209 9.75c0 3.167-4.162 5.994-10.627 7.787l.955.445a8.434 8.434 0 0 1-.209 1.728 80.229 80.229 0 0 1 22.629-2.919c3.246 0 6.374.157 9.332.432a7.027 7.027 0 0 1-1.505-1.924 23.87 23.87 0 0 1 4.345-2.4 5.445 5.445 0 0 1-2.539-4.11c0-6.3 16.844-11.4 37.614-11.4s37.6 5.1 37.6 11.4c0 3.154-4.227 5.994-11.046 8.062a35.925 35.925 0 0 1-2.33 2.722 114.6 114.6 0 0 1 14.708-.909" transform="translate(-175.646 647.596)" style="fill:#639e65;fill-rule:evenodd"/>
        <path data-name="Path 9357" d="M395.775-332.192c15.705.667 27.772 4.371 27.772 8.834 0 4.934-14.724 8.939-32.889 8.939s-32.9-4-32.9-8.939c0-2.12 5.471-1.2 5.484-3.481 0-3.612-19.2-2.447-19.2 1.414 0 4.607-12.878 8.35-28.793 8.35s-28.793-3.743-28.793-8.35a2.761 2.761 0 0 1 .471-1.518 5.093 5.093 0 0 1 .419-.55q2.107-3.416-10.365-4.136h-1.2c-11.1-.667-19.514-3.822-19.514-7.6 0-4.267 10.719-7.722 23.924-7.722s23.924 3.455 23.924 7.722c0 2.5-3.638 4.712-9.292 6.125l.825.34a5.97 5.97 0 0 1-.17 1.309 77.217 77.217 0 0 1 19.789-2.29c2.84 0 5.575.118 8.167.34a5.682 5.682 0 0 1-1.309-1.518 22.108 22.108 0 0 1 3.775-1.877 4.254 4.254 0 0 1-2.212-3.233c0-4.934 14.737-8.939 32.9-8.939s32.889 4 32.889 8.939a2.527 2.527 0 0 1-.157.877c3.926 1.139 6.622 3.35 6.622 5.889a3.924 3.924 0 0 1-.17 1.1" transform="translate(-170.103 646.361)" style="fill:#2d602f;fill-rule:evenodd"/>
        <path data-name="Path 9358" d="m259.526-361.146-4.515 27.013c1.021 15.705-14.789 14.1-16.15-.38-.5-5.235 1.309-9.227 2.264-14.3q.811-4.07 1.413-9.07c1.152-9.436 11.857-12.093 17.014-3.259" transform="translate(-175.502 640.934)" style="fill:#ffb38a;fill-rule:evenodd"/>
        <path data-name="Path 9359" d="m257.343-358.7-3.089 19.632c.707 11.347-10.1 10.2-11.02-.288-.34-3.822.864-6.675 1.544-10.352.366-1.963.681-4.149.969-6.544.785-6.845 8.088-8.756 11.6-2.369" transform="translate(-174.144 642.176)" style="fill:#f38862;fill-rule:evenodd"/>
        <path data-name="Path 9360" d="m274.836-364.665-4.515 27.013c1.021 15.705-14.8 14.1-16.15-.393-.5-5.235 1.309-9.161 2.264-14.292q.811-4.07 1.413-9.07c1.152-9.449 11.857-12.093 17.014-3.259" transform="translate(-170.775 639.846)" style="fill:#ffb38a;fill-rule:evenodd"/>
        <path data-name="Path 9361" d="m279.185-366.538-4.515 27.026c1.034 15.705-14.789 14.082-16.15-.393-.484-5.235 1.309-9.161 2.277-14.3.524-2.709.995-5.719 1.413-9.057 1.152-9.449 11.857-12.093 17.014-3.272" transform="translate(-169.431 639.272)" style="fill:#f38862;fill-rule:evenodd"/>
        <path data-name="Path 9362" d="M270.725-354.292c21.1 25.3 30.952 38.465 30.952 38.465q-9.279 8.245-22.576.118a300.017 300.017 0 0 1-30.586-23.558c-3.063-2.618-3.076-10.549-1.649-16.857 1.217-5.405 6.675-7.931 9.07-6.793 11.635 6.243 14.789 8.638 14.789 8.638" transform="translate(-173.287 641.972)" style="fill:#001c47;fill-rule:evenodd"/>
        <path data-name="Path 9363" d="M270.347-352.707q19.775 24.867 24.108 31.489a26.686 26.686 0 0 1-25.246-4.607 26.66 26.66 0 0 1-9.776-18.781 10.81 10.81 0 0 0-10.64-10.915c-.55-2.971 3.691-6.544 5.732-5.484l15.823 8.3" transform="translate(-172.424 642.586)" style="fill:#000d2e;fill-rule:evenodd"/>
        <path data-name="Path 9364" d="M270.337-382.854c3.1 14.1 2 20.757-3.586 21.66-4.751-1.793-7.368-10.536-7.853-22.249-.537-2.042 1.859-3.534 3.586-4.764a5.078 5.078 0 0 1 5.785 0 5.078 5.078 0 0 1 2.068 5.405" transform="translate(-169.312 633.967)" style="fill:#89aed6;fill-rule:evenodd"/>
        <path data-name="Path 9365" d="M298.3-329.7a24.631 24.631 0 0 1 10.64-16.4 21.673 21.673 0 0 1 18.166-1.963 13.925 13.925 0 0 1 1.7 19.226c-4.018 4.973-10.182 5.392-16.4 4A70.828 70.828 0 0 1 298.3-329.7" transform="translate(-157.122 646.287)" style="fill:#001c47;fill-rule:evenodd"/>
        <path data-name="Path 9366" d="M282.362-385.04c26.712 18.768 38.5 38.125 25.547 54.838a12.843 12.843 0 0 1 1.819.668c4.555-3.678 14.724-6.348 29.683-2.762 0 11.465-9.266 15.587-26.411 16.5a6.662 6.662 0 0 1-5.785-3.259 6.975 6.975 0 0 1-.667-1.544 21.4 21.4 0 0 1-4.214.419 20.6 20.6 0 0 1-4.908-.576 87.682 87.682 0 0 1-12.316 6.832c-17.394-1.518-21.974-12.708-21.176-22.786 1.688-24.422 3.468-47.3-1.374-47.665.484-4.7 5.235-6.806 9.7-7.355a9.515 9.515 0 0 1 10.1 6.688" transform="translate(-168.158 633.142)" style="fill:#b7c6f5;fill-rule:evenodd"/>
        <path data-name="Path 9367" d="M313.232-320.316c-5.458-.236-12.355 2.775-14.972 7.578 5.484 7.525 12.525 7.238 19 6.465 4.633-.523 8.926.811 12.826 2.29 5.8 2.552 9.606-1.571 5.575-7.46-4.79-7.3-13.755-9.947-22.432-8.873" transform="translate(-157.135 655.138)" style="fill:#ffb38a;fill-rule:evenodd"/>
        <path data-name="Path 9368" d="m309.414-318.877-5.484 2.735a9.161 9.161 0 0 0 11.413 5.1q9.41-4.057 15.967-1.139a23.558 23.558 0 0 0-21.9-6.7" transform="translate(-155.384 655.492)" style="fill:#f38862;fill-rule:evenodd"/>
        <path data-name="Path 9369" d="M304.375-315.074a9 9 0 0 0 .929 1.309 4.686 4.686 0 0 0 4.411-.89 16.647 16.647 0 0 1 14.828-2.382 23.4 23.4 0 0 0-14.226-2.055q-6.858 2.081-5.942 4.031" transform="translate(-155.28 655.484)" style="fill:#e16643;fill-rule:evenodd"/>
        <path data-name="Path 9370" d="M268.728-337.127a28.139 28.139 0 0 0 34.918-9.947 28.139 28.139 0 0 0-3.926-36.1 28.125 28.125 0 0 0-36.24-2.159c3.364-.131 5.458 3.036 4.646 8.756-1.544 10.693 5.523 11.334 7.63 16.8a7.2 7.2 0 0 1-2.015 8.036q-7.526 5.575-4.973 14.606m36.122 7.853q35.6-9.58 32.719-.432a12.525 12.525 0 0 1-15.666 8.049 23.217 23.217 0 0 0-16.412-.262 3.769 3.769 0 0 1-3.926-1.309 3.743 3.743 0 0 1-.38-4.109 3.743 3.743 0 0 1 3.625-1.95z" transform="translate(-167.874 633.405)" style="fill:#7ca1d4;fill-rule:evenodd"/>
        <path data-name="Path 9371" d="M272.825-378.972a17.354 17.354 0 0 1 23.034-2.356 17.354 17.354 0 0 1 4.8 22.629 17.341 17.341 0 0 1-21.961 7.3 8.01 8.01 0 0 0 5.8-8.075c-.458-10.038-14.253-5.078-11.779-19.5m42.025 47.181a12.224 12.224 0 0 1 9.161-5.366 12.237 12.237 0 0 1 9.907 3.926 13.69 13.69 0 0 1-18.964 1.44z" transform="translate(-165.112 635.346)" style="fill:#517ebb;fill-rule:evenodd"/>
        <path data-name="Path 9372" d="M368.6-370.94q-10.117 31.175 4 27.131a17.5 17.5 0 0 0 4.594-14.7 16.621 16.621 0 0 0-8.6-12.433" transform="translate(-136.721 639.577)" style="fill:#e1e8ff;fill-rule:evenodd"/>
        <path data-name="Path 9373" d="M364.1-315.873q19.8-10.954 37.352-14.122c12.5-15.365-.51-35.271-38.255-64.326-23.416-18.022-50.547-38.879-80.426-20.479-13.912 8.572-24.8 23.453-24.042 39.747.314 4.921 1.885 3.193 2.945 2.029 6.923-8.35 12.59 1.191 17.407 8.677 5.719 8.9 18.964 21.529 28.989 23.977 22.171 17.354 28.413 18.454 28.413 18.454 7.015 5.994 18.768 8.664 27.615 6.047" transform="translate(-169.352 623.826)" style="fill:#ced9ff;fill-rule:evenodd"/>
        <path data-name="Path 9374" d="M376.109-335.945c-5.458-.249-12.342 2.762-14.959 7.565 5.484 7.525 12.512 7.238 18.99 6.465 4.646-.523 8.939.811 12.839 2.29 5.785 2.552 9.606-1.571 5.575-7.447-4.79-7.316-13.768-9.96-22.445-8.873" transform="translate(-137.716 650.311)" style="fill:#ffb38a;fill-rule:evenodd"/>
        <path data-name="Path 9375" d="M380.833-323.437c1.466-7.251 2.186-10.863 2.186-10.863 7.067 2.971-1.793 10.064 5.235 13.363a22.092 22.092 0 0 0-7.434-2.5" transform="translate(-131.643 650.891)" style="fill:#f38862;fill-rule:evenodd"/>
        <path data-name="Path 9376" d="M340.9-330.319a13.3 13.3 0 0 0 17.446-2c4.476-4.947 5.418-15.156 1.086-20.234-3.926-1.047-8.9 2.474-12.106 4.934a12.97 12.97 0 0 0-5.039 10.326c1.976 1.505 1.518 3.822-1.387 6.976" transform="translate(-143.969 645.195)" style="fill:#f38d62;fill-rule:evenodd"/>
        <path data-name="Path 9377" d="M354.915-345.045a8.311 8.311 0 0 1 3.534 8.847 8.3 8.3 0 0 1-7.133 6.321 8.3 8.3 0 0 1-8.376-4.568 6.688 6.688 0 0 0 3.861-5.562 6.269 6.269 0 0 1 2.879-4.424 6.19 6.19 0 0 1 5.235-.615" transform="translate(-143.339 647.474)" style="fill:#d75734;fill-rule:evenodd"/>
        <path data-name="Path 9378" d="M353.393-338c10.274 7.512 15.875 16.922 15.8 27.916-22.249-1.06-44.328-28.649-15.8-27.916" transform="translate(-144.29 649.745)" style="fill:#ffb38a;fill-rule:evenodd"/>
        <path data-name="Path 9379" d="M347.028-336.39q21.778 4.685 18.9 23.859a20.391 20.391 0 0 1-8.3-2.461c-4.031-2.33-4.882-5.078-7.918-7.853-2.133-1.963-3.691-2.3-5.706-4.646-3.01-3.521-4.057-7.146 3.023-8.873" transform="translate(-143.723 650.245)" style="fill:#f38862;fill-rule:evenodd"/>
        <path data-name="Path 9380" d="M369.789-351.75q-7.656 19.422-11.923 22.89a6.544 6.544 0 0 1 3.547 2.173 29.147 29.147 0 0 0 1.453 17.014 15.012 15.012 0 0 1-9.057-8.952c-.707-1.675-3.036-1.112-5.824-.916-1.518.079-2.042-.432-2.212-1.309s0-1.7 1.505-2.12c1.139-.262 3.861-.432 4.4-.838 1.872-2.421 1.767-4.123 3.481-4.777a8.022 8.022 0 0 1-1.741-4.345c-.654-4.659-5.1-5.523-4.188-8.285 3.39-10.326 11.007-11.779 20.522-10.549" transform="translate(-142.481 645.385)" style="fill:#090702;fill-rule:evenodd"/>
        <path data-name="Path 9381" d="M352.43-337.823c3.3 1.165 5.235 4.188 4.358 6.753s-4.319 3.717-7.63 2.552-5.235-4.188-4.358-6.753 4.319-3.717 7.63-2.552" transform="translate(-142.83 649.663)" style="fill:#ffc9a7;fill-rule:evenodd"/>
        <path data-name="Path 9382" d="M351.074-335.828c1.924.681 3.049 2.434 2.526 3.926s-2.5 2.146-4.424 1.479-3.049-2.434-2.526-3.926 2.5-2.146 4.424-1.479" transform="translate(-142.233 650.338)" style="fill:#f38d62;fill-rule:evenodd"/>
        <path data-name="Path 9383" d="M368.534-305.174a23.336 23.336 0 0 0 20.443-11.517 23.309 23.309 0 0 0 .131-23.44 23.322 23.322 0 0 0-20.286-11.779c-4.253 0-6.544.654-8.664 3.233a32.261 32.261 0 0 0 .668 39.42c2.5 2.905 4.646 4.123 7.709 4.018" transform="translate(-139.996 645.453)" style="fill:#e1e8ff;fill-rule:evenodd"/>
        <path data-name="Path 9384" d="M382.507-319.469q-16.438-5.34-23.061 1.243a10.038 10.038 0 0 1-1.06-10.47 10.065 10.065 0 0 1 8.873-5.667c5.5-.092 9.318 5.5 15.286.079a8.834 8.834 0 0 0 2.173-10.025 16.111 16.111 0 0 1 3.717 9.07q.707 8.311-5.929 15.771" transform="translate(-138.879 647.8)" style="fill:#d1ddf9;fill-rule:evenodd"/>
        <path data-name="Path 9385" d="M371.819-327.721a10.47 10.47 0 0 0 11.138.288 10.379 10.379 0 0 0 5-9.947 21.843 21.843 0 0 1-5.117 17.511c-.3.34-.615.681-.929 1.008a1.414 1.414 0 0 0-.851.38 2.147 2.147 0 0 0-.484.34l-.223.144c-.2.1-.366.275-.563.393l-.157.118a1.4 1.4 0 0 0-.275.17l-.17.1-.092.065a2.5 2.5 0 0 0-.537.38 3.128 3.128 0 0 0-.445.275l-.484.236a3.928 3.928 0 0 0-.393.249l-.746.432c-.183.065-.406.131-.576.209s-.6.249-.89.393a2.535 2.535 0 0 0-.445.144l-.209.1a5.751 5.751 0 0 0-.667.236l-.236.118-.366.092-.484.131-.262.1-.183.065a2.109 2.109 0 0 0-.5.1l-.2.079-.34.092-.183.065a5.555 5.555 0 0 0-1.034.314 1.832 1.832 0 0 0-.523.144 5.434 5.434 0 0 0-.772.17 13.87 13.87 0 0 0-.746.131 1.306 1.306 0 0 0-.458 0 7.552 7.552 0 0 1-.759.1 4.832 4.832 0 0 0-.615 0h-1.309l.131.092c-.079 0-.223-.118-.314-.144l-.262-.17v-.209a1.806 1.806 0 0 0-.406-1.06 1.374 1.374 0 0 0-1.191-.681 1.4 1.4 0 0 0-.9.288c-3.089-3.128-4.384-9.031-.2-12.721a8.18 8.18 0 0 1 10.248-.484" transform="translate(-138.399 649.94)" style="fill:#b4c4eb;fill-rule:evenodd"/>
        <path data-name="Path 9386" d="M363.978-316.444a7.394 7.394 0 0 1-3.076-2.12 5.824 5.824 0 0 1 3.926-6.308c5.785-1.989 9.266 7.211 17.472 1.217a21.87 21.87 0 0 1-16.019 7.5 5.707 5.707 0 0 1-2.238-.288" transform="translate(-137.809 653.713)" style="fill:#7697c2;fill-rule:evenodd"/>
        <path data-name="Path 9387" d="M350.578-335.632a2.068 2.068 0 0 1 1.557 2.434 2.055 2.055 0 0 1-2.735.916 2.081 2.081 0 0 1-1.57-2.434 2.094 2.094 0 0 1 2.748-.916" transform="translate(-141.842 650.417)" style="fill:#d75734;fill-rule:evenodd"/>
        <path data-name="Path 9388" d="M323.6-366.27q58-3.494 66.682 29.735c10.1.681 12.643-9.161 9.332-16.949-21.569-48.582-58.227-31.411-82.845-31.96-27.785-.641-16.935-25.613-35.258-23.414-7.29.877-15.273 7.381-18.558 18.467q35.1 25.259 60.648 24.121" transform="translate(-168.037 627.827)" style="fill:#baccff;fill-rule:evenodd"/>
        <path data-name="Path 9389" d="M364.475-326.436a33.544 33.544 0 0 1 24.8-12.865 6.452 6.452 0 0 0 6.321-3.73 6.439 6.439 0 0 0-1.309-7.237 12.76 12.76 0 0 1-3.22-8.023 34.8 34.8 0 0 0-21.268-30.73 34.774 34.774 0 0 0-36.842 6.256 30.822 30.822 0 0 1-28.871 6.3 30.848 30.848 0 0 1-18.925-15.967 12.028 12.028 0 0 0-14.881-6.871 12.014 12.014 0 0 0-7.853 14.4q9.79-5.8 17.25 7.735a59.471 59.471 0 0 0 20.94 22.694l39.093 23.558a45.964 45.964 0 0 0 24.867 4.607" transform="translate(-168.316 630.632)" style="fill:#a1bdf0;fill-rule:evenodd"/>
        <path data-name="Path 9390" d="M343.966-335.41q-29.225-18.323-50.807-24.867a57.9 57.9 0 0 1-7.12-5.235 18.794 18.794 0 0 1 10.653-10.2c12.6-4.764 18.231 7.2 42.247-3.363a23.283 23.283 0 0 1 27.183 5.078 23.283 23.283 0 0 1 3.167 27.484 23.283 23.283 0 0 1-25.323 11.113" transform="translate(-160.908 636.347)" style="fill:#7ca1d4;fill-rule:evenodd"/>
        <path data-name="Path 9391" d="M324.86-356.784a1.191 1.191 0 0 1 .432 1.623 1.178 1.178 0 0 1-.718.563 1.178 1.178 0 0 1-.9-.118 137.3 137.3 0 0 1-11.779-7.578 140.446 140.446 0 0 1-10.915-8.743c-2.225-2-4.581-4.515-7.067-7.133-4.738-5.039-9.79-10.392-14.4-12.46a14.916 14.916 0 0 0-.929-.38 13.206 13.206 0 0 0-14.331 2.814c-3.233 3.036-4.738 6.544-3.337 2.788.092-.236.223-.523.366-.851a13.245 13.245 0 0 1 7.381-7.29 14.933 14.933 0 0 1 10.771.3l1.034.432c5.117 2.277 10.326 7.853 15.221 13.009 2.408 2.552 4.738 5.026 6.884 6.923a132.1 132.1 0 0 0 10.719 8.586 135.8 135.8 0 0 0 11.556 7.46" transform="translate(-168.828 632.331)" style="fill:#f0f6f9"/>
        <path data-name="Path 9392" d="M303.91-296.821c2.369 2.238 8.219 1.126 12.839-1.217 4.358-2.212 7.853-5.549 5.8-8.206l-18.9-23.322c-1.387-1.714-1.44-2.277.6-2.618 0 0 9.868-1.544 29.6-3.926a20.809 20.809 0 0 0 24.762-9.161 20.508 20.508 0 0 0-4.149-26.058c-6.282-5.235-13.664-5.654-20.94-3.442-15.705 4.751-37.588 13.938-52.22 20.3C265-347.589 262.174-335.5 276.3-322.6l27.641 25.757" transform="translate(-166.724 638.004)" style="fill:#e1e8ff;fill-rule:evenodd"/>
        <path data-name="Path 9393" d="M333.607-366.58c2.46 12.329-7.853 21.857-33.033 28.963-12.6 1.23-19.632 2.264-20.692-.445a10.824 10.824 0 0 1 .432-9.345 10.811 10.811 0 0 1 14.553-4.45 14.5 14.5 0 0 0 12.643 1.309c10.928-4.018 6.544-13.441 15.705-17.014a11.439 11.439 0 0 1 10.47 1.073" transform="translate(-163.074 640.374)" style="fill:#d3ddff;fill-rule:evenodd"/>
        <path data-name="Path 9394" d="M295.3-320.092a21.5 21.5 0 0 0-.8-18.558l17.145 20.94c1.034 1.126.72 2.461-.955 3.926a17.369 17.369 0 0 1-5.824 3.6 7.46 7.46 0 0 1-9.476-3.73 7.473 7.473 0 0 1-.092-6.191" transform="translate(-158.296 649.548)" style="fill:#c2d1fb;fill-rule:evenodd"/>
        <path data-name="Path 9395" d="M296.661-336.07a4.594 4.594 0 0 1-5.039-1.95 4.62 4.62 0 0 1 .3-5.405c4.358-5.353 10.562 5.235 21.948-1.191a16.739 16.739 0 0 0 8.507-14.4c.092-4.528 1.584-8.664 5.235-11.412a13.219 13.219 0 0 1 15.535-.327 17.59 17.59 0 0 1 5.473 20.655 3.215 3.215 0 0 0-.484.1 1.414 1.414 0 0 0-.759.51 8.036 8.036 0 0 0-.576.785 1.911 1.911 0 0 0-.537.707 2.341 2.341 0 0 0-.51.628 4.639 4.639 0 0 0-.406.3 2.828 2.828 0 0 0-.353.327c-.432.288-.851.563-1.309.877a2.186 2.186 0 0 0-.9.537l-.236.17a2.015 2.015 0 0 0-.654.366 1.506 1.506 0 0 0-.681.406 1.57 1.57 0 0 0-.366.17 1.531 1.531 0 0 0-.484.288 1.388 1.388 0 0 0-.563.34 3.831 3.831 0 0 0-.563.3l-.157.1-.838.419a.863.863 0 0 0-.3.2 2.787 2.787 0 0 0-.55.3 1.454 1.454 0 0 0-.353.222 1.963 1.963 0 0 0-.576.34 1.53 1.53 0 0 0-.366.17.72.72 0 0 1-.393.183 1.374 1.374 0 0 0-.641.366l-.353.17a1.413 1.413 0 0 0-.982-.419 4.14 4.14 0 0 0-.576 0h-5.327a1.307 1.307 0 0 0-.366-.065 1.74 1.74 0 0 0-.681-.079 1.309 1.309 0 0 0-.628-.157h-.694a1.609 1.609 0 0 0-.785.223h.17a1.308 1.308 0 0 0-.445.078 1.977 1.977 0 0 0-.471.079 1.558 1.558 0 0 0-.471.118l-.236.078a1.217 1.217 0 0 0-.34.131h-.1a1.582 1.582 0 0 0-.484.092h-.144a1.374 1.374 0 0 0-.641.17.88.88 0 0 0-.249.065 1.308 1.308 0 0 0-.772.223 1.689 1.689 0 0 0-.563.092 1.113 1.113 0 0 0-.484.157l-.288.065a1.921 1.921 0 0 0-.366.1h-.118a2.065 2.065 0 0 0-.628.078 1.31 1.31 0 0 0-.458.079 1.492 1.492 0 0 0-.916.223 1.676 1.676 0 0 0-.628.092 1.231 1.231 0 0 0-.471.144 2 2 0 0 0-.733.079 1.851 1.851 0 0 0-.458.065 1.991 1.991 0 0 0-.615.079 1.988 1.988 0 0 0-.615.078h.118a2.286 2.286 0 0 0-.432.078h-.615a1.31 1.31 0 0 0-.628.157 1.48 1.48 0 0 0-.419.079 1.872 1.872 0 0 0-.707.079 1.465 1.465 0 0 0-.707.144h-.6a1.308 1.308 0 0 0-.445.078 2.055 2.055 0 0 0-.759.079 2.093 2.093 0 0 0-.707.078 1.505 1.505 0 0 0-.38.079 2.617 2.617 0 0 0-.916.078h-.694a1.85 1.85 0 0 0-.458.065h-2.84a1.506 1.506 0 0 0-.445.079h-.929a1.4 1.4 0 0 0-.458.078 1.441 1.441 0 0 0-.694.183 1.387 1.387 0 0 0-.811 1.008z" transform="translate(-159.41 638.906)" style="fill:#c2d1fb;fill-rule:evenodd"/>
        <path data-name="Path 9396" d="M310.052-317.106a15.208 15.208 0 0 1-4.384 3.625 5.994 5.994 0 0 1-5.366-3.835c-1.845-4.816 3.691-6.806.079-14.3l9.7 11.779a2.068 2.068 0 0 1 0 2.7" transform="translate(-156.624 651.718)" style="fill:#97b6e1;fill-rule:evenodd"/>
        <path data-name="Path 9397" d="M324.833-343.037 295.49-338.8a6.112 6.112 0 0 1 3.01-3.926 6.111 6.111 0 0 1 4.947-.432 21.163 21.163 0 0 0 16.4-1.819 21.2 21.2 0 0 0 10.13-13.009 8.952 8.952 0 0 1 4.816-5.588 8.991 8.991 0 0 1 10.1 1.741 9 9 0 0 1 1.885 10.078 17.577 17.577 0 0 1-21.948 8.743" transform="translate(-157.99 641.593)" style="fill:#97b6e1;fill-rule:evenodd"/>
        <path data-name="Path 9398" d="M338.638-339.426c-1.309 2.474 2.958 5.3 3.926 3.717a31.306 31.306 0 0 1 22.249-15.483c1.649-.314.825-4.882-1.008-4.738a31.96 31.96 0 0 0-25.168 16.5" transform="translate(-144.743 644.211)" style="fill:#fff;fill-rule:evenodd"/>
        <path data-name="Path 9406" d="M360.14-360.93a1.414 1.414 0 0 1 1.414 1.4 1.413 1.413 0 0 1-1.413 1.413 1.4 1.4 0 0 1-1-.415 1.4 1.4 0 0 1-.405-1 1.4 1.4 0 0 1 1.4-1.4" transform="translate(-138.46 642.668)" style="fill:#fff;fill-rule:evenodd"/>
        <path data-name="Path 9407" d="M363.948-356.55a1.008 1.008 0 0 1 .717.3 1.007 1.007 0 0 1 .29.721 1.008 1.008 0 0 1-1.008 1.008 1.021 1.021 0 0 1-1.008-1.008 1.021 1.021 0 0 1 1.008-1.021" transform="translate(-137.163 644.021)" style="fill:#fff;fill-rule:evenodd"/>
        <path data-name="Path 9408" d="M363.648-364a.8.8 0 0 1 .8.8.8.8 0 0 1-.8.8.8.8 0 0 1-.8-.8.8.8 0 0 1 .8-.8" transform="translate(-137.191 641.72)" style="fill:#fff;fill-rule:evenodd"/>
        <path data-name="Path 9409" d="M346.4-364.18a.654.654 0 0 1 .654.654.654.654 0 0 1-.187.471.655.655 0 0 1-.467.2.655.655 0 0 1-.468-.2.654.654 0 0 1-.187-.471.654.654 0 0 1 .654-.654" transform="translate(-142.471 641.665)" style="fill:#fff;fill-rule:evenodd"/>
        <path data-name="Path 9410" d="M354.3-366.38a.6.6 0 0 1 .6.6.6.6 0 0 1-.172.434.6.6 0 0 1-.43.181.6.6 0 0 1-.43-.181.6.6 0 0 1-.172-.434.6.6 0 0 1 .6-.6" transform="translate(-140.017 640.985)" style="fill:#fff;fill-rule:evenodd"/>
        <path data-name="Path 9411" d="M370.2-343.54a.615.615 0 0 1 .6.615.615.615 0 0 1-.6.6.615.615 0 0 1-.615-.6.615.615 0 0 1 .615-.615" transform="translate(-135.113 648.038)" style="fill:#fff;fill-rule:evenodd"/>
        <path data-name="Path 9412" d="M358.888-373.36a1.008 1.008 0 0 1 .721.291 1.008 1.008 0 0 1 .3.717 1.021 1.021 0 0 1-1.021 1.021 1.008 1.008 0 0 1-.717-.3 1.008 1.008 0 0 1-.29-.721 1 1 0 0 1 .291-.717 1 1 0 0 1 .716-.291" transform="translate(-138.726 638.83)" style="fill:#fff;fill-rule:evenodd"/>
        <path data-name="Path 9413" d="M354.411-376.07a.851.851 0 0 1 .838.851.851.851 0 0 1-.838.851.851.851 0 0 1-.851-.851.851.851 0 0 1 .851-.851" transform="translate(-140.06 637.993)" style="fill:#fff;fill-rule:evenodd"/>
        <path data-name="Path 9414" d="M344.55-376.68a.72.72 0 0 1 .72.72.733.733 0 0 1-.72.733.72.72 0 0 1-.514-.215.72.72 0 0 1-.206-.518.72.72 0 0 1 .72-.72" transform="translate(-143.064 637.805)" style="fill:#fff;fill-rule:evenodd"/>
        <path data-name="Path 9415" d="M348.849-390.13a.6.6 0 0 1 .6.589.615.615 0 0 1-.6.6.6.6 0 0 1-.589-.6.589.589 0 0 1 .589-.589" transform="translate(-141.696 633.652)" style="fill:#fff;fill-rule:evenodd"/>
        <path data-name="Path 9416" d="M323.531-388.71a.851.851 0 0 1 .851.851.851.851 0 0 1-.851.838.851.851 0 0 1-.851-.838.851.851 0 0 1 .851-.851" transform="translate(-149.595 634.09)" style="fill:#fff;fill-rule:evenodd"/>
        <path data-name="Path 9417" d="M366.84-389.62a.72.72 0 0 1 .517.206.72.72 0 0 1 .215.514.733.733 0 0 1-.733.72.72.72 0 0 1-.72-.72.72.72 0 0 1 .72-.72" transform="translate(-136.181 633.809)" style="fill:#fff;fill-rule:evenodd"/>
        <path data-name="Path 9418" d="M371.8-399.55a.615.615 0 0 1 .615.615.615.615 0 0 1-.615.615.615.615 0 0 1-.615-.615.615.615 0 0 1 .615-.615" transform="translate(-134.619 630.743)" style="fill:#fff;fill-rule:evenodd"/>
    </g>
</svg>
