<svg width="221" height="199" viewBox="0 0 221 199" fill="none" xmlns="http://www.w3.org/2000/svg">
<g filter="url(#filter0_d_142_8139)">
<rect x="16" y="25" width="189" height="154" rx="25" fill="#4F008D"/>
</g>
<path d="M81 25H52.6364L16 72.9091V110L81 25Z" fill="#FABD13"/>
<path d="M30.6669 79.4866L29.098 78.1332L30.2809 76.588L31.8498 77.9413L30.6669 79.4866ZM32.5253 77.0589L30.9564 75.7055L32.1393 74.1603L33.7082 75.5137L32.5253 77.0589ZM34.3837 74.6313L32.8148 73.2779L33.9976 71.7327L35.5666 73.0861L34.3837 74.6313ZM37.6973 70.3027L36.4676 69.2419L37.4377 67.9746L38.6674 69.0354L37.6973 70.3027ZM36.5654 71.7812L29.0707 65.316L30.2025 63.8375L37.6973 70.3027L36.5654 71.7812ZM38.6674 69.0354L37.4377 67.9746C37.4717 67.9302 37.5114 67.909 37.5567 67.9111C37.6077 67.9059 37.6671 67.9202 37.735 67.9542C37.8085 67.9807 37.887 68.0238 37.9704 68.0835C38.0468 68.137 38.1309 68.2034 38.2228 68.2827C38.3146 68.3619 38.3966 68.4388 38.4687 68.5133C38.5407 68.5877 38.5965 68.6605 38.636 68.7315C38.6742 68.789 38.696 68.8447 38.7016 68.8988C38.7128 68.9454 38.7014 68.9909 38.6674 69.0354ZM40.4979 66.6441L39.2682 65.5834L40.1618 64.4161L41.3915 65.4769L40.4979 66.6441ZM38.4641 69.301C38.43 69.3455 38.3904 69.3666 38.3451 69.3645C38.2941 69.3698 38.2382 69.3585 38.1774 69.3306C38.1038 69.3041 38.0254 69.261 37.9419 69.2013C37.8585 69.1417 37.7709 69.0722 37.679 68.993C37.5518 68.8832 37.4515 68.7844 37.378 68.6964C37.2975 68.6023 37.2467 68.5154 37.2256 68.4357C37.1917 68.3573 37.1946 68.2921 37.2344 68.2403L38.4641 69.301ZM38.4641 69.301L37.2344 68.2403L38.7917 66.2059L38.817 67.6674L34.036 63.5432L35.1763 62.0536L40.4979 66.6441L38.4641 69.301ZM41.3915 65.4769L40.1618 64.4161C40.1958 64.3716 40.2383 64.3468 40.2893 64.3415C40.3402 64.3363 40.3997 64.3506 40.4676 64.3846C40.5354 64.4185 40.6111 64.4653 40.6945 64.525C40.7708 64.5785 40.855 64.6449 40.9468 64.7242C41.0387 64.8034 41.1207 64.8803 41.1927 64.9548C41.2648 65.0292 41.3234 65.0983 41.3686 65.1618C41.4067 65.2193 41.4286 65.2751 41.4342 65.3291C41.4397 65.3832 41.4255 65.4324 41.3915 65.4769ZM41.6156 70.0816L40.4071 69.0391L41.5474 67.5494L42.7559 68.5919L41.6156 70.0816ZM41.1867 65.7443L39.957 64.6836L41.9739 62.0489L41.9992 63.5104L37.2182 59.3862L38.35 57.9077L43.6716 62.4983L41.1867 65.7443ZM41.1867 65.7443C41.1527 65.7888 41.113 65.81 41.0677 65.8078C41.0168 65.8131 40.9609 65.8018 40.9001 65.7739C40.8265 65.7474 40.748 65.7043 40.6646 65.6446C40.5812 65.585 40.4936 65.5155 40.4017 65.4363C40.2745 65.3266 40.1741 65.2277 40.1007 65.1397C40.0202 65.0457 39.9693 64.9587 39.9482 64.879C39.9144 64.8006 39.9173 64.7355 39.957 64.6836L41.1867 65.7443ZM43.7511 67.2919L42.5426 66.2495L43.6404 64.8154L44.8488 65.8579L43.7511 67.2919ZM45.2999 65.2687L44.0914 64.2262L45.1892 62.7922L46.3977 63.8346L45.2999 65.2687ZM46.615 58.6533L45.3853 57.5925L46.4831 56.1584L47.7128 57.2192L46.615 58.6533ZM47.5931 63.0777C47.5194 63.1741 47.4364 63.2748 47.3442 63.3799C47.2521 63.4849 47.1535 63.5907 47.0486 63.697L45.8827 62.599C45.9805 62.4865 46.0727 62.3814 46.1592 62.2838C46.2513 62.1787 46.3173 62.1002 46.357 62.0483C46.5783 61.7593 46.6446 61.4351 46.556 61.0756C46.4731 60.7088 46.2337 60.3547 45.838 60.0133L40.3573 55.2855L41.4977 53.7959L46.9783 58.5236C47.4589 58.9382 47.807 59.4108 48.0227 59.9414C48.2441 60.4646 48.3183 60.9962 48.2452 61.5361C48.1792 62.0821 47.9619 62.596 47.5931 63.0777ZM47.7128 57.2192L46.4831 56.1584C46.5172 56.114 46.5568 56.0928 46.6021 56.095C46.6531 56.0897 46.7125 56.104 46.7804 56.138C46.8539 56.1645 46.9324 56.2076 47.0158 56.2673C47.0922 56.3208 47.1763 56.3872 47.2682 56.4665C47.36 56.5457 47.442 56.6226 47.5141 56.6971C47.5861 56.7715 47.6419 56.8443 47.6815 56.9153C47.7196 56.9728 47.7414 57.0285 47.747 57.0826C47.7583 57.1292 47.7469 57.1747 47.7128 57.2192ZM47.513 57.4802L46.2833 56.4195L50.2574 51.228L50.2796 52.0038L46.7389 48.9495L47.3356 48.8368L46.2634 50.2375C46.0138 50.5636 45.8569 50.8528 45.7928 51.1051C45.7287 51.3574 45.7743 51.6121 45.9296 51.8691C46.0778 52.12 46.3427 52.4101 46.7244 52.7393C47.1413 53.099 47.4807 53.3301 47.7423 53.4328C47.997 53.5294 48.2305 53.5156 48.443 53.3912C48.6485 53.2608 48.876 53.0326 49.1256 52.7065L50.2281 53.6575C49.7459 54.2875 49.2639 54.7331 48.7823 54.9944C48.3006 55.2557 47.7995 55.3279 47.2788 55.211C46.7567 55.0806 46.1918 54.7532 45.584 54.2289C45.0045 53.729 44.5906 53.212 44.3424 52.6779C44.0998 52.1364 44.0356 51.5765 44.1497 50.9982C44.2568 50.4138 44.5515 49.8066 45.0337 49.1767L46.9569 46.6643L52.2786 51.2549L47.513 57.4802ZM47.513 57.4802C47.479 57.5247 47.4393 57.5459 47.394 57.5437C47.343 57.549 47.2871 57.5377 47.2263 57.5098C47.1528 57.4833 47.0743 57.4402 46.9909 57.3805C46.9075 57.3209 46.8198 57.2514 46.7279 57.1722C46.6007 57.0624 46.5004 56.9636 46.4269 56.8756C46.3464 56.7815 46.2956 56.6946 46.2745 56.6149C46.2406 56.5365 46.2436 56.4713 46.2833 56.4195L47.513 57.4802ZM42.8585 49.9029L41.65 48.8604L42.7478 47.4263L43.9563 48.4688L42.8585 49.9029ZM44.4073 47.8796L43.1988 46.8371L44.2966 45.4031L45.5051 46.4456L44.4073 47.8796Z" fill="white"/>
<path d="M72.9341 111.968C72.2407 111.968 71.5954 111.867 70.9981 111.664C70.4114 111.472 69.8994 111.2 69.4621 110.848C69.0247 110.507 68.6781 110.096 68.4221 109.616C68.1767 109.147 68.0541 108.635 68.0541 108.08C68.0541 107.877 68.0701 107.616 68.1021 107.296C68.1341 106.976 68.1767 106.608 68.2301 106.192C68.2941 105.776 68.3634 105.333 68.4381 104.864L70.5501 105.152C70.4434 105.824 70.3581 106.421 70.2941 106.944C70.2301 107.467 70.1981 107.835 70.1981 108.048C70.1981 108.453 70.3101 108.811 70.5341 109.12C70.7581 109.429 71.0727 109.669 71.4781 109.84C71.8941 110.021 72.3794 110.112 72.9341 110.112H77.4621C78.1554 110.112 78.6727 109.936 79.0141 109.584C79.3554 109.243 79.5261 108.72 79.5261 108.016C79.5261 107.664 79.4674 107.392 79.3501 107.2C79.2327 106.997 79.0247 106.827 78.7261 106.688C78.4274 106.539 77.9954 106.379 77.4301 106.208C76.7901 106.005 76.2301 105.813 75.7501 105.632C75.2701 105.451 74.8754 105.253 74.5661 105.04C74.2567 104.816 74.0221 104.549 73.8621 104.24C73.7127 103.931 73.6381 103.541 73.6381 103.072C73.6381 102.368 73.7927 101.792 74.1021 101.344C74.4114 100.885 74.8541 100.544 75.4301 100.32C76.0061 100.085 76.6887 99.968 77.4781 99.968C77.8407 99.968 78.2727 99.9947 78.7741 100.048C79.2754 100.101 79.9421 100.187 80.7741 100.304L80.5341 102.08C79.7661 101.995 79.1367 101.931 78.6461 101.888C78.1554 101.845 77.7394 101.824 77.3981 101.824C77.0034 101.824 76.6834 101.867 76.4381 101.952C76.2034 102.027 76.0327 102.149 75.9261 102.32C75.8194 102.48 75.7661 102.693 75.7661 102.96C75.7661 103.184 75.8194 103.371 75.9261 103.52C76.0434 103.659 76.2087 103.781 76.4221 103.888C76.6354 103.995 76.8807 104.091 77.1581 104.176C77.4354 104.251 77.7394 104.341 78.0701 104.448C78.6567 104.619 79.1687 104.811 79.6061 105.024C80.0541 105.227 80.4274 105.461 80.7261 105.728C81.0354 105.995 81.2647 106.32 81.4141 106.704C81.5741 107.077 81.6541 107.525 81.6541 108.048C81.6541 108.816 81.4834 109.493 81.1421 110.08C80.8007 110.667 80.3154 111.125 79.6861 111.456C79.0674 111.797 78.3261 111.968 77.4621 111.968H72.9341ZM86.3292 108V106.144H88.3932V108H86.3292ZM83.2252 111.968C83.0865 111.968 82.9372 111.963 82.7772 111.952C82.6172 111.941 82.4519 111.925 82.2812 111.904L82.3612 110.08C82.5319 110.091 82.6919 110.101 82.8412 110.112C83.0012 110.123 83.1185 110.128 83.1932 110.128C83.6092 110.128 83.9399 109.963 84.1852 109.632C84.4412 109.301 84.5692 108.837 84.5692 108.24V99.968H86.7132V108.24C86.7132 108.965 86.5639 109.611 86.2652 110.176C85.9772 110.741 85.5719 111.179 85.0492 111.488C84.5265 111.808 83.9185 111.968 83.2252 111.968ZM88.3932 108V106.144C88.4572 106.144 88.5052 106.165 88.5372 106.208C88.5799 106.251 88.6119 106.315 88.6332 106.4C88.6652 106.485 88.6865 106.587 88.6972 106.704C88.7079 106.811 88.7132 106.933 88.7132 107.072C88.7132 107.211 88.7079 107.339 88.6972 107.456C88.6865 107.573 88.6652 107.675 88.6332 107.76C88.6119 107.835 88.5799 107.893 88.5372 107.936C88.5052 107.979 88.4572 108 88.3932 108ZM88.3984 108V106.144H95.2784L94.5584 106.736V103.776C94.5584 103.136 94.3558 102.651 93.9504 102.32C93.5558 101.989 92.9264 101.824 92.0624 101.824C91.8171 101.824 91.4811 101.845 91.0544 101.888C90.6278 101.92 90.1638 101.973 89.6624 102.048L89.4544 100.352C89.9131 100.245 90.3771 100.155 90.8464 100.08C91.3264 100.005 91.7958 99.968 92.2544 99.968C93.1291 99.968 93.8971 100.123 94.5584 100.432C95.2198 100.731 95.7371 101.163 96.1104 101.728C96.4944 102.293 96.6864 102.976 96.6864 103.776V108H88.3984ZM88.3984 108C88.3344 108 88.2864 107.979 88.2544 107.936C88.2118 107.893 88.1798 107.835 88.1584 107.76C88.1264 107.675 88.1051 107.573 88.0944 107.456C88.0838 107.339 88.0784 107.211 88.0784 107.072C88.0784 106.88 88.0891 106.72 88.1104 106.592C88.1318 106.453 88.1691 106.347 88.2224 106.272C88.2651 106.187 88.3238 106.144 88.3984 106.144V108ZM91.1664 98.704V96.88H93.3104V98.704H91.1664ZM99.0884 108V96.688H101.216V108H99.0884ZM112.052 108C110.911 108 109.946 107.851 109.156 107.552C108.378 107.253 107.786 106.811 107.38 106.224C106.986 105.637 106.788 104.907 106.788 104.032C106.788 103.776 106.804 103.509 106.836 103.232C106.868 102.944 106.906 102.672 106.948 102.416C107.002 102.149 107.05 101.915 107.092 101.712C107.135 101.509 107.167 101.36 107.188 101.264L109.268 101.664C109.236 101.835 109.194 102.053 109.14 102.32C109.087 102.587 109.039 102.869 108.996 103.168C108.954 103.456 108.932 103.733 108.932 104C108.932 104.416 108.996 104.763 109.124 105.04C109.263 105.317 109.466 105.541 109.732 105.712C109.999 105.872 110.335 105.984 110.74 106.048C111.146 106.112 111.62 106.144 112.164 106.144H116.436V99.968H118.58V108H112.052ZM110.212 99.632V97.808H112.276V99.632H110.212ZM113.124 99.632V97.808H115.188V99.632H113.124ZM123.123 108V106.144H124.947V108H123.123ZM120.995 108V96.688H123.123V108H120.995ZM124.947 108V106.144C125.011 106.144 125.059 106.165 125.091 106.208C125.133 106.251 125.165 106.315 125.187 106.4C125.219 106.485 125.24 106.587 125.251 106.704C125.261 106.811 125.267 106.933 125.267 107.072C125.267 107.211 125.261 107.339 125.251 107.456C125.24 107.573 125.219 107.675 125.187 107.76C125.165 107.835 125.133 107.893 125.091 107.936C125.059 107.979 125.011 108 124.947 108ZM124.945 108V106.144H133.249L132.273 106.976V104.032C132.273 103.456 132.209 103.008 132.081 102.688C131.953 102.357 131.729 102.128 131.409 102C131.1 101.861 130.668 101.792 130.113 101.792C129.676 101.792 129.244 101.824 128.817 101.888C128.401 101.941 128.076 102.016 127.841 102.112L129.169 100.864C129.105 101.109 129.041 101.419 128.977 101.792C128.924 102.165 128.876 102.565 128.833 102.992C128.791 103.408 128.769 103.819 128.769 104.224C128.769 104.597 128.785 104.987 128.817 105.392C128.86 105.797 128.903 106.155 128.945 106.464C128.999 106.773 129.041 106.987 129.073 107.104L127.041 107.664C126.999 107.515 126.945 107.269 126.881 106.928C126.817 106.587 126.759 106.181 126.705 105.712C126.663 105.243 126.641 104.747 126.641 104.224C126.641 103.691 126.668 103.179 126.721 102.688C126.775 102.187 126.833 101.739 126.897 101.344C126.972 100.939 127.041 100.613 127.105 100.368C127.361 100.272 127.761 100.176 128.305 100.08C128.849 99.984 129.452 99.936 130.113 99.936C131.073 99.936 131.868 100.069 132.497 100.336C133.137 100.603 133.612 101.035 133.921 101.632C134.241 102.229 134.401 103.035 134.401 104.048V108H124.945ZM124.945 108C124.881 108 124.833 107.979 124.801 107.936C124.759 107.893 124.727 107.835 124.705 107.76C124.673 107.675 124.652 107.573 124.641 107.456C124.631 107.339 124.625 107.211 124.625 107.072C124.625 106.88 124.636 106.72 124.657 106.592C124.679 106.453 124.716 106.347 124.769 106.272C124.812 106.187 124.871 106.144 124.945 106.144V108ZM142.659 108V106.144H144.339V108H142.659ZM136.163 108V106.144H141.971L140.515 107.408V104.72C140.515 103.963 140.435 103.376 140.275 102.96C140.126 102.544 139.87 102.251 139.507 102.08C139.155 101.909 138.67 101.824 138.051 101.824H136.755V99.968H138.051C139.033 99.968 139.865 100.128 140.547 100.448C141.241 100.768 141.763 101.28 142.115 101.984C142.478 102.677 142.659 103.589 142.659 104.72V108H136.163ZM144.339 108V106.144C144.403 106.144 144.457 106.165 144.499 106.208C144.542 106.251 144.574 106.315 144.595 106.4C144.617 106.485 144.633 106.587 144.643 106.704C144.654 106.811 144.659 106.933 144.659 107.072C144.659 107.211 144.654 107.339 144.643 107.456C144.633 107.573 144.617 107.675 144.595 107.76C144.574 107.835 144.542 107.893 144.499 107.936C144.457 107.979 144.403 108 144.339 108ZM144.336 108V106.144H151.216L150.496 106.736V103.776C150.496 103.136 150.293 102.651 149.888 102.32C149.493 101.989 148.864 101.824 148 101.824C147.755 101.824 147.419 101.845 146.992 101.888C146.565 101.92 146.101 101.973 145.6 102.048L145.392 100.352C145.851 100.245 146.315 100.155 146.784 100.08C147.264 100.005 147.733 99.968 148.192 99.968C149.067 99.968 149.835 100.123 150.496 100.432C151.157 100.731 151.675 101.163 152.048 101.728C152.432 102.293 152.624 102.976 152.624 103.776V108H144.336ZM144.336 108C144.272 108 144.224 107.979 144.192 107.936C144.149 107.893 144.117 107.835 144.096 107.76C144.064 107.675 144.043 107.573 144.032 107.456C144.021 107.339 144.016 107.211 144.016 107.072C144.016 106.88 144.027 106.72 144.048 106.592C144.069 106.453 144.107 106.347 144.16 106.272C144.203 106.187 144.261 106.144 144.336 106.144V108ZM147.104 98.704V96.88H149.248V98.704H147.104Z" fill="white"/>
<path d="M125.473 176C125.473 184.27 118.665 191 110.237 191C101.808 191 95 184.27 95 176C95 167.73 101.808 161 110.237 161C118.665 161 125.473 167.73 125.473 176Z" fill="#4F008D" stroke="white" stroke-width="2"/>
<path fill-rule="evenodd" clip-rule="evenodd" d="M109.411 182.036C109.054 182.388 108.476 182.388 108.12 182.036L102.64 176.636C102.283 176.285 102.283 175.715 102.64 175.363L108.12 169.963C108.476 169.612 109.054 169.612 109.411 169.963C109.768 170.315 109.768 170.885 109.411 171.236L105.49 175.1L116.072 175.1C116.576 175.1 116.985 175.503 116.985 176C116.985 176.497 116.576 176.9 116.072 176.9H105.49L109.411 180.763C109.768 181.115 109.768 181.685 109.411 182.036Z" fill="white"/>
<path d="M137.857 29C137.857 43.8841 125.605 56 110.429 56C95.2525 56 83 43.8841 83 29C83 14.1159 95.2525 2 110.429 2C125.605 2 137.857 14.1159 137.857 29Z" fill="#4F008D" stroke="white" stroke-width="4"/>
<path d="M103.12 17C99.2966 17 98.1201 18.1765 98.1201 22C98.1201 25.8235 99.2966 27 103.12 27C106.944 27 108.12 25.8235 108.12 22C108.12 18.1765 106.944 17 103.12 17Z" stroke="white" stroke-width="2" stroke-linecap="round" stroke-linejoin="round"/>
<path d="M103.12 31C99.2966 31 98.1201 32.1765 98.1201 36C98.1201 39.8235 99.2966 41 103.12 41C106.944 41 108.12 39.8235 108.12 36C108.12 32.1765 106.944 31 103.12 31Z" stroke="white" stroke-width="2" stroke-linecap="round" stroke-linejoin="round"/>
<path d="M117.12 31C113.297 31 112.12 32.1765 112.12 36C112.12 39.8235 113.297 41 117.12 41C120.944 41 122.12 39.8235 122.12 36C122.12 32.1765 120.944 31 117.12 31Z" stroke="white" stroke-width="2" stroke-linecap="round" stroke-linejoin="round"/>
<path d="M117.12 17C113.297 17 112.12 18.1765 112.12 22C112.12 25.8235 113.297 27 117.12 27C120.944 27 122.12 25.8235 122.12 22C122.12 18.1765 120.944 17 117.12 17Z" stroke="white" stroke-width="2" stroke-linecap="round" stroke-linejoin="round"/>
<defs>
<filter id="filter0_d_142_8139" x="0" y="13" width="221" height="186" filterUnits="userSpaceOnUse" color-interpolation-filters="sRGB">
<feFlood flood-opacity="0" result="BackgroundImageFix"/>
<feColorMatrix in="SourceAlpha" type="matrix" values="0 0 0 0 0 0 0 0 0 0 0 0 0 0 0 0 0 0 127 0" result="hardAlpha"/>
<feOffset dy="4"/>
<feGaussianBlur stdDeviation="8"/>
<feComposite in2="hardAlpha" operator="out"/>
<feColorMatrix type="matrix" values="0 0 0 0 0 0 0 0 0 0 0 0 0 0 0 0 0 0 0.08 0"/>
<feBlend mode="normal" in2="BackgroundImageFix" result="effect1_dropShadow_142_8139"/>
<feBlend mode="normal" in="SourceGraphic" in2="effect1_dropShadow_142_8139" result="shape"/>
</filter>
</defs>
</svg>
