<svg width="221" height="199" viewBox="0 0 221 199" fill="none" xmlns="http://www.w3.org/2000/svg">
<g filter="url(#filter0_d_1926_4212)">
<rect x="16" y="25" width="189" height="154" rx="25" fill="#4F008D"/>
</g>
<path d="M81 25H52.6364L16 72.9091V110L81 25Z" fill="#FABD13"/>
<path d="M33.3357 76.2531C33.1485 76.4976 32.9329 76.7485 32.6891 77.0058C32.458 77.2617 32.2311 77.4967 32.0086 77.7108C31.7917 77.9175 31.6003 78.0908 31.4345 78.2308L30.4191 77.281C30.5878 77.1066 30.777 76.913 30.9869 76.7002C31.2023 76.48 31.4086 76.2642 31.6057 76.0528C31.8014 75.8278 31.9559 75.6412 32.0694 75.493C32.2396 75.2707 32.3609 75.0738 32.4334 74.9025C32.5115 74.7238 32.5401 74.5639 32.5191 74.4227C32.491 74.2755 32.3992 74.1348 32.2438 74.0006C32.1236 73.897 32.0062 73.8511 31.8915 73.8629C31.7825 73.8674 31.6388 73.9402 31.4602 74.0815C31.2803 74.2093 31.0379 74.4186 30.7331 74.7094C30.3589 75.0757 30.0138 75.3502 29.6979 75.5329C29.3876 75.7083 29.0818 75.7706 28.7804 75.7198C28.472 75.6629 28.1375 75.479 27.7771 75.168C27.3389 74.7901 27.0727 74.3944 26.9786 73.9809C26.8844 73.5674 26.9155 73.1512 27.0718 72.7324C27.2211 72.3074 27.4461 71.8986 27.7468 71.5058C27.9454 71.2464 28.1637 70.9918 28.4019 70.742C28.633 70.486 28.8599 70.251 29.0824 70.037C29.305 69.8229 29.4963 69.6495 29.6565 69.517L30.6931 70.485C30.523 70.6459 30.3338 70.8395 30.1253 71.0658C29.9099 71.286 29.7014 71.5123 29.5001 71.7446C29.3044 71.9696 29.1442 72.1636 29.0193 72.3266C28.8889 72.4971 28.7902 72.6643 28.7234 72.8282C28.6496 72.9859 28.6196 73.1324 28.6336 73.2674C28.6532 73.3951 28.7337 73.5199 28.875 73.6418C28.974 73.7272 29.0779 73.7676 29.1869 73.7632C29.2959 73.7588 29.4375 73.6964 29.6118 73.576C29.7847 73.4422 30.0143 73.2342 30.3007 72.9521C30.716 72.5474 31.0852 72.2568 31.4082 72.0801C31.7312 71.9035 32.0441 71.8473 32.3469 71.9116C32.6553 71.9685 32.9898 72.1524 33.3502 72.4633C33.7742 72.8291 34.0454 73.2107 34.1636 73.608C34.2819 74.0053 34.2671 74.4232 34.1192 74.8617C33.9713 75.3001 33.7101 75.7639 33.3357 76.2531ZM37.4698 70.8526C36.9876 71.4825 36.5 71.9048 36.0071 72.1195C35.5199 72.3268 35.0061 72.3389 34.4657 72.1557C33.9183 71.9665 33.3159 71.5884 32.6587 71.0214C32.0226 70.4728 31.5748 69.9388 31.3152 69.4195C31.0485 68.8942 30.9673 68.3565 31.0715 67.8065C31.1686 67.2504 31.4498 66.6685 31.915 66.0608C32.3859 65.4457 32.8649 65.0345 33.3521 64.8272C33.838 64.6065 34.3504 64.5809 34.8894 64.7505C35.427 64.9066 36.0138 65.259 36.6498 65.8077C37.3071 66.3747 37.7789 66.9232 38.0654 67.4534C38.3448 67.9774 38.436 68.5175 38.3388 69.0735C38.2474 69.6222 37.9577 70.2152 37.4698 70.8526ZM36.3037 69.8467C36.542 69.5354 36.6677 69.2562 36.6808 69.0092C36.6869 68.756 36.5896 68.4998 36.3891 68.2407C36.1871 67.968 35.8882 67.661 35.4925 67.3196C35.1038 66.9843 34.7708 66.7524 34.4936 66.624C34.2093 66.4896 33.9582 66.4575 33.7401 66.5278C33.522 66.598 33.3023 66.7777 33.0811 67.0667C32.8655 67.3484 32.7448 67.6134 32.7189 67.8618C32.6987 68.1027 32.7797 68.3572 32.9618 68.6251C33.1369 68.8868 33.4188 69.1854 33.8075 69.5207C34.2033 69.8621 34.5447 70.1135 34.8317 70.275C35.1174 70.423 35.3764 70.4679 35.6086 70.4099C35.8337 70.3457 36.0654 70.1579 36.3037 69.8467ZM41.8795 65.0921C41.3973 65.722 40.9097 66.1444 40.4168 66.359C39.9296 66.5663 39.4158 66.5784 38.8754 66.3952C38.328 66.206 37.7256 65.8279 37.0684 65.261C36.4323 64.7123 35.9845 64.1783 35.7249 63.659C35.4582 63.1337 35.377 62.596 35.4812 62.046C35.5783 61.49 35.8595 60.9081 36.3247 60.3004C36.7956 59.6852 37.2746 59.274 37.7618 59.0668C38.2477 58.846 38.7601 58.8204 39.2991 58.99C39.8367 59.1462 40.4235 59.4985 41.0595 60.0472C41.7168 60.6142 42.1886 61.1627 42.4751 61.6929C42.7545 62.2169 42.8457 62.757 42.7485 63.3131C42.6571 63.8617 42.3674 64.4547 41.8795 65.0921ZM40.7134 64.0862C40.9517 63.7749 41.0774 63.4958 41.0905 63.2487C41.0966 62.9955 40.9993 62.7393 40.7988 62.4802C40.5968 62.2075 40.2979 61.9005 39.9022 61.5591C39.5135 61.2238 39.1805 60.992 38.9033 60.8636C38.619 60.7291 38.3679 60.697 38.1498 60.7673C37.9317 60.8376 37.712 61.0172 37.4908 61.3063C37.2752 61.5879 37.1545 61.8529 37.1286 62.1013C37.1084 62.3423 37.1894 62.5967 37.3715 62.8646C37.5466 63.1264 37.8285 63.4249 38.2172 63.7602C38.613 64.1016 38.9544 64.353 39.2415 64.5145C39.5271 64.6625 39.7861 64.7075 40.0183 64.6494C40.2434 64.5852 40.4751 64.3975 40.7134 64.0862ZM44.3345 61.6322L39.0128 57.0417L40.1447 55.5632L40.4839 55.8558C40.504 55.6762 40.5475 55.4738 40.6144 55.2485C40.6742 55.0171 40.7503 54.7874 40.8426 54.5594C40.9407 54.3241 41.0578 54.1174 41.1939 53.9396C41.4889 53.5542 41.7824 53.2782 42.0742 53.1116C42.3646 52.9314 42.6726 52.8587 42.9981 52.8934C43.3236 52.928 43.685 53.0614 44.0823 53.2934C44.4726 53.5193 44.9116 53.8426 45.3992 54.2633L48.1554 56.6408L47.0151 58.1305L44.3331 55.8169C43.9656 55.4999 43.6553 55.2691 43.4022 55.1246C43.142 54.974 42.9142 54.919 42.7188 54.9596C42.5234 55.0003 42.3321 55.1429 42.1449 55.3875C42.0428 55.5209 41.9491 55.6739 41.8639 55.8465C41.7773 56.0056 41.7042 56.1701 41.6444 56.3401C41.5904 56.5027 41.5534 56.643 41.5334 56.7611L45.4663 60.1537L44.3345 61.6322ZM48.81 55.7857L47.2411 54.4323L48.424 52.8871L49.9929 54.2405L48.81 55.7857ZM50.6684 53.358L49.0995 52.0047L50.2824 50.4594L51.8513 51.8128L50.6684 53.358ZM52.5268 50.9304L50.9579 49.577L52.1408 48.0318L53.7097 49.3852L52.5268 50.9304Z" fill="white"/>
<path d="M57.4134 108.112C56.3574 108.112 55.3867 107.867 54.5014 107.376C53.6267 106.885 52.928 106.203 52.4054 105.328C51.8934 104.443 51.6374 103.451 51.6374 102.352C51.6374 101.253 51.8934 100.267 52.4054 99.392C52.928 98.5173 53.6267 97.8347 54.5014 97.344C55.3867 96.8533 56.3574 96.608 57.4134 96.608C58.4694 96.608 59.4347 96.8533 60.3094 97.344C61.1947 97.8347 61.888 98.5173 62.3894 99.392C62.9014 100.267 63.1574 101.253 63.1574 102.352C63.1574 103.451 62.9014 104.443 62.3894 105.328C61.8774 106.203 61.184 106.885 60.3094 107.376C59.4347 107.867 58.4694 108.112 57.4134 108.112ZM57.4134 105.616C58.3094 105.616 59.024 105.317 59.5574 104.72C60.1014 104.123 60.3734 103.333 60.3734 102.352C60.3734 101.36 60.1014 100.571 59.5574 99.984C59.024 99.3867 58.3094 99.088 57.4134 99.088C56.5067 99.088 55.7814 99.3813 55.2374 99.968C54.704 100.555 54.4374 101.349 54.4374 102.352C54.4374 103.344 54.704 104.139 55.2374 104.736C55.7814 105.323 56.5067 105.616 57.4134 105.616ZM69.6555 105.68V108H68.2635C67.2715 108 66.4982 107.76 65.9435 107.28C65.3888 106.789 65.1115 105.995 65.1115 104.896V101.344H64.0235V99.072H65.1115V96.896H67.8475V99.072H69.6395V101.344H67.8475V104.928C67.8475 105.195 67.9115 105.387 68.0395 105.504C68.1675 105.621 68.3808 105.68 68.6795 105.68H69.6555ZM76.6675 98.976C77.6915 98.976 78.5128 99.3173 79.1315 100C79.7502 100.672 80.0595 101.6 80.0595 102.784V108H77.3395V103.152C77.3395 102.555 77.1848 102.091 76.8755 101.76C76.5662 101.429 76.1502 101.264 75.6275 101.264C75.1048 101.264 74.6888 101.429 74.3795 101.76C74.0702 102.091 73.9155 102.555 73.9155 103.152V108H71.1795V96.16H73.9155V100.272C74.1928 99.8773 74.5715 99.5627 75.0515 99.328C75.5315 99.0933 76.0702 98.976 76.6675 98.976ZM90.3767 103.392C90.3767 103.648 90.3608 103.915 90.3288 104.192H84.1368C84.1794 104.747 84.3554 105.173 84.6648 105.472C84.9848 105.76 85.3741 105.904 85.8328 105.904C86.5154 105.904 86.9901 105.616 87.2568 105.04H90.1688C90.0194 105.627 89.7474 106.155 89.3528 106.624C88.9688 107.093 88.4834 107.461 87.8968 107.728C87.3101 107.995 86.6541 108.128 85.9288 108.128C85.0541 108.128 84.2754 107.941 83.5928 107.568C82.9101 107.195 82.3768 106.661 81.9928 105.968C81.6088 105.275 81.4168 104.464 81.4168 103.536C81.4168 102.608 81.6034 101.797 81.9768 101.104C82.3608 100.411 82.8941 99.8773 83.5768 99.504C84.2594 99.1307 85.0434 98.944 85.9288 98.944C86.7928 98.944 87.5608 99.1253 88.2328 99.488C88.9048 99.8507 89.4274 100.368 89.8008 101.04C90.1848 101.712 90.3767 102.496 90.3767 103.392ZM87.5768 102.672C87.5768 102.203 87.4168 101.829 87.0968 101.552C86.7768 101.275 86.3768 101.136 85.8968 101.136C85.4381 101.136 85.0488 101.269 84.7288 101.536C84.4194 101.803 84.2274 102.181 84.1528 102.672H87.5768ZM94.5561 100.56C94.8761 100.069 95.2761 99.6853 95.7561 99.408C96.2361 99.12 96.7695 98.976 97.3561 98.976V101.872H96.6041C95.9215 101.872 95.4095 102.021 95.0681 102.32C94.7268 102.608 94.5561 103.12 94.5561 103.856V108H91.8201V99.072H94.5561V100.56ZM105.687 108.128C104.908 108.128 104.215 107.995 103.607 107.728C102.999 107.461 102.519 107.099 102.167 106.64C101.815 106.171 101.617 105.648 101.575 105.072H104.279C104.311 105.381 104.455 105.632 104.711 105.824C104.967 106.016 105.281 106.112 105.655 106.112C105.996 106.112 106.257 106.048 106.439 105.92C106.631 105.781 106.727 105.605 106.727 105.392C106.727 105.136 106.593 104.949 106.327 104.832C106.06 104.704 105.628 104.565 105.031 104.416C104.391 104.267 103.857 104.112 103.431 103.952C103.004 103.781 102.636 103.52 102.327 103.168C102.017 102.805 101.863 102.32 101.863 101.712C101.863 101.2 102.001 100.736 102.279 100.32C102.567 99.8933 102.983 99.5573 103.527 99.312C104.081 99.0667 104.737 98.944 105.495 98.944C106.615 98.944 107.495 99.2213 108.135 99.776C108.785 100.331 109.159 101.067 109.255 101.984H106.727C106.684 101.675 106.545 101.429 106.311 101.248C106.087 101.067 105.788 100.976 105.415 100.976C105.095 100.976 104.849 101.04 104.679 101.168C104.508 101.285 104.423 101.451 104.423 101.664C104.423 101.92 104.556 102.112 104.823 102.24C105.1 102.368 105.527 102.496 106.103 102.624C106.764 102.795 107.303 102.965 107.719 103.136C108.135 103.296 108.497 103.563 108.807 103.936C109.127 104.299 109.292 104.789 109.303 105.408C109.303 105.931 109.153 106.4 108.855 106.816C108.567 107.221 108.145 107.541 107.591 107.776C107.047 108.011 106.412 108.128 105.687 108.128ZM119.392 103.392C119.392 103.648 119.376 103.915 119.344 104.192H113.152C113.195 104.747 113.371 105.173 113.68 105.472C114 105.76 114.39 105.904 114.848 105.904C115.531 105.904 116.006 105.616 116.272 105.04H119.184C119.035 105.627 118.763 106.155 118.368 106.624C117.984 107.093 117.499 107.461 116.912 107.728C116.326 107.995 115.67 108.128 114.944 108.128C114.07 108.128 113.291 107.941 112.608 107.568C111.926 107.195 111.392 106.661 111.008 105.968C110.624 105.275 110.432 104.464 110.432 103.536C110.432 102.608 110.619 101.797 110.992 101.104C111.376 100.411 111.91 99.8773 112.592 99.504C113.275 99.1307 114.059 98.944 114.944 98.944C115.808 98.944 116.576 99.1253 117.248 99.488C117.92 99.8507 118.443 100.368 118.816 101.04C119.2 101.712 119.392 102.496 119.392 103.392ZM116.592 102.672C116.592 102.203 116.432 101.829 116.112 101.552C115.792 101.275 115.392 101.136 114.912 101.136C114.454 101.136 114.064 101.269 113.744 101.536C113.435 101.803 113.243 102.181 113.168 102.672H116.592ZM123.572 100.56C123.892 100.069 124.292 99.6853 124.772 99.408C125.252 99.12 125.785 98.976 126.372 98.976V101.872H125.62C124.937 101.872 124.425 102.021 124.084 102.32C123.742 102.608 123.572 103.12 123.572 103.856V108H120.836V99.072H123.572V100.56ZM131.696 105.44L133.632 99.072H136.544L133.376 108H130L126.832 99.072H129.76L131.696 105.44ZM139.071 98.144C138.591 98.144 138.196 98.0053 137.887 97.728C137.588 97.44 137.439 97.088 137.439 96.672C137.439 96.2453 137.588 95.8933 137.887 95.616C138.196 95.328 138.591 95.184 139.071 95.184C139.54 95.184 139.924 95.328 140.223 95.616C140.532 95.8933 140.687 96.2453 140.687 96.672C140.687 97.088 140.532 97.44 140.223 97.728C139.924 98.0053 139.54 98.144 139.071 98.144ZM140.431 99.072V108H137.695V99.072H140.431ZM141.87 103.536C141.87 102.608 142.057 101.797 142.43 101.104C142.814 100.411 143.342 99.8773 144.014 99.504C144.697 99.1307 145.475 98.944 146.35 98.944C147.47 98.944 148.403 99.2373 149.15 99.824C149.907 100.411 150.403 101.237 150.638 102.304H147.726C147.481 101.621 147.006 101.28 146.302 101.28C145.801 101.28 145.401 101.477 145.102 101.872C144.803 102.256 144.654 102.811 144.654 103.536C144.654 104.261 144.803 104.821 145.102 105.216C145.401 105.6 145.801 105.792 146.302 105.792C147.006 105.792 147.481 105.451 147.726 104.768H150.638C150.403 105.813 149.907 106.635 149.15 107.232C148.393 107.829 147.459 108.128 146.35 108.128C145.475 108.128 144.697 107.941 144.014 107.568C143.342 107.195 142.814 106.661 142.43 105.968C142.057 105.275 141.87 104.464 141.87 103.536ZM160.517 103.392C160.517 103.648 160.501 103.915 160.469 104.192H154.277C154.32 104.747 154.496 105.173 154.805 105.472C155.125 105.76 155.515 105.904 155.973 105.904C156.656 105.904 157.131 105.616 157.397 105.04H160.309C160.16 105.627 159.888 106.155 159.493 106.624C159.109 107.093 158.624 107.461 158.037 107.728C157.451 107.995 156.795 108.128 156.069 108.128C155.195 108.128 154.416 107.941 153.733 107.568C153.051 107.195 152.517 106.661 152.133 105.968C151.749 105.275 151.557 104.464 151.557 103.536C151.557 102.608 151.744 101.797 152.117 101.104C152.501 100.411 153.035 99.8773 153.717 99.504C154.4 99.1307 155.184 98.944 156.069 98.944C156.933 98.944 157.701 99.1253 158.373 99.488C159.045 99.8507 159.568 100.368 159.941 101.04C160.325 101.712 160.517 102.496 160.517 103.392ZM157.717 102.672C157.717 102.203 157.557 101.829 157.237 101.552C156.917 101.275 156.517 101.136 156.037 101.136C155.579 101.136 155.189 101.269 154.869 101.536C154.56 101.803 154.368 102.181 154.293 102.672H157.717ZM165.593 108.128C164.814 108.128 164.121 107.995 163.513 107.728C162.905 107.461 162.425 107.099 162.073 106.64C161.721 106.171 161.523 105.648 161.481 105.072H164.185C164.217 105.381 164.361 105.632 164.617 105.824C164.873 106.016 165.187 106.112 165.561 106.112C165.902 106.112 166.163 106.048 166.345 105.92C166.537 105.781 166.633 105.605 166.633 105.392C166.633 105.136 166.499 104.949 166.233 104.832C165.966 104.704 165.534 104.565 164.937 104.416C164.297 104.267 163.763 104.112 163.337 103.952C162.91 103.781 162.542 103.52 162.233 103.168C161.923 102.805 161.769 102.32 161.769 101.712C161.769 101.2 161.907 100.736 162.185 100.32C162.473 99.8933 162.889 99.5573 163.433 99.312C163.987 99.0667 164.643 98.944 165.401 98.944C166.521 98.944 167.401 99.2213 168.041 99.776C168.691 100.331 169.065 101.067 169.161 101.984H166.633C166.59 101.675 166.451 101.429 166.217 101.248C165.993 101.067 165.694 100.976 165.321 100.976C165.001 100.976 164.755 101.04 164.585 101.168C164.414 101.285 164.329 101.451 164.329 101.664C164.329 101.92 164.462 102.112 164.729 102.24C165.006 102.368 165.433 102.496 166.009 102.624C166.67 102.795 167.209 102.965 167.625 103.136C168.041 103.296 168.403 103.563 168.713 103.936C169.033 104.299 169.198 104.789 169.209 105.408C169.209 105.931 169.059 106.4 168.761 106.816C168.473 107.221 168.051 107.541 167.497 107.776C166.953 108.011 166.318 108.128 165.593 108.128Z" fill="white"/>
<path d="M125.473 176C125.473 184.27 118.665 191 110.237 191C101.808 191 95 184.27 95 176C95 167.73 101.808 161 110.237 161C118.665 161 125.473 167.73 125.473 176Z" fill="#4F008D" stroke="white" stroke-width="2"/>
<path fill-rule="evenodd" clip-rule="evenodd" d="M109.411 182.036C109.054 182.388 108.476 182.388 108.12 182.036L102.64 176.636C102.283 176.285 102.283 175.715 102.64 175.363L108.12 169.963C108.476 169.612 109.054 169.612 109.411 169.963C109.768 170.315 109.768 170.885 109.411 171.236L105.49 175.1L116.072 175.1C116.576 175.1 116.985 175.503 116.985 176C116.985 176.497 116.576 176.9 116.072 176.9H105.49L109.411 180.763C109.768 181.115 109.768 181.685 109.411 182.036Z" fill="white"/>
<path d="M137.857 29C137.857 43.8841 125.605 56 110.429 56C95.2525 56 83 43.8841 83 29C83 14.1159 95.2525 2 110.429 2C125.605 2 137.857 14.1159 137.857 29Z" fill="#4F008D" stroke="white" stroke-width="4"/>
<path d="M103.12 17C99.2966 17 98.1201 18.1765 98.1201 22C98.1201 25.8235 99.2966 27 103.12 27C106.944 27 108.12 25.8235 108.12 22C108.12 18.1765 106.944 17 103.12 17Z" stroke="white" stroke-width="2" stroke-linecap="round" stroke-linejoin="round"/>
<path d="M103.12 31C99.2966 31 98.1201 32.1765 98.1201 36C98.1201 39.8235 99.2966 41 103.12 41C106.944 41 108.12 39.8235 108.12 36C108.12 32.1765 106.944 31 103.12 31Z" stroke="white" stroke-width="2" stroke-linecap="round" stroke-linejoin="round"/>
<path d="M117.12 31C113.297 31 112.12 32.1765 112.12 36C112.12 39.8235 113.297 41 117.12 41C120.944 41 122.12 39.8235 122.12 36C122.12 32.1765 120.944 31 117.12 31Z" stroke="white" stroke-width="2" stroke-linecap="round" stroke-linejoin="round"/>
<path d="M117.12 17C113.297 17 112.12 18.1765 112.12 22C112.12 25.8235 113.297 27 117.12 27C120.944 27 122.12 25.8235 122.12 22C122.12 18.1765 120.944 17 117.12 17Z" stroke="white" stroke-width="2" stroke-linecap="round" stroke-linejoin="round"/>
<defs>
<filter id="filter0_d_1926_4212" x="0" y="13" width="221" height="186" filterUnits="userSpaceOnUse" color-interpolation-filters="sRGB">
<feFlood flood-opacity="0" result="BackgroundImageFix"/>
<feColorMatrix in="SourceAlpha" type="matrix" values="0 0 0 0 0 0 0 0 0 0 0 0 0 0 0 0 0 0 127 0" result="hardAlpha"/>
<feOffset dy="4"/>
<feGaussianBlur stdDeviation="8"/>
<feComposite in2="hardAlpha" operator="out"/>
<feColorMatrix type="matrix" values="0 0 0 0 0 0 0 0 0 0 0 0 0 0 0 0 0 0 0.08 0"/>
<feBlend mode="normal" in2="BackgroundImageFix" result="effect1_dropShadow_1926_4212"/>
<feBlend mode="normal" in="SourceGraphic" in2="effect1_dropShadow_1926_4212" result="shape"/>
</filter>
</defs>
</svg>
