<svg xmlns="http://www.w3.org/2000/svg" width="285.46" height="1066.155" viewBox="0 0 285.46 1066.155">
    <path data-name="Path 17908" d="M558.96 1065.655V947.447a100.634 100.634 0 0 0-100.635-100.634h-89.72a75.105 75.105 0 0 1-75.105-75.106 75.105 75.105 0 0 1 75.106-75.107h63.451a32.8 32.8 0 0 0 32.8-32.8 32.8 32.8 0 0 1 32.8-32.8h20.719a32.8 32.8 0 0 0 32.8-32.8V491.263a89.473 89.473 0 0 0-89.473-89.473h-7.091a89.473 89.473 0 0 1-89.473-89.473V-.5" transform="translate(-283.5 .5)" style="fill:none;stroke:#115614;stroke-miterlimit:10;stroke-width:20px"/>
</svg>
