<svg xmlns="http://www.w3.org/2000/svg" width="15.748" height="14" viewBox="0 0 15.748 14">
    <path data-name="Path 6208" d="M.695-10.319-7.025-2.6a.438.438 0 0 0-.12.224l-.72 3.6a.438.438 0 0 0 .515.515l3.6-.721A.438.438 0 0 0-3.525.9l7.719-7.72-3.5-3.5zm5.044 1.955a1.314 1.314 0 0 0 0-1.857L4.1-11.865a1.314 1.314 0 0 0-1.858 0L.693-10.319l3.475 3.5zM7.219.438h-8.313a.655.655 0 0 0-.656.656.655.655 0 0 0 .656.656h8.313a.656.656 0 0 0 0-1.312z" transform="translate(7.873 12.25)" style="fill:#0361e3"/>
</svg>
