<svg xmlns="http://www.w3.org/2000/svg" width="47" height="47" viewBox="0 0 47 47">
    <g data-name="Group 9127" transform="translate(-353 -381)">
        <circle data-name="Ellipse 61" cx="23.5" cy="23.5" r="23.5" transform="translate(353 381)" style="fill:#e6e6e6"/>
        <path data-name="Path 6214" d="M-17.106-16.631a6.249 6.249 0 0 1 6.169-5.244 6.167 6.167 0 0 1 6.011 4.688h-1.715a3.117 3.117 0 0 1-2.642-1.457 4.747 4.747 0 0 1-4 2.238h-2.734a2.8 2.8 0 0 1-1.089-.225zm5.441 12.295-1.616-2.7h4.688l-1.616 2.7 1.626 6.05 1.929-7.871A7.878 7.878 0 0 1 0 1.626a1.5 1.5 0 0 1-1.5 1.5h-18.875a1.5 1.5 0 0 1-1.5-1.5 7.878 7.878 0 0 1 6.655-7.783l1.929 7.871zm2.383-14.309a3.116 3.116 0 0 0 2.642 1.457h1.714a4.62 4.62 0 0 1 .239 1.563 6.25 6.25 0 0 1-6.25 6.25 6.25 6.25 0 0 1-6.25-6.25 5.93 5.93 0 0 1 .081-1.006 2.719 2.719 0 0 0 1.091.225h2.734a4.747 4.747 0 0 0 4-2.238z" transform="translate(387 413)" style="fill:#bbb"/>
    </g>
</svg>
