<svg xmlns="http://www.w3.org/2000/svg" width="20" height="20" viewBox="0 0 20 20">
    <path data-name="Path 6232" d="m1.07 12.914 3.977-1.705a1.785 1.785 0 0 1 2.061.511L8.4 13.3a12.29 12.29 0 0 0 4.9-4.894l-1.583-1.3a1.759 1.759 0 0 1-.5-2.064l1.7-3.977a1.776 1.776 0 0 1 2.02-1.02L18.626.9A1.757 1.757 0 0 1 20 2.622 17.4 17.4 0 0 1 2.621 20 1.762 1.762 0 0 1 .9 18.628l-.852-3.69a1.777 1.777 0 0 1 1.022-2.024zm1.043 5.434a.525.525 0 0 0 .507.4A16.146 16.146 0 0 0 18.749 2.621a.515.515 0 0 0-.4-.5l-3.688-.856a.51.51 0 0 0-.117-.013.522.522 0 0 0-.482.311l-1.7 3.973a.523.523 0 0 0 .148.609l1.97 1.617a.624.624 0 0 1 .164.758 13.53 13.53 0 0 1-6.129 6.129.624.624 0 0 1-.759-.165l-1.617-1.973a.527.527 0 0 0-.605-.15l-3.969 1.7a.522.522 0 0 0-.3.595z"/>
</svg>
