<svg data-name="empty (2)" xmlns="http://www.w3.org/2000/svg" width="66" height="66" viewBox="0 0 66 66">
    <path data-name="Path 6084" d="M53.625 66h-41.25A12.374 12.374 0 0 1 0 53.625v-41.25A12.374 12.374 0 0 1 12.375 0h41.25A12.374 12.374 0 0 1 66 12.375v41.25A12.374 12.374 0 0 1 53.625 66z" style="fill:#dce6f3"/>
    <path data-name="Path 6085" d="m40.874 23.538-5.449-11.807a4.136 4.136 0 0 0-3.746-2.4H17.325a4.134 4.134 0 0 0-3.745 2.4L8.128 23.538a1.354 1.354 0 0 0-.128.576v8.594a4.129 4.129 0 0 0 4.125 4.125h24.75A4.129 4.129 0 0 0 41 32.708v-8.594a1.383 1.383 0 0 0-.126-.576zm-24.8-10.657a1.378 1.378 0 0 1 1.248-.8h14.355a1.378 1.378 0 0 1 1.248.8l4.709 10.2H34.8a2.39 2.39 0 0 0-2.3 1.719l-1.475 4.915a.341.341 0 0 1-.33.245H18.3a.345.345 0 0 1-.33-.245L16.5 24.8a2.385 2.385 0 0 0-2.3-1.716h-2.83z" transform="translate(8.5 9.917)" style="fill:#0361e3"/>
</svg>
