<svg xmlns="http://www.w3.org/2000/svg" width="17.446" height="18" viewBox="0 0 17.446 18">
    <path data-name="Path 6180" d="M8.722-4.672a.874.874 0 0 0-.435-.752l-1.156-.667a5.782 5.782 0 0 0 .034-.659 6.93 6.93 0 0 0-.034-.69l1.157-.667a.874.874 0 0 0 .435-.752c0-.748-1.734-4.507-2.971-4.507a.858.858 0 0 0-.435.118l-1.152.667a6.859 6.859 0 0 0-1.2-.694v-1.333a.865.865 0 0 0-.644-.84A9.013 9.013 0 0 0 0-15.75a9.06 9.06 0 0 0-2.324.3.866.866 0 0 0-.643.839v1.334a6.863 6.863 0 0 0-1.2.694l-1.152-.667a.857.857 0 0 0-.435-.118c-1.141 0-2.971 3.575-2.971 4.507a.874.874 0 0 0 .435.752l1.157.667a6.895 6.895 0 0 0 0 1.379l-1.157.667a.858.858 0 0 0-.435.721c0 .748 1.734 4.507 2.971 4.507a.858.858 0 0 0 .435-.118l1.154-.664a6.859 6.859 0 0 0 1.2.694v1.334a.865.865 0 0 0 .644.84 7.888 7.888 0 0 0 2.289.332 9.047 9.047 0 0 0 2.323-.3.865.865 0 0 0 .644-.84V-.226a6.863 6.863 0 0 0 1.2-.694l1.152.667a.857.857 0 0 0 .435.118c1.173 0 3-3.577 3-4.537zM5.6-2.071l-1.538-.888a9.52 9.52 0 0 1-2.783 1.614V.421A7.386 7.386 0 0 1 0 .533 7.345 7.345 0 0 1-1.281.421v-1.766a9.509 9.509 0 0 1-2.783-1.614l-1.536.888A7.3 7.3 0 0 1-6.878-4.29l1.5-.854c-.06-.9-.105-1.252-.105-1.607s.045-.706.134-1.609l-1.531-.88a7.3 7.3 0 0 1 1.28-2.221l1.535.888a9.52 9.52 0 0 1 2.785-1.613v-1.764A7.386 7.386 0 0 1 0-14.062a7.345 7.345 0 0 1 1.278.112v1.766a9.509 9.509 0 0 1 2.783 1.613l1.539-.888A7.288 7.288 0 0 1 6.877-9.24l-1.533.884c.089.9.134 1.253.134 1.606s-.045.706-.134 1.609l1.532.883A6.789 6.789 0 0 1 5.6-2.071zM0-10.157a3.382 3.382 0 0 0-3.375 3.375A3.381 3.381 0 0 0 0-3.407a3.381 3.381 0 0 0 3.375-3.375A3.381 3.381 0 0 0 0-10.157zm0 5.095A1.688 1.688 0 0 1-1.687-6.75 1.688 1.688 0 0 1 0-8.437 1.689 1.689 0 0 1 1.688-6.75 1.689 1.689 0 0 1 0-5.062z" transform="translate(8.724 15.75)" style="fill:#626b7e"/>
</svg>
