<svg xmlns="http://www.w3.org/2000/svg" width="17.5" height="17.5" viewBox="0 0 17.5 17.5">
    <path data-name="Path 6213" d="M14.375 11.25a3.108 3.108 0 0 0-2.447 1.2l-5.83-2.9a2.221 2.221 0 0 0 .152-.8 2.091 2.091 0 0 0-.152-.8l5.8-2.9a3.229 3.229 0 0 0 2.477 1.2A3.124 3.124 0 0 0 17.5 3.125 3.124 3.124 0 0 0 14.375 0a3.125 3.125 0 0 0-3.125 3.125 3.093 3.093 0 0 0 .118.8l-5.8 2.9a3.157 3.157 0 0 0-2.445-1.2A3.125 3.125 0 0 0 0 8.75a3.125 3.125 0 0 0 3.125 3.125 3.108 3.108 0 0 0 2.447-1.2l5.8 2.9a2.973 2.973 0 0 0-.119.8 3.125 3.125 0 0 0 3.122 3.125 3.125 3.125 0 0 0 3.125-3.125 3.125 3.125 0 0 0-3.125-3.125zm0-10a1.876 1.876 0 0 1 1.875 1.875A1.876 1.876 0 0 1 14.375 5 1.875 1.875 0 0 1 12.5 3.125a1.875 1.875 0 0 1 1.875-1.875zm-11.25 9.375A1.876 1.876 0 0 1 1.25 8.75a1.876 1.876 0 0 1 1.875-1.875A1.876 1.876 0 0 1 5 8.75a1.875 1.875 0 0 1-1.875 1.875zm11.25 5.625a1.877 1.877 0 0 1-1.875-1.875 1.877 1.877 0 0 1 1.875-1.875 1.877 1.877 0 0 1 1.875 1.875 1.876 1.876 0 0 1-1.875 1.875z"/>
</svg>
