<svg width="18" height="18" viewBox="0 0 18 18" fill="none" xmlns="http://www.w3.org/2000/svg">
<path d="M9.00005 1.80005C9.49711 1.80005 9.90005 2.20299 9.90005 2.70005V3.60005C9.90005 4.09711 9.49711 4.50005 9.00005 4.50005C8.50299 4.50005 8.10005 4.09711 8.10005 3.60005V2.70005C8.10005 2.20299 8.50299 1.80005 9.00005 1.80005Z" fill="white"/>
<path d="M12.6 9.00005C12.6 10.9883 10.9883 12.6 9.00005 12.6C7.01182 12.6 5.40005 10.9883 5.40005 9.00005C5.40005 7.01182 7.01182 5.40005 9.00005 5.40005C10.9883 5.40005 12.6 7.01182 12.6 9.00005Z" fill="white"/>
<path d="M12.1821 13.4548L12.8185 14.0912C13.1699 14.4427 13.7398 14.4427 14.0913 14.0912C14.4427 13.7397 14.4427 13.1699 14.0913 12.8184L13.4549 12.182C13.1034 11.8305 12.5335 11.8305 12.1821 12.182C11.8306 12.5335 11.8306 13.1033 12.1821 13.4548Z" fill="white"/>
<path d="M14.0912 3.90883C14.4427 4.2603 14.4427 4.83015 14.0912 5.18162L13.4548 5.81802C13.1033 6.16949 12.5335 6.16949 12.182 5.81802C11.8305 5.46655 11.8305 4.8967 12.182 4.54523L12.8184 3.90883C13.1699 3.55736 13.7397 3.55736 14.0912 3.90883Z" fill="white"/>
<path d="M15.3 9.90005C15.7971 9.90005 16.2 9.49711 16.2 9.00005C16.2 8.50299 15.7971 8.10005 15.3 8.10005H14.4C13.903 8.10005 13.5 8.50299 13.5 9.00005C13.5 9.49711 13.903 9.90005 14.4 9.90005H15.3Z" fill="white"/>
<path d="M9.00005 13.5C9.49711 13.5 9.90005 13.903 9.90005 14.4V15.3C9.90005 15.7971 9.49711 16.2 9.00005 16.2C8.50299 16.2 8.10005 15.7971 8.10005 15.3V14.4C8.10005 13.903 8.50299 13.5 9.00005 13.5Z" fill="white"/>
<path d="M4.54533 5.81804C4.8968 6.16951 5.46665 6.16951 5.81812 5.81804C6.16959 5.46657 6.16959 4.89672 5.81812 4.54524L5.18172 3.90885C4.83025 3.55738 4.2604 3.55738 3.90893 3.90885C3.55746 4.26032 3.55746 4.83017 3.90893 5.18164L4.54533 5.81804Z" fill="white"/>
<path d="M5.81804 13.4548L5.18164 14.0912C4.83017 14.4426 4.26032 14.4426 3.90885 14.0912C3.55738 13.7397 3.55738 13.1698 3.90885 12.8184L4.54524 12.182C4.89672 11.8305 5.46657 11.8305 5.81804 12.182C6.16951 12.5335 6.16951 13.1033 5.81804 13.4548Z" fill="white"/>
<path d="M3.60005 9.90005C4.09711 9.90005 4.50005 9.49711 4.50005 9.00005C4.50005 8.50299 4.09711 8.10005 3.60005 8.10005H2.70005C2.20299 8.10005 1.80005 8.50299 1.80005 9.00005C1.80005 9.49711 2.20299 9.90005 2.70005 9.90005H3.60005Z" fill="white"/>
</svg>
