<svg xmlns="http://www.w3.org/2000/svg" width="32" height="32" viewBox="0 0 32 32">
    <g data-name="Group 9194">
        <path data-name="Path 6130" d="M30.711 9.854a16.629 16.629 0 0 0-8.565-8.565 15.3 15.3 0 0 0-12.292 0 16.629 16.629 0 0 0-8.565 8.565 15.3 15.3 0 0 0 0 12.292 16.629 16.629 0 0 0 8.565 8.565 15.3 15.3 0 0 0 12.292 0 16.629 16.629 0 0 0 8.565-8.565 15.3 15.3 0 0 0 0-12.292zM16 30.75A14.948 14.948 0 0 1 1.25 16 14.948 14.948 0 0 1 16 1.25 14.948 14.948 0 0 1 30.75 16 14.948 14.948 0 0 1 16 30.75z" style="fill:#fff"/>
        <path data-name="Path 6131" d="M68.561 51.175a13.673 13.673 0 0 0-7.111-7.111A12.924 12.924 0 0 0 56.313 43a13.21 13.21 0 0 0-7.247 2.374.625.625 0 0 0 .692 1.041 11.971 11.971 0 0 1 6.555-2.165A12.063 12.063 0 1 1 44.25 56.313a11.976 11.976 0 0 1 2.164-6.555.625.625 0 1 0-1.041-.692A13.215 13.215 0 0 0 43 56.313a12.925 12.925 0 0 0 1.064 5.137 13.674 13.674 0 0 0 7.111 7.111 12.933 12.933 0 0 0 10.274 0 13.673 13.673 0 0 0 7.111-7.111 12.933 12.933 0 0 0 0-10.275z" transform="translate(-40.312 -40.312)" style="fill:#fff"/>
        <path data-name="Path 6132" d="M105.625 105a.625.625 0 1 0 .625.625.625.625 0 0 0-.625-.625z" transform="translate(-98.437 -98.437)" style="fill:#fff"/>
        <path data-name="Path 10749" d="m-1.728-9.472-3.088 3.088-3.1-3.1-.848.848 3.1 3.1-3.1 3.1.848.848 3.1-3.1L-1.728-1.6l.848-.848-3.088-3.088L-.88-8.624z" transform="translate(21 22)" style="fill:#fff"/>
    </g>
</svg>
